<?xml version="1.0" standalone="no"?>
 <!DOCTYPE svg PUBLIC "-//W3C//DTD SVG 1.1//EN" 
 "http://www.w3.org/Graphics/SVG/1.1/DTD/svg11.dtd"> 
<svg
  xmlns:svg="http://www.w3.org/2000/svg"
  xmlns="http://www.w3.org/2000/svg"
  xmlns:xlink="http://www.w3.org/1999/xlink"
  xmlns:inkscape="http://www.inkscape.org/namespaces/inkscape"
  version="1.1"
  width="297.0022mm" height="210.0072mm" viewBox="0.0000 0.0000 297.0022 210.0072">
<title>SVG Image created as rc2014-ym2149-F_Cu_vias_2.svg date 2026-07-20T13:07:26 </title>
  <desc>Image generated by PCBNEW </desc>
<g style="fill:#000000; fill-opacity:1.0000;stroke:#000000; stroke-opacity:1.0000;
stroke-linecap:round; stroke-linejoin:round;"
 transform="translate(0 0) scale(1 1)">
</g>
<g style="fill:#000000; fill-opacity:1.0000; stroke:none;">
<circle cx="164.5500" cy="176.6664" r="0.0000" /> 
<circle cx="41.0257" cy="106.6921" r="0.0000" /> 
</g>
<g style="fill:#FFFFFF; fill-opacity:1.0000; stroke:none;">
<circle cx="98.5447" cy="148.2069" r="-0.0000" /> 
<circle cx="107.0000" cy="139.1000" r="-0.0000" /> 
<circle cx="111.1000" cy="136.8000" r="-0.0000" /> 
</g>
<g style="fill:#000000; fill-opacity:1.0000; stroke:none;">
<circle cx="90.5500" cy="159.4000" r="-0.0000" /> 
<circle cx="88.0500" cy="159.4000" r="-0.0000" /> 
<circle cx="82.0500" cy="159.4000" r="-0.0000" /> 
<circle cx="84.5500" cy="159.4000" r="-0.0000" /> 
<circle cx="67.4700" cy="159.6000" r="-0.0000" /> 
<circle cx="69.9700" cy="159.6000" r="-0.0000" /> 
<circle cx="103.9000" cy="159.6500" r="-0.0000" /> 
<circle cx="106.4000" cy="159.6500" r="-0.0000" /> 
<circle cx="94.0600" cy="138.7000" r="-0.0000" /> 
<circle cx="96.6000" cy="138.7000" r="-0.0000" /> 
<circle cx="99.1400" cy="138.7000" r="-0.0000" /> 
<circle cx="79.0000" cy="149.3200" r="-0.0000" /> 
<circle cx="79.0000" cy="151.8600" r="-0.0000" /> 
<circle cx="79.0000" cy="154.4000" r="-0.0000" /> 
<circle cx="79.0000" cy="139.1000" r="-0.0000" /> 
<circle cx="79.0000" cy="141.6400" r="-0.0000" /> 
<circle cx="79.0000" cy="144.1800" r="-0.0000" /> 
<circle cx="94.1000" cy="135.0000" r="-0.0000" /> 
<circle cx="96.6400" cy="135.0000" r="-0.0000" /> 
<circle cx="99.1800" cy="135.0000" r="-0.0000" /> 
<circle cx="75.4600" cy="156.4000" r="-0.0000" /> 
<circle cx="75.4600" cy="153.8600" r="-0.0000" /> 
<circle cx="75.4600" cy="151.3200" r="-0.0000" /> 
<circle cx="75.4600" cy="148.7800" r="-0.0000" /> 
<circle cx="75.4600" cy="146.2400" r="-0.0000" /> 
<circle cx="75.4600" cy="143.7000" r="-0.0000" /> 
<circle cx="75.4600" cy="141.1600" r="-0.0000" /> 
<circle cx="75.4600" cy="138.6200" r="-0.0000" /> 
<circle cx="67.8400" cy="138.6200" r="-0.0000" /> 
<circle cx="67.8400" cy="141.1600" r="-0.0000" /> 
<circle cx="67.8400" cy="143.7000" r="-0.0000" /> 
<circle cx="67.8400" cy="146.2400" r="-0.0000" /> 
<circle cx="67.8400" cy="148.7800" r="-0.0000" /> 
<circle cx="67.8400" cy="151.3200" r="-0.0000" /> 
<circle cx="67.8400" cy="153.8600" r="-0.0000" /> 
<circle cx="67.8400" cy="156.4000" r="-0.0000" /> 
<circle cx="90.1100" cy="156.0900" r="-0.0000" /> 
<circle cx="90.1100" cy="153.5500" r="-0.0000" /> 
<circle cx="90.1100" cy="151.0100" r="-0.0000" /> 
<circle cx="90.1100" cy="148.4700" r="-0.0000" /> 
<circle cx="90.1100" cy="145.9300" r="-0.0000" /> 
<circle cx="90.1100" cy="143.3900" r="-0.0000" /> 
<circle cx="90.1100" cy="140.8500" r="-0.0000" /> 
<circle cx="90.1100" cy="138.3100" r="-0.0000" /> 
<circle cx="82.4900" cy="138.3100" r="-0.0000" /> 
<circle cx="82.4900" cy="140.8500" r="-0.0000" /> 
<circle cx="82.4900" cy="143.3900" r="-0.0000" /> 
<circle cx="82.4900" cy="145.9300" r="-0.0000" /> 
<circle cx="82.4900" cy="148.4700" r="-0.0000" /> 
<circle cx="82.4900" cy="151.0100" r="-0.0000" /> 
<circle cx="82.4900" cy="153.5500" r="-0.0000" /> 
<circle cx="82.4900" cy="156.0900" r="-0.0000" /> 
<circle cx="101.0100" cy="157.4650" r="-0.0000" /> 
<circle cx="101.0100" cy="154.9250" r="-0.0000" /> 
<circle cx="101.0100" cy="152.3850" r="-0.0000" /> 
<circle cx="101.0100" cy="149.8450" r="-0.0000" /> 
<circle cx="101.0100" cy="147.3050" r="-0.0000" /> 
<circle cx="101.0100" cy="144.7650" r="-0.0000" /> 
<circle cx="101.0100" cy="142.2250" r="-0.0000" /> 
<circle cx="93.3900" cy="142.2250" r="-0.0000" /> 
<circle cx="93.3900" cy="144.7650" r="-0.0000" /> 
<circle cx="93.3900" cy="147.3050" r="-0.0000" /> 
<circle cx="93.3900" cy="149.8450" r="-0.0000" /> 
<circle cx="93.3900" cy="152.3850" r="-0.0000" /> 
<circle cx="93.3900" cy="154.9250" r="-0.0000" /> 
<circle cx="93.3900" cy="157.4650" r="-0.0000" /> 
<circle cx="104.4100" cy="156.5500" r="-0.0000" /> 
<circle cx="106.9500" cy="156.5500" r="-0.0000" /> 
<circle cx="109.4900" cy="156.5500" r="-0.0000" /> 
<circle cx="112.0300" cy="156.5500" r="-0.0000" /> 
<circle cx="114.5700" cy="156.5500" r="-0.0000" /> 
<circle cx="117.1100" cy="156.5500" r="-0.0000" /> 
<circle cx="119.6500" cy="156.5500" r="-0.0000" /> 
<circle cx="122.1900" cy="156.5500" r="-0.0000" /> 
<circle cx="124.7300" cy="156.5500" r="-0.0000" /> 
<circle cx="127.2700" cy="156.5500" r="-0.0000" /> 
<circle cx="129.8100" cy="156.5500" r="-0.0000" /> 
<circle cx="132.3500" cy="156.5500" r="-0.0000" /> 
<circle cx="134.8900" cy="156.5500" r="-0.0000" /> 
<circle cx="137.4300" cy="156.5500" r="-0.0000" /> 
<circle cx="139.9700" cy="156.5500" r="-0.0000" /> 
<circle cx="142.5100" cy="156.5500" r="-0.0000" /> 
<circle cx="145.0500" cy="156.5500" r="-0.0000" /> 
<circle cx="147.5900" cy="156.5500" r="-0.0000" /> 
<circle cx="150.1300" cy="156.5500" r="-0.0000" /> 
<circle cx="152.6700" cy="156.5500" r="-0.0000" /> 
<circle cx="152.6700" cy="141.3100" r="-0.0000" /> 
<circle cx="150.1300" cy="141.3100" r="-0.0000" /> 
<circle cx="147.5900" cy="141.3100" r="-0.0000" /> 
<circle cx="145.0500" cy="141.3100" r="-0.0000" /> 
<circle cx="142.5100" cy="141.3100" r="-0.0000" /> 
<circle cx="139.9700" cy="141.3100" r="-0.0000" /> 
<circle cx="137.4300" cy="141.3100" r="-0.0000" /> 
<circle cx="134.8900" cy="141.3100" r="-0.0000" /> 
<circle cx="132.3500" cy="141.3100" r="-0.0000" /> 
<circle cx="129.8100" cy="141.3100" r="-0.0000" /> 
<circle cx="127.2700" cy="141.3100" r="-0.0000" /> 
<circle cx="124.7300" cy="141.3100" r="-0.0000" /> 
<circle cx="122.1900" cy="141.3100" r="-0.0000" /> 
<circle cx="119.6500" cy="141.3100" r="-0.0000" /> 
<circle cx="117.1100" cy="141.3100" r="-0.0000" /> 
<circle cx="114.5700" cy="141.3100" r="-0.0000" /> 
<circle cx="112.0300" cy="141.3100" r="-0.0000" /> 
<circle cx="109.4900" cy="141.3100" r="-0.0000" /> 
<circle cx="106.9500" cy="141.3100" r="-0.0000" /> 
<circle cx="104.4100" cy="141.3100" r="-0.0000" /> 
<circle cx="64.5300" cy="157.3800" r="-0.0000" /> 
<circle cx="61.9900" cy="157.3800" r="-0.0000" /> 
<circle cx="64.5300" cy="154.8400" r="-0.0000" /> 
<circle cx="61.9900" cy="154.8400" r="-0.0000" /> 
<circle cx="64.5300" cy="152.3000" r="-0.0000" /> 
<circle cx="61.9900" cy="152.3000" r="-0.0000" /> 
<circle cx="64.5300" cy="149.7600" r="-0.0000" /> 
<circle cx="61.9900" cy="149.7600" r="-0.0000" /> 
<circle cx="64.5300" cy="147.2200" r="-0.0000" /> 
<circle cx="61.9900" cy="147.2200" r="-0.0000" /> 
<circle cx="64.5300" cy="144.6800" r="-0.0000" /> 
<circle cx="61.9900" cy="144.6800" r="-0.0000" /> 
<circle cx="64.5300" cy="142.1400" r="-0.0000" /> 
<circle cx="61.9900" cy="142.1400" r="-0.0000" /> 
<circle cx="64.5300" cy="139.6000" r="-0.0000" /> 
<circle cx="61.9900" cy="139.6000" r="-0.0000" /> 
<circle cx="64.5300" cy="137.0600" r="-0.0000" /> 
<circle cx="61.9900" cy="137.0600" r="-0.0000" /> 
<circle cx="150.1250" cy="137.7000" r="-0.0000" /> 
<circle cx="147.5850" cy="137.7000" r="-0.0000" /> 
<circle cx="65.5320" cy="131.3820" r="-0.0000" /> 
<circle cx="62.0000" cy="163.0000" r="-0.0000" /> 
<circle cx="64.5400" cy="163.0000" r="-0.0000" /> 
<circle cx="67.0800" cy="163.0000" r="-0.0000" /> 
<circle cx="69.6200" cy="163.0000" r="-0.0000" /> 
<circle cx="72.1600" cy="163.0000" r="-0.0000" /> 
<circle cx="74.7000" cy="163.0000" r="-0.0000" /> 
<circle cx="77.2400" cy="163.0000" r="-0.0000" /> 
<circle cx="79.7800" cy="163.0000" r="-0.0000" /> 
<circle cx="82.3200" cy="163.0000" r="-0.0000" /> 
<circle cx="84.8600" cy="163.0000" r="-0.0000" /> 
<circle cx="87.4000" cy="163.0000" r="-0.0000" /> 
<circle cx="89.9400" cy="163.0000" r="-0.0000" /> 
<circle cx="92.4800" cy="163.0000" r="-0.0000" /> 
<circle cx="95.0200" cy="163.0000" r="-0.0000" /> 
<circle cx="97.5600" cy="163.0000" r="-0.0000" /> 
<circle cx="100.1000" cy="163.0000" r="-0.0000" /> 
<circle cx="102.6400" cy="163.0000" r="-0.0000" /> 
<circle cx="105.1800" cy="163.0000" r="-0.0000" /> 
<circle cx="107.7200" cy="163.0000" r="-0.0000" /> 
<circle cx="110.2600" cy="163.0000" r="-0.0000" /> 
<circle cx="112.8000" cy="163.0000" r="-0.0000" /> 
<circle cx="115.3400" cy="163.0000" r="-0.0000" /> 
<circle cx="117.8800" cy="163.0000" r="-0.0000" /> 
<circle cx="120.4200" cy="163.0000" r="-0.0000" /> 
<circle cx="122.9600" cy="163.0000" r="-0.0000" /> 
<circle cx="125.5000" cy="163.0000" r="-0.0000" /> 
<circle cx="128.0400" cy="163.0000" r="-0.0000" /> 
<circle cx="130.5800" cy="163.0000" r="-0.0000" /> 
<circle cx="133.1200" cy="163.0000" r="-0.0000" /> 
<circle cx="135.6600" cy="163.0000" r="-0.0000" /> 
<circle cx="138.2000" cy="163.0000" r="-0.0000" /> 
<circle cx="140.7400" cy="163.0000" r="-0.0000" /> 
<circle cx="143.2800" cy="163.0000" r="-0.0000" /> 
<circle cx="145.8200" cy="163.0000" r="-0.0000" /> 
<circle cx="148.3600" cy="163.0000" r="-0.0000" /> 
<circle cx="150.9000" cy="163.0000" r="-0.0000" /> 
<circle cx="153.4400" cy="163.0000" r="-0.0000" /> 
<circle cx="155.9800" cy="163.0000" r="-0.0000" /> 
<circle cx="158.5200" cy="163.0000" r="-0.0000" /> 
<circle cx="150.1000" cy="121.2000" r="-0.0000" /> 
<circle cx="150.1000" cy="131.2000" r="-0.0000" /> 
<circle cx="152.6000" cy="121.2000" r="-0.0000" /> 
<circle cx="152.6000" cy="131.2000" r="-0.0000" /> 
<circle cx="157.6000" cy="126.2000" r="-0.0000" /> 
</g>
<g style="fill:#000000; fill-opacity:1.0000; stroke:none;">
<circle cx="157.6000" cy="121.2000" r="0.0106" /> 
</g>
<g style="fill:#000000; fill-opacity:1.0000; stroke:none;">
<circle cx="157.6000" cy="123.7000" r="0.0106" /> 
</g>
<g style="fill:#000000; fill-opacity:1.0000; stroke:none;">
<circle cx="152.6000" cy="126.2000" r="0.0106" /> 
</g>
<g style="fill:#000000; fill-opacity:1.0000; stroke:none;">
<circle cx="157.6000" cy="131.2000" r="0.0106" /> 
</g>
<g style="fill:#000000; fill-opacity:1.0000; stroke:none;">
<circle cx="157.6000" cy="128.7000" r="0.0106" /> 
<circle cx="114.2600" cy="118.4000" r="-0.0000" /> 
<circle cx="116.8000" cy="115.8600" r="-0.0000" /> 
<circle cx="119.3400" cy="118.4000" r="-0.0000" /> 
<circle cx="140.3274" cy="132.5000" r="-0.0000" /> 
<circle cx="142.3274" cy="132.5000" r="-0.0000" /> 
<circle cx="89.0100" cy="131.4150" r="-0.0000" /> 
<circle cx="89.0100" cy="128.8750" r="-0.0000" /> 
<circle cx="89.0100" cy="126.3350" r="-0.0000" /> 
<circle cx="89.0100" cy="123.7950" r="-0.0000" /> 
<circle cx="89.0100" cy="121.2550" r="-0.0000" /> 
<circle cx="89.0100" cy="118.7150" r="-0.0000" /> 
<circle cx="89.0100" cy="116.1750" r="-0.0000" /> 
<circle cx="81.3900" cy="116.1750" r="-0.0000" /> 
<circle cx="81.3900" cy="118.7150" r="-0.0000" /> 
<circle cx="81.3900" cy="121.2550" r="-0.0000" /> 
<circle cx="81.3900" cy="123.7950" r="-0.0000" /> 
<circle cx="81.3900" cy="126.3350" r="-0.0000" /> 
<circle cx="81.3900" cy="128.8750" r="-0.0000" /> 
<circle cx="81.3900" cy="131.4150" r="-0.0000" /> 
<circle cx="136.4900" cy="128.5100" r="-0.0000" /> 
<circle cx="139.0300" cy="128.5100" r="-0.0000" /> 
<circle cx="141.5700" cy="128.5100" r="-0.0000" /> 
<circle cx="144.1100" cy="128.5100" r="-0.0000" /> 
<circle cx="144.1100" cy="120.8900" r="-0.0000" /> 
<circle cx="141.5700" cy="120.8900" r="-0.0000" /> 
<circle cx="139.0300" cy="120.8900" r="-0.0000" /> 
<circle cx="136.4900" cy="120.8900" r="-0.0000" /> 
<circle cx="116.8600" cy="131.3500" r="-0.0000" /> 
<circle cx="109.2400" cy="131.3500" r="-0.0000" /> 
<circle cx="145.3000" cy="134.2000" r="-0.0000" /> 
<circle cx="152.9200" cy="134.2000" r="-0.0000" /> 
<circle cx="126.6500" cy="125.1500" r="-0.0000" /> 
<circle cx="119.0300" cy="125.1500" r="-0.0000" /> 
<circle cx="137.0000" cy="132.2000" r="-0.0000" /> 
<circle cx="129.3800" cy="132.2000" r="-0.0000" /> 
<circle cx="140.3274" cy="137.2000" r="-0.0000" /> 
<circle cx="142.3274" cy="137.2000" r="-0.0000" /> 
<circle cx="75.7500" cy="130.5000" r="-0.0000" /> 
<circle cx="78.2500" cy="130.5000" r="-0.0000" /> 
<circle cx="150.4900" cy="117.5500" r="-0.0000" /> 
<circle cx="158.1100" cy="117.5500" r="-0.0000" /> 
<circle cx="126.6600" cy="131.3500" r="-0.0000" /> 
<circle cx="119.0400" cy="131.3500" r="-0.0000" /> 
<circle cx="89.3000" cy="134.8000" r="-0.0000" /> 
<circle cx="86.8000" cy="134.8000" r="-0.0000" /> 
<circle cx="131.1000" cy="122.6000" r="-0.0000" /> 
<circle cx="133.1000" cy="122.6000" r="-0.0000" /> 
<circle cx="78.0000" cy="134.5000" r="-0.0000" /> 
<circle cx="70.3800" cy="134.5000" r="-0.0000" /> 
<circle cx="126.6500" cy="122.0500" r="-0.0000" /> 
<circle cx="119.0300" cy="122.0500" r="-0.0000" /> 
<circle cx="156.1000" cy="136.9600" r="-0.0000" /> 
<circle cx="158.6400" cy="136.9600" r="-0.0000" /> 
<circle cx="156.1000" cy="139.5000" r="-0.0000" /> 
<circle cx="158.6400" cy="139.5000" r="-0.0000" /> 
<circle cx="156.1000" cy="142.0400" r="-0.0000" /> 
<circle cx="158.6400" cy="142.0400" r="-0.0000" /> 
<circle cx="156.1000" cy="144.5800" r="-0.0000" /> 
<circle cx="158.6400" cy="144.5800" r="-0.0000" /> 
<circle cx="156.1000" cy="147.1200" r="-0.0000" /> 
<circle cx="158.6400" cy="147.1200" r="-0.0000" /> 
<circle cx="156.1000" cy="149.6600" r="-0.0000" /> 
<circle cx="158.6400" cy="149.6600" r="-0.0000" /> 
<circle cx="156.1000" cy="152.2000" r="-0.0000" /> 
<circle cx="158.6400" cy="152.2000" r="-0.0000" /> 
<circle cx="156.1000" cy="154.7400" r="-0.0000" /> 
<circle cx="158.6400" cy="154.7400" r="-0.0000" /> 
<circle cx="156.1000" cy="157.2800" r="-0.0000" /> 
<circle cx="158.6400" cy="157.2800" r="-0.0000" /> 
<circle cx="100.0100" cy="131.4150" r="-0.0000" /> 
<circle cx="100.0100" cy="128.8750" r="-0.0000" /> 
<circle cx="100.0100" cy="126.3350" r="-0.0000" /> 
<circle cx="100.0100" cy="123.7950" r="-0.0000" /> 
<circle cx="100.0100" cy="121.2550" r="-0.0000" /> 
<circle cx="100.0100" cy="118.7150" r="-0.0000" /> 
<circle cx="100.0100" cy="116.1750" r="-0.0000" /> 
<circle cx="92.3900" cy="116.1750" r="-0.0000" /> 
<circle cx="92.3900" cy="118.7150" r="-0.0000" /> 
<circle cx="92.3900" cy="121.2550" r="-0.0000" /> 
<circle cx="92.3900" cy="123.7950" r="-0.0000" /> 
<circle cx="92.3900" cy="126.3350" r="-0.0000" /> 
<circle cx="92.3900" cy="128.8750" r="-0.0000" /> 
<circle cx="92.3900" cy="131.4150" r="-0.0000" /> 
<circle cx="81.0000" cy="134.8000" r="-0.0000" /> 
<circle cx="83.5000" cy="134.8000" r="-0.0000" /> 
<circle cx="77.9400" cy="120.4000" r="-0.0000" /> 
<circle cx="75.4000" cy="120.4000" r="-0.0000" /> 
<circle cx="72.8600" cy="120.4000" r="-0.0000" /> 
<circle cx="129.5000" cy="127.9000" r="-0.0000" /> 
<circle cx="131.5000" cy="127.9000" r="-0.0000" /> 
<circle cx="116.8700" cy="137.5500" r="-0.0000" /> 
<circle cx="109.2500" cy="137.5500" r="-0.0000" /> 
<circle cx="116.8600" cy="134.4500" r="-0.0000" /> 
<circle cx="109.2400" cy="134.4500" r="-0.0000" /> 
<circle cx="103.6000" cy="121.6800" r="-0.0000" /> 
<circle cx="106.1400" cy="121.6800" r="-0.0000" /> 
<circle cx="103.6000" cy="124.2200" r="-0.0000" /> 
<circle cx="106.1400" cy="124.2200" r="-0.0000" /> 
<circle cx="103.6000" cy="126.7600" r="-0.0000" /> 
<circle cx="106.1400" cy="126.7600" r="-0.0000" /> 
<circle cx="103.6000" cy="129.3000" r="-0.0000" /> 
<circle cx="106.1400" cy="129.3000" r="-0.0000" /> 
<circle cx="103.6000" cy="131.8400" r="-0.0000" /> 
<circle cx="106.1400" cy="131.8400" r="-0.0000" /> 
<circle cx="103.6000" cy="134.3800" r="-0.0000" /> 
<circle cx="106.1400" cy="134.3800" r="-0.0000" /> 
<circle cx="103.6000" cy="136.9200" r="-0.0000" /> 
<circle cx="106.1400" cy="136.9200" r="-0.0000" /> 
<circle cx="143.7100" cy="117.5500" r="-0.0000" /> 
<circle cx="136.0900" cy="117.5500" r="-0.0000" /> 
<circle cx="124.3000" cy="118.4000" r="-0.0000" /> 
<circle cx="126.8400" cy="115.8600" r="-0.0000" /> 
<circle cx="129.3800" cy="118.4000" r="-0.0000" /> 
<circle cx="146.0774" cy="117.3000" r="-0.0000" /> 
<circle cx="148.0774" cy="117.3000" r="-0.0000" /> 
<circle cx="116.8600" cy="122.0500" r="-0.0000" /> 
<circle cx="109.2400" cy="122.0500" r="-0.0000" /> 
<circle cx="137.0100" cy="138.2000" r="-0.0000" /> 
<circle cx="129.3900" cy="138.2000" r="-0.0000" /> 
<circle cx="126.6700" cy="137.5500" r="-0.0000" /> 
<circle cx="119.0500" cy="137.5500" r="-0.0000" /> 
<circle cx="126.6600" cy="134.4500" r="-0.0000" /> 
<circle cx="119.0400" cy="134.4500" r="-0.0000" /> 
<circle cx="126.6600" cy="128.2500" r="-0.0000" /> 
<circle cx="119.0400" cy="128.2500" r="-0.0000" /> 
<circle cx="116.8600" cy="125.1500" r="-0.0000" /> 
<circle cx="109.2400" cy="125.1500" r="-0.0000" /> 
<circle cx="75.7400" cy="125.4000" r="-0.0000" /> 
<circle cx="70.8600" cy="125.4000" r="-0.0000" /> 
<circle cx="116.8600" cy="128.2500" r="-0.0000" /> 
<circle cx="109.2400" cy="128.2500" r="-0.0000" /> 
<circle cx="70.2500" cy="130.5000" r="-0.0000" /> 
<circle cx="72.7500" cy="130.5000" r="-0.0000" /> 
<circle cx="133.4500" cy="115.7000" r="-0.0000" /> 
<circle cx="133.4500" cy="118.2000" r="-0.0000" /> 
<circle cx="137.0100" cy="135.2000" r="-0.0000" /> 
<circle cx="129.3900" cy="135.2000" r="-0.0000" /> 
<circle cx="104.2200" cy="118.4000" r="-0.0000" /> 
<circle cx="106.7600" cy="115.8600" r="-0.0000" /> 
<circle cx="109.3000" cy="118.4000" r="-0.0000" /> 
</g> 
</svg>
