<?xml version="1.0" standalone="no"?>
 <!DOCTYPE svg PUBLIC "-//W3C//DTD SVG 1.1//EN" 
 "http://www.w3.org/Graphics/SVG/1.1/DTD/svg11.dtd"> 
<svg
  xmlns:svg="http://www.w3.org/2000/svg"
  xmlns="http://www.w3.org/2000/svg"
  xmlns:xlink="http://www.w3.org/1999/xlink"
  xmlns:inkscape="http://www.inkscape.org/namespaces/inkscape"
  version="1.1"
  width="297.0022mm" height="210.0072mm" viewBox="0.0000 0.0000 297.0022 210.0072">
<title>SVG Image created as rc2014-ym2149-User_Comments.svg date 2026-07-20T20:28:31 </title>
  <desc>Image generated by PCBNEW </desc>
<g style="fill:#000000; fill-opacity:1.0000;stroke:#000000; stroke-opacity:1.0000;
stroke-linecap:round; stroke-linejoin:round;"
 transform="translate(0 0) scale(1 1)">
</g>
<g style="fill:none; 
stroke:#000000; stroke-width:0.1500; stroke-opacity:1; 
stroke-linecap:round; stroke-linejoin:round;">
<path d="M177.0022 166.0072
L285.0022 166.0072
L285.0022 198.0072
L177.0022 198.0072
L177.0022 166.0072
" />
<path d="M10.0000 10.0000
L287.0022 10.0000
L287.0022 200.0072
L10.0000 200.0072
L10.0000 10.0000
" />
<path d="M12.0000 12.0000
L285.0022 12.0000
L285.0022 198.0072
L12.0000 198.0072
L12.0000 12.0000
" />
<path d="M60.0000 12.0000
L60.0000 10.0000
" />
<path d="M110.0000 12.0000
L110.0000 10.0000
" />
<path d="M160.0000 12.0000
L160.0000 10.0000
" />
<path d="M210.0000 12.0000
L210.0000 10.0000
" />
<path d="M260.0000 12.0000
L260.0000 10.0000
" />
<text x="35.0000" y="11.6500"
textLength="1.4281" font-size="1.7333" lengthAdjust="spacingAndGlyphs"
text-anchor="start" opacity="0" stroke-opacity="0">1</text>
<g class="stroked-text"><desc>1</desc>
<path d="M36.0892 11.5936
L35.3463 11.5936
" />
<path d="M35.7177 11.5936
L35.7177 10.2936
" />
<path d="M35.7177 10.2936
L35.5939 10.4793
" />
<path d="M35.5939 10.4793
L35.4701 10.6031
" />
<path d="M35.4701 10.6031
L35.3463 10.6650
" />
</g><text x="85.0000" y="11.6500"
textLength="1.4281" font-size="1.7333" lengthAdjust="spacingAndGlyphs"
text-anchor="start" opacity="0" stroke-opacity="0">2</text>
<g class="stroked-text"><desc>2</desc>
<path d="M85.3463 10.4174
L85.4082 10.3555
" />
<path d="M85.4082 10.3555
L85.5320 10.2936
" />
<path d="M85.5320 10.2936
L85.8415 10.2936
" />
<path d="M85.8415 10.2936
L85.9654 10.3555
" />
<path d="M85.9654 10.3555
L86.0273 10.4174
" />
<path d="M86.0273 10.4174
L86.0892 10.5412
" />
<path d="M86.0892 10.5412
L86.0892 10.6650
" />
<path d="M86.0892 10.6650
L86.0273 10.8507
" />
<path d="M86.0273 10.8507
L85.2844 11.5936
" />
<path d="M85.2844 11.5936
L86.0892 11.5936
" />
</g><text x="135.0000" y="11.6500"
textLength="1.4281" font-size="1.7333" lengthAdjust="spacingAndGlyphs"
text-anchor="start" opacity="0" stroke-opacity="0">3</text>
<g class="stroked-text"><desc>3</desc>
<path d="M135.2844 10.2936
L136.0892 10.2936
" />
<path d="M136.0892 10.2936
L135.6558 10.7888
" />
<path d="M135.6558 10.7888
L135.8415 10.7888
" />
<path d="M135.8415 10.7888
L135.9654 10.8507
" />
<path d="M135.9654 10.8507
L136.0273 10.9127
" />
<path d="M136.0273 10.9127
L136.0892 11.0365
" />
<path d="M136.0892 11.0365
L136.0892 11.3460
" />
<path d="M136.0892 11.3460
L136.0273 11.4698
" />
<path d="M136.0273 11.4698
L135.9654 11.5317
" />
<path d="M135.9654 11.5317
L135.8415 11.5936
" />
<path d="M135.8415 11.5936
L135.4701 11.5936
" />
<path d="M135.4701 11.5936
L135.3463 11.5317
" />
<path d="M135.3463 11.5317
L135.2844 11.4698
" />
</g><text x="185.0000" y="11.6500"
textLength="1.4281" font-size="1.7333" lengthAdjust="spacingAndGlyphs"
text-anchor="start" opacity="0" stroke-opacity="0">4</text>
<g class="stroked-text"><desc>4</desc>
<path d="M185.9654 10.7269
L185.9654 11.5936
" />
<path d="M185.6558 10.2317
L185.3463 11.1603
" />
<path d="M185.3463 11.1603
L186.1511 11.1603
" />
</g><text x="235.0000" y="11.6500"
textLength="1.4281" font-size="1.7333" lengthAdjust="spacingAndGlyphs"
text-anchor="start" opacity="0" stroke-opacity="0">5</text>
<g class="stroked-text"><desc>5</desc>
<path d="M236.0273 10.2936
L235.4082 10.2936
" />
<path d="M235.4082 10.2936
L235.3463 10.9127
" />
<path d="M235.3463 10.9127
L235.4082 10.8507
" />
<path d="M235.4082 10.8507
L235.5320 10.7888
" />
<path d="M235.5320 10.7888
L235.8415 10.7888
" />
<path d="M235.8415 10.7888
L235.9654 10.8507
" />
<path d="M235.9654 10.8507
L236.0273 10.9127
" />
<path d="M236.0273 10.9127
L236.0892 11.0365
" />
<path d="M236.0892 11.0365
L236.0892 11.3460
" />
<path d="M236.0892 11.3460
L236.0273 11.4698
" />
<path d="M236.0273 11.4698
L235.9654 11.5317
" />
<path d="M235.9654 11.5317
L235.8415 11.5936
" />
<path d="M235.8415 11.5936
L235.5320 11.5936
" />
<path d="M235.5320 11.5936
L235.4082 11.5317
" />
<path d="M235.4082 11.5317
L235.3463 11.4698
" />
</g><text x="285.0000" y="11.6500"
textLength="1.4281" font-size="1.7333" lengthAdjust="spacingAndGlyphs"
text-anchor="start" opacity="0" stroke-opacity="0">6</text>
<g class="stroked-text"><desc>6</desc>
<path d="M285.9654 10.2936
L285.7177 10.2936
" />
<path d="M285.7177 10.2936
L285.5939 10.3555
" />
<path d="M285.5939 10.3555
L285.5320 10.4174
" />
<path d="M285.5320 10.4174
L285.4082 10.6031
" />
<path d="M285.4082 10.6031
L285.3463 10.8507
" />
<path d="M285.3463 10.8507
L285.3463 11.3460
" />
<path d="M285.3463 11.3460
L285.4082 11.4698
" />
<path d="M285.4082 11.4698
L285.4701 11.5317
" />
<path d="M285.4701 11.5317
L285.5939 11.5936
" />
<path d="M285.5939 11.5936
L285.8415 11.5936
" />
<path d="M285.8415 11.5936
L285.9654 11.5317
" />
<path d="M285.9654 11.5317
L286.0273 11.4698
" />
<path d="M286.0273 11.4698
L286.0892 11.3460
" />
<path d="M286.0892 11.3460
L286.0892 11.0365
" />
<path d="M286.0892 11.0365
L286.0273 10.9127
" />
<path d="M286.0273 10.9127
L285.9654 10.8507
" />
<path d="M285.9654 10.8507
L285.8415 10.7888
" />
<path d="M285.8415 10.7888
L285.5939 10.7888
" />
<path d="M285.5939 10.7888
L285.4701 10.8507
" />
<path d="M285.4701 10.8507
L285.4082 10.9127
" />
<path d="M285.4082 10.9127
L285.3463 11.0365
" />
</g><path d="M60.0000 198.0072
L60.0000 200.0072
" />
<path d="M110.0000 198.0072
L110.0000 200.0072
" />
<path d="M160.0000 198.0072
L160.0000 200.0072
" />
<path d="M210.0000 198.0072
L210.0000 200.0072
" />
<path d="M260.0000 198.0072
L260.0000 200.0072
" />
<text x="35.0000" y="199.6572"
textLength="1.4281" font-size="1.7333" lengthAdjust="spacingAndGlyphs"
text-anchor="start" opacity="0" stroke-opacity="0">1</text>
<g class="stroked-text"><desc>1</desc>
<path d="M36.0892 199.6008
L35.3463 199.6008
" />
<path d="M35.7177 199.6008
L35.7177 198.3008
" />
<path d="M35.7177 198.3008
L35.5939 198.4865
" />
<path d="M35.5939 198.4865
L35.4701 198.6103
" />
<path d="M35.4701 198.6103
L35.3463 198.6722
" />
</g><text x="85.0000" y="199.6572"
textLength="1.4281" font-size="1.7333" lengthAdjust="spacingAndGlyphs"
text-anchor="start" opacity="0" stroke-opacity="0">2</text>
<g class="stroked-text"><desc>2</desc>
<path d="M85.3463 198.4246
L85.4082 198.3627
" />
<path d="M85.4082 198.3627
L85.5320 198.3008
" />
<path d="M85.5320 198.3008
L85.8415 198.3008
" />
<path d="M85.8415 198.3008
L85.9654 198.3627
" />
<path d="M85.9654 198.3627
L86.0273 198.4246
" />
<path d="M86.0273 198.4246
L86.0892 198.5484
" />
<path d="M86.0892 198.5484
L86.0892 198.6722
" />
<path d="M86.0892 198.6722
L86.0273 198.8579
" />
<path d="M86.0273 198.8579
L85.2844 199.6008
" />
<path d="M85.2844 199.6008
L86.0892 199.6008
" />
</g><text x="135.0000" y="199.6572"
textLength="1.4281" font-size="1.7333" lengthAdjust="spacingAndGlyphs"
text-anchor="start" opacity="0" stroke-opacity="0">3</text>
<g class="stroked-text"><desc>3</desc>
<path d="M135.2844 198.3008
L136.0892 198.3008
" />
<path d="M136.0892 198.3008
L135.6558 198.7960
" />
<path d="M135.6558 198.7960
L135.8415 198.7960
" />
<path d="M135.8415 198.7960
L135.9654 198.8579
" />
<path d="M135.9654 198.8579
L136.0273 198.9199
" />
<path d="M136.0273 198.9199
L136.0892 199.0437
" />
<path d="M136.0892 199.0437
L136.0892 199.3532
" />
<path d="M136.0892 199.3532
L136.0273 199.4770
" />
<path d="M136.0273 199.4770
L135.9654 199.5389
" />
<path d="M135.9654 199.5389
L135.8415 199.6008
" />
<path d="M135.8415 199.6008
L135.4701 199.6008
" />
<path d="M135.4701 199.6008
L135.3463 199.5389
" />
<path d="M135.3463 199.5389
L135.2844 199.4770
" />
</g><text x="185.0000" y="199.6572"
textLength="1.4281" font-size="1.7333" lengthAdjust="spacingAndGlyphs"
text-anchor="start" opacity="0" stroke-opacity="0">4</text>
<g class="stroked-text"><desc>4</desc>
<path d="M185.9654 198.7341
L185.9654 199.6008
" />
<path d="M185.6558 198.2389
L185.3463 199.1675
" />
<path d="M185.3463 199.1675
L186.1511 199.1675
" />
</g><text x="235.0000" y="199.6572"
textLength="1.4281" font-size="1.7333" lengthAdjust="spacingAndGlyphs"
text-anchor="start" opacity="0" stroke-opacity="0">5</text>
<g class="stroked-text"><desc>5</desc>
<path d="M236.0273 198.3008
L235.4082 198.3008
" />
<path d="M235.4082 198.3008
L235.3463 198.9199
" />
<path d="M235.3463 198.9199
L235.4082 198.8579
" />
<path d="M235.4082 198.8579
L235.5320 198.7960
" />
<path d="M235.5320 198.7960
L235.8415 198.7960
" />
<path d="M235.8415 198.7960
L235.9654 198.8579
" />
<path d="M235.9654 198.8579
L236.0273 198.9199
" />
<path d="M236.0273 198.9199
L236.0892 199.0437
" />
<path d="M236.0892 199.0437
L236.0892 199.3532
" />
<path d="M236.0892 199.3532
L236.0273 199.4770
" />
<path d="M236.0273 199.4770
L235.9654 199.5389
" />
<path d="M235.9654 199.5389
L235.8415 199.6008
" />
<path d="M235.8415 199.6008
L235.5320 199.6008
" />
<path d="M235.5320 199.6008
L235.4082 199.5389
" />
<path d="M235.4082 199.5389
L235.3463 199.4770
" />
</g><text x="285.0000" y="199.6572"
textLength="1.4281" font-size="1.7333" lengthAdjust="spacingAndGlyphs"
text-anchor="start" opacity="0" stroke-opacity="0">6</text>
<g class="stroked-text"><desc>6</desc>
<path d="M285.9654 198.3008
L285.7177 198.3008
" />
<path d="M285.7177 198.3008
L285.5939 198.3627
" />
<path d="M285.5939 198.3627
L285.5320 198.4246
" />
<path d="M285.5320 198.4246
L285.4082 198.6103
" />
<path d="M285.4082 198.6103
L285.3463 198.8579
" />
<path d="M285.3463 198.8579
L285.3463 199.3532
" />
<path d="M285.3463 199.3532
L285.4082 199.4770
" />
<path d="M285.4082 199.4770
L285.4701 199.5389
" />
<path d="M285.4701 199.5389
L285.5939 199.6008
" />
<path d="M285.5939 199.6008
L285.8415 199.6008
" />
<path d="M285.8415 199.6008
L285.9654 199.5389
" />
<path d="M285.9654 199.5389
L286.0273 199.4770
" />
<path d="M286.0273 199.4770
L286.0892 199.3532
" />
<path d="M286.0892 199.3532
L286.0892 199.0437
" />
<path d="M286.0892 199.0437
L286.0273 198.9199
" />
<path d="M286.0273 198.9199
L285.9654 198.8579
" />
<path d="M285.9654 198.8579
L285.8415 198.7960
" />
<path d="M285.8415 198.7960
L285.5939 198.7960
" />
<path d="M285.5939 198.7960
L285.4701 198.8579
" />
<path d="M285.4701 198.8579
L285.4082 198.9199
" />
<path d="M285.4082 198.9199
L285.3463 199.0437
" />
</g><path d="M10.0000 60.0000
L12.0000 60.0000
" />
<path d="M10.0000 110.0000
L12.0000 110.0000
" />
<path d="M10.0000 160.0000
L12.0000 160.0000
" />
<text x="11.0000" y="35.6500"
textLength="1.3043" font-size="1.7333" lengthAdjust="spacingAndGlyphs"
text-anchor="middle" opacity="0" stroke-opacity="0">A</text>
<g class="stroked-text"><desc>A</desc>
<path d="M10.6905 35.2222
L11.3095 35.2222
" />
<path d="M10.5667 35.5936
L11.0000 34.2936
" />
<path d="M11.0000 34.2936
L11.4333 35.5936
" />
</g><text x="11.0000" y="85.6500"
textLength="1.4900" font-size="1.7333" lengthAdjust="spacingAndGlyphs"
text-anchor="middle" opacity="0" stroke-opacity="0">B</text>
<g class="stroked-text"><desc>B</desc>
<path d="M11.0929 84.9127
L11.2786 84.9746
" />
<path d="M11.2786 84.9746
L11.3405 85.0365
" />
<path d="M11.3405 85.0365
L11.4024 85.1603
" />
<path d="M11.4024 85.1603
L11.4024 85.3460
" />
<path d="M11.4024 85.3460
L11.3405 85.4698
" />
<path d="M11.3405 85.4698
L11.2786 85.5317
" />
<path d="M11.2786 85.5317
L11.1548 85.5936
" />
<path d="M11.1548 85.5936
L10.6595 85.5936
" />
<path d="M10.6595 85.5936
L10.6595 84.2936
" />
<path d="M10.6595 84.2936
L11.0929 84.2936
" />
<path d="M11.0929 84.2936
L11.2167 84.3555
" />
<path d="M11.2167 84.3555
L11.2786 84.4174
" />
<path d="M11.2786 84.4174
L11.3405 84.5412
" />
<path d="M11.3405 84.5412
L11.3405 84.6650
" />
<path d="M11.3405 84.6650
L11.2786 84.7888
" />
<path d="M11.2786 84.7888
L11.2167 84.8507
" />
<path d="M11.2167 84.8507
L11.0929 84.9127
" />
<path d="M11.0929 84.9127
L10.6595 84.9127
" />
</g><text x="11.0000" y="135.6500"
textLength="1.4900" font-size="1.7333" lengthAdjust="spacingAndGlyphs"
text-anchor="middle" opacity="0" stroke-opacity="0">C</text>
<g class="stroked-text"><desc>C</desc>
<path d="M11.4024 135.4698
L11.3405 135.5317
" />
<path d="M11.3405 135.5317
L11.1548 135.5936
" />
<path d="M11.1548 135.5936
L11.0310 135.5936
" />
<path d="M11.0310 135.5936
L10.8452 135.5317
" />
<path d="M10.8452 135.5317
L10.7214 135.4079
" />
<path d="M10.7214 135.4079
L10.6595 135.2841
" />
<path d="M10.6595 135.2841
L10.5976 135.0365
" />
<path d="M10.5976 135.0365
L10.5976 134.8507
" />
<path d="M10.5976 134.8507
L10.6595 134.6031
" />
<path d="M10.6595 134.6031
L10.7214 134.4793
" />
<path d="M10.7214 134.4793
L10.8452 134.3555
" />
<path d="M10.8452 134.3555
L11.0310 134.2936
" />
<path d="M11.0310 134.2936
L11.1548 134.2936
" />
<path d="M11.1548 134.2936
L11.3405 134.3555
" />
<path d="M11.3405 134.3555
L11.4024 134.4174
" />
</g><text x="11.0000" y="185.6500"
textLength="1.4900" font-size="1.7333" lengthAdjust="spacingAndGlyphs"
text-anchor="middle" opacity="0" stroke-opacity="0">D</text>
<g class="stroked-text"><desc>D</desc>
<path d="M10.6595 185.5936
L10.6595 184.2936
" />
<path d="M10.6595 184.2936
L10.9690 184.2936
" />
<path d="M10.9690 184.2936
L11.1548 184.3555
" />
<path d="M11.1548 184.3555
L11.2786 184.4793
" />
<path d="M11.2786 184.4793
L11.3405 184.6031
" />
<path d="M11.3405 184.6031
L11.4024 184.8507
" />
<path d="M11.4024 184.8507
L11.4024 185.0365
" />
<path d="M11.4024 185.0365
L11.3405 185.2841
" />
<path d="M11.3405 185.2841
L11.2786 185.4079
" />
<path d="M11.2786 185.4079
L11.1548 185.5317
" />
<path d="M11.1548 185.5317
L10.9690 185.5936
" />
<path d="M10.9690 185.5936
L10.6595 185.5936
" />
</g><path d="M287.0022 60.0000
L285.0022 60.0000
" />
<path d="M287.0022 110.0000
L285.0022 110.0000
" />
<path d="M287.0022 160.0000
L285.0022 160.0000
" />
<text x="286.0022" y="35.6500"
textLength="1.3043" font-size="1.7333" lengthAdjust="spacingAndGlyphs"
text-anchor="middle" opacity="0" stroke-opacity="0">A</text>
<g class="stroked-text"><desc>A</desc>
<path d="M285.6927 35.2222
L286.3117 35.2222
" />
<path d="M285.5689 35.5936
L286.0022 34.2936
" />
<path d="M286.0022 34.2936
L286.4355 35.5936
" />
</g><text x="286.0022" y="85.6500"
textLength="1.4900" font-size="1.7333" lengthAdjust="spacingAndGlyphs"
text-anchor="middle" opacity="0" stroke-opacity="0">B</text>
<g class="stroked-text"><desc>B</desc>
<path d="M286.0951 84.9127
L286.2808 84.9746
" />
<path d="M286.2808 84.9746
L286.3427 85.0365
" />
<path d="M286.3427 85.0365
L286.4046 85.1603
" />
<path d="M286.4046 85.1603
L286.4046 85.3460
" />
<path d="M286.4046 85.3460
L286.3427 85.4698
" />
<path d="M286.3427 85.4698
L286.2808 85.5317
" />
<path d="M286.2808 85.5317
L286.1570 85.5936
" />
<path d="M286.1570 85.5936
L285.6617 85.5936
" />
<path d="M285.6617 85.5936
L285.6617 84.2936
" />
<path d="M285.6617 84.2936
L286.0951 84.2936
" />
<path d="M286.0951 84.2936
L286.2189 84.3555
" />
<path d="M286.2189 84.3555
L286.2808 84.4174
" />
<path d="M286.2808 84.4174
L286.3427 84.5412
" />
<path d="M286.3427 84.5412
L286.3427 84.6650
" />
<path d="M286.3427 84.6650
L286.2808 84.7888
" />
<path d="M286.2808 84.7888
L286.2189 84.8507
" />
<path d="M286.2189 84.8507
L286.0951 84.9127
" />
<path d="M286.0951 84.9127
L285.6617 84.9127
" />
</g><text x="286.0022" y="135.6500"
textLength="1.4900" font-size="1.7333" lengthAdjust="spacingAndGlyphs"
text-anchor="middle" opacity="0" stroke-opacity="0">C</text>
<g class="stroked-text"><desc>C</desc>
<path d="M286.4046 135.4698
L286.3427 135.5317
" />
<path d="M286.3427 135.5317
L286.1570 135.5936
" />
<path d="M286.1570 135.5936
L286.0332 135.5936
" />
<path d="M286.0332 135.5936
L285.8474 135.5317
" />
<path d="M285.8474 135.5317
L285.7236 135.4079
" />
<path d="M285.7236 135.4079
L285.6617 135.2841
" />
<path d="M285.6617 135.2841
L285.5998 135.0365
" />
<path d="M285.5998 135.0365
L285.5998 134.8507
" />
<path d="M285.5998 134.8507
L285.6617 134.6031
" />
<path d="M285.6617 134.6031
L285.7236 134.4793
" />
<path d="M285.7236 134.4793
L285.8474 134.3555
" />
<path d="M285.8474 134.3555
L286.0332 134.2936
" />
<path d="M286.0332 134.2936
L286.1570 134.2936
" />
<path d="M286.1570 134.2936
L286.3427 134.3555
" />
<path d="M286.3427 134.3555
L286.4046 134.4174
" />
</g><text x="286.0022" y="185.6500"
textLength="1.4900" font-size="1.7333" lengthAdjust="spacingAndGlyphs"
text-anchor="middle" opacity="0" stroke-opacity="0">D</text>
<g class="stroked-text"><desc>D</desc>
<path d="M285.6617 185.5936
L285.6617 184.2936
" />
<path d="M285.6617 184.2936
L285.9712 184.2936
" />
<path d="M285.9712 184.2936
L286.1570 184.3555
" />
<path d="M286.1570 184.3555
L286.2808 184.4793
" />
<path d="M286.2808 184.4793
L286.3427 184.6031
" />
<path d="M286.3427 184.6031
L286.4046 184.8507
" />
<path d="M286.4046 184.8507
L286.4046 185.0365
" />
<path d="M286.4046 185.0365
L286.3427 185.2841
" />
<path d="M286.3427 185.2841
L286.2808 185.4079
" />
<path d="M286.2808 185.4079
L286.1570 185.5317
" />
<path d="M286.1570 185.5317
L285.9712 185.5936
" />
<path d="M285.9712 185.5936
L285.6617 185.5936
" />
</g><text x="200.0022" y="193.8572"
textLength="22.1500" font-size="2.0000" lengthAdjust="spacingAndGlyphs"
text-anchor="start" opacity="0" stroke-opacity="0">Date: 2026-06-28</text>
<g class="stroked-text"><desc>Date: 2026-06-28</desc>
<path d="M200.4580 193.7933
L200.4580 192.2933
" />
<path d="M200.4580 192.2933
L200.8152 192.2933
" />
<path d="M200.8152 192.2933
L201.0295 192.3648
" />
<path d="M201.0295 192.3648
L201.1723 192.5076
" />
<path d="M201.1723 192.5076
L201.2437 192.6505
" />
<path d="M201.2437 192.6505
L201.3152 192.9362
" />
<path d="M201.3152 192.9362
L201.3152 193.1505
" />
<path d="M201.3152 193.1505
L201.2437 193.4362
" />
<path d="M201.2437 193.4362
L201.1723 193.5790
" />
<path d="M201.1723 193.5790
L201.0295 193.7219
" />
<path d="M201.0295 193.7219
L200.8152 193.7933
" />
<path d="M200.8152 193.7933
L200.4580 193.7933
" />
<path d="M202.6009 193.7933
L202.6009 193.0076
" />
<path d="M202.6009 193.0076
L202.5295 192.8648
" />
<path d="M202.5295 192.8648
L202.3866 192.7933
" />
<path d="M202.3866 192.7933
L202.1009 192.7933
" />
<path d="M202.1009 192.7933
L201.9580 192.8648
" />
<path d="M202.6009 193.7219
L202.4580 193.7933
" />
<path d="M202.4580 193.7933
L202.1009 193.7933
" />
<path d="M202.1009 193.7933
L201.9580 193.7219
" />
<path d="M201.9580 193.7219
L201.8866 193.5790
" />
<path d="M201.8866 193.5790
L201.8866 193.4362
" />
<path d="M201.8866 193.4362
L201.9580 193.2933
" />
<path d="M201.9580 193.2933
L202.1009 193.2219
" />
<path d="M202.1009 193.2219
L202.4580 193.2219
" />
<path d="M202.4580 193.2219
L202.6009 193.1505
" />
<path d="M203.1009 192.7933
L203.6723 192.7933
" />
<path d="M203.3152 192.2933
L203.3152 193.5790
" />
<path d="M203.3152 193.5790
L203.3866 193.7219
" />
<path d="M203.3866 193.7219
L203.5295 193.7933
" />
<path d="M203.5295 193.7933
L203.6723 193.7933
" />
<path d="M204.7437 193.7219
L204.6009 193.7933
" />
<path d="M204.6009 193.7933
L204.3152 193.7933
" />
<path d="M204.3152 193.7933
L204.1723 193.7219
" />
<path d="M204.1723 193.7219
L204.1009 193.5790
" />
<path d="M204.1009 193.5790
L204.1009 193.0076
" />
<path d="M204.1009 193.0076
L204.1723 192.8648
" />
<path d="M204.1723 192.8648
L204.3152 192.7933
" />
<path d="M204.3152 192.7933
L204.6009 192.7933
" />
<path d="M204.6009 192.7933
L204.7437 192.8648
" />
<path d="M204.7437 192.8648
L204.8152 193.0076
" />
<path d="M204.8152 193.0076
L204.8152 193.1505
" />
<path d="M204.8152 193.1505
L204.1009 193.2933
" />
<path d="M205.4580 193.6505
L205.5295 193.7219
" />
<path d="M205.5295 193.7219
L205.4580 193.7933
" />
<path d="M205.4580 193.7933
L205.3866 193.7219
" />
<path d="M205.3866 193.7219
L205.4580 193.6505
" />
<path d="M205.4580 193.6505
L205.4580 193.7933
" />
<path d="M205.4580 192.8648
L205.5295 192.9362
" />
<path d="M205.5295 192.9362
L205.4580 193.0076
" />
<path d="M205.4580 193.0076
L205.3866 192.9362
" />
<path d="M205.3866 192.9362
L205.4580 192.8648
" />
<path d="M205.4580 192.8648
L205.4580 193.0076
" />
<path d="M207.2437 192.4362
L207.3152 192.3648
" />
<path d="M207.3152 192.3648
L207.4580 192.2933
" />
<path d="M207.4580 192.2933
L207.8152 192.2933
" />
<path d="M207.8152 192.2933
L207.9580 192.3648
" />
<path d="M207.9580 192.3648
L208.0295 192.4362
" />
<path d="M208.0295 192.4362
L208.1009 192.5790
" />
<path d="M208.1009 192.5790
L208.1009 192.7219
" />
<path d="M208.1009 192.7219
L208.0295 192.9362
" />
<path d="M208.0295 192.9362
L207.1723 193.7933
" />
<path d="M207.1723 193.7933
L208.1009 193.7933
" />
<path d="M209.0295 192.2933
L209.1723 192.2933
" />
<path d="M209.1723 192.2933
L209.3152 192.3648
" />
<path d="M209.3152 192.3648
L209.3866 192.4362
" />
<path d="M209.3866 192.4362
L209.4580 192.5790
" />
<path d="M209.4580 192.5790
L209.5295 192.8648
" />
<path d="M209.5295 192.8648
L209.5295 193.2219
" />
<path d="M209.5295 193.2219
L209.4580 193.5076
" />
<path d="M209.4580 193.5076
L209.3866 193.6505
" />
<path d="M209.3866 193.6505
L209.3152 193.7219
" />
<path d="M209.3152 193.7219
L209.1723 193.7933
" />
<path d="M209.1723 193.7933
L209.0295 193.7933
" />
<path d="M209.0295 193.7933
L208.8866 193.7219
" />
<path d="M208.8866 193.7219
L208.8152 193.6505
" />
<path d="M208.8152 193.6505
L208.7437 193.5076
" />
<path d="M208.7437 193.5076
L208.6723 193.2219
" />
<path d="M208.6723 193.2219
L208.6723 192.8648
" />
<path d="M208.6723 192.8648
L208.7437 192.5790
" />
<path d="M208.7437 192.5790
L208.8152 192.4362
" />
<path d="M208.8152 192.4362
L208.8866 192.3648
" />
<path d="M208.8866 192.3648
L209.0295 192.2933
" />
<path d="M210.1009 192.4362
L210.1723 192.3648
" />
<path d="M210.1723 192.3648
L210.3152 192.2933
" />
<path d="M210.3152 192.2933
L210.6723 192.2933
" />
<path d="M210.6723 192.2933
L210.8152 192.3648
" />
<path d="M210.8152 192.3648
L210.8866 192.4362
" />
<path d="M210.8866 192.4362
L210.9580 192.5790
" />
<path d="M210.9580 192.5790
L210.9580 192.7219
" />
<path d="M210.9580 192.7219
L210.8866 192.9362
" />
<path d="M210.8866 192.9362
L210.0295 193.7933
" />
<path d="M210.0295 193.7933
L210.9580 193.7933
" />
<path d="M212.2437 192.2933
L211.9580 192.2933
" />
<path d="M211.9580 192.2933
L211.8152 192.3648
" />
<path d="M211.8152 192.3648
L211.7437 192.4362
" />
<path d="M211.7437 192.4362
L211.6009 192.6505
" />
<path d="M211.6009 192.6505
L211.5295 192.9362
" />
<path d="M211.5295 192.9362
L211.5295 193.5076
" />
<path d="M211.5295 193.5076
L211.6009 193.6505
" />
<path d="M211.6009 193.6505
L211.6723 193.7219
" />
<path d="M211.6723 193.7219
L211.8152 193.7933
" />
<path d="M211.8152 193.7933
L212.1009 193.7933
" />
<path d="M212.1009 193.7933
L212.2437 193.7219
" />
<path d="M212.2437 193.7219
L212.3152 193.6505
" />
<path d="M212.3152 193.6505
L212.3866 193.5076
" />
<path d="M212.3866 193.5076
L212.3866 193.1505
" />
<path d="M212.3866 193.1505
L212.3152 193.0076
" />
<path d="M212.3152 193.0076
L212.2437 192.9362
" />
<path d="M212.2437 192.9362
L212.1009 192.8648
" />
<path d="M212.1009 192.8648
L211.8152 192.8648
" />
<path d="M211.8152 192.8648
L211.6723 192.9362
" />
<path d="M211.6723 192.9362
L211.6009 193.0076
" />
<path d="M211.6009 193.0076
L211.5295 193.1505
" />
<path d="M213.0295 193.2219
L214.1723 193.2219
" />
<path d="M215.1723 192.2933
L215.3152 192.2933
" />
<path d="M215.3152 192.2933
L215.4580 192.3648
" />
<path d="M215.4580 192.3648
L215.5295 192.4362
" />
<path d="M215.5295 192.4362
L215.6009 192.5790
" />
<path d="M215.6009 192.5790
L215.6723 192.8648
" />
<path d="M215.6723 192.8648
L215.6723 193.2219
" />
<path d="M215.6723 193.2219
L215.6009 193.5076
" />
<path d="M215.6009 193.5076
L215.5295 193.6505
" />
<path d="M215.5295 193.6505
L215.4580 193.7219
" />
<path d="M215.4580 193.7219
L215.3152 193.7933
" />
<path d="M215.3152 193.7933
L215.1723 193.7933
" />
<path d="M215.1723 193.7933
L215.0295 193.7219
" />
<path d="M215.0295 193.7219
L214.9580 193.6505
" />
<path d="M214.9580 193.6505
L214.8866 193.5076
" />
<path d="M214.8866 193.5076
L214.8152 193.2219
" />
<path d="M214.8152 193.2219
L214.8152 192.8648
" />
<path d="M214.8152 192.8648
L214.8866 192.5790
" />
<path d="M214.8866 192.5790
L214.9580 192.4362
" />
<path d="M214.9580 192.4362
L215.0295 192.3648
" />
<path d="M215.0295 192.3648
L215.1723 192.2933
" />
<path d="M216.9580 192.2933
L216.6723 192.2933
" />
<path d="M216.6723 192.2933
L216.5295 192.3648
" />
<path d="M216.5295 192.3648
L216.4580 192.4362
" />
<path d="M216.4580 192.4362
L216.3152 192.6505
" />
<path d="M216.3152 192.6505
L216.2437 192.9362
" />
<path d="M216.2437 192.9362
L216.2437 193.5076
" />
<path d="M216.2437 193.5076
L216.3152 193.6505
" />
<path d="M216.3152 193.6505
L216.3866 193.7219
" />
<path d="M216.3866 193.7219
L216.5295 193.7933
" />
<path d="M216.5295 193.7933
L216.8152 193.7933
" />
<path d="M216.8152 193.7933
L216.9580 193.7219
" />
<path d="M216.9580 193.7219
L217.0295 193.6505
" />
<path d="M217.0295 193.6505
L217.1009 193.5076
" />
<path d="M217.1009 193.5076
L217.1009 193.1505
" />
<path d="M217.1009 193.1505
L217.0295 193.0076
" />
<path d="M217.0295 193.0076
L216.9580 192.9362
" />
<path d="M216.9580 192.9362
L216.8152 192.8648
" />
<path d="M216.8152 192.8648
L216.5295 192.8648
" />
<path d="M216.5295 192.8648
L216.3866 192.9362
" />
<path d="M216.3866 192.9362
L216.3152 193.0076
" />
<path d="M216.3152 193.0076
L216.2437 193.1505
" />
<path d="M217.7437 193.2219
L218.8866 193.2219
" />
<path d="M219.5295 192.4362
L219.6009 192.3648
" />
<path d="M219.6009 192.3648
L219.7437 192.2933
" />
<path d="M219.7437 192.2933
L220.1009 192.2933
" />
<path d="M220.1009 192.2933
L220.2437 192.3648
" />
<path d="M220.2437 192.3648
L220.3152 192.4362
" />
<path d="M220.3152 192.4362
L220.3866 192.5790
" />
<path d="M220.3866 192.5790
L220.3866 192.7219
" />
<path d="M220.3866 192.7219
L220.3152 192.9362
" />
<path d="M220.3152 192.9362
L219.4580 193.7933
" />
<path d="M219.4580 193.7933
L220.3866 193.7933
" />
<path d="M221.2437 192.9362
L221.1009 192.8648
" />
<path d="M221.1009 192.8648
L221.0295 192.7933
" />
<path d="M221.0295 192.7933
L220.9580 192.6505
" />
<path d="M220.9580 192.6505
L220.9580 192.5790
" />
<path d="M220.9580 192.5790
L221.0295 192.4362
" />
<path d="M221.0295 192.4362
L221.1009 192.3648
" />
<path d="M221.1009 192.3648
L221.2437 192.2933
" />
<path d="M221.2437 192.2933
L221.5295 192.2933
" />
<path d="M221.5295 192.2933
L221.6723 192.3648
" />
<path d="M221.6723 192.3648
L221.7437 192.4362
" />
<path d="M221.7437 192.4362
L221.8152 192.5790
" />
<path d="M221.8152 192.5790
L221.8152 192.6505
" />
<path d="M221.8152 192.6505
L221.7437 192.7933
" />
<path d="M221.7437 192.7933
L221.6723 192.8648
" />
<path d="M221.6723 192.8648
L221.5295 192.9362
" />
<path d="M221.5295 192.9362
L221.2437 192.9362
" />
<path d="M221.2437 192.9362
L221.1009 193.0076
" />
<path d="M221.1009 193.0076
L221.0295 193.0790
" />
<path d="M221.0295 193.0790
L220.9580 193.2219
" />
<path d="M220.9580 193.2219
L220.9580 193.5076
" />
<path d="M220.9580 193.5076
L221.0295 193.6505
" />
<path d="M221.0295 193.6505
L221.1009 193.7219
" />
<path d="M221.1009 193.7219
L221.2437 193.7933
" />
<path d="M221.2437 193.7933
L221.5295 193.7933
" />
<path d="M221.5295 193.7933
L221.6723 193.7219
" />
<path d="M221.6723 193.7219
L221.7437 193.6505
" />
<path d="M221.7437 193.6505
L221.8152 193.5076
" />
<path d="M221.8152 193.5076
L221.8152 193.2219
" />
<path d="M221.8152 193.2219
L221.7437 193.0790
" />
<path d="M221.7437 193.0790
L221.6723 193.0076
" />
<path d="M221.6723 193.0076
L221.5295 192.9362
" />
</g><path d="M177.0022 194.5072
L285.0022 194.5072
" />
<text x="178.0022" y="196.6572"
textLength="20.6500" font-size="2.0000" lengthAdjust="spacingAndGlyphs"
text-anchor="start" opacity="0" stroke-opacity="0">${KICAD_VERSION}</text>
<g class="stroked-text"><desc>${KICAD_VERSION}</desc>
<path d="M178.3866 196.5219
L178.6009 196.5933
" />
<path d="M178.6009 196.5933
L178.9580 196.5933
" />
<path d="M178.9580 196.5933
L179.1009 196.5219
" />
<path d="M179.1009 196.5219
L179.1723 196.4505
" />
<path d="M179.1723 196.4505
L179.2437 196.3076
" />
<path d="M179.2437 196.3076
L179.2437 196.1648
" />
<path d="M179.2437 196.1648
L179.1723 196.0219
" />
<path d="M179.1723 196.0219
L179.1009 195.9505
" />
<path d="M179.1009 195.9505
L178.9580 195.8790
" />
<path d="M178.9580 195.8790
L178.6723 195.8076
" />
<path d="M178.6723 195.8076
L178.5295 195.7362
" />
<path d="M178.5295 195.7362
L178.4580 195.6648
" />
<path d="M178.4580 195.6648
L178.3866 195.5219
" />
<path d="M178.3866 195.5219
L178.3866 195.3790
" />
<path d="M178.3866 195.3790
L178.4580 195.2362
" />
<path d="M178.4580 195.2362
L178.5295 195.1648
" />
<path d="M178.5295 195.1648
L178.6723 195.0933
" />
<path d="M178.6723 195.0933
L179.0295 195.0933
" />
<path d="M179.0295 195.0933
L179.2437 195.1648
" />
<path d="M178.8152 194.8790
L178.8152 196.8076
" />
<path d="M180.3152 197.1648
L180.2437 197.1648
" />
<path d="M180.2437 197.1648
L180.1009 197.0933
" />
<path d="M180.1009 197.0933
L180.0295 196.9505
" />
<path d="M180.0295 196.9505
L180.0295 196.2362
" />
<path d="M180.0295 196.2362
L179.9580 196.0933
" />
<path d="M179.9580 196.0933
L179.8152 196.0219
" />
<path d="M179.8152 196.0219
L179.9580 195.9505
" />
<path d="M179.9580 195.9505
L180.0295 195.8076
" />
<path d="M180.0295 195.8076
L180.0295 195.0933
" />
<path d="M180.0295 195.0933
L180.1009 194.9505
" />
<path d="M180.1009 194.9505
L180.2437 194.8790
" />
<path d="M180.2437 194.8790
L180.3152 194.8790
" />
<path d="M180.8866 196.5933
L180.8866 195.0933
" />
<path d="M181.7437 196.5933
L181.1009 195.7362
" />
<path d="M181.7437 195.0933
L180.8866 195.9505
" />
<path d="M182.3866 196.5933
L182.3866 195.0933
" />
<path d="M183.9580 196.4505
L183.8866 196.5219
" />
<path d="M183.8866 196.5219
L183.6723 196.5933
" />
<path d="M183.6723 196.5933
L183.5295 196.5933
" />
<path d="M183.5295 196.5933
L183.3152 196.5219
" />
<path d="M183.3152 196.5219
L183.1723 196.3790
" />
<path d="M183.1723 196.3790
L183.1009 196.2362
" />
<path d="M183.1009 196.2362
L183.0295 195.9505
" />
<path d="M183.0295 195.9505
L183.0295 195.7362
" />
<path d="M183.0295 195.7362
L183.1009 195.4505
" />
<path d="M183.1009 195.4505
L183.1723 195.3076
" />
<path d="M183.1723 195.3076
L183.3152 195.1648
" />
<path d="M183.3152 195.1648
L183.5295 195.0933
" />
<path d="M183.5295 195.0933
L183.6723 195.0933
" />
<path d="M183.6723 195.0933
L183.8866 195.1648
" />
<path d="M183.8866 195.1648
L183.9580 195.2362
" />
<path d="M184.5295 196.1648
L185.2437 196.1648
" />
<path d="M184.3866 196.5933
L184.8866 195.0933
" />
<path d="M184.8866 195.0933
L185.3866 196.5933
" />
<path d="M185.8866 196.5933
L185.8866 195.0933
" />
<path d="M185.8866 195.0933
L186.2437 195.0933
" />
<path d="M186.2437 195.0933
L186.4580 195.1648
" />
<path d="M186.4580 195.1648
L186.6009 195.3076
" />
<path d="M186.6009 195.3076
L186.6723 195.4505
" />
<path d="M186.6723 195.4505
L186.7437 195.7362
" />
<path d="M186.7437 195.7362
L186.7437 195.9505
" />
<path d="M186.7437 195.9505
L186.6723 196.2362
" />
<path d="M186.6723 196.2362
L186.6009 196.3790
" />
<path d="M186.6009 196.3790
L186.4580 196.5219
" />
<path d="M186.4580 196.5219
L186.2437 196.5933
" />
<path d="M186.2437 196.5933
L185.8866 196.5933
" />
<path d="M187.0295 196.7362
L188.1723 196.7362
" />
<path d="M188.3152 195.0933
L188.8152 196.5933
" />
<path d="M188.8152 196.5933
L189.3152 195.0933
" />
<path d="M189.8152 195.8076
L190.3152 195.8076
" />
<path d="M190.5295 196.5933
L189.8152 196.5933
" />
<path d="M189.8152 196.5933
L189.8152 195.0933
" />
<path d="M189.8152 195.0933
L190.5295 195.0933
" />
<path d="M192.0295 196.5933
L191.5295 195.8790
" />
<path d="M191.1723 196.5933
L191.1723 195.0933
" />
<path d="M191.1723 195.0933
L191.7437 195.0933
" />
<path d="M191.7437 195.0933
L191.8866 195.1648
" />
<path d="M191.8866 195.1648
L191.9580 195.2362
" />
<path d="M191.9580 195.2362
L192.0295 195.3790
" />
<path d="M192.0295 195.3790
L192.0295 195.5933
" />
<path d="M192.0295 195.5933
L191.9580 195.7362
" />
<path d="M191.9580 195.7362
L191.8866 195.8076
" />
<path d="M191.8866 195.8076
L191.7437 195.8790
" />
<path d="M191.7437 195.8790
L191.1723 195.8790
" />
<path d="M192.6009 196.5219
L192.8152 196.5933
" />
<path d="M192.8152 196.5933
L193.1723 196.5933
" />
<path d="M193.1723 196.5933
L193.3152 196.5219
" />
<path d="M193.3152 196.5219
L193.3866 196.4505
" />
<path d="M193.3866 196.4505
L193.4580 196.3076
" />
<path d="M193.4580 196.3076
L193.4580 196.1648
" />
<path d="M193.4580 196.1648
L193.3866 196.0219
" />
<path d="M193.3866 196.0219
L193.3152 195.9505
" />
<path d="M193.3152 195.9505
L193.1723 195.8790
" />
<path d="M193.1723 195.8790
L192.8866 195.8076
" />
<path d="M192.8866 195.8076
L192.7437 195.7362
" />
<path d="M192.7437 195.7362
L192.6723 195.6648
" />
<path d="M192.6723 195.6648
L192.6009 195.5219
" />
<path d="M192.6009 195.5219
L192.6009 195.3790
" />
<path d="M192.6009 195.3790
L192.6723 195.2362
" />
<path d="M192.6723 195.2362
L192.7437 195.1648
" />
<path d="M192.7437 195.1648
L192.8866 195.0933
" />
<path d="M192.8866 195.0933
L193.2437 195.0933
" />
<path d="M193.2437 195.0933
L193.4580 195.1648
" />
<path d="M194.1009 196.5933
L194.1009 195.0933
" />
<path d="M195.1009 195.0933
L195.3866 195.0933
" />
<path d="M195.3866 195.0933
L195.5295 195.1648
" />
<path d="M195.5295 195.1648
L195.6723 195.3076
" />
<path d="M195.6723 195.3076
L195.7437 195.5933
" />
<path d="M195.7437 195.5933
L195.7437 196.0933
" />
<path d="M195.7437 196.0933
L195.6723 196.3790
" />
<path d="M195.6723 196.3790
L195.5295 196.5219
" />
<path d="M195.5295 196.5219
L195.3866 196.5933
" />
<path d="M195.3866 196.5933
L195.1009 196.5933
" />
<path d="M195.1009 196.5933
L194.9580 196.5219
" />
<path d="M194.9580 196.5219
L194.8152 196.3790
" />
<path d="M194.8152 196.3790
L194.7437 196.0933
" />
<path d="M194.7437 196.0933
L194.7437 195.5933
" />
<path d="M194.7437 195.5933
L194.8152 195.3076
" />
<path d="M194.8152 195.3076
L194.9580 195.1648
" />
<path d="M194.9580 195.1648
L195.1009 195.0933
" />
<path d="M196.3866 196.5933
L196.3866 195.0933
" />
<path d="M196.3866 195.0933
L197.2437 196.5933
" />
<path d="M197.2437 196.5933
L197.2437 195.0933
" />
<path d="M197.8152 197.1648
L197.8866 197.1648
" />
<path d="M197.8866 197.1648
L198.0295 197.0933
" />
<path d="M198.0295 197.0933
L198.1009 196.9505
" />
<path d="M198.1009 196.9505
L198.1009 196.2362
" />
<path d="M198.1009 196.2362
L198.1723 196.0933
" />
<path d="M198.1723 196.0933
L198.3152 196.0219
" />
<path d="M198.3152 196.0219
L198.1723 195.9505
" />
<path d="M198.1723 195.9505
L198.1009 195.8076
" />
<path d="M198.1009 195.8076
L198.1009 195.0933
" />
<path d="M198.1009 195.0933
L198.0295 194.9505
" />
<path d="M198.0295 194.9505
L197.8866 194.8790
" />
<path d="M197.8866 194.8790
L197.8152 194.8790
" />
</g><path d="M177.0022 191.5072
L285.0022 191.5072
" />
</g>
<g style="fill:none; 
stroke:#000000; stroke-width:0.3000; stroke-opacity:1; 
stroke-linecap:round; stroke-linejoin:round;">
<text x="263.0022" y="193.8572"
textLength="9.9571" font-size="2.0000" lengthAdjust="spacingAndGlyphs"
text-anchor="start" opacity="0" stroke-opacity="0">Rev: 7.0</text>
<g class="stroked-text"><desc>Rev: 7.0</desc>
<path d="M264.4139 193.7855
L263.9139 193.0712
" />
<path d="M263.5567 193.7855
L263.5567 192.2855
" />
<path d="M263.5567 192.2855
L264.1281 192.2855
" />
<path d="M264.1281 192.2855
L264.2710 192.3570
" />
<path d="M264.2710 192.3570
L264.3424 192.4284
" />
<path d="M264.3424 192.4284
L264.4139 192.5712
" />
<path d="M264.4139 192.5712
L264.4139 192.7855
" />
<path d="M264.4139 192.7855
L264.3424 192.9284
" />
<path d="M264.3424 192.9284
L264.2710 192.9998
" />
<path d="M264.2710 192.9998
L264.1281 193.0712
" />
<path d="M264.1281 193.0712
L263.5567 193.0712
" />
<path d="M265.6281 193.7141
L265.4853 193.7855
" />
<path d="M265.4853 193.7855
L265.1996 193.7855
" />
<path d="M265.1996 193.7855
L265.0567 193.7141
" />
<path d="M265.0567 193.7141
L264.9853 193.5712
" />
<path d="M264.9853 193.5712
L264.9853 192.9998
" />
<path d="M264.9853 192.9998
L265.0567 192.8570
" />
<path d="M265.0567 192.8570
L265.1996 192.7855
" />
<path d="M265.1996 192.7855
L265.4853 192.7855
" />
<path d="M265.4853 192.7855
L265.6281 192.8570
" />
<path d="M265.6281 192.8570
L265.6996 192.9998
" />
<path d="M265.6996 192.9998
L265.6996 193.1427
" />
<path d="M265.6996 193.1427
L264.9853 193.2855
" />
<path d="M266.1996 192.7855
L266.5567 193.7855
" />
<path d="M266.5567 193.7855
L266.9139 192.7855
" />
<path d="M267.4853 193.6427
L267.5567 193.7141
" />
<path d="M267.5567 193.7141
L267.4853 193.7855
" />
<path d="M267.4853 193.7855
L267.4139 193.7141
" />
<path d="M267.4139 193.7141
L267.4853 193.6427
" />
<path d="M267.4853 193.6427
L267.4853 193.7855
" />
<path d="M267.4853 192.8570
L267.5567 192.9284
" />
<path d="M267.5567 192.9284
L267.4853 192.9998
" />
<path d="M267.4853 192.9998
L267.4139 192.9284
" />
<path d="M267.4139 192.9284
L267.4853 192.8570
" />
<path d="M267.4853 192.8570
L267.4853 192.9998
" />
<path d="M269.1996 192.2855
L270.1996 192.2855
" />
<path d="M270.1996 192.2855
L269.5567 193.7855
" />
<path d="M270.7710 193.6427
L270.8424 193.7141
" />
<path d="M270.8424 193.7141
L270.7710 193.7855
" />
<path d="M270.7710 193.7855
L270.6996 193.7141
" />
<path d="M270.6996 193.7141
L270.7710 193.6427
" />
<path d="M270.7710 193.6427
L270.7710 193.7855
" />
<path d="M271.7710 192.2855
L271.9139 192.2855
" />
<path d="M271.9139 192.2855
L272.0567 192.3570
" />
<path d="M272.0567 192.3570
L272.1281 192.4284
" />
<path d="M272.1281 192.4284
L272.1996 192.5712
" />
<path d="M272.1996 192.5712
L272.2710 192.8570
" />
<path d="M272.2710 192.8570
L272.2710 193.2141
" />
<path d="M272.2710 193.2141
L272.1996 193.4998
" />
<path d="M272.1996 193.4998
L272.1281 193.6427
" />
<path d="M272.1281 193.6427
L272.0567 193.7141
" />
<path d="M272.0567 193.7141
L271.9139 193.7855
" />
<path d="M271.9139 193.7855
L271.7710 193.7855
" />
<path d="M271.7710 193.7855
L271.6281 193.7141
" />
<path d="M271.6281 193.7141
L271.5567 193.6427
" />
<path d="M271.5567 193.6427
L271.4853 193.4998
" />
<path d="M271.4853 193.4998
L271.4139 193.2141
" />
<path d="M271.4139 193.2141
L271.4139 192.8570
" />
<path d="M271.4139 192.8570
L271.4853 192.5712
" />
<path d="M271.4853 192.5712
L271.5567 192.4284
" />
<path d="M271.5567 192.4284
L271.6281 192.3570
" />
<path d="M271.6281 192.3570
L271.7710 192.2855
" />
</g></g>
<g style="fill:none; 
stroke:#000000; stroke-width:0.1500; stroke-opacity:1; 
stroke-linecap:round; stroke-linejoin:round;">
<text x="178.0022" y="193.8572"
textLength="9.3643" font-size="2.0000" lengthAdjust="spacingAndGlyphs"
text-anchor="start" opacity="0" stroke-opacity="0">Size: A4</text>
<g class="stroked-text"><desc>Size: A4</desc>
<path d="M178.3866 193.7219
L178.6009 193.7933
" />
<path d="M178.6009 193.7933
L178.9580 193.7933
" />
<path d="M178.9580 193.7933
L179.1009 193.7219
" />
<path d="M179.1009 193.7219
L179.1723 193.6505
" />
<path d="M179.1723 193.6505
L179.2437 193.5076
" />
<path d="M179.2437 193.5076
L179.2437 193.3648
" />
<path d="M179.2437 193.3648
L179.1723 193.2219
" />
<path d="M179.1723 193.2219
L179.1009 193.1505
" />
<path d="M179.1009 193.1505
L178.9580 193.0790
" />
<path d="M178.9580 193.0790
L178.6723 193.0076
" />
<path d="M178.6723 193.0076
L178.5295 192.9362
" />
<path d="M178.5295 192.9362
L178.4580 192.8648
" />
<path d="M178.4580 192.8648
L178.3866 192.7219
" />
<path d="M178.3866 192.7219
L178.3866 192.5790
" />
<path d="M178.3866 192.5790
L178.4580 192.4362
" />
<path d="M178.4580 192.4362
L178.5295 192.3648
" />
<path d="M178.5295 192.3648
L178.6723 192.2933
" />
<path d="M178.6723 192.2933
L179.0295 192.2933
" />
<path d="M179.0295 192.2933
L179.2437 192.3648
" />
<path d="M179.8866 193.7933
L179.8866 192.7933
" />
<path d="M179.8866 192.2933
L179.8152 192.3648
" />
<path d="M179.8152 192.3648
L179.8866 192.4362
" />
<path d="M179.8866 192.4362
L179.9580 192.3648
" />
<path d="M179.9580 192.3648
L179.8866 192.2933
" />
<path d="M179.8866 192.2933
L179.8866 192.4362
" />
<path d="M180.4580 192.7933
L181.2437 192.7933
" />
<path d="M181.2437 192.7933
L180.4580 193.7933
" />
<path d="M180.4580 193.7933
L181.2437 193.7933
" />
<path d="M182.3866 193.7219
L182.2437 193.7933
" />
<path d="M182.2437 193.7933
L181.9580 193.7933
" />
<path d="M181.9580 193.7933
L181.8152 193.7219
" />
<path d="M181.8152 193.7219
L181.7437 193.5790
" />
<path d="M181.7437 193.5790
L181.7437 193.0076
" />
<path d="M181.7437 193.0076
L181.8152 192.8648
" />
<path d="M181.8152 192.8648
L181.9580 192.7933
" />
<path d="M181.9580 192.7933
L182.2437 192.7933
" />
<path d="M182.2437 192.7933
L182.3866 192.8648
" />
<path d="M182.3866 192.8648
L182.4580 193.0076
" />
<path d="M182.4580 193.0076
L182.4580 193.1505
" />
<path d="M182.4580 193.1505
L181.7437 193.2933
" />
<path d="M183.1009 193.6505
L183.1723 193.7219
" />
<path d="M183.1723 193.7219
L183.1009 193.7933
" />
<path d="M183.1009 193.7933
L183.0295 193.7219
" />
<path d="M183.0295 193.7219
L183.1009 193.6505
" />
<path d="M183.1009 193.6505
L183.1009 193.7933
" />
<path d="M183.1009 192.8648
L183.1723 192.9362
" />
<path d="M183.1723 192.9362
L183.1009 193.0076
" />
<path d="M183.1009 193.0076
L183.0295 192.9362
" />
<path d="M183.0295 192.9362
L183.1009 192.8648
" />
<path d="M183.1009 192.8648
L183.1009 193.0076
" />
<path d="M184.8866 193.3648
L185.6009 193.3648
" />
<path d="M184.7437 193.7933
L185.2437 192.2933
" />
<path d="M185.2437 192.2933
L185.7437 193.7933
" />
<path d="M186.8866 192.7933
L186.8866 193.7933
" />
<path d="M186.5295 192.2219
L186.1723 193.2933
" />
<path d="M186.1723 193.2933
L187.1009 193.2933
" />
</g><text x="263.0022" y="196.6572"
textLength="7.0786" font-size="2.0000" lengthAdjust="spacingAndGlyphs"
text-anchor="start" opacity="0" stroke-opacity="0">Id: /1</text>
<g class="stroked-text"><desc>Id: /1</desc>
<path d="M263.4580 196.5933
L263.4580 195.0933
" />
<path d="M264.8152 196.5933
L264.8152 195.0933
" />
<path d="M264.8152 196.5219
L264.6723 196.5933
" />
<path d="M264.6723 196.5933
L264.3866 196.5933
" />
<path d="M264.3866 196.5933
L264.2437 196.5219
" />
<path d="M264.2437 196.5219
L264.1723 196.4505
" />
<path d="M264.1723 196.4505
L264.1009 196.3076
" />
<path d="M264.1009 196.3076
L264.1009 195.8790
" />
<path d="M264.1009 195.8790
L264.1723 195.7362
" />
<path d="M264.1723 195.7362
L264.2437 195.6648
" />
<path d="M264.2437 195.6648
L264.3866 195.5933
" />
<path d="M264.3866 195.5933
L264.6723 195.5933
" />
<path d="M264.6723 195.5933
L264.8152 195.6648
" />
<path d="M265.5295 196.4505
L265.6009 196.5219
" />
<path d="M265.6009 196.5219
L265.5295 196.5933
" />
<path d="M265.5295 196.5933
L265.4580 196.5219
" />
<path d="M265.4580 196.5219
L265.5295 196.4505
" />
<path d="M265.5295 196.4505
L265.5295 196.5933
" />
<path d="M265.5295 195.6648
L265.6009 195.7362
" />
<path d="M265.6009 195.7362
L265.5295 195.8076
" />
<path d="M265.5295 195.8076
L265.4580 195.7362
" />
<path d="M265.4580 195.7362
L265.5295 195.6648
" />
<path d="M265.5295 195.6648
L265.5295 195.8076
" />
<path d="M268.4580 195.0219
L267.1723 196.9505
" />
<path d="M269.7437 196.5933
L268.8866 196.5933
" />
<path d="M269.3152 196.5933
L269.3152 195.0933
" />
<path d="M269.3152 195.0933
L269.1723 195.3076
" />
<path d="M269.1723 195.3076
L269.0295 195.4505
" />
<path d="M269.0295 195.4505
L268.8866 195.5219
" />
</g><path d="M177.0022 187.5072
L285.0022 187.5072
" />
</g>
<g style="fill:none; 
stroke:#000000; stroke-width:0.4000; stroke-opacity:1; 
stroke-linecap:round; stroke-linejoin:round;">
<text x="178.0022" y="190.3072"
textLength="75.9429" font-size="2.6667" lengthAdjust="spacingAndGlyphs"
text-anchor="start" opacity="0" stroke-opacity="0">Title: RC2014 YM2149 / AY-3-8910 sound card</text>
<g class="stroked-text"><desc>Title: RC2014 YM2149 / AY-3-8910 sound card</desc>
<path d="M178.6939 188.2116
L179.8368 188.2116
" />
<path d="M179.0154 190.2116
L179.2654 188.2116
" />
<path d="M180.2535 190.2116
L180.4201 188.8783
" />
<path d="M180.5035 188.2116
L180.3963 188.3069
" />
<path d="M180.3963 188.3069
L180.4796 188.4021
" />
<path d="M180.4796 188.4021
L180.5868 188.3069
" />
<path d="M180.5868 188.3069
L180.5035 188.2116
" />
<path d="M180.5035 188.2116
L180.4796 188.4021
" />
<path d="M181.0868 188.8783
L181.8487 188.8783
" />
<path d="M181.4558 188.2116
L181.2415 189.9259
" />
<path d="M181.2415 189.9259
L181.3130 190.1164
" />
<path d="M181.3130 190.1164
L181.4915 190.2116
" />
<path d="M181.4915 190.2116
L181.6820 190.2116
" />
<path d="M182.6344 190.2116
L182.4558 190.1164
" />
<path d="M182.4558 190.1164
L182.3844 189.9259
" />
<path d="M182.3844 189.9259
L182.5987 188.2116
" />
<path d="M184.1701 190.1164
L183.9677 190.2116
" />
<path d="M183.9677 190.2116
L183.5868 190.2116
" />
<path d="M183.5868 190.2116
L183.4082 190.1164
" />
<path d="M183.4082 190.1164
L183.3368 189.9259
" />
<path d="M183.3368 189.9259
L183.4320 189.1640
" />
<path d="M183.4320 189.1640
L183.5511 188.9735
" />
<path d="M183.5511 188.9735
L183.7535 188.8783
" />
<path d="M183.7535 188.8783
L184.1344 188.8783
" />
<path d="M184.1344 188.8783
L184.3130 188.9735
" />
<path d="M184.3130 188.9735
L184.3844 189.1640
" />
<path d="M184.3844 189.1640
L184.3606 189.3545
" />
<path d="M184.3606 189.3545
L183.3844 189.5450
" />
<path d="M185.1344 190.0212
L185.2177 190.1164
" />
<path d="M185.2177 190.1164
L185.1106 190.2116
" />
<path d="M185.1106 190.2116
L185.0273 190.1164
" />
<path d="M185.0273 190.1164
L185.1344 190.0212
" />
<path d="M185.1344 190.0212
L185.1106 190.2116
" />
<path d="M185.2654 188.9735
L185.3487 189.0688
" />
<path d="M185.3487 189.0688
L185.2415 189.1640
" />
<path d="M185.2415 189.1640
L185.1582 189.0688
" />
<path d="M185.1582 189.0688
L185.2654 188.9735
" />
<path d="M185.2654 188.9735
L185.2415 189.1640
" />
<path d="M188.7296 190.2116
L188.1820 189.2593
" />
<path d="M187.5868 190.2116
L187.8368 188.2116
" />
<path d="M187.8368 188.2116
L188.5987 188.2116
" />
<path d="M188.5987 188.2116
L188.7773 188.3069
" />
<path d="M188.7773 188.3069
L188.8606 188.4021
" />
<path d="M188.8606 188.4021
L188.9320 188.5926
" />
<path d="M188.9320 188.5926
L188.8963 188.8783
" />
<path d="M188.8963 188.8783
L188.7773 189.0688
" />
<path d="M188.7773 189.0688
L188.6701 189.1640
" />
<path d="M188.6701 189.1640
L188.4677 189.2593
" />
<path d="M188.4677 189.2593
L187.7058 189.2593
" />
<path d="M190.7535 190.0212
L190.6463 190.1164
" />
<path d="M190.6463 190.1164
L190.3487 190.2116
" />
<path d="M190.3487 190.2116
L190.1582 190.2116
" />
<path d="M190.1582 190.2116
L189.8844 190.1164
" />
<path d="M189.8844 190.1164
L189.7177 189.9259
" />
<path d="M189.7177 189.9259
L189.6463 189.7354
" />
<path d="M189.6463 189.7354
L189.5987 189.3545
" />
<path d="M189.5987 189.3545
L189.6344 189.0688
" />
<path d="M189.6344 189.0688
L189.7773 188.6878
" />
<path d="M189.7773 188.6878
L189.8963 188.4974
" />
<path d="M189.8963 188.4974
L190.1106 188.3069
" />
<path d="M190.1106 188.3069
L190.4082 188.2116
" />
<path d="M190.4082 188.2116
L190.5987 188.2116
" />
<path d="M190.5987 188.2116
L190.8725 188.3069
" />
<path d="M190.8725 188.3069
L190.9558 188.4021
" />
<path d="M191.7177 188.4021
L191.8249 188.3069
" />
<path d="M191.8249 188.3069
L192.0273 188.2116
" />
<path d="M192.0273 188.2116
L192.5035 188.2116
" />
<path d="M192.5035 188.2116
L192.6820 188.3069
" />
<path d="M192.6820 188.3069
L192.7654 188.4021
" />
<path d="M192.7654 188.4021
L192.8368 188.5926
" />
<path d="M192.8368 188.5926
L192.8130 188.7831
" />
<path d="M192.8130 188.7831
L192.6820 189.0688
" />
<path d="M192.6820 189.0688
L191.3963 190.2116
" />
<path d="M191.3963 190.2116
L192.6344 190.2116
" />
<path d="M194.1225 188.2116
L194.3130 188.2116
" />
<path d="M194.3130 188.2116
L194.4915 188.3069
" />
<path d="M194.4915 188.3069
L194.5749 188.4021
" />
<path d="M194.5749 188.4021
L194.6463 188.5926
" />
<path d="M194.6463 188.5926
L194.6939 188.9735
" />
<path d="M194.6939 188.9735
L194.6344 189.4497
" />
<path d="M194.6344 189.4497
L194.4915 189.8307
" />
<path d="M194.4915 189.8307
L194.3725 190.0212
" />
<path d="M194.3725 190.0212
L194.2654 190.1164
" />
<path d="M194.2654 190.1164
L194.0630 190.2116
" />
<path d="M194.0630 190.2116
L193.8725 190.2116
" />
<path d="M193.8725 190.2116
L193.6939 190.1164
" />
<path d="M193.6939 190.1164
L193.6106 190.0212
" />
<path d="M193.6106 190.0212
L193.5392 189.8307
" />
<path d="M193.5392 189.8307
L193.4915 189.4497
" />
<path d="M193.4915 189.4497
L193.5511 188.9735
" />
<path d="M193.5511 188.9735
L193.6939 188.5926
" />
<path d="M193.6939 188.5926
L193.8130 188.4021
" />
<path d="M193.8130 188.4021
L193.9201 188.3069
" />
<path d="M193.9201 188.3069
L194.1225 188.2116
" />
<path d="M196.4439 190.2116
L195.3011 190.2116
" />
<path d="M195.8725 190.2116
L196.1225 188.2116
" />
<path d="M196.1225 188.2116
L195.8963 188.4974
" />
<path d="M195.8963 188.4974
L195.6820 188.6878
" />
<path d="M195.6820 188.6878
L195.4796 188.7831
" />
<path d="M198.3249 188.8783
L198.1582 190.2116
" />
<path d="M197.9439 188.1164
L197.2892 189.5450
" />
<path d="M197.2892 189.5450
L198.5273 189.5450
" />
<path d="M201.2296 189.2593
L201.1106 190.2116
" />
<path d="M200.6939 188.2116
L201.2296 189.2593
" />
<path d="M201.2296 189.2593
L202.0273 188.2116
" />
<path d="M202.4439 190.2116
L202.6939 188.2116
" />
<path d="M202.6939 188.2116
L203.1820 189.6402
" />
<path d="M203.1820 189.6402
L204.0273 188.2116
" />
<path d="M204.0273 188.2116
L203.7773 190.2116
" />
<path d="M204.8606 188.4021
L204.9677 188.3069
" />
<path d="M204.9677 188.3069
L205.1701 188.2116
" />
<path d="M205.1701 188.2116
L205.6463 188.2116
" />
<path d="M205.6463 188.2116
L205.8249 188.3069
" />
<path d="M205.8249 188.3069
L205.9082 188.4021
" />
<path d="M205.9082 188.4021
L205.9796 188.5926
" />
<path d="M205.9796 188.5926
L205.9558 188.7831
" />
<path d="M205.9558 188.7831
L205.8249 189.0688
" />
<path d="M205.8249 189.0688
L204.5392 190.2116
" />
<path d="M204.5392 190.2116
L205.7773 190.2116
" />
<path d="M207.6820 190.2116
L206.5392 190.2116
" />
<path d="M207.1106 190.2116
L207.3606 188.2116
" />
<path d="M207.3606 188.2116
L207.1344 188.4974
" />
<path d="M207.1344 188.4974
L206.9201 188.6878
" />
<path d="M206.9201 188.6878
L206.7177 188.7831
" />
<path d="M209.5630 188.8783
L209.3963 190.2116
" />
<path d="M209.1820 188.1164
L208.5273 189.5450
" />
<path d="M208.5273 189.5450
L209.7654 189.5450
" />
<path d="M210.5392 190.2116
L210.9201 190.2116
" />
<path d="M210.9201 190.2116
L211.1225 190.1164
" />
<path d="M211.1225 190.1164
L211.2296 190.0212
" />
<path d="M211.2296 190.0212
L211.4558 189.7354
" />
<path d="M211.4558 189.7354
L211.5987 189.3545
" />
<path d="M211.5987 189.3545
L211.6939 188.5926
" />
<path d="M211.6939 188.5926
L211.6225 188.4021
" />
<path d="M211.6225 188.4021
L211.5392 188.3069
" />
<path d="M211.5392 188.3069
L211.3606 188.2116
" />
<path d="M211.3606 188.2116
L210.9796 188.2116
" />
<path d="M210.9796 188.2116
L210.7773 188.3069
" />
<path d="M210.7773 188.3069
L210.6701 188.4021
" />
<path d="M210.6701 188.4021
L210.5511 188.5926
" />
<path d="M210.5511 188.5926
L210.4915 189.0688
" />
<path d="M210.4915 189.0688
L210.5630 189.2593
" />
<path d="M210.5630 189.2593
L210.6463 189.3545
" />
<path d="M210.6463 189.3545
L210.8249 189.4497
" />
<path d="M210.8249 189.4497
L211.2058 189.4497
" />
<path d="M211.2058 189.4497
L211.4082 189.3545
" />
<path d="M211.4082 189.3545
L211.5154 189.2593
" />
<path d="M211.5154 189.2593
L211.6344 189.0688
" />
<path d="M215.5630 188.1164
L213.5273 190.6878
" />
<path d="M217.4677 189.6402
L218.4201 189.6402
" />
<path d="M217.2058 190.2116
L218.1225 188.2116
" />
<path d="M218.1225 188.2116
L218.5392 190.2116
" />
<path d="M219.7058 189.2593
L219.5868 190.2116
" />
<path d="M219.1701 188.2116
L219.7058 189.2593
" />
<path d="M219.7058 189.2593
L220.5035 188.2116
" />
<path d="M221.0154 189.4497
L222.5392 189.4497
" />
<path d="M223.4558 188.2116
L224.6939 188.2116
" />
<path d="M224.6939 188.2116
L223.9320 188.9735
" />
<path d="M223.9320 188.9735
L224.2177 188.9735
" />
<path d="M224.2177 188.9735
L224.3963 189.0688
" />
<path d="M224.3963 189.0688
L224.4796 189.1640
" />
<path d="M224.4796 189.1640
L224.5511 189.3545
" />
<path d="M224.5511 189.3545
L224.4915 189.8307
" />
<path d="M224.4915 189.8307
L224.3725 190.0212
" />
<path d="M224.3725 190.0212
L224.2654 190.1164
" />
<path d="M224.2654 190.1164
L224.0630 190.2116
" />
<path d="M224.0630 190.2116
L223.4915 190.2116
" />
<path d="M223.4915 190.2116
L223.3130 190.1164
" />
<path d="M223.3130 190.1164
L223.2296 190.0212
" />
<path d="M225.3963 189.4497
L226.9201 189.4497
" />
<path d="M228.2058 189.0688
L228.0273 188.9735
" />
<path d="M228.0273 188.9735
L227.9439 188.8783
" />
<path d="M227.9439 188.8783
L227.8725 188.6878
" />
<path d="M227.8725 188.6878
L227.8844 188.5926
" />
<path d="M227.8844 188.5926
L228.0035 188.4021
" />
<path d="M228.0035 188.4021
L228.1106 188.3069
" />
<path d="M228.1106 188.3069
L228.3130 188.2116
" />
<path d="M228.3130 188.2116
L228.6939 188.2116
" />
<path d="M228.6939 188.2116
L228.8725 188.3069
" />
<path d="M228.8725 188.3069
L228.9558 188.4021
" />
<path d="M228.9558 188.4021
L229.0273 188.5926
" />
<path d="M229.0273 188.5926
L229.0154 188.6878
" />
<path d="M229.0154 188.6878
L228.8963 188.8783
" />
<path d="M228.8963 188.8783
L228.7892 188.9735
" />
<path d="M228.7892 188.9735
L228.5868 189.0688
" />
<path d="M228.5868 189.0688
L228.2058 189.0688
" />
<path d="M228.2058 189.0688
L228.0035 189.1640
" />
<path d="M228.0035 189.1640
L227.8963 189.2593
" />
<path d="M227.8963 189.2593
L227.7773 189.4497
" />
<path d="M227.7773 189.4497
L227.7296 189.8307
" />
<path d="M227.7296 189.8307
L227.8011 190.0212
" />
<path d="M227.8011 190.0212
L227.8844 190.1164
" />
<path d="M227.8844 190.1164
L228.0630 190.2116
" />
<path d="M228.0630 190.2116
L228.4439 190.2116
" />
<path d="M228.4439 190.2116
L228.6463 190.1164
" />
<path d="M228.6463 190.1164
L228.7535 190.0212
" />
<path d="M228.7535 190.0212
L228.8725 189.8307
" />
<path d="M228.8725 189.8307
L228.9201 189.4497
" />
<path d="M228.9201 189.4497
L228.8487 189.2593
" />
<path d="M228.8487 189.2593
L228.7654 189.1640
" />
<path d="M228.7654 189.1640
L228.5868 189.0688
" />
<path d="M229.7773 190.2116
L230.1582 190.2116
" />
<path d="M230.1582 190.2116
L230.3606 190.1164
" />
<path d="M230.3606 190.1164
L230.4677 190.0212
" />
<path d="M230.4677 190.0212
L230.6939 189.7354
" />
<path d="M230.6939 189.7354
L230.8368 189.3545
" />
<path d="M230.8368 189.3545
L230.9320 188.5926
" />
<path d="M230.9320 188.5926
L230.8606 188.4021
" />
<path d="M230.8606 188.4021
L230.7773 188.3069
" />
<path d="M230.7773 188.3069
L230.5987 188.2116
" />
<path d="M230.5987 188.2116
L230.2177 188.2116
" />
<path d="M230.2177 188.2116
L230.0154 188.3069
" />
<path d="M230.0154 188.3069
L229.9082 188.4021
" />
<path d="M229.9082 188.4021
L229.7892 188.5926
" />
<path d="M229.7892 188.5926
L229.7296 189.0688
" />
<path d="M229.7296 189.0688
L229.8011 189.2593
" />
<path d="M229.8011 189.2593
L229.8844 189.3545
" />
<path d="M229.8844 189.3545
L230.0630 189.4497
" />
<path d="M230.0630 189.4497
L230.4439 189.4497
" />
<path d="M230.4439 189.4497
L230.6463 189.3545
" />
<path d="M230.6463 189.3545
L230.7535 189.2593
" />
<path d="M230.7535 189.2593
L230.8725 189.0688
" />
<path d="M232.6344 190.2116
L231.4915 190.2116
" />
<path d="M232.0630 190.2116
L232.3130 188.2116
" />
<path d="M232.3130 188.2116
L232.0868 188.4974
" />
<path d="M232.0868 188.4974
L231.8725 188.6878
" />
<path d="M231.8725 188.6878
L231.6701 188.7831
" />
<path d="M234.1225 188.2116
L234.3130 188.2116
" />
<path d="M234.3130 188.2116
L234.4915 188.3069
" />
<path d="M234.4915 188.3069
L234.5749 188.4021
" />
<path d="M234.5749 188.4021
L234.6463 188.5926
" />
<path d="M234.6463 188.5926
L234.6939 188.9735
" />
<path d="M234.6939 188.9735
L234.6344 189.4497
" />
<path d="M234.6344 189.4497
L234.4915 189.8307
" />
<path d="M234.4915 189.8307
L234.3725 190.0212
" />
<path d="M234.3725 190.0212
L234.2654 190.1164
" />
<path d="M234.2654 190.1164
L234.0630 190.2116
" />
<path d="M234.0630 190.2116
L233.8725 190.2116
" />
<path d="M233.8725 190.2116
L233.6939 190.1164
" />
<path d="M233.6939 190.1164
L233.6106 190.0212
" />
<path d="M233.6106 190.0212
L233.5392 189.8307
" />
<path d="M233.5392 189.8307
L233.4915 189.4497
" />
<path d="M233.4915 189.4497
L233.5511 188.9735
" />
<path d="M233.5511 188.9735
L233.6939 188.5926
" />
<path d="M233.6939 188.5926
L233.8130 188.4021
" />
<path d="M233.8130 188.4021
L233.9201 188.3069
" />
<path d="M233.9201 188.3069
L234.1225 188.2116
" />
<path d="M236.8368 190.1164
L237.0154 190.2116
" />
<path d="M237.0154 190.2116
L237.3963 190.2116
" />
<path d="M237.3963 190.2116
L237.5987 190.1164
" />
<path d="M237.5987 190.1164
L237.7177 189.9259
" />
<path d="M237.7177 189.9259
L237.7296 189.8307
" />
<path d="M237.7296 189.8307
L237.6582 189.6402
" />
<path d="M237.6582 189.6402
L237.4796 189.5450
" />
<path d="M237.4796 189.5450
L237.1939 189.5450
" />
<path d="M237.1939 189.5450
L237.0154 189.4497
" />
<path d="M237.0154 189.4497
L236.9439 189.2593
" />
<path d="M236.9439 189.2593
L236.9558 189.1640
" />
<path d="M236.9558 189.1640
L237.0749 188.9735
" />
<path d="M237.0749 188.9735
L237.2773 188.8783
" />
<path d="M237.2773 188.8783
L237.5630 188.8783
" />
<path d="M237.5630 188.8783
L237.7416 188.9735
" />
<path d="M238.8249 190.2116
L238.6463 190.1164
" />
<path d="M238.6463 190.1164
L238.5630 190.0212
" />
<path d="M238.5630 190.0212
L238.4916 189.8307
" />
<path d="M238.4916 189.8307
L238.5630 189.2593
" />
<path d="M238.5630 189.2593
L238.6820 189.0688
" />
<path d="M238.6820 189.0688
L238.7892 188.9735
" />
<path d="M238.7892 188.9735
L238.9916 188.8783
" />
<path d="M238.9916 188.8783
L239.2773 188.8783
" />
<path d="M239.2773 188.8783
L239.4558 188.9735
" />
<path d="M239.4558 188.9735
L239.5392 189.0688
" />
<path d="M239.5392 189.0688
L239.6106 189.2593
" />
<path d="M239.6106 189.2593
L239.5392 189.8307
" />
<path d="M239.5392 189.8307
L239.4201 190.0212
" />
<path d="M239.4201 190.0212
L239.3130 190.1164
" />
<path d="M239.3130 190.1164
L239.1106 190.2116
" />
<path d="M239.1106 190.2116
L238.8249 190.2116
" />
<path d="M241.3725 188.8783
L241.2058 190.2116
" />
<path d="M240.5154 188.8783
L240.3844 189.9259
" />
<path d="M240.3844 189.9259
L240.4558 190.1164
" />
<path d="M240.4558 190.1164
L240.6344 190.2116
" />
<path d="M240.6344 190.2116
L240.9201 190.2116
" />
<path d="M240.9201 190.2116
L241.1225 190.1164
" />
<path d="M241.1225 190.1164
L241.2296 190.0212
" />
<path d="M242.3249 188.8783
L242.1582 190.2116
" />
<path d="M242.3011 189.0688
L242.4082 188.9735
" />
<path d="M242.4082 188.9735
L242.6106 188.8783
" />
<path d="M242.6106 188.8783
L242.8963 188.8783
" />
<path d="M242.8963 188.8783
L243.0749 188.9735
" />
<path d="M243.0749 188.9735
L243.1463 189.1640
" />
<path d="M243.1463 189.1640
L243.0154 190.2116
" />
<path d="M244.8249 190.2116
L245.0749 188.2116
" />
<path d="M244.8368 190.1164
L244.6344 190.2116
" />
<path d="M244.6344 190.2116
L244.2535 190.2116
" />
<path d="M244.2535 190.2116
L244.0749 190.1164
" />
<path d="M244.0749 190.1164
L243.9916 190.0212
" />
<path d="M243.9916 190.0212
L243.9201 189.8307
" />
<path d="M243.9201 189.8307
L243.9916 189.2593
" />
<path d="M243.9916 189.2593
L244.1106 189.0688
" />
<path d="M244.1106 189.0688
L244.2177 188.9735
" />
<path d="M244.2177 188.9735
L244.4201 188.8783
" />
<path d="M244.4201 188.8783
L244.8011 188.8783
" />
<path d="M244.8011 188.8783
L244.9796 188.9735
" />
<path d="M248.1701 190.1164
L247.9677 190.2116
" />
<path d="M247.9677 190.2116
L247.5868 190.2116
" />
<path d="M247.5868 190.2116
L247.4082 190.1164
" />
<path d="M247.4082 190.1164
L247.3249 190.0212
" />
<path d="M247.3249 190.0212
L247.2535 189.8307
" />
<path d="M247.2535 189.8307
L247.3249 189.2593
" />
<path d="M247.3249 189.2593
L247.4439 189.0688
" />
<path d="M247.4439 189.0688
L247.5511 188.9735
" />
<path d="M247.5511 188.9735
L247.7535 188.8783
" />
<path d="M247.7535 188.8783
L248.1344 188.8783
" />
<path d="M248.1344 188.8783
L248.3130 188.9735
" />
<path d="M249.8725 190.2116
L250.0035 189.1640
" />
<path d="M250.0035 189.1640
L249.9320 188.9735
" />
<path d="M249.9320 188.9735
L249.7535 188.8783
" />
<path d="M249.7535 188.8783
L249.3725 188.8783
" />
<path d="M249.3725 188.8783
L249.1701 188.9735
" />
<path d="M249.8844 190.1164
L249.6820 190.2116
" />
<path d="M249.6820 190.2116
L249.2058 190.2116
" />
<path d="M249.2058 190.2116
L249.0273 190.1164
" />
<path d="M249.0273 190.1164
L248.9558 189.9259
" />
<path d="M248.9558 189.9259
L248.9796 189.7354
" />
<path d="M248.9796 189.7354
L249.0987 189.5450
" />
<path d="M249.0987 189.5450
L249.3011 189.4497
" />
<path d="M249.3011 189.4497
L249.7773 189.4497
" />
<path d="M249.7773 189.4497
L249.9796 189.3545
" />
<path d="M250.8249 190.2116
L250.9916 188.8783
" />
<path d="M250.9439 189.2593
L251.0630 189.0688
" />
<path d="M251.0630 189.0688
L251.1701 188.9735
" />
<path d="M251.1701 188.9735
L251.3725 188.8783
" />
<path d="M251.3725 188.8783
L251.5630 188.8783
" />
<path d="M252.9201 190.2116
L253.1701 188.2116
" />
<path d="M252.9320 190.1164
L252.7296 190.2116
" />
<path d="M252.7296 190.2116
L252.3487 190.2116
" />
<path d="M252.3487 190.2116
L252.1701 190.1164
" />
<path d="M252.1701 190.1164
L252.0868 190.0212
" />
<path d="M252.0868 190.0212
L252.0154 189.8307
" />
<path d="M252.0154 189.8307
L252.0868 189.2593
" />
<path d="M252.0868 189.2593
L252.2058 189.0688
" />
<path d="M252.2058 189.0688
L252.3130 188.9735
" />
<path d="M252.3130 188.9735
L252.5154 188.8783
" />
<path d="M252.5154 188.8783
L252.8963 188.8783
" />
<path d="M252.8963 188.8783
L253.0749 188.9735
" />
</g></g>
<g style="fill:none; 
stroke:#000000; stroke-width:0.1500; stroke-opacity:1; 
stroke-linecap:round; stroke-linejoin:round;">
<text x="178.0022" y="186.4572"
textLength="36.5071" font-size="2.0000" lengthAdjust="spacingAndGlyphs"
text-anchor="start" opacity="0" stroke-opacity="0">File: rc2014-ym2149.kicad_pcb</text>
<g class="stroked-text"><desc>File: rc2014-ym2149.kicad_pcb</desc>
<path d="M178.9580 185.6076
L178.4580 185.6076
" />
<path d="M178.4580 186.3933
L178.4580 184.8933
" />
<path d="M178.4580 184.8933
L179.1723 184.8933
" />
<path d="M179.7437 186.3933
L179.7437 185.3933
" />
<path d="M179.7437 184.8933
L179.6723 184.9648
" />
<path d="M179.6723 184.9648
L179.7437 185.0362
" />
<path d="M179.7437 185.0362
L179.8152 184.9648
" />
<path d="M179.8152 184.9648
L179.7437 184.8933
" />
<path d="M179.7437 184.8933
L179.7437 185.0362
" />
<path d="M180.6723 186.3933
L180.5295 186.3219
" />
<path d="M180.5295 186.3219
L180.4580 186.1790
" />
<path d="M180.4580 186.1790
L180.4580 184.8933
" />
<path d="M181.8152 186.3219
L181.6723 186.3933
" />
<path d="M181.6723 186.3933
L181.3866 186.3933
" />
<path d="M181.3866 186.3933
L181.2437 186.3219
" />
<path d="M181.2437 186.3219
L181.1723 186.1790
" />
<path d="M181.1723 186.1790
L181.1723 185.6076
" />
<path d="M181.1723 185.6076
L181.2437 185.4648
" />
<path d="M181.2437 185.4648
L181.3866 185.3933
" />
<path d="M181.3866 185.3933
L181.6723 185.3933
" />
<path d="M181.6723 185.3933
L181.8152 185.4648
" />
<path d="M181.8152 185.4648
L181.8866 185.6076
" />
<path d="M181.8866 185.6076
L181.8866 185.7505
" />
<path d="M181.8866 185.7505
L181.1723 185.8933
" />
<path d="M182.5295 186.2505
L182.6009 186.3219
" />
<path d="M182.6009 186.3219
L182.5295 186.3933
" />
<path d="M182.5295 186.3933
L182.4580 186.3219
" />
<path d="M182.4580 186.3219
L182.5295 186.2505
" />
<path d="M182.5295 186.2505
L182.5295 186.3933
" />
<path d="M182.5295 185.4648
L182.6009 185.5362
" />
<path d="M182.6009 185.5362
L182.5295 185.6076
" />
<path d="M182.5295 185.6076
L182.4580 185.5362
" />
<path d="M182.4580 185.5362
L182.5295 185.4648
" />
<path d="M182.5295 185.4648
L182.5295 185.6076
" />
<path d="M184.3866 186.3933
L184.3866 185.3933
" />
<path d="M184.3866 185.6790
L184.4580 185.5362
" />
<path d="M184.4580 185.5362
L184.5295 185.4648
" />
<path d="M184.5295 185.4648
L184.6723 185.3933
" />
<path d="M184.6723 185.3933
L184.8152 185.3933
" />
<path d="M185.9580 186.3219
L185.8152 186.3933
" />
<path d="M185.8152 186.3933
L185.5295 186.3933
" />
<path d="M185.5295 186.3933
L185.3866 186.3219
" />
<path d="M185.3866 186.3219
L185.3152 186.2505
" />
<path d="M185.3152 186.2505
L185.2437 186.1076
" />
<path d="M185.2437 186.1076
L185.2437 185.6790
" />
<path d="M185.2437 185.6790
L185.3152 185.5362
" />
<path d="M185.3152 185.5362
L185.3866 185.4648
" />
<path d="M185.3866 185.4648
L185.5295 185.3933
" />
<path d="M185.5295 185.3933
L185.8152 185.3933
" />
<path d="M185.8152 185.3933
L185.9580 185.4648
" />
<path d="M186.5295 185.0362
L186.6009 184.9648
" />
<path d="M186.6009 184.9648
L186.7437 184.8933
" />
<path d="M186.7437 184.8933
L187.1009 184.8933
" />
<path d="M187.1009 184.8933
L187.2437 184.9648
" />
<path d="M187.2437 184.9648
L187.3152 185.0362
" />
<path d="M187.3152 185.0362
L187.3866 185.1790
" />
<path d="M187.3866 185.1790
L187.3866 185.3219
" />
<path d="M187.3866 185.3219
L187.3152 185.5362
" />
<path d="M187.3152 185.5362
L186.4580 186.3933
" />
<path d="M186.4580 186.3933
L187.3866 186.3933
" />
<path d="M188.3152 184.8933
L188.4580 184.8933
" />
<path d="M188.4580 184.8933
L188.6009 184.9648
" />
<path d="M188.6009 184.9648
L188.6723 185.0362
" />
<path d="M188.6723 185.0362
L188.7437 185.1790
" />
<path d="M188.7437 185.1790
L188.8152 185.4648
" />
<path d="M188.8152 185.4648
L188.8152 185.8219
" />
<path d="M188.8152 185.8219
L188.7437 186.1076
" />
<path d="M188.7437 186.1076
L188.6723 186.2505
" />
<path d="M188.6723 186.2505
L188.6009 186.3219
" />
<path d="M188.6009 186.3219
L188.4580 186.3933
" />
<path d="M188.4580 186.3933
L188.3152 186.3933
" />
<path d="M188.3152 186.3933
L188.1723 186.3219
" />
<path d="M188.1723 186.3219
L188.1009 186.2505
" />
<path d="M188.1009 186.2505
L188.0295 186.1076
" />
<path d="M188.0295 186.1076
L187.9580 185.8219
" />
<path d="M187.9580 185.8219
L187.9580 185.4648
" />
<path d="M187.9580 185.4648
L188.0295 185.1790
" />
<path d="M188.0295 185.1790
L188.1009 185.0362
" />
<path d="M188.1009 185.0362
L188.1723 184.9648
" />
<path d="M188.1723 184.9648
L188.3152 184.8933
" />
<path d="M190.2437 186.3933
L189.3866 186.3933
" />
<path d="M189.8152 186.3933
L189.8152 184.8933
" />
<path d="M189.8152 184.8933
L189.6723 185.1076
" />
<path d="M189.6723 185.1076
L189.5295 185.2505
" />
<path d="M189.5295 185.2505
L189.3866 185.3219
" />
<path d="M191.5295 185.3933
L191.5295 186.3933
" />
<path d="M191.1723 184.8219
L190.8152 185.8933
" />
<path d="M190.8152 185.8933
L191.7437 185.8933
" />
<path d="M192.3152 185.8219
L193.4580 185.8219
" />
<path d="M194.0295 185.3933
L194.3866 186.3933
" />
<path d="M194.7437 185.3933
L194.3866 186.3933
" />
<path d="M194.3866 186.3933
L194.2437 186.7505
" />
<path d="M194.2437 186.7505
L194.1723 186.8219
" />
<path d="M194.1723 186.8219
L194.0295 186.8933
" />
<path d="M195.3152 186.3933
L195.3152 185.3933
" />
<path d="M195.3152 185.5362
L195.3866 185.4648
" />
<path d="M195.3866 185.4648
L195.5295 185.3933
" />
<path d="M195.5295 185.3933
L195.7437 185.3933
" />
<path d="M195.7437 185.3933
L195.8866 185.4648
" />
<path d="M195.8866 185.4648
L195.9580 185.6076
" />
<path d="M195.9580 185.6076
L195.9580 186.3933
" />
<path d="M195.9580 185.6076
L196.0295 185.4648
" />
<path d="M196.0295 185.4648
L196.1723 185.3933
" />
<path d="M196.1723 185.3933
L196.3866 185.3933
" />
<path d="M196.3866 185.3933
L196.5295 185.4648
" />
<path d="M196.5295 185.4648
L196.6009 185.6076
" />
<path d="M196.6009 185.6076
L196.6009 186.3933
" />
<path d="M197.2437 185.0362
L197.3152 184.9648
" />
<path d="M197.3152 184.9648
L197.4580 184.8933
" />
<path d="M197.4580 184.8933
L197.8152 184.8933
" />
<path d="M197.8152 184.8933
L197.9580 184.9648
" />
<path d="M197.9580 184.9648
L198.0295 185.0362
" />
<path d="M198.0295 185.0362
L198.1009 185.1790
" />
<path d="M198.1009 185.1790
L198.1009 185.3219
" />
<path d="M198.1009 185.3219
L198.0295 185.5362
" />
<path d="M198.0295 185.5362
L197.1723 186.3933
" />
<path d="M197.1723 186.3933
L198.1009 186.3933
" />
<path d="M199.5295 186.3933
L198.6723 186.3933
" />
<path d="M199.1009 186.3933
L199.1009 184.8933
" />
<path d="M199.1009 184.8933
L198.9580 185.1076
" />
<path d="M198.9580 185.1076
L198.8152 185.2505
" />
<path d="M198.8152 185.2505
L198.6723 185.3219
" />
<path d="M200.8152 185.3933
L200.8152 186.3933
" />
<path d="M200.4580 184.8219
L200.1009 185.8933
" />
<path d="M200.1009 185.8933
L201.0295 185.8933
" />
<path d="M201.6723 186.3933
L201.9580 186.3933
" />
<path d="M201.9580 186.3933
L202.1009 186.3219
" />
<path d="M202.1009 186.3219
L202.1723 186.2505
" />
<path d="M202.1723 186.2505
L202.3152 186.0362
" />
<path d="M202.3152 186.0362
L202.3866 185.7505
" />
<path d="M202.3866 185.7505
L202.3866 185.1790
" />
<path d="M202.3866 185.1790
L202.3152 185.0362
" />
<path d="M202.3152 185.0362
L202.2437 184.9648
" />
<path d="M202.2437 184.9648
L202.1009 184.8933
" />
<path d="M202.1009 184.8933
L201.8152 184.8933
" />
<path d="M201.8152 184.8933
L201.6723 184.9648
" />
<path d="M201.6723 184.9648
L201.6009 185.0362
" />
<path d="M201.6009 185.0362
L201.5295 185.1790
" />
<path d="M201.5295 185.1790
L201.5295 185.5362
" />
<path d="M201.5295 185.5362
L201.6009 185.6790
" />
<path d="M201.6009 185.6790
L201.6723 185.7505
" />
<path d="M201.6723 185.7505
L201.8152 185.8219
" />
<path d="M201.8152 185.8219
L202.1009 185.8219
" />
<path d="M202.1009 185.8219
L202.2437 185.7505
" />
<path d="M202.2437 185.7505
L202.3152 185.6790
" />
<path d="M202.3152 185.6790
L202.3866 185.5362
" />
<path d="M203.0294 186.2505
L203.1009 186.3219
" />
<path d="M203.1009 186.3219
L203.0294 186.3933
" />
<path d="M203.0294 186.3933
L202.9580 186.3219
" />
<path d="M202.9580 186.3219
L203.0294 186.2505
" />
<path d="M203.0294 186.2505
L203.0294 186.3933
" />
<path d="M203.7437 186.3933
L203.7437 184.8933
" />
<path d="M203.8866 185.8219
L204.3152 186.3933
" />
<path d="M204.3152 185.3933
L203.7437 185.9648
" />
<path d="M204.9580 186.3933
L204.9580 185.3933
" />
<path d="M204.9580 184.8933
L204.8866 184.9648
" />
<path d="M204.8866 184.9648
L204.9580 185.0362
" />
<path d="M204.9580 185.0362
L205.0295 184.9648
" />
<path d="M205.0295 184.9648
L204.9580 184.8933
" />
<path d="M204.9580 184.8933
L204.9580 185.0362
" />
<path d="M206.3152 186.3219
L206.1723 186.3933
" />
<path d="M206.1723 186.3933
L205.8866 186.3933
" />
<path d="M205.8866 186.3933
L205.7437 186.3219
" />
<path d="M205.7437 186.3219
L205.6723 186.2505
" />
<path d="M205.6723 186.2505
L205.6009 186.1076
" />
<path d="M205.6009 186.1076
L205.6009 185.6790
" />
<path d="M205.6009 185.6790
L205.6723 185.5362
" />
<path d="M205.6723 185.5362
L205.7437 185.4648
" />
<path d="M205.7437 185.4648
L205.8866 185.3933
" />
<path d="M205.8866 185.3933
L206.1723 185.3933
" />
<path d="M206.1723 185.3933
L206.3152 185.4648
" />
<path d="M207.6009 186.3933
L207.6009 185.6076
" />
<path d="M207.6009 185.6076
L207.5295 185.4648
" />
<path d="M207.5295 185.4648
L207.3866 185.3933
" />
<path d="M207.3866 185.3933
L207.1009 185.3933
" />
<path d="M207.1009 185.3933
L206.9580 185.4648
" />
<path d="M207.6009 186.3219
L207.4580 186.3933
" />
<path d="M207.4580 186.3933
L207.1009 186.3933
" />
<path d="M207.1009 186.3933
L206.9580 186.3219
" />
<path d="M206.9580 186.3219
L206.8866 186.1790
" />
<path d="M206.8866 186.1790
L206.8866 186.0362
" />
<path d="M206.8866 186.0362
L206.9580 185.8933
" />
<path d="M206.9580 185.8933
L207.1009 185.8219
" />
<path d="M207.1009 185.8219
L207.4580 185.8219
" />
<path d="M207.4580 185.8219
L207.6009 185.7505
" />
<path d="M208.9580 186.3933
L208.9580 184.8933
" />
<path d="M208.9580 186.3219
L208.8152 186.3933
" />
<path d="M208.8152 186.3933
L208.5295 186.3933
" />
<path d="M208.5295 186.3933
L208.3866 186.3219
" />
<path d="M208.3866 186.3219
L208.3152 186.2505
" />
<path d="M208.3152 186.2505
L208.2437 186.1076
" />
<path d="M208.2437 186.1076
L208.2437 185.6790
" />
<path d="M208.2437 185.6790
L208.3152 185.5362
" />
<path d="M208.3152 185.5362
L208.3866 185.4648
" />
<path d="M208.3866 185.4648
L208.5295 185.3933
" />
<path d="M208.5295 185.3933
L208.8152 185.3933
" />
<path d="M208.8152 185.3933
L208.9580 185.4648
" />
<path d="M209.3152 186.5362
L210.4580 186.5362
" />
<path d="M210.8152 185.3933
L210.8152 186.8933
" />
<path d="M210.8152 185.4648
L210.9580 185.3933
" />
<path d="M210.9580 185.3933
L211.2437 185.3933
" />
<path d="M211.2437 185.3933
L211.3866 185.4648
" />
<path d="M211.3866 185.4648
L211.4580 185.5362
" />
<path d="M211.4580 185.5362
L211.5295 185.6790
" />
<path d="M211.5295 185.6790
L211.5295 186.1076
" />
<path d="M211.5295 186.1076
L211.4580 186.2505
" />
<path d="M211.4580 186.2505
L211.3866 186.3219
" />
<path d="M211.3866 186.3219
L211.2437 186.3933
" />
<path d="M211.2437 186.3933
L210.9580 186.3933
" />
<path d="M210.9580 186.3933
L210.8152 186.3219
" />
<path d="M212.8152 186.3219
L212.6723 186.3933
" />
<path d="M212.6723 186.3933
L212.3866 186.3933
" />
<path d="M212.3866 186.3933
L212.2437 186.3219
" />
<path d="M212.2437 186.3219
L212.1723 186.2505
" />
<path d="M212.1723 186.2505
L212.1009 186.1076
" />
<path d="M212.1009 186.1076
L212.1009 185.6790
" />
<path d="M212.1009 185.6790
L212.1723 185.5362
" />
<path d="M212.1723 185.5362
L212.2437 185.4648
" />
<path d="M212.2437 185.4648
L212.3866 185.3933
" />
<path d="M212.3866 185.3933
L212.6723 185.3933
" />
<path d="M212.6723 185.3933
L212.8152 185.4648
" />
<path d="M213.4580 186.3933
L213.4580 184.8933
" />
<path d="M213.4580 185.4648
L213.6009 185.3933
" />
<path d="M213.6009 185.3933
L213.8866 185.3933
" />
<path d="M213.8866 185.3933
L214.0295 185.4648
" />
<path d="M214.0295 185.4648
L214.1009 185.5362
" />
<path d="M214.1009 185.5362
L214.1723 185.6790
" />
<path d="M214.1723 185.6790
L214.1723 186.1076
" />
<path d="M214.1723 186.1076
L214.1009 186.2505
" />
<path d="M214.1009 186.2505
L214.0295 186.3219
" />
<path d="M214.0295 186.3219
L213.8866 186.3933
" />
<path d="M213.8866 186.3933
L213.6009 186.3933
" />
<path d="M213.6009 186.3933
L213.4580 186.3219
" />
</g><path d="M177.0022 181.5072
L285.0022 181.5072
" />
<text x="178.0022" y="183.7572"
textLength="8.2214" font-size="2.0000" lengthAdjust="spacingAndGlyphs"
text-anchor="start" opacity="0" stroke-opacity="0">Sheet: </text>
<g class="stroked-text"><desc>Sheet: </desc>
<path d="M178.3866 183.6219
L178.6009 183.6933
" />
<path d="M178.6009 183.6933
L178.9580 183.6933
" />
<path d="M178.9580 183.6933
L179.1009 183.6219
" />
<path d="M179.1009 183.6219
L179.1723 183.5505
" />
<path d="M179.1723 183.5505
L179.2437 183.4076
" />
<path d="M179.2437 183.4076
L179.2437 183.2648
" />
<path d="M179.2437 183.2648
L179.1723 183.1219
" />
<path d="M179.1723 183.1219
L179.1009 183.0505
" />
<path d="M179.1009 183.0505
L178.9580 182.9790
" />
<path d="M178.9580 182.9790
L178.6723 182.9076
" />
<path d="M178.6723 182.9076
L178.5295 182.8362
" />
<path d="M178.5295 182.8362
L178.4580 182.7648
" />
<path d="M178.4580 182.7648
L178.3866 182.6219
" />
<path d="M178.3866 182.6219
L178.3866 182.4790
" />
<path d="M178.3866 182.4790
L178.4580 182.3362
" />
<path d="M178.4580 182.3362
L178.5295 182.2648
" />
<path d="M178.5295 182.2648
L178.6723 182.1933
" />
<path d="M178.6723 182.1933
L179.0295 182.1933
" />
<path d="M179.0295 182.1933
L179.2437 182.2648
" />
<path d="M179.8866 183.6933
L179.8866 182.1933
" />
<path d="M180.5295 183.6933
L180.5295 182.9076
" />
<path d="M180.5295 182.9076
L180.4580 182.7648
" />
<path d="M180.4580 182.7648
L180.3152 182.6933
" />
<path d="M180.3152 182.6933
L180.1009 182.6933
" />
<path d="M180.1009 182.6933
L179.9580 182.7648
" />
<path d="M179.9580 182.7648
L179.8866 182.8362
" />
<path d="M181.8152 183.6219
L181.6723 183.6933
" />
<path d="M181.6723 183.6933
L181.3866 183.6933
" />
<path d="M181.3866 183.6933
L181.2437 183.6219
" />
<path d="M181.2437 183.6219
L181.1723 183.4790
" />
<path d="M181.1723 183.4790
L181.1723 182.9076
" />
<path d="M181.1723 182.9076
L181.2437 182.7648
" />
<path d="M181.2437 182.7648
L181.3866 182.6933
" />
<path d="M181.3866 182.6933
L181.6723 182.6933
" />
<path d="M181.6723 182.6933
L181.8152 182.7648
" />
<path d="M181.8152 182.7648
L181.8866 182.9076
" />
<path d="M181.8866 182.9076
L181.8866 183.0505
" />
<path d="M181.8866 183.0505
L181.1723 183.1933
" />
<path d="M183.1009 183.6219
L182.9580 183.6933
" />
<path d="M182.9580 183.6933
L182.6723 183.6933
" />
<path d="M182.6723 183.6933
L182.5295 183.6219
" />
<path d="M182.5295 183.6219
L182.4580 183.4790
" />
<path d="M182.4580 183.4790
L182.4580 182.9076
" />
<path d="M182.4580 182.9076
L182.5295 182.7648
" />
<path d="M182.5295 182.7648
L182.6723 182.6933
" />
<path d="M182.6723 182.6933
L182.9580 182.6933
" />
<path d="M182.9580 182.6933
L183.1009 182.7648
" />
<path d="M183.1009 182.7648
L183.1723 182.9076
" />
<path d="M183.1723 182.9076
L183.1723 183.0505
" />
<path d="M183.1723 183.0505
L182.4580 183.1933
" />
<path d="M183.6009 182.6933
L184.1723 182.6933
" />
<path d="M183.8152 182.1933
L183.8152 183.4790
" />
<path d="M183.8152 183.4790
L183.8866 183.6219
" />
<path d="M183.8866 183.6219
L184.0295 183.6933
" />
<path d="M184.0295 183.6933
L184.1723 183.6933
" />
<path d="M184.6723 183.5505
L184.7437 183.6219
" />
<path d="M184.7437 183.6219
L184.6723 183.6933
" />
<path d="M184.6723 183.6933
L184.6009 183.6219
" />
<path d="M184.6009 183.6219
L184.6723 183.5505
" />
<path d="M184.6723 183.5505
L184.6723 183.6933
" />
<path d="M184.6723 182.7648
L184.7437 182.8362
" />
<path d="M184.7437 182.8362
L184.6723 182.9076
" />
<path d="M184.6723 182.9076
L184.6009 182.8362
" />
<path d="M184.6009 182.8362
L184.6723 182.7648
" />
<path d="M184.6723 182.7648
L184.6723 182.9076
" />
</g></g>
<g style="fill:none; 
stroke:#000000; stroke-width:0.3000; stroke-opacity:1; 
stroke-linecap:round; stroke-linejoin:round;">
<text x="178.0022" y="180.7572"
textLength="0.9000" font-size="2.0000" lengthAdjust="spacingAndGlyphs"
text-anchor="start" opacity="0" stroke-opacity="0"></text>
<g class="stroked-text"><desc></desc>
</g></g>
<g style="fill:none; 
stroke:#000000; stroke-width:0.1500; stroke-opacity:1; 
stroke-linecap:round; stroke-linejoin:round;">
<text x="178.0022" y="177.7572"
textLength="0.4500" font-size="2.0000" lengthAdjust="spacingAndGlyphs"
text-anchor="start" opacity="0" stroke-opacity="0"></text>
<g class="stroked-text"><desc></desc>
</g><text x="178.0022" y="174.7572"
textLength="0.4500" font-size="2.0000" lengthAdjust="spacingAndGlyphs"
text-anchor="start" opacity="0" stroke-opacity="0"></text>
<g class="stroked-text"><desc></desc>
</g><text x="178.0022" y="171.7572"
textLength="0.4500" font-size="2.0000" lengthAdjust="spacingAndGlyphs"
text-anchor="start" opacity="0" stroke-opacity="0"></text>
<g class="stroked-text"><desc></desc>
</g><text x="178.0022" y="168.7572"
textLength="0.4500" font-size="2.0000" lengthAdjust="spacingAndGlyphs"
text-anchor="start" opacity="0" stroke-opacity="0"></text>
<g class="stroked-text"><desc></desc>
</g><path d="M197.0022 191.5072
L197.0022 194.5072
" />
<path d="M261.0022 191.5072
L261.0022 198.0072
" />
<path d="M60.5000 129.5000
L60.5000 164.5000
" />
<path d="M60.5000 129.5000
L75.5000 114.5000
" />
<path d="M60.5000 164.5000
L160.5000 164.5000
" />
<path d="M155.0000 114.5000
L75.5000 114.5000
" />
<path d="M160.5000 120.0000 A5.5000 5.5000 0.0 0 0 155.0000 114.5000" />
<path d="M159.4840 123.6093
L159.4840 128.7907
" />
<path d="M160.5000 122.6024 A1.0160 1.0160 0.0 0 0 159.4840 123.6184" />
<path d="M160.5000 122.6024
L160.5000 120.0000
" />
<path d="M159.4840 128.7999 A1.0160 1.0160 0.0 0 0 160.5000 129.8159" />
<path d="M160.5000 164.5000
L160.5000 129.8159
" />
<circle cx="65.5320" cy="131.3820" r="3.2000" /> 
</g> 
</svg>
