<?xml version="1.0" standalone="no"?>
 <!DOCTYPE svg PUBLIC "-//W3C//DTD SVG 1.1//EN" 
 "http://www.w3.org/Graphics/SVG/1.1/DTD/svg11.dtd"> 
<svg
  xmlns:svg="http://www.w3.org/2000/svg"
  xmlns="http://www.w3.org/2000/svg"
  xmlns:xlink="http://www.w3.org/1999/xlink"
  xmlns:inkscape="http://www.inkscape.org/namespaces/inkscape"
  version="1.1"
  width="297.0022mm" height="210.0072mm" viewBox="0.0000 0.0000 297.0022 210.0072">
<title>SVG Image created as rc2014-ym2149-User_Drawings0.svg date 2026-07-20T21:23:25 </title>
  <desc>Image generated by PCBNEW </desc>
<g style="fill:#000000; fill-opacity:1.0000;stroke:#000000; stroke-opacity:1.0000;
stroke-linecap:round; stroke-linejoin:round;"
 transform="translate(0 0) scale(1 1)">
</g>
<g style="fill:none; 
stroke:#000000; stroke-width:0.3200; stroke-opacity:1; 
stroke-linecap:round; stroke-linejoin:round;">
<circle cx="65.5320" cy="131.3820" r="1.6000" /> 
<path d="M67.1320 129.7820
L63.9320 132.9820
" />
<path d="M63.9320 129.7820
L67.1320 132.9820
" />
<path style="fill:none; 
stroke:#000000; stroke-width:0.1200; stroke-opacity:1; 
stroke-linecap:round; stroke-linejoin:round;fill:none"
d="M 156.5500,131.8000
157.1500,131.2000
156.5500,130.6000
155.9500,131.2000
Z" /> 
<path style="fill:none; 
stroke:#000000; stroke-width:0.1200; stroke-opacity:1; 
stroke-linecap:round; stroke-linejoin:round;fill:none"
d="M 156.5500,121.8000
157.1500,121.2000
156.5500,120.6000
155.9500,121.2000
Z" /> 
<path style="fill:none; 
stroke:#000000; stroke-width:0.1200; stroke-opacity:1; 
stroke-linecap:round; stroke-linejoin:round;fill:none"
d="M 154.0500,131.8000
154.6500,131.2000
154.0500,130.6000
153.4500,131.2000
Z" /> 
<path style="fill:none; 
stroke:#000000; stroke-width:0.1200; stroke-opacity:1; 
stroke-linecap:round; stroke-linejoin:round;fill:none"
d="M 154.0500,121.8000
154.6500,121.2000
154.0500,120.6000
153.4500,121.2000
Z" /> 
<path style="fill:none; 
stroke:#000000; stroke-width:0.1200; stroke-opacity:1; 
stroke-linecap:round; stroke-linejoin:round;fill:none"
d="M 149.0500,126.8000
149.6500,126.2000
149.0500,125.6000
148.4500,126.2000
Z" /> 
<path style="fill:none; 
stroke:#000000; stroke-width:0.1000; stroke-opacity:1; 
stroke-linecap:round; stroke-linejoin:round;fill:none"
d="M 158.2864,156.9264
158.9936,156.9264
158.9936,157.6336
158.2864,157.6336
Z" /> 
<path style="fill:none; 
stroke:#000000; stroke-width:0.1000; stroke-opacity:1; 
stroke-linecap:round; stroke-linejoin:round;fill:none"
d="M 158.2864,154.3864
158.9936,154.3864
158.9936,155.0936
158.2864,155.0936
Z" /> 
<path style="fill:none; 
stroke:#000000; stroke-width:0.1000; stroke-opacity:1; 
stroke-linecap:round; stroke-linejoin:round;fill:none"
d="M 158.2864,151.8464
158.9936,151.8464
158.9936,152.5536
158.2864,152.5536
Z" /> 
<path style="fill:none; 
stroke:#000000; stroke-width:0.1000; stroke-opacity:1; 
stroke-linecap:round; stroke-linejoin:round;fill:none"
d="M 158.2864,149.3064
158.9936,149.3064
158.9936,150.0136
158.2864,150.0136
Z" /> 
<path style="fill:none; 
stroke:#000000; stroke-width:0.1000; stroke-opacity:1; 
stroke-linecap:round; stroke-linejoin:round;fill:none"
d="M 158.2864,146.7664
158.9936,146.7664
158.9936,147.4736
158.2864,147.4736
Z" /> 
<path style="fill:none; 
stroke:#000000; stroke-width:0.1000; stroke-opacity:1; 
stroke-linecap:round; stroke-linejoin:round;fill:none"
d="M 158.2864,144.2264
158.9936,144.2264
158.9936,144.9336
158.2864,144.9336
Z" /> 
<path style="fill:none; 
stroke:#000000; stroke-width:0.1000; stroke-opacity:1; 
stroke-linecap:round; stroke-linejoin:round;fill:none"
d="M 158.2864,141.6864
158.9936,141.6864
158.9936,142.3936
158.2864,142.3936
Z" /> 
<path style="fill:none; 
stroke:#000000; stroke-width:0.1000; stroke-opacity:1; 
stroke-linecap:round; stroke-linejoin:round;fill:none"
d="M 158.2864,139.1464
158.9936,139.1464
158.9936,139.8536
158.2864,139.8536
Z" /> 
<path style="fill:none; 
stroke:#000000; stroke-width:0.1000; stroke-opacity:1; 
stroke-linecap:round; stroke-linejoin:round;fill:none"
d="M 158.2864,136.6064
158.9936,136.6064
158.9936,137.3136
158.2864,137.3136
Z" /> 
<path style="fill:none; 
stroke:#000000; stroke-width:0.1000; stroke-opacity:1; 
stroke-linecap:round; stroke-linejoin:round;fill:none"
d="M 158.1664,162.6464
158.8736,162.6464
158.8736,163.3536
158.1664,163.3536
Z" /> 
<path style="fill:none; 
stroke:#000000; stroke-width:0.1000; stroke-opacity:1; 
stroke-linecap:round; stroke-linejoin:round;fill:none"
d="M 155.7464,156.9264
156.4536,156.9264
156.4536,157.6336
155.7464,157.6336
Z" /> 
<path style="fill:none; 
stroke:#000000; stroke-width:0.1000; stroke-opacity:1; 
stroke-linecap:round; stroke-linejoin:round;fill:none"
d="M 155.7464,154.3864
156.4536,154.3864
156.4536,155.0936
155.7464,155.0936
Z" /> 
<path style="fill:none; 
stroke:#000000; stroke-width:0.1000; stroke-opacity:1; 
stroke-linecap:round; stroke-linejoin:round;fill:none"
d="M 155.7464,151.8464
156.4536,151.8464
156.4536,152.5536
155.7464,152.5536
Z" /> 
<path style="fill:none; 
stroke:#000000; stroke-width:0.1000; stroke-opacity:1; 
stroke-linecap:round; stroke-linejoin:round;fill:none"
d="M 155.7464,149.3064
156.4536,149.3064
156.4536,150.0136
155.7464,150.0136
Z" /> 
<path style="fill:none; 
stroke:#000000; stroke-width:0.1000; stroke-opacity:1; 
stroke-linecap:round; stroke-linejoin:round;fill:none"
d="M 155.7464,146.7664
156.4536,146.7664
156.4536,147.4736
155.7464,147.4736
Z" /> 
<path style="fill:none; 
stroke:#000000; stroke-width:0.1000; stroke-opacity:1; 
stroke-linecap:round; stroke-linejoin:round;fill:none"
d="M 155.7464,144.2264
156.4536,144.2264
156.4536,144.9336
155.7464,144.9336
Z" /> 
<path style="fill:none; 
stroke:#000000; stroke-width:0.1000; stroke-opacity:1; 
stroke-linecap:round; stroke-linejoin:round;fill:none"
d="M 155.7464,141.6864
156.4536,141.6864
156.4536,142.3936
155.7464,142.3936
Z" /> 
<path style="fill:none; 
stroke:#000000; stroke-width:0.1000; stroke-opacity:1; 
stroke-linecap:round; stroke-linejoin:round;fill:none"
d="M 155.7464,139.1464
156.4536,139.1464
156.4536,139.8536
155.7464,139.8536
Z" /> 
<path style="fill:none; 
stroke:#000000; stroke-width:0.1000; stroke-opacity:1; 
stroke-linecap:round; stroke-linejoin:round;fill:none"
d="M 155.7464,136.6064
156.4536,136.6064
156.4536,137.3136
155.7464,137.3136
Z" /> 
<path style="fill:none; 
stroke:#000000; stroke-width:0.1000; stroke-opacity:1; 
stroke-linecap:round; stroke-linejoin:round;fill:none"
d="M 155.6264,162.6464
156.3336,162.6464
156.3336,163.3536
155.6264,163.3536
Z" /> 
<path style="fill:none; 
stroke:#000000; stroke-width:0.1000; stroke-opacity:1; 
stroke-linecap:round; stroke-linejoin:round;fill:none"
d="M 153.0864,162.6464
153.7936,162.6464
153.7936,163.3536
153.0864,163.3536
Z" /> 
<path style="fill:none; 
stroke:#000000; stroke-width:0.1000; stroke-opacity:1; 
stroke-linecap:round; stroke-linejoin:round;fill:none"
d="M 150.5464,162.6464
151.2536,162.6464
151.2536,163.3536
150.5464,163.3536
Z" /> 
<path style="fill:none; 
stroke:#000000; stroke-width:0.1000; stroke-opacity:1; 
stroke-linecap:round; stroke-linejoin:round;fill:none"
d="M 149.7714,137.3464
150.4786,137.3464
150.4786,138.0536
149.7714,138.0536
Z" /> 
<path style="fill:none; 
stroke:#000000; stroke-width:0.1000; stroke-opacity:1; 
stroke-linecap:round; stroke-linejoin:round;fill:none"
d="M 148.0064,162.6464
148.7136,162.6464
148.7136,163.3536
148.0064,163.3536
Z" /> 
<path style="fill:none; 
stroke:#000000; stroke-width:0.1000; stroke-opacity:1; 
stroke-linecap:round; stroke-linejoin:round;fill:none"
d="M 147.2314,137.3464
147.9386,137.3464
147.9386,138.0536
147.2314,138.0536
Z" /> 
<path style="fill:none; 
stroke:#000000; stroke-width:0.1000; stroke-opacity:1; 
stroke-linecap:round; stroke-linejoin:round;fill:none"
d="M 145.4664,162.6464
146.1736,162.6464
146.1736,163.3536
145.4664,163.3536
Z" /> 
<path style="fill:none; 
stroke:#000000; stroke-width:0.1000; stroke-opacity:1; 
stroke-linecap:round; stroke-linejoin:round;fill:none"
d="M 142.9264,162.6464
143.6336,162.6464
143.6336,163.3536
142.9264,163.3536
Z" /> 
<path style="fill:none; 
stroke:#000000; stroke-width:0.1000; stroke-opacity:1; 
stroke-linecap:round; stroke-linejoin:round;fill:none"
d="M 140.3864,162.6464
141.0936,162.6464
141.0936,163.3536
140.3864,163.3536
Z" /> 
<path style="fill:none; 
stroke:#000000; stroke-width:0.1000; stroke-opacity:1; 
stroke-linecap:round; stroke-linejoin:round;fill:none"
d="M 137.8464,162.6464
138.5536,162.6464
138.5536,163.3536
137.8464,163.3536
Z" /> 
<path style="fill:none; 
stroke:#000000; stroke-width:0.1000; stroke-opacity:1; 
stroke-linecap:round; stroke-linejoin:round;fill:none"
d="M 135.3064,162.6464
136.0136,162.6464
136.0136,163.3536
135.3064,163.3536
Z" /> 
<path style="fill:none; 
stroke:#000000; stroke-width:0.1000; stroke-opacity:1; 
stroke-linecap:round; stroke-linejoin:round;fill:none"
d="M 132.7664,162.6464
133.4736,162.6464
133.4736,163.3536
132.7664,163.3536
Z" /> 
<path style="fill:none; 
stroke:#000000; stroke-width:0.1000; stroke-opacity:1; 
stroke-linecap:round; stroke-linejoin:round;fill:none"
d="M 130.2264,162.6464
130.9336,162.6464
130.9336,163.3536
130.2264,163.3536
Z" /> 
<path style="fill:none; 
stroke:#000000; stroke-width:0.1000; stroke-opacity:1; 
stroke-linecap:round; stroke-linejoin:round;fill:none"
d="M 127.6864,162.6464
128.3936,162.6464
128.3936,163.3536
127.6864,163.3536
Z" /> 
<path style="fill:none; 
stroke:#000000; stroke-width:0.1000; stroke-opacity:1; 
stroke-linecap:round; stroke-linejoin:round;fill:none"
d="M 125.1464,162.6464
125.8536,162.6464
125.8536,163.3536
125.1464,163.3536
Z" /> 
<path style="fill:none; 
stroke:#000000; stroke-width:0.1000; stroke-opacity:1; 
stroke-linecap:round; stroke-linejoin:round;fill:none"
d="M 122.6064,162.6464
123.3136,162.6464
123.3136,163.3536
122.6064,163.3536
Z" /> 
<path style="fill:none; 
stroke:#000000; stroke-width:0.1000; stroke-opacity:1; 
stroke-linecap:round; stroke-linejoin:round;fill:none"
d="M 120.0664,162.6464
120.7736,162.6464
120.7736,163.3536
120.0664,163.3536
Z" /> 
<path style="fill:none; 
stroke:#000000; stroke-width:0.1000; stroke-opacity:1; 
stroke-linecap:round; stroke-linejoin:round;fill:none"
d="M 117.5264,162.6464
118.2336,162.6464
118.2336,163.3536
117.5264,163.3536
Z" /> 
<path style="fill:none; 
stroke:#000000; stroke-width:0.1000; stroke-opacity:1; 
stroke-linecap:round; stroke-linejoin:round;fill:none"
d="M 114.9864,162.6464
115.6936,162.6464
115.6936,163.3536
114.9864,163.3536
Z" /> 
<path style="fill:none; 
stroke:#000000; stroke-width:0.1000; stroke-opacity:1; 
stroke-linecap:round; stroke-linejoin:round;fill:none"
d="M 112.4464,162.6464
113.1536,162.6464
113.1536,163.3536
112.4464,163.3536
Z" /> 
<path style="fill:none; 
stroke:#000000; stroke-width:0.1000; stroke-opacity:1; 
stroke-linecap:round; stroke-linejoin:round;fill:none"
d="M 109.9064,162.6464
110.6136,162.6464
110.6136,163.3536
109.9064,163.3536
Z" /> 
<path style="fill:none; 
stroke:#000000; stroke-width:0.1000; stroke-opacity:1; 
stroke-linecap:round; stroke-linejoin:round;fill:none"
d="M 107.3664,162.6464
108.0736,162.6464
108.0736,163.3536
107.3664,163.3536
Z" /> 
<path style="fill:none; 
stroke:#000000; stroke-width:0.1000; stroke-opacity:1; 
stroke-linecap:round; stroke-linejoin:round;fill:none"
d="M 105.7864,136.5664
106.4936,136.5664
106.4936,137.2736
105.7864,137.2736
Z" /> 
<path style="fill:none; 
stroke:#000000; stroke-width:0.1000; stroke-opacity:1; 
stroke-linecap:round; stroke-linejoin:round;fill:none"
d="M 105.7864,134.0264
106.4936,134.0264
106.4936,134.7336
105.7864,134.7336
Z" /> 
<path style="fill:none; 
stroke:#000000; stroke-width:0.1000; stroke-opacity:1; 
stroke-linecap:round; stroke-linejoin:round;fill:none"
d="M 105.7864,131.4864
106.4936,131.4864
106.4936,132.1936
105.7864,132.1936
Z" /> 
<path style="fill:none; 
stroke:#000000; stroke-width:0.1000; stroke-opacity:1; 
stroke-linecap:round; stroke-linejoin:round;fill:none"
d="M 105.7864,128.9464
106.4936,128.9464
106.4936,129.6536
105.7864,129.6536
Z" /> 
<path style="fill:none; 
stroke:#000000; stroke-width:0.1000; stroke-opacity:1; 
stroke-linecap:round; stroke-linejoin:round;fill:none"
d="M 105.7864,126.4064
106.4936,126.4064
106.4936,127.1136
105.7864,127.1136
Z" /> 
<path style="fill:none; 
stroke:#000000; stroke-width:0.1000; stroke-opacity:1; 
stroke-linecap:round; stroke-linejoin:round;fill:none"
d="M 105.7864,123.8664
106.4936,123.8664
106.4936,124.5736
105.7864,124.5736
Z" /> 
<path style="fill:none; 
stroke:#000000; stroke-width:0.1000; stroke-opacity:1; 
stroke-linecap:round; stroke-linejoin:round;fill:none"
d="M 105.7864,121.3264
106.4936,121.3264
106.4936,122.0336
105.7864,122.0336
Z" /> 
<path style="fill:none; 
stroke:#000000; stroke-width:0.1000; stroke-opacity:1; 
stroke-linecap:round; stroke-linejoin:round;fill:none"
d="M 104.8264,162.6464
105.5336,162.6464
105.5336,163.3536
104.8264,163.3536
Z" /> 
<path style="fill:none; 
stroke:#000000; stroke-width:0.1000; stroke-opacity:1; 
stroke-linecap:round; stroke-linejoin:round;fill:none"
d="M 103.2464,136.5664
103.9536,136.5664
103.9536,137.2736
103.2464,137.2736
Z" /> 
<path style="fill:none; 
stroke:#000000; stroke-width:0.1000; stroke-opacity:1; 
stroke-linecap:round; stroke-linejoin:round;fill:none"
d="M 103.2464,134.0264
103.9536,134.0264
103.9536,134.7336
103.2464,134.7336
Z" /> 
<path style="fill:none; 
stroke:#000000; stroke-width:0.1000; stroke-opacity:1; 
stroke-linecap:round; stroke-linejoin:round;fill:none"
d="M 103.2464,131.4864
103.9536,131.4864
103.9536,132.1936
103.2464,132.1936
Z" /> 
<path style="fill:none; 
stroke:#000000; stroke-width:0.1000; stroke-opacity:1; 
stroke-linecap:round; stroke-linejoin:round;fill:none"
d="M 103.2464,128.9464
103.9536,128.9464
103.9536,129.6536
103.2464,129.6536
Z" /> 
<path style="fill:none; 
stroke:#000000; stroke-width:0.1000; stroke-opacity:1; 
stroke-linecap:round; stroke-linejoin:round;fill:none"
d="M 103.2464,126.4064
103.9536,126.4064
103.9536,127.1136
103.2464,127.1136
Z" /> 
<path style="fill:none; 
stroke:#000000; stroke-width:0.1000; stroke-opacity:1; 
stroke-linecap:round; stroke-linejoin:round;fill:none"
d="M 103.2464,123.8664
103.9536,123.8664
103.9536,124.5736
103.2464,124.5736
Z" /> 
<path style="fill:none; 
stroke:#000000; stroke-width:0.1000; stroke-opacity:1; 
stroke-linecap:round; stroke-linejoin:round;fill:none"
d="M 103.2464,121.3264
103.9536,121.3264
103.9536,122.0336
103.2464,122.0336
Z" /> 
<path style="fill:none; 
stroke:#000000; stroke-width:0.1000; stroke-opacity:1; 
stroke-linecap:round; stroke-linejoin:round;fill:none"
d="M 102.2864,162.6464
102.9936,162.6464
102.9936,163.3536
102.2864,163.3536
Z" /> 
<path style="fill:none; 
stroke:#000000; stroke-width:0.1000; stroke-opacity:1; 
stroke-linecap:round; stroke-linejoin:round;fill:none"
d="M 99.7464,162.6464
100.4536,162.6464
100.4536,163.3536
99.7464,163.3536
Z" /> 
<path style="fill:none; 
stroke:#000000; stroke-width:0.1000; stroke-opacity:1; 
stroke-linecap:round; stroke-linejoin:round;fill:none"
d="M 98.8264,134.6464
99.5336,134.6464
99.5336,135.3536
98.8264,135.3536
Z" /> 
<path style="fill:none; 
stroke:#000000; stroke-width:0.1000; stroke-opacity:1; 
stroke-linecap:round; stroke-linejoin:round;fill:none"
d="M 98.7864,138.3464
99.4936,138.3464
99.4936,139.0536
98.7864,139.0536
Z" /> 
<path style="fill:none; 
stroke:#000000; stroke-width:0.1000; stroke-opacity:1; 
stroke-linecap:round; stroke-linejoin:round;fill:none"
d="M 97.2064,162.6464
97.9136,162.6464
97.9136,163.3536
97.2064,163.3536
Z" /> 
<path style="fill:none; 
stroke:#000000; stroke-width:0.1000; stroke-opacity:1; 
stroke-linecap:round; stroke-linejoin:round;fill:none"
d="M 96.2864,134.6464
96.9936,134.6464
96.9936,135.3536
96.2864,135.3536
Z" /> 
<path style="fill:none; 
stroke:#000000; stroke-width:0.1000; stroke-opacity:1; 
stroke-linecap:round; stroke-linejoin:round;fill:none"
d="M 96.2464,138.3464
96.9536,138.3464
96.9536,139.0536
96.2464,139.0536
Z" /> 
<path style="fill:none; 
stroke:#000000; stroke-width:0.1000; stroke-opacity:1; 
stroke-linecap:round; stroke-linejoin:round;fill:none"
d="M 94.6664,162.6464
95.3736,162.6464
95.3736,163.3536
94.6664,163.3536
Z" /> 
<path style="fill:none; 
stroke:#000000; stroke-width:0.1000; stroke-opacity:1; 
stroke-linecap:round; stroke-linejoin:round;fill:none"
d="M 93.7464,134.6464
94.4536,134.6464
94.4536,135.3536
93.7464,135.3536
Z" /> 
<path style="fill:none; 
stroke:#000000; stroke-width:0.1000; stroke-opacity:1; 
stroke-linecap:round; stroke-linejoin:round;fill:none"
d="M 93.7064,138.3464
94.4136,138.3464
94.4136,139.0536
93.7064,139.0536
Z" /> 
<path style="fill:none; 
stroke:#000000; stroke-width:0.1000; stroke-opacity:1; 
stroke-linecap:round; stroke-linejoin:round;fill:none"
d="M 92.1264,162.6464
92.8336,162.6464
92.8336,163.3536
92.1264,163.3536
Z" /> 
<path style="fill:none; 
stroke:#000000; stroke-width:0.1000; stroke-opacity:1; 
stroke-linecap:round; stroke-linejoin:round;fill:none"
d="M 89.5864,162.6464
90.2936,162.6464
90.2936,163.3536
89.5864,163.3536
Z" /> 
<path style="fill:none; 
stroke:#000000; stroke-width:0.1000; stroke-opacity:1; 
stroke-linecap:round; stroke-linejoin:round;fill:none"
d="M 87.0464,162.6464
87.7536,162.6464
87.7536,163.3536
87.0464,163.3536
Z" /> 
<path style="fill:none; 
stroke:#000000; stroke-width:0.1000; stroke-opacity:1; 
stroke-linecap:round; stroke-linejoin:round;fill:none"
d="M 84.5064,162.6464
85.2136,162.6464
85.2136,163.3536
84.5064,163.3536
Z" /> 
<path style="fill:none; 
stroke:#000000; stroke-width:0.1000; stroke-opacity:1; 
stroke-linecap:round; stroke-linejoin:round;fill:none"
d="M 81.9664,162.6464
82.6736,162.6464
82.6736,163.3536
81.9664,163.3536
Z" /> 
<path style="fill:none; 
stroke:#000000; stroke-width:0.1000; stroke-opacity:1; 
stroke-linecap:round; stroke-linejoin:round;fill:none"
d="M 79.4264,162.6464
80.1336,162.6464
80.1336,163.3536
79.4264,163.3536
Z" /> 
<path style="fill:none; 
stroke:#000000; stroke-width:0.1000; stroke-opacity:1; 
stroke-linecap:round; stroke-linejoin:round;fill:none"
d="M 78.6464,154.0464
79.3536,154.0464
79.3536,154.7536
78.6464,154.7536
Z" /> 
<path style="fill:none; 
stroke:#000000; stroke-width:0.1000; stroke-opacity:1; 
stroke-linecap:round; stroke-linejoin:round;fill:none"
d="M 78.6464,151.5064
79.3536,151.5064
79.3536,152.2136
78.6464,152.2136
Z" /> 
<path style="fill:none; 
stroke:#000000; stroke-width:0.1000; stroke-opacity:1; 
stroke-linecap:round; stroke-linejoin:round;fill:none"
d="M 78.6464,148.9664
79.3536,148.9664
79.3536,149.6736
78.6464,149.6736
Z" /> 
<path style="fill:none; 
stroke:#000000; stroke-width:0.1000; stroke-opacity:1; 
stroke-linecap:round; stroke-linejoin:round;fill:none"
d="M 78.6464,143.8264
79.3536,143.8264
79.3536,144.5336
78.6464,144.5336
Z" /> 
<path style="fill:none; 
stroke:#000000; stroke-width:0.1000; stroke-opacity:1; 
stroke-linecap:round; stroke-linejoin:round;fill:none"
d="M 78.6464,141.2864
79.3536,141.2864
79.3536,141.9936
78.6464,141.9936
Z" /> 
<path style="fill:none; 
stroke:#000000; stroke-width:0.1000; stroke-opacity:1; 
stroke-linecap:round; stroke-linejoin:round;fill:none"
d="M 78.6464,138.7464
79.3536,138.7464
79.3536,139.4536
78.6464,139.4536
Z" /> 
<path style="fill:none; 
stroke:#000000; stroke-width:0.1000; stroke-opacity:1; 
stroke-linecap:round; stroke-linejoin:round;fill:none"
d="M 77.5864,120.0464
78.2936,120.0464
78.2936,120.7536
77.5864,120.7536
Z" /> 
<path style="fill:none; 
stroke:#000000; stroke-width:0.1000; stroke-opacity:1; 
stroke-linecap:round; stroke-linejoin:round;fill:none"
d="M 76.8864,162.6464
77.5936,162.6464
77.5936,163.3536
76.8864,163.3536
Z" /> 
<path style="fill:none; 
stroke:#000000; stroke-width:0.1000; stroke-opacity:1; 
stroke-linecap:round; stroke-linejoin:round;fill:none"
d="M 75.0464,120.0464
75.7536,120.0464
75.7536,120.7536
75.0464,120.7536
Z" /> 
<path style="fill:none; 
stroke:#000000; stroke-width:0.1000; stroke-opacity:1; 
stroke-linecap:round; stroke-linejoin:round;fill:none"
d="M 74.3464,162.6464
75.0536,162.6464
75.0536,163.3536
74.3464,163.3536
Z" /> 
<path style="fill:none; 
stroke:#000000; stroke-width:0.1000; stroke-opacity:1; 
stroke-linecap:round; stroke-linejoin:round;fill:none"
d="M 72.5064,120.0464
73.2136,120.0464
73.2136,120.7536
72.5064,120.7536
Z" /> 
<path style="fill:none; 
stroke:#000000; stroke-width:0.1000; stroke-opacity:1; 
stroke-linecap:round; stroke-linejoin:round;fill:none"
d="M 71.8064,162.6464
72.5136,162.6464
72.5136,163.3536
71.8064,163.3536
Z" /> 
<path style="fill:none; 
stroke:#000000; stroke-width:0.1000; stroke-opacity:1; 
stroke-linecap:round; stroke-linejoin:round;fill:none"
d="M 69.2664,162.6464
69.9736,162.6464
69.9736,163.3536
69.2664,163.3536
Z" /> 
<path style="fill:none; 
stroke:#000000; stroke-width:0.1000; stroke-opacity:1; 
stroke-linecap:round; stroke-linejoin:round;fill:none"
d="M 66.7264,162.6464
67.4336,162.6464
67.4336,163.3536
66.7264,163.3536
Z" /> 
<path style="fill:none; 
stroke:#000000; stroke-width:0.1000; stroke-opacity:1; 
stroke-linecap:round; stroke-linejoin:round;fill:none"
d="M 64.1864,162.6464
64.8936,162.6464
64.8936,163.3536
64.1864,163.3536
Z" /> 
<path style="fill:none; 
stroke:#000000; stroke-width:0.1000; stroke-opacity:1; 
stroke-linecap:round; stroke-linejoin:round;fill:none"
d="M 64.1764,157.0264
64.8836,157.0264
64.8836,157.7336
64.1764,157.7336
Z" /> 
<path style="fill:none; 
stroke:#000000; stroke-width:0.1000; stroke-opacity:1; 
stroke-linecap:round; stroke-linejoin:round;fill:none"
d="M 64.1764,154.4864
64.8836,154.4864
64.8836,155.1936
64.1764,155.1936
Z" /> 
<path style="fill:none; 
stroke:#000000; stroke-width:0.1000; stroke-opacity:1; 
stroke-linecap:round; stroke-linejoin:round;fill:none"
d="M 64.1764,151.9464
64.8836,151.9464
64.8836,152.6536
64.1764,152.6536
Z" /> 
<path style="fill:none; 
stroke:#000000; stroke-width:0.1000; stroke-opacity:1; 
stroke-linecap:round; stroke-linejoin:round;fill:none"
d="M 64.1764,149.4064
64.8836,149.4064
64.8836,150.1136
64.1764,150.1136
Z" /> 
<path style="fill:none; 
stroke:#000000; stroke-width:0.1000; stroke-opacity:1; 
stroke-linecap:round; stroke-linejoin:round;fill:none"
d="M 64.1764,146.8664
64.8836,146.8664
64.8836,147.5736
64.1764,147.5736
Z" /> 
<path style="fill:none; 
stroke:#000000; stroke-width:0.1000; stroke-opacity:1; 
stroke-linecap:round; stroke-linejoin:round;fill:none"
d="M 64.1764,144.3264
64.8836,144.3264
64.8836,145.0336
64.1764,145.0336
Z" /> 
<path style="fill:none; 
stroke:#000000; stroke-width:0.1000; stroke-opacity:1; 
stroke-linecap:round; stroke-linejoin:round;fill:none"
d="M 64.1764,141.7864
64.8836,141.7864
64.8836,142.4936
64.1764,142.4936
Z" /> 
<path style="fill:none; 
stroke:#000000; stroke-width:0.1000; stroke-opacity:1; 
stroke-linecap:round; stroke-linejoin:round;fill:none"
d="M 64.1764,139.2464
64.8836,139.2464
64.8836,139.9536
64.1764,139.9536
Z" /> 
<path style="fill:none; 
stroke:#000000; stroke-width:0.1000; stroke-opacity:1; 
stroke-linecap:round; stroke-linejoin:round;fill:none"
d="M 64.1764,136.7064
64.8836,136.7064
64.8836,137.4136
64.1764,137.4136
Z" /> 
<path style="fill:none; 
stroke:#000000; stroke-width:0.1000; stroke-opacity:1; 
stroke-linecap:round; stroke-linejoin:round;fill:none"
d="M 61.6464,162.6464
62.3536,162.6464
62.3536,163.3536
61.6464,163.3536
Z" /> 
<path style="fill:none; 
stroke:#000000; stroke-width:0.1000; stroke-opacity:1; 
stroke-linecap:round; stroke-linejoin:round;fill:none"
d="M 61.6364,157.0264
62.3436,157.0264
62.3436,157.7336
61.6364,157.7336
Z" /> 
<path style="fill:none; 
stroke:#000000; stroke-width:0.1000; stroke-opacity:1; 
stroke-linecap:round; stroke-linejoin:round;fill:none"
d="M 61.6364,154.4864
62.3436,154.4864
62.3436,155.1936
61.6364,155.1936
Z" /> 
<path style="fill:none; 
stroke:#000000; stroke-width:0.1000; stroke-opacity:1; 
stroke-linecap:round; stroke-linejoin:round;fill:none"
d="M 61.6364,151.9464
62.3436,151.9464
62.3436,152.6536
61.6364,152.6536
Z" /> 
<path style="fill:none; 
stroke:#000000; stroke-width:0.1000; stroke-opacity:1; 
stroke-linecap:round; stroke-linejoin:round;fill:none"
d="M 61.6364,149.4064
62.3436,149.4064
62.3436,150.1136
61.6364,150.1136
Z" /> 
<path style="fill:none; 
stroke:#000000; stroke-width:0.1000; stroke-opacity:1; 
stroke-linecap:round; stroke-linejoin:round;fill:none"
d="M 61.6364,146.8664
62.3436,146.8664
62.3436,147.5736
61.6364,147.5736
Z" /> 
<path style="fill:none; 
stroke:#000000; stroke-width:0.1000; stroke-opacity:1; 
stroke-linecap:round; stroke-linejoin:round;fill:none"
d="M 61.6364,144.3264
62.3436,144.3264
62.3436,145.0336
61.6364,145.0336
Z" /> 
<path style="fill:none; 
stroke:#000000; stroke-width:0.1000; stroke-opacity:1; 
stroke-linecap:round; stroke-linejoin:round;fill:none"
d="M 61.6364,141.7864
62.3436,141.7864
62.3436,142.4936
61.6364,142.4936
Z" /> 
<path style="fill:none; 
stroke:#000000; stroke-width:0.1000; stroke-opacity:1; 
stroke-linecap:round; stroke-linejoin:round;fill:none"
d="M 61.6364,139.2464
62.3436,139.2464
62.3436,139.9536
61.6364,139.9536
Z" /> 
<path style="fill:none; 
stroke:#000000; stroke-width:0.1000; stroke-opacity:1; 
stroke-linecap:round; stroke-linejoin:round;fill:none"
d="M 61.6364,136.7064
62.3436,136.7064
62.3436,137.4136
61.6364,137.4136
Z" /> 
</g>
<g style="fill:none; 
stroke:#000000; stroke-width:0.1000; stroke-opacity:1; 
stroke-linecap:round; stroke-linejoin:round;">
<path d="M153.6500 126.5500 A0.4000 0.4000 0.0 0 0 154.4500 126.5500" />
<path d="M153.6500 125.8500
L153.6500 126.5500
" />
<path d="M154.4500 125.8500 A0.4000 0.4000 0.0 0 0 153.6500 125.8500" />
<path d="M154.4500 126.5500
L154.4500 125.8500
" />
<path d="M153.6500 126.2000
L154.4500 126.2000
" />
<path d="M154.0500 125.8000
L154.0500 126.6000
" />
<path d="M149.4000 131.6000 A0.4000 0.4000 0.0 0 0 149.4000 130.8000" />
<path d="M148.7000 131.6000
L149.4000 131.6000
" />
<path d="M148.7000 130.8000 A0.4000 0.4000 0.0 0 0 148.7000 131.6000" />
<path d="M149.4000 130.8000
L148.7000 130.8000
" />
<path d="M148.6500 131.2000
L149.4500 131.2000
" />
<path d="M149.0500 130.8000
L149.0500 131.6000
" />
<path d="M149.4000 129.1000 A0.4000 0.4000 0.0 0 0 149.4000 128.3000" />
<path d="M148.7000 129.1000
L149.4000 129.1000
" />
<path d="M148.7000 128.3000 A0.4000 0.4000 0.0 0 0 148.7000 129.1000" />
<path d="M149.4000 128.3000
L148.7000 128.3000
" />
<path d="M148.6500 128.7000
L149.4500 128.7000
" />
<path d="M149.0500 128.3000
L149.0500 129.1000
" />
<path d="M149.4000 124.1000 A0.4000 0.4000 0.0 0 0 149.4000 123.3000" />
<path d="M148.7000 124.1000
L149.4000 124.1000
" />
<path d="M148.7000 123.3000 A0.4000 0.4000 0.0 0 0 148.7000 124.1000" />
<path d="M149.4000 123.3000
L148.7000 123.3000
" />
<path d="M148.6500 123.7000
L149.4500 123.7000
" />
<path d="M149.0500 123.3000
L149.0500 124.1000
" />
<path d="M149.4000 121.6000 A0.4000 0.4000 0.0 0 0 149.4000 120.8000" />
<path d="M148.7000 121.6000
L149.4000 121.6000
" />
<path d="M148.7000 120.8000 A0.4000 0.4000 0.0 0 0 148.7000 121.6000" />
<path d="M149.4000 120.8000
L148.7000 120.8000
" />
<path d="M148.6500 121.2000
L149.4500 121.2000
" />
<path d="M149.0500 120.8000
L149.0500 121.6000
" />
<path d="M157.7100 117.5500
L158.5100 117.5500
" />
<path d="M158.1100 117.1500
L158.1100 117.9500
" />
<path d="M152.5200 134.2000
L153.3200 134.2000
" />
<path d="M152.9200 133.8000
L152.9200 134.6000
" />
<path d="M152.2700 156.5500
L153.0700 156.5500
" />
<path d="M152.6700 156.1500
L152.6700 156.9500
" />
<path d="M152.2700 141.3100
L153.0700 141.3100
" />
<path d="M152.6700 140.9100
L152.6700 141.7100
" />
<path d="M150.0900 117.5500
L150.8900 117.5500
" />
<path d="M150.4900 117.1500
L150.4900 117.9500
" />
<path d="M149.7300 156.5500
L150.5300 156.5500
" />
<path d="M150.1300 156.1500
L150.1300 156.9500
" />
<path d="M149.7300 141.3100
L150.5300 141.3100
" />
<path d="M150.1300 140.9100
L150.1300 141.7100
" />
<path d="M147.1900 156.5500
L147.9900 156.5500
" />
<path d="M147.5900 156.1500
L147.5900 156.9500
" />
<path d="M147.1900 141.3100
L147.9900 141.3100
" />
<path d="M147.5900 140.9100
L147.5900 141.7100
" />
<path d="M144.9000 134.2000
L145.7000 134.2000
" />
<path d="M145.3000 133.8000
L145.3000 134.6000
" />
<path d="M144.6500 156.5500
L145.4500 156.5500
" />
<path d="M145.0500 156.1500
L145.0500 156.9500
" />
<path d="M144.6500 141.3100
L145.4500 141.3100
" />
<path d="M145.0500 140.9100
L145.0500 141.7100
" />
<path d="M143.7100 128.5100
L144.5100 128.5100
" />
<path d="M144.1100 128.1100
L144.1100 128.9100
" />
<path d="M143.7100 120.8900
L144.5100 120.8900
" />
<path d="M144.1100 120.4900
L144.1100 121.2900
" />
<path d="M143.3100 117.5500
L144.1100 117.5500
" />
<path d="M143.7100 117.1500
L143.7100 117.9500
" />
<path d="M142.1100 156.5500
L142.9100 156.5500
" />
<path d="M142.5100 156.1500
L142.5100 156.9500
" />
<path d="M142.1100 141.3100
L142.9100 141.3100
" />
<path d="M142.5100 140.9100
L142.5100 141.7100
" />
<path d="M141.1700 128.5100
L141.9700 128.5100
" />
<path d="M141.5700 128.1100
L141.5700 128.9100
" />
<path d="M141.1700 120.8900
L141.9700 120.8900
" />
<path d="M141.5700 120.4900
L141.5700 121.2900
" />
<path d="M139.5700 156.5500
L140.3700 156.5500
" />
<path d="M139.9700 156.1500
L139.9700 156.9500
" />
<path d="M139.5700 141.3100
L140.3700 141.3100
" />
<path d="M139.9700 140.9100
L139.9700 141.7100
" />
<path d="M138.6300 128.5100
L139.4300 128.5100
" />
<path d="M139.0300 128.1100
L139.0300 128.9100
" />
<path d="M138.6300 120.8900
L139.4300 120.8900
" />
<path d="M139.0300 120.4900
L139.0300 121.2900
" />
<path d="M137.0300 156.5500
L137.8300 156.5500
" />
<path d="M137.4300 156.1500
L137.4300 156.9500
" />
<path d="M137.0300 141.3100
L137.8300 141.3100
" />
<path d="M137.4300 140.9100
L137.4300 141.7100
" />
<path d="M136.6100 138.2000
L137.4100 138.2000
" />
<path d="M137.0100 137.8000
L137.0100 138.6000
" />
<path d="M136.6100 135.2000
L137.4100 135.2000
" />
<path d="M137.0100 134.8000
L137.0100 135.6000
" />
<path d="M136.6000 132.2000
L137.4000 132.2000
" />
<path d="M137.0000 131.8000
L137.0000 132.6000
" />
<path d="M136.0900 128.5100
L136.8900 128.5100
" />
<path d="M136.4900 128.1100
L136.4900 128.9100
" />
<path d="M136.0900 120.8900
L136.8900 120.8900
" />
<path d="M136.4900 120.4900
L136.4900 121.2900
" />
<path d="M135.6900 117.5500
L136.4900 117.5500
" />
<path d="M136.0900 117.1500
L136.0900 117.9500
" />
<path d="M134.4900 156.5500
L135.2900 156.5500
" />
<path d="M134.8900 156.1500
L134.8900 156.9500
" />
<path d="M134.4900 141.3100
L135.2900 141.3100
" />
<path d="M134.8900 140.9100
L134.8900 141.7100
" />
<path d="M133.0500 118.2000
L133.8500 118.2000
" />
<path d="M133.4500 117.8000
L133.4500 118.6000
" />
<path d="M133.0500 115.7000
L133.8500 115.7000
" />
<path d="M133.4500 115.3000
L133.4500 116.1000
" />
<path d="M131.9500 156.5500
L132.7500 156.5500
" />
<path d="M132.3500 156.1500
L132.3500 156.9500
" />
<path d="M131.9500 141.3100
L132.7500 141.3100
" />
<path d="M132.3500 140.9100
L132.3500 141.7100
" />
<path d="M129.4100 156.5500
L130.2100 156.5500
" />
<path d="M129.8100 156.1500
L129.8100 156.9500
" />
<path d="M129.4100 141.3100
L130.2100 141.3100
" />
<path d="M129.8100 140.9100
L129.8100 141.7100
" />
<path d="M128.9900 138.2000
L129.7900 138.2000
" />
<path d="M129.3900 137.8000
L129.3900 138.6000
" />
<path d="M128.9900 135.2000
L129.7900 135.2000
" />
<path d="M129.3900 134.8000
L129.3900 135.6000
" />
<path d="M128.9800 132.2000
L129.7800 132.2000
" />
<path d="M129.3800 131.8000
L129.3800 132.6000
" />
<path d="M128.9800 118.4000
L129.7800 118.4000
" />
<path d="M129.3800 118.0000
L129.3800 118.8000
" />
<path d="M126.8700 156.5500
L127.6700 156.5500
" />
<path d="M127.2700 156.1500
L127.2700 156.9500
" />
<path d="M126.8700 141.3100
L127.6700 141.3100
" />
<path d="M127.2700 140.9100
L127.2700 141.7100
" />
<path d="M126.4400 115.8600
L127.2400 115.8600
" />
<path d="M126.8400 115.4600
L126.8400 116.2600
" />
<path d="M126.2700 137.5500
L127.0700 137.5500
" />
<path d="M126.6700 137.1500
L126.6700 137.9500
" />
<path d="M126.2600 134.4500
L127.0600 134.4500
" />
<path d="M126.6600 134.0500
L126.6600 134.8500
" />
<path d="M126.2600 131.3500
L127.0600 131.3500
" />
<path d="M126.6600 130.9500
L126.6600 131.7500
" />
<path d="M126.2600 128.2500
L127.0600 128.2500
" />
<path d="M126.6600 127.8500
L126.6600 128.6500
" />
<path d="M126.2500 125.1500
L127.0500 125.1500
" />
<path d="M126.6500 124.7500
L126.6500 125.5500
" />
<path d="M126.2500 122.0500
L127.0500 122.0500
" />
<path d="M126.6500 121.6500
L126.6500 122.4500
" />
<path d="M124.3300 156.5500
L125.1300 156.5500
" />
<path d="M124.7300 156.1500
L124.7300 156.9500
" />
<path d="M124.3300 141.3100
L125.1300 141.3100
" />
<path d="M124.7300 140.9100
L124.7300 141.7100
" />
<path d="M123.9000 118.4000
L124.7000 118.4000
" />
<path d="M124.3000 118.0000
L124.3000 118.8000
" />
<path d="M121.7900 156.5500
L122.5900 156.5500
" />
<path d="M122.1900 156.1500
L122.1900 156.9500
" />
<path d="M121.7900 141.3100
L122.5900 141.3100
" />
<path d="M122.1900 140.9100
L122.1900 141.7100
" />
<path d="M119.2500 156.5500
L120.0500 156.5500
" />
<path d="M119.6500 156.1500
L119.6500 156.9500
" />
<path d="M119.2500 141.3100
L120.0500 141.3100
" />
<path d="M119.6500 140.9100
L119.6500 141.7100
" />
<path d="M118.9400 118.4000
L119.7400 118.4000
" />
<path d="M119.3400 118.0000
L119.3400 118.8000
" />
<path d="M118.6500 137.5500
L119.4500 137.5500
" />
<path d="M119.0500 137.1500
L119.0500 137.9500
" />
<path d="M118.6400 134.4500
L119.4400 134.4500
" />
<path d="M119.0400 134.0500
L119.0400 134.8500
" />
<path d="M118.6400 131.3500
L119.4400 131.3500
" />
<path d="M119.0400 130.9500
L119.0400 131.7500
" />
<path d="M118.6400 128.2500
L119.4400 128.2500
" />
<path d="M119.0400 127.8500
L119.0400 128.6500
" />
<path d="M118.6300 125.1500
L119.4300 125.1500
" />
<path d="M119.0300 124.7500
L119.0300 125.5500
" />
<path d="M118.6300 122.0500
L119.4300 122.0500
" />
<path d="M119.0300 121.6500
L119.0300 122.4500
" />
<path d="M116.7100 156.5500
L117.5100 156.5500
" />
<path d="M117.1100 156.1500
L117.1100 156.9500
" />
<path d="M116.7100 141.3100
L117.5100 141.3100
" />
<path d="M117.1100 140.9100
L117.1100 141.7100
" />
<path d="M116.4700 137.5500
L117.2700 137.5500
" />
<path d="M116.8700 137.1500
L116.8700 137.9500
" />
<path d="M116.4600 134.4500
L117.2600 134.4500
" />
<path d="M116.8600 134.0500
L116.8600 134.8500
" />
<path d="M116.4600 131.3500
L117.2600 131.3500
" />
<path d="M116.8600 130.9500
L116.8600 131.7500
" />
<path d="M116.4600 128.2500
L117.2600 128.2500
" />
<path d="M116.8600 127.8500
L116.8600 128.6500
" />
<path d="M116.4600 125.1500
L117.2600 125.1500
" />
<path d="M116.8600 124.7500
L116.8600 125.5500
" />
<path d="M116.4600 122.0500
L117.2600 122.0500
" />
<path d="M116.8600 121.6500
L116.8600 122.4500
" />
<path d="M116.4000 115.8600
L117.2000 115.8600
" />
<path d="M116.8000 115.4600
L116.8000 116.2600
" />
<path d="M114.1700 156.5500
L114.9700 156.5500
" />
<path d="M114.5700 156.1500
L114.5700 156.9500
" />
<path d="M114.1700 141.3100
L114.9700 141.3100
" />
<path d="M114.5700 140.9100
L114.5700 141.7100
" />
<path d="M113.8600 118.4000
L114.6600 118.4000
" />
<path d="M114.2600 118.0000
L114.2600 118.8000
" />
<path d="M111.6300 156.5500
L112.4300 156.5500
" />
<path d="M112.0300 156.1500
L112.0300 156.9500
" />
<path d="M111.6300 141.3100
L112.4300 141.3100
" />
<path d="M112.0300 140.9100
L112.0300 141.7100
" />
<path d="M109.0900 156.5500
L109.8900 156.5500
" />
<path d="M109.4900 156.1500
L109.4900 156.9500
" />
<path d="M109.0900 141.3100
L109.8900 141.3100
" />
<path d="M109.4900 140.9100
L109.4900 141.7100
" />
<path d="M108.9000 118.4000
L109.7000 118.4000
" />
<path d="M109.3000 118.0000
L109.3000 118.8000
" />
<path d="M108.8500 137.5500
L109.6500 137.5500
" />
<path d="M109.2500 137.1500
L109.2500 137.9500
" />
<path d="M108.8400 134.4500
L109.6400 134.4500
" />
<path d="M109.2400 134.0500
L109.2400 134.8500
" />
<path d="M108.8400 131.3500
L109.6400 131.3500
" />
<path d="M109.2400 130.9500
L109.2400 131.7500
" />
<path d="M108.8400 128.2500
L109.6400 128.2500
" />
<path d="M109.2400 127.8500
L109.2400 128.6500
" />
<path d="M108.8400 125.1500
L109.6400 125.1500
" />
<path d="M109.2400 124.7500
L109.2400 125.5500
" />
<path d="M108.8400 122.0500
L109.6400 122.0500
" />
<path d="M109.2400 121.6500
L109.2400 122.4500
" />
<path d="M106.5500 156.5500
L107.3500 156.5500
" />
<path d="M106.9500 156.1500
L106.9500 156.9500
" />
<path d="M106.5500 141.3100
L107.3500 141.3100
" />
<path d="M106.9500 140.9100
L106.9500 141.7100
" />
<path d="M106.3600 115.8600
L107.1600 115.8600
" />
<path d="M106.7600 115.4600
L106.7600 116.2600
" />
<path d="M106.0000 159.6500
L106.8000 159.6500
" />
<path d="M106.4000 159.2500
L106.4000 160.0500
" />
<path d="M104.0100 156.5500
L104.8100 156.5500
" />
<path d="M104.4100 156.1500
L104.4100 156.9500
" />
<path d="M104.0100 141.3100
L104.8100 141.3100
" />
<path d="M104.4100 140.9100
L104.4100 141.7100
" />
<path d="M103.8200 118.4000
L104.6200 118.4000
" />
<path d="M104.2200 118.0000
L104.2200 118.8000
" />
<path d="M103.5000 159.6500
L104.3000 159.6500
" />
<path d="M103.9000 159.2500
L103.9000 160.0500
" />
<path d="M100.6100 157.4650
L101.4100 157.4650
" />
<path d="M101.0100 157.0650
L101.0100 157.8650
" />
<path d="M100.6100 154.9250
L101.4100 154.9250
" />
<path d="M101.0100 154.5250
L101.0100 155.3250
" />
<path d="M100.6100 152.3850
L101.4100 152.3850
" />
<path d="M101.0100 151.9850
L101.0100 152.7850
" />
<path d="M100.6100 149.8450
L101.4100 149.8450
" />
<path d="M101.0100 149.4450
L101.0100 150.2450
" />
<path d="M100.6100 147.3050
L101.4100 147.3050
" />
<path d="M101.0100 146.9050
L101.0100 147.7050
" />
<path d="M100.6100 144.7650
L101.4100 144.7650
" />
<path d="M101.0100 144.3650
L101.0100 145.1650
" />
<path d="M100.6100 142.2250
L101.4100 142.2250
" />
<path d="M101.0100 141.8250
L101.0100 142.6250
" />
<path d="M99.6100 131.4150
L100.4100 131.4150
" />
<path d="M100.0100 131.0150
L100.0100 131.8150
" />
<path d="M99.6100 128.8750
L100.4100 128.8750
" />
<path d="M100.0100 128.4750
L100.0100 129.2750
" />
<path d="M99.6100 126.3350
L100.4100 126.3350
" />
<path d="M100.0100 125.9350
L100.0100 126.7350
" />
<path d="M99.6100 123.7950
L100.4100 123.7950
" />
<path d="M100.0100 123.3950
L100.0100 124.1950
" />
<path d="M99.6100 121.2550
L100.4100 121.2550
" />
<path d="M100.0100 120.8550
L100.0100 121.6550
" />
<path d="M99.6100 118.7150
L100.4100 118.7150
" />
<path d="M100.0100 118.3150
L100.0100 119.1150
" />
<path d="M99.6100 116.1750
L100.4100 116.1750
" />
<path d="M100.0100 115.7750
L100.0100 116.5750
" />
<path d="M92.9900 157.4650
L93.7900 157.4650
" />
<path d="M93.3900 157.0650
L93.3900 157.8650
" />
<path d="M92.9900 154.9250
L93.7900 154.9250
" />
<path d="M93.3900 154.5250
L93.3900 155.3250
" />
<path d="M92.9900 152.3850
L93.7900 152.3850
" />
<path d="M93.3900 151.9850
L93.3900 152.7850
" />
<path d="M92.9900 149.8450
L93.7900 149.8450
" />
<path d="M93.3900 149.4450
L93.3900 150.2450
" />
<path d="M92.9900 147.3050
L93.7900 147.3050
" />
<path d="M93.3900 146.9050
L93.3900 147.7050
" />
<path d="M92.9900 144.7650
L93.7900 144.7650
" />
<path d="M93.3900 144.3650
L93.3900 145.1650
" />
<path d="M92.9900 142.2250
L93.7900 142.2250
" />
<path d="M93.3900 141.8250
L93.3900 142.6250
" />
<path d="M91.9900 131.4150
L92.7900 131.4150
" />
<path d="M92.3900 131.0150
L92.3900 131.8150
" />
<path d="M91.9900 128.8750
L92.7900 128.8750
" />
<path d="M92.3900 128.4750
L92.3900 129.2750
" />
<path d="M91.9900 126.3350
L92.7900 126.3350
" />
<path d="M92.3900 125.9350
L92.3900 126.7350
" />
<path d="M91.9900 123.7950
L92.7900 123.7950
" />
<path d="M92.3900 123.3950
L92.3900 124.1950
" />
<path d="M91.9900 121.2550
L92.7900 121.2550
" />
<path d="M92.3900 120.8550
L92.3900 121.6550
" />
<path d="M91.9900 118.7150
L92.7900 118.7150
" />
<path d="M92.3900 118.3150
L92.3900 119.1150
" />
<path d="M91.9900 116.1750
L92.7900 116.1750
" />
<path d="M92.3900 115.7750
L92.3900 116.5750
" />
<path d="M90.1500 159.4000
L90.9500 159.4000
" />
<path d="M90.5500 159.0000
L90.5500 159.8000
" />
<path d="M89.7100 156.0900
L90.5100 156.0900
" />
<path d="M90.1100 155.6900
L90.1100 156.4900
" />
<path d="M89.7100 153.5500
L90.5100 153.5500
" />
<path d="M90.1100 153.1500
L90.1100 153.9500
" />
<path d="M89.7100 151.0100
L90.5100 151.0100
" />
<path d="M90.1100 150.6100
L90.1100 151.4100
" />
<path d="M89.7100 148.4700
L90.5100 148.4700
" />
<path d="M90.1100 148.0700
L90.1100 148.8700
" />
<path d="M89.7100 145.9300
L90.5100 145.9300
" />
<path d="M90.1100 145.5300
L90.1100 146.3300
" />
<path d="M89.7100 143.3900
L90.5100 143.3900
" />
<path d="M90.1100 142.9900
L90.1100 143.7900
" />
<path d="M89.7100 140.8500
L90.5100 140.8500
" />
<path d="M90.1100 140.4500
L90.1100 141.2500
" />
<path d="M89.7100 138.3100
L90.5100 138.3100
" />
<path d="M90.1100 137.9100
L90.1100 138.7100
" />
<path d="M88.9000 134.8000
L89.7000 134.8000
" />
<path d="M89.3000 134.4000
L89.3000 135.2000
" />
<path d="M88.6100 131.4150
L89.4100 131.4150
" />
<path d="M89.0100 131.0150
L89.0100 131.8150
" />
<path d="M88.6100 128.8750
L89.4100 128.8750
" />
<path d="M89.0100 128.4750
L89.0100 129.2750
" />
<path d="M88.6100 126.3350
L89.4100 126.3350
" />
<path d="M89.0100 125.9350
L89.0100 126.7350
" />
<path d="M88.6100 123.7950
L89.4100 123.7950
" />
<path d="M89.0100 123.3950
L89.0100 124.1950
" />
<path d="M88.6100 121.2550
L89.4100 121.2550
" />
<path d="M89.0100 120.8550
L89.0100 121.6550
" />
<path d="M88.6100 118.7150
L89.4100 118.7150
" />
<path d="M89.0100 118.3150
L89.0100 119.1150
" />
<path d="M88.6100 116.1750
L89.4100 116.1750
" />
<path d="M89.0100 115.7750
L89.0100 116.5750
" />
<path d="M87.6500 159.4000
L88.4500 159.4000
" />
<path d="M88.0500 159.0000
L88.0500 159.8000
" />
<path d="M86.4000 134.8000
L87.2000 134.8000
" />
<path d="M86.8000 134.4000
L86.8000 135.2000
" />
<path d="M84.1500 159.4000
L84.9500 159.4000
" />
<path d="M84.5500 159.0000
L84.5500 159.8000
" />
<path d="M83.1000 134.8000
L83.9000 134.8000
" />
<path d="M83.5000 134.4000
L83.5000 135.2000
" />
<path d="M82.0900 156.0900
L82.8900 156.0900
" />
<path d="M82.4900 155.6900
L82.4900 156.4900
" />
<path d="M82.0900 153.5500
L82.8900 153.5500
" />
<path d="M82.4900 153.1500
L82.4900 153.9500
" />
<path d="M82.0900 151.0100
L82.8900 151.0100
" />
<path d="M82.4900 150.6100
L82.4900 151.4100
" />
<path d="M82.0900 148.4700
L82.8900 148.4700
" />
<path d="M82.4900 148.0700
L82.4900 148.8700
" />
<path d="M82.0900 145.9300
L82.8900 145.9300
" />
<path d="M82.4900 145.5300
L82.4900 146.3300
" />
<path d="M82.0900 143.3900
L82.8900 143.3900
" />
<path d="M82.4900 142.9900
L82.4900 143.7900
" />
<path d="M82.0900 140.8500
L82.8900 140.8500
" />
<path d="M82.4900 140.4500
L82.4900 141.2500
" />
<path d="M82.0900 138.3100
L82.8900 138.3100
" />
<path d="M82.4900 137.9100
L82.4900 138.7100
" />
<path d="M81.6500 159.4000
L82.4500 159.4000
" />
<path d="M82.0500 159.0000
L82.0500 159.8000
" />
<path d="M80.9900 131.4150
L81.7900 131.4150
" />
<path d="M81.3900 131.0150
L81.3900 131.8150
" />
<path d="M80.9900 128.8750
L81.7900 128.8750
" />
<path d="M81.3900 128.4750
L81.3900 129.2750
" />
<path d="M80.9900 126.3350
L81.7900 126.3350
" />
<path d="M81.3900 125.9350
L81.3900 126.7350
" />
<path d="M80.9900 123.7950
L81.7900 123.7950
" />
<path d="M81.3900 123.3950
L81.3900 124.1950
" />
<path d="M80.9900 121.2550
L81.7900 121.2550
" />
<path d="M81.3900 120.8550
L81.3900 121.6550
" />
<path d="M80.9900 118.7150
L81.7900 118.7150
" />
<path d="M81.3900 118.3150
L81.3900 119.1150
" />
<path d="M80.9900 116.1750
L81.7900 116.1750
" />
<path d="M81.3900 115.7750
L81.3900 116.5750
" />
<path d="M80.6000 134.8000
L81.4000 134.8000
" />
<path d="M81.0000 134.4000
L81.0000 135.2000
" />
<path d="M77.8500 130.5000
L78.6500 130.5000
" />
<path d="M78.2500 130.1000
L78.2500 130.9000
" />
<path d="M77.6000 134.5000
L78.4000 134.5000
" />
<path d="M78.0000 134.1000
L78.0000 134.9000
" />
<path d="M75.3500 130.5000
L76.1500 130.5000
" />
<path d="M75.7500 130.1000
L75.7500 130.9000
" />
<path d="M75.3400 125.4000
L76.1400 125.4000
" />
<path d="M75.7400 125.0000
L75.7400 125.8000
" />
<path d="M75.0600 156.4000
L75.8600 156.4000
" />
<path d="M75.4600 156.0000
L75.4600 156.8000
" />
<path d="M75.0600 153.8600
L75.8600 153.8600
" />
<path d="M75.4600 153.4600
L75.4600 154.2600
" />
<path d="M75.0600 151.3200
L75.8600 151.3200
" />
<path d="M75.4600 150.9200
L75.4600 151.7200
" />
<path d="M75.0600 148.7800
L75.8600 148.7800
" />
<path d="M75.4600 148.3800
L75.4600 149.1800
" />
<path d="M75.0600 146.2400
L75.8600 146.2400
" />
<path d="M75.4600 145.8400
L75.4600 146.6400
" />
<path d="M75.0600 143.7000
L75.8600 143.7000
" />
<path d="M75.4600 143.3000
L75.4600 144.1000
" />
<path d="M75.0600 141.1600
L75.8600 141.1600
" />
<path d="M75.4600 140.7600
L75.4600 141.5600
" />
<path d="M75.0600 138.6200
L75.8600 138.6200
" />
<path d="M75.4600 138.2200
L75.4600 139.0200
" />
<path d="M72.3500 130.5000
L73.1500 130.5000
" />
<path d="M72.7500 130.1000
L72.7500 130.9000
" />
<path d="M70.4600 125.4000
L71.2600 125.4000
" />
<path d="M70.8600 125.0000
L70.8600 125.8000
" />
<path d="M69.9800 134.5000
L70.7800 134.5000
" />
<path d="M70.3800 134.1000
L70.3800 134.9000
" />
<path d="M69.8500 130.5000
L70.6500 130.5000
" />
<path d="M70.2500 130.1000
L70.2500 130.9000
" />
<path d="M69.5700 159.6000
L70.3700 159.6000
" />
<path d="M69.9700 159.2000
L69.9700 160.0000
" />
<path d="M67.4400 156.4000
L68.2400 156.4000
" />
<path d="M67.8400 156.0000
L67.8400 156.8000
" />
<path d="M67.4400 153.8600
L68.2400 153.8600
" />
<path d="M67.8400 153.4600
L67.8400 154.2600
" />
<path d="M67.4400 151.3200
L68.2400 151.3200
" />
<path d="M67.8400 150.9200
L67.8400 151.7200
" />
<path d="M67.4400 148.7800
L68.2400 148.7800
" />
<path d="M67.8400 148.3800
L67.8400 149.1800
" />
<path d="M67.4400 146.2400
L68.2400 146.2400
" />
<path d="M67.8400 145.8400
L67.8400 146.6400
" />
<path d="M67.4400 143.7000
L68.2400 143.7000
" />
<path d="M67.8400 143.3000
L67.8400 144.1000
" />
<path d="M67.4400 141.1600
L68.2400 141.1600
" />
<path d="M67.8400 140.7600
L67.8400 141.5600
" />
<path d="M67.4400 138.6200
L68.2400 138.6200
" />
<path d="M67.8400 138.2200
L67.8400 139.0200
" />
<path d="M67.0700 159.6000
L67.8700 159.6000
" />
<path d="M67.4700 159.2000
L67.4700 160.0000
" />
<circle cx="148.0774" cy="117.3000" r="0.3000" /> 
<circle cx="146.0774" cy="117.3000" r="0.3000" /> 
<circle cx="142.3274" cy="137.2000" r="0.3000" /> 
<circle cx="142.3274" cy="132.5000" r="0.3000" /> 
<circle cx="140.3274" cy="137.2000" r="0.3000" /> 
<circle cx="140.3274" cy="132.5000" r="0.3000" /> 
<circle cx="133.1000" cy="122.6000" r="0.3000" /> 
<circle cx="131.5000" cy="127.9000" r="0.3000" /> 
<circle cx="131.1000" cy="122.6000" r="0.3000" /> 
<circle cx="129.5000" cy="127.9000" r="0.3000" /> 
<path d="M111.3250 136.5750
L110.8750 137.0250
" />
<path d="M110.8750 136.5750
L111.3250 137.0250
" />
<path d="M107.2250 138.8750
L106.7750 139.3250
" />
<path d="M106.7750 138.8750
L107.2250 139.3250
" />
<path d="M98.7697 147.9819
L98.3197 148.4319
" />
<path d="M98.3197 147.9819
L98.7697 148.4319
" />
</g>
<g style="fill:none; 
stroke:#000000; stroke-width:0.3000; stroke-opacity:1; 
stroke-linecap:round; stroke-linejoin:round;">
<text x="110.5000" y="174.8800"
textLength="16.4571" font-size="2.0000" lengthAdjust="spacingAndGlyphs"
text-anchor="middle" opacity="0" stroke-opacity="0">100.0000 mm</text>
<g class="stroked-text"><desc>100.0000 mm</desc>
<path d="M103.7143 174.8083
L102.8571 174.8083
" />
<path d="M103.2857 174.8083
L103.2857 173.3083
" />
<path d="M103.2857 173.3083
L103.1429 173.5226
" />
<path d="M103.1429 173.5226
L103.0000 173.6655
" />
<path d="M103.0000 173.6655
L102.8571 173.7369
" />
<path d="M104.6429 173.3083
L104.7857 173.3083
" />
<path d="M104.7857 173.3083
L104.9286 173.3798
" />
<path d="M104.9286 173.3798
L105.0000 173.4512
" />
<path d="M105.0000 173.4512
L105.0714 173.5940
" />
<path d="M105.0714 173.5940
L105.1429 173.8798
" />
<path d="M105.1429 173.8798
L105.1429 174.2369
" />
<path d="M105.1429 174.2369
L105.0714 174.5226
" />
<path d="M105.0714 174.5226
L105.0000 174.6655
" />
<path d="M105.0000 174.6655
L104.9286 174.7369
" />
<path d="M104.9286 174.7369
L104.7857 174.8083
" />
<path d="M104.7857 174.8083
L104.6429 174.8083
" />
<path d="M104.6429 174.8083
L104.5000 174.7369
" />
<path d="M104.5000 174.7369
L104.4286 174.6655
" />
<path d="M104.4286 174.6655
L104.3571 174.5226
" />
<path d="M104.3571 174.5226
L104.2857 174.2369
" />
<path d="M104.2857 174.2369
L104.2857 173.8798
" />
<path d="M104.2857 173.8798
L104.3571 173.5940
" />
<path d="M104.3571 173.5940
L104.4286 173.4512
" />
<path d="M104.4286 173.4512
L104.5000 173.3798
" />
<path d="M104.5000 173.3798
L104.6429 173.3083
" />
<path d="M106.0714 173.3083
L106.2143 173.3083
" />
<path d="M106.2143 173.3083
L106.3571 173.3798
" />
<path d="M106.3571 173.3798
L106.4286 173.4512
" />
<path d="M106.4286 173.4512
L106.5000 173.5940
" />
<path d="M106.5000 173.5940
L106.5714 173.8798
" />
<path d="M106.5714 173.8798
L106.5714 174.2369
" />
<path d="M106.5714 174.2369
L106.5000 174.5226
" />
<path d="M106.5000 174.5226
L106.4286 174.6655
" />
<path d="M106.4286 174.6655
L106.3571 174.7369
" />
<path d="M106.3571 174.7369
L106.2143 174.8083
" />
<path d="M106.2143 174.8083
L106.0714 174.8083
" />
<path d="M106.0714 174.8083
L105.9286 174.7369
" />
<path d="M105.9286 174.7369
L105.8571 174.6655
" />
<path d="M105.8571 174.6655
L105.7857 174.5226
" />
<path d="M105.7857 174.5226
L105.7143 174.2369
" />
<path d="M105.7143 174.2369
L105.7143 173.8798
" />
<path d="M105.7143 173.8798
L105.7857 173.5940
" />
<path d="M105.7857 173.5940
L105.8571 173.4512
" />
<path d="M105.8571 173.4512
L105.9286 173.3798
" />
<path d="M105.9286 173.3798
L106.0714 173.3083
" />
<path d="M107.2143 174.6655
L107.2857 174.7369
" />
<path d="M107.2857 174.7369
L107.2143 174.8083
" />
<path d="M107.2143 174.8083
L107.1429 174.7369
" />
<path d="M107.1429 174.7369
L107.2143 174.6655
" />
<path d="M107.2143 174.6655
L107.2143 174.8083
" />
<path d="M108.2143 173.3083
L108.3571 173.3083
" />
<path d="M108.3571 173.3083
L108.5000 173.3798
" />
<path d="M108.5000 173.3798
L108.5714 173.4512
" />
<path d="M108.5714 173.4512
L108.6429 173.5940
" />
<path d="M108.6429 173.5940
L108.7143 173.8798
" />
<path d="M108.7143 173.8798
L108.7143 174.2369
" />
<path d="M108.7143 174.2369
L108.6429 174.5226
" />
<path d="M108.6429 174.5226
L108.5714 174.6655
" />
<path d="M108.5714 174.6655
L108.5000 174.7369
" />
<path d="M108.5000 174.7369
L108.3571 174.8083
" />
<path d="M108.3571 174.8083
L108.2143 174.8083
" />
<path d="M108.2143 174.8083
L108.0714 174.7369
" />
<path d="M108.0714 174.7369
L108.0000 174.6655
" />
<path d="M108.0000 174.6655
L107.9286 174.5226
" />
<path d="M107.9286 174.5226
L107.8571 174.2369
" />
<path d="M107.8571 174.2369
L107.8571 173.8798
" />
<path d="M107.8571 173.8798
L107.9286 173.5940
" />
<path d="M107.9286 173.5940
L108.0000 173.4512
" />
<path d="M108.0000 173.4512
L108.0714 173.3798
" />
<path d="M108.0714 173.3798
L108.2143 173.3083
" />
<path d="M109.6429 173.3083
L109.7857 173.3083
" />
<path d="M109.7857 173.3083
L109.9286 173.3798
" />
<path d="M109.9286 173.3798
L110.0000 173.4512
" />
<path d="M110.0000 173.4512
L110.0714 173.5940
" />
<path d="M110.0714 173.5940
L110.1429 173.8798
" />
<path d="M110.1429 173.8798
L110.1429 174.2369
" />
<path d="M110.1429 174.2369
L110.0714 174.5226
" />
<path d="M110.0714 174.5226
L110.0000 174.6655
" />
<path d="M110.0000 174.6655
L109.9286 174.7369
" />
<path d="M109.9286 174.7369
L109.7857 174.8083
" />
<path d="M109.7857 174.8083
L109.6429 174.8083
" />
<path d="M109.6429 174.8083
L109.5000 174.7369
" />
<path d="M109.5000 174.7369
L109.4286 174.6655
" />
<path d="M109.4286 174.6655
L109.3571 174.5226
" />
<path d="M109.3571 174.5226
L109.2857 174.2369
" />
<path d="M109.2857 174.2369
L109.2857 173.8798
" />
<path d="M109.2857 173.8798
L109.3571 173.5940
" />
<path d="M109.3571 173.5940
L109.4286 173.4512
" />
<path d="M109.4286 173.4512
L109.5000 173.3798
" />
<path d="M109.5000 173.3798
L109.6429 173.3083
" />
<path d="M111.0714 173.3083
L111.2143 173.3083
" />
<path d="M111.2143 173.3083
L111.3571 173.3798
" />
<path d="M111.3571 173.3798
L111.4286 173.4512
" />
<path d="M111.4286 173.4512
L111.5000 173.5940
" />
<path d="M111.5000 173.5940
L111.5714 173.8798
" />
<path d="M111.5714 173.8798
L111.5714 174.2369
" />
<path d="M111.5714 174.2369
L111.5000 174.5226
" />
<path d="M111.5000 174.5226
L111.4286 174.6655
" />
<path d="M111.4286 174.6655
L111.3571 174.7369
" />
<path d="M111.3571 174.7369
L111.2143 174.8083
" />
<path d="M111.2143 174.8083
L111.0714 174.8083
" />
<path d="M111.0714 174.8083
L110.9286 174.7369
" />
<path d="M110.9286 174.7369
L110.8571 174.6655
" />
<path d="M110.8571 174.6655
L110.7857 174.5226
" />
<path d="M110.7857 174.5226
L110.7143 174.2369
" />
<path d="M110.7143 174.2369
L110.7143 173.8798
" />
<path d="M110.7143 173.8798
L110.7857 173.5940
" />
<path d="M110.7857 173.5940
L110.8571 173.4512
" />
<path d="M110.8571 173.4512
L110.9286 173.3798
" />
<path d="M110.9286 173.3798
L111.0714 173.3083
" />
<path d="M112.5000 173.3083
L112.6429 173.3083
" />
<path d="M112.6429 173.3083
L112.7857 173.3798
" />
<path d="M112.7857 173.3798
L112.8571 173.4512
" />
<path d="M112.8571 173.4512
L112.9286 173.5940
" />
<path d="M112.9286 173.5940
L113.0000 173.8798
" />
<path d="M113.0000 173.8798
L113.0000 174.2369
" />
<path d="M113.0000 174.2369
L112.9286 174.5226
" />
<path d="M112.9286 174.5226
L112.8571 174.6655
" />
<path d="M112.8571 174.6655
L112.7857 174.7369
" />
<path d="M112.7857 174.7369
L112.6429 174.8083
" />
<path d="M112.6429 174.8083
L112.5000 174.8083
" />
<path d="M112.5000 174.8083
L112.3571 174.7369
" />
<path d="M112.3571 174.7369
L112.2857 174.6655
" />
<path d="M112.2857 174.6655
L112.2143 174.5226
" />
<path d="M112.2143 174.5226
L112.1429 174.2369
" />
<path d="M112.1429 174.2369
L112.1429 173.8798
" />
<path d="M112.1429 173.8798
L112.2143 173.5940
" />
<path d="M112.2143 173.5940
L112.2857 173.4512
" />
<path d="M112.2857 173.4512
L112.3571 173.3798
" />
<path d="M112.3571 173.3798
L112.5000 173.3083
" />
<path d="M114.7857 174.8083
L114.7857 173.8083
" />
<path d="M114.7857 173.9512
L114.8571 173.8798
" />
<path d="M114.8571 173.8798
L115.0000 173.8083
" />
<path d="M115.0000 173.8083
L115.2143 173.8083
" />
<path d="M115.2143 173.8083
L115.3571 173.8798
" />
<path d="M115.3571 173.8798
L115.4286 174.0226
" />
<path d="M115.4286 174.0226
L115.4286 174.8083
" />
<path d="M115.4286 174.0226
L115.5000 173.8798
" />
<path d="M115.5000 173.8798
L115.6429 173.8083
" />
<path d="M115.6429 173.8083
L115.8571 173.8083
" />
<path d="M115.8571 173.8083
L116.0000 173.8798
" />
<path d="M116.0000 173.8798
L116.0714 174.0226
" />
<path d="M116.0714 174.0226
L116.0714 174.8083
" />
<path d="M116.7857 174.8083
L116.7857 173.8083
" />
<path d="M116.7857 173.9512
L116.8571 173.8798
" />
<path d="M116.8571 173.8798
L117.0000 173.8083
" />
<path d="M117.0000 173.8083
L117.2143 173.8083
" />
<path d="M117.2143 173.8083
L117.3571 173.8798
" />
<path d="M117.3571 173.8798
L117.4286 174.0226
" />
<path d="M117.4286 174.0226
L117.4286 174.8083
" />
<path d="M117.4286 174.0226
L117.5000 173.8798
" />
<path d="M117.5000 173.8798
L117.6429 173.8083
" />
<path d="M117.6429 173.8083
L117.8571 173.8083
" />
<path d="M117.8571 173.8083
L118.0000 173.8798
" />
<path d="M118.0000 173.8798
L118.0714 174.0226
" />
<path d="M118.0714 174.0226
L118.0714 174.8083
" />
</g><path d="M160.5000 164.5000
L160.5000 176.5164
" />
<path d="M60.5000 164.5000
L60.5000 176.5164
" />
<path d="M160.5000 175.9300
L60.5000 175.9300
" />
<path d="M160.5000 175.9300
L159.3735 176.5164
" />
<path d="M160.5000 175.9300
L159.3735 175.3436
" />
<path d="M60.5000 175.9300
L61.6265 175.3436
" />
<path d="M60.5000 175.9300
L61.6265 176.5164
" />
<text x="157.7500" y="108.8461"
textLength="13.6000" font-size="2.0000" lengthAdjust="spacingAndGlyphs"
text-anchor="middle" opacity="0" stroke-opacity="0">5.5000 mm</text>
<g class="stroked-text"><desc>5.5000 mm</desc>
<path d="M152.3214 107.2744
L151.6071 107.2744
" />
<path d="M151.6071 107.2744
L151.5357 107.9887
" />
<path d="M151.5357 107.9887
L151.6071 107.9173
" />
<path d="M151.6071 107.9173
L151.7500 107.8459
" />
<path d="M151.7500 107.8459
L152.1071 107.8459
" />
<path d="M152.1071 107.8459
L152.2500 107.9173
" />
<path d="M152.2500 107.9173
L152.3214 107.9887
" />
<path d="M152.3214 107.9887
L152.3929 108.1316
" />
<path d="M152.3929 108.1316
L152.3929 108.4887
" />
<path d="M152.3929 108.4887
L152.3214 108.6316
" />
<path d="M152.3214 108.6316
L152.2500 108.7030
" />
<path d="M152.2500 108.7030
L152.1071 108.7744
" />
<path d="M152.1071 108.7744
L151.7500 108.7744
" />
<path d="M151.7500 108.7744
L151.6071 108.7030
" />
<path d="M151.6071 108.7030
L151.5357 108.6316
" />
<path d="M153.0357 108.6316
L153.1071 108.7030
" />
<path d="M153.1071 108.7030
L153.0357 108.7744
" />
<path d="M153.0357 108.7744
L152.9643 108.7030
" />
<path d="M152.9643 108.7030
L153.0357 108.6316
" />
<path d="M153.0357 108.6316
L153.0357 108.7744
" />
<path d="M154.4643 107.2744
L153.7500 107.2744
" />
<path d="M153.7500 107.2744
L153.6786 107.9887
" />
<path d="M153.6786 107.9887
L153.7500 107.9173
" />
<path d="M153.7500 107.9173
L153.8929 107.8459
" />
<path d="M153.8929 107.8459
L154.2500 107.8459
" />
<path d="M154.2500 107.8459
L154.3929 107.9173
" />
<path d="M154.3929 107.9173
L154.4643 107.9887
" />
<path d="M154.4643 107.9887
L154.5357 108.1316
" />
<path d="M154.5357 108.1316
L154.5357 108.4887
" />
<path d="M154.5357 108.4887
L154.4643 108.6316
" />
<path d="M154.4643 108.6316
L154.3929 108.7030
" />
<path d="M154.3929 108.7030
L154.2500 108.7744
" />
<path d="M154.2500 108.7744
L153.8929 108.7744
" />
<path d="M153.8929 108.7744
L153.7500 108.7030
" />
<path d="M153.7500 108.7030
L153.6786 108.6316
" />
<path d="M155.4643 107.2744
L155.6071 107.2744
" />
<path d="M155.6071 107.2744
L155.7500 107.3459
" />
<path d="M155.7500 107.3459
L155.8214 107.4173
" />
<path d="M155.8214 107.4173
L155.8929 107.5602
" />
<path d="M155.8929 107.5602
L155.9643 107.8459
" />
<path d="M155.9643 107.8459
L155.9643 108.2030
" />
<path d="M155.9643 108.2030
L155.8929 108.4887
" />
<path d="M155.8929 108.4887
L155.8214 108.6316
" />
<path d="M155.8214 108.6316
L155.7500 108.7030
" />
<path d="M155.7500 108.7030
L155.6071 108.7744
" />
<path d="M155.6071 108.7744
L155.4643 108.7744
" />
<path d="M155.4643 108.7744
L155.3214 108.7030
" />
<path d="M155.3214 108.7030
L155.2500 108.6316
" />
<path d="M155.2500 108.6316
L155.1786 108.4887
" />
<path d="M155.1786 108.4887
L155.1071 108.2030
" />
<path d="M155.1071 108.2030
L155.1071 107.8459
" />
<path d="M155.1071 107.8459
L155.1786 107.5602
" />
<path d="M155.1786 107.5602
L155.2500 107.4173
" />
<path d="M155.2500 107.4173
L155.3214 107.3459
" />
<path d="M155.3214 107.3459
L155.4643 107.2744
" />
<path d="M156.8929 107.2744
L157.0357 107.2744
" />
<path d="M157.0357 107.2744
L157.1786 107.3459
" />
<path d="M157.1786 107.3459
L157.2500 107.4173
" />
<path d="M157.2500 107.4173
L157.3214 107.5602
" />
<path d="M157.3214 107.5602
L157.3929 107.8459
" />
<path d="M157.3929 107.8459
L157.3929 108.2030
" />
<path d="M157.3929 108.2030
L157.3214 108.4887
" />
<path d="M157.3214 108.4887
L157.2500 108.6316
" />
<path d="M157.2500 108.6316
L157.1786 108.7030
" />
<path d="M157.1786 108.7030
L157.0357 108.7744
" />
<path d="M157.0357 108.7744
L156.8929 108.7744
" />
<path d="M156.8929 108.7744
L156.7500 108.7030
" />
<path d="M156.7500 108.7030
L156.6786 108.6316
" />
<path d="M156.6786 108.6316
L156.6071 108.4887
" />
<path d="M156.6071 108.4887
L156.5357 108.2030
" />
<path d="M156.5357 108.2030
L156.5357 107.8459
" />
<path d="M156.5357 107.8459
L156.6071 107.5602
" />
<path d="M156.6071 107.5602
L156.6786 107.4173
" />
<path d="M156.6786 107.4173
L156.7500 107.3459
" />
<path d="M156.7500 107.3459
L156.8929 107.2744
" />
<path d="M158.3214 107.2744
L158.4643 107.2744
" />
<path d="M158.4643 107.2744
L158.6071 107.3459
" />
<path d="M158.6071 107.3459
L158.6786 107.4173
" />
<path d="M158.6786 107.4173
L158.7500 107.5602
" />
<path d="M158.7500 107.5602
L158.8214 107.8459
" />
<path d="M158.8214 107.8459
L158.8214 108.2030
" />
<path d="M158.8214 108.2030
L158.7500 108.4887
" />
<path d="M158.7500 108.4887
L158.6786 108.6316
" />
<path d="M158.6786 108.6316
L158.6071 108.7030
" />
<path d="M158.6071 108.7030
L158.4643 108.7744
" />
<path d="M158.4643 108.7744
L158.3214 108.7744
" />
<path d="M158.3214 108.7744
L158.1786 108.7030
" />
<path d="M158.1786 108.7030
L158.1071 108.6316
" />
<path d="M158.1071 108.6316
L158.0357 108.4887
" />
<path d="M158.0357 108.4887
L157.9643 108.2030
" />
<path d="M157.9643 108.2030
L157.9643 107.8459
" />
<path d="M157.9643 107.8459
L158.0357 107.5602
" />
<path d="M158.0357 107.5602
L158.1071 107.4173
" />
<path d="M158.1071 107.4173
L158.1786 107.3459
" />
<path d="M158.1786 107.3459
L158.3214 107.2744
" />
<path d="M160.6071 108.7744
L160.6071 107.7744
" />
<path d="M160.6071 107.9173
L160.6786 107.8459
" />
<path d="M160.6786 107.8459
L160.8214 107.7744
" />
<path d="M160.8214 107.7744
L161.0357 107.7744
" />
<path d="M161.0357 107.7744
L161.1786 107.8459
" />
<path d="M161.1786 107.8459
L161.2500 107.9887
" />
<path d="M161.2500 107.9887
L161.2500 108.7744
" />
<path d="M161.2500 107.9887
L161.3214 107.8459
" />
<path d="M161.3214 107.8459
L161.4643 107.7744
" />
<path d="M161.4643 107.7744
L161.6786 107.7744
" />
<path d="M161.6786 107.7744
L161.8214 107.8459
" />
<path d="M161.8214 107.8459
L161.8929 107.9887
" />
<path d="M161.8929 107.9887
L161.8929 108.7744
" />
<path d="M162.6071 108.7744
L162.6071 107.7744
" />
<path d="M162.6071 107.9173
L162.6786 107.8459
" />
<path d="M162.6786 107.8459
L162.8214 107.7744
" />
<path d="M162.8214 107.7744
L163.0357 107.7744
" />
<path d="M163.0357 107.7744
L163.1786 107.8459
" />
<path d="M163.1786 107.8459
L163.2500 107.9887
" />
<path d="M163.2500 107.9887
L163.2500 108.7744
" />
<path d="M163.2500 107.9887
L163.3214 107.8459
" />
<path d="M163.3214 107.8459
L163.4643 107.7744
" />
<path d="M163.4643 107.7744
L163.6786 107.7744
" />
<path d="M163.6786 107.7744
L163.8214 107.8459
" />
<path d="M163.8214 107.8459
L163.8929 107.9887
" />
<path d="M163.8929 107.9887
L163.8929 108.7744
" />
</g><path d="M160.5000 114.3961
L160.5000 109.3097
" />
<path d="M155.0000 114.3961
L155.0000 109.3097
" />
<path d="M160.5000 109.8961
L155.0000 109.8961
" />
<path d="M160.5000 109.8961
L159.3735 110.4825
" />
<path d="M160.5000 109.8961
L159.3735 109.3097
" />
<path d="M155.0000 109.8961
L156.1265 109.3097
" />
<path d="M155.0000 109.8961
L156.1265 110.4825
" />
<g transform="rotate(-90.000000 48.5400 139.5000)">
<text x="48.5400" y="140.2500"
textLength="15.0286" font-size="2.0000" lengthAdjust="spacingAndGlyphs"
text-anchor="middle" opacity="0" stroke-opacity="0">50.0000 mm</text>
</g>
<g class="stroked-text"><desc>50.0000 mm</desc>
<path d="M47.7183 145.6429
L47.7183 146.3571
" />
<path d="M47.7183 146.3571
L48.4326 146.4286
" />
<path d="M48.4326 146.4286
L48.3612 146.3571
" />
<path d="M48.3612 146.3571
L48.2898 146.2143
" />
<path d="M48.2898 146.2143
L48.2898 145.8571
" />
<path d="M48.2898 145.8571
L48.3612 145.7143
" />
<path d="M48.3612 145.7143
L48.4326 145.6429
" />
<path d="M48.4326 145.6429
L48.5755 145.5714
" />
<path d="M48.5755 145.5714
L48.9326 145.5714
" />
<path d="M48.9326 145.5714
L49.0755 145.6429
" />
<path d="M49.0755 145.6429
L49.1469 145.7143
" />
<path d="M49.1469 145.7143
L49.2183 145.8571
" />
<path d="M49.2183 145.8571
L49.2183 146.2143
" />
<path d="M49.2183 146.2143
L49.1469 146.3571
" />
<path d="M49.1469 146.3571
L49.0755 146.4286
" />
<path d="M47.7183 144.6429
L47.7183 144.5000
" />
<path d="M47.7183 144.5000
L47.7898 144.3571
" />
<path d="M47.7898 144.3571
L47.8612 144.2857
" />
<path d="M47.8612 144.2857
L48.0040 144.2143
" />
<path d="M48.0040 144.2143
L48.2898 144.1429
" />
<path d="M48.2898 144.1429
L48.6469 144.1429
" />
<path d="M48.6469 144.1429
L48.9326 144.2143
" />
<path d="M48.9326 144.2143
L49.0755 144.2857
" />
<path d="M49.0755 144.2857
L49.1469 144.3571
" />
<path d="M49.1469 144.3571
L49.2183 144.5000
" />
<path d="M49.2183 144.5000
L49.2183 144.6429
" />
<path d="M49.2183 144.6429
L49.1469 144.7857
" />
<path d="M49.1469 144.7857
L49.0755 144.8571
" />
<path d="M49.0755 144.8571
L48.9326 144.9286
" />
<path d="M48.9326 144.9286
L48.6469 145.0000
" />
<path d="M48.6469 145.0000
L48.2898 145.0000
" />
<path d="M48.2898 145.0000
L48.0040 144.9286
" />
<path d="M48.0040 144.9286
L47.8612 144.8571
" />
<path d="M47.8612 144.8571
L47.7898 144.7857
" />
<path d="M47.7898 144.7857
L47.7183 144.6429
" />
<path d="M49.0755 143.5000
L49.1469 143.4286
" />
<path d="M49.1469 143.4286
L49.2183 143.5000
" />
<path d="M49.2183 143.5000
L49.1469 143.5714
" />
<path d="M49.1469 143.5714
L49.0755 143.5000
" />
<path d="M49.0755 143.5000
L49.2183 143.5000
" />
<path d="M47.7183 142.5000
L47.7183 142.3571
" />
<path d="M47.7183 142.3571
L47.7898 142.2143
" />
<path d="M47.7898 142.2143
L47.8612 142.1429
" />
<path d="M47.8612 142.1429
L48.0040 142.0714
" />
<path d="M48.0040 142.0714
L48.2898 142.0000
" />
<path d="M48.2898 142.0000
L48.6469 142.0000
" />
<path d="M48.6469 142.0000
L48.9326 142.0714
" />
<path d="M48.9326 142.0714
L49.0755 142.1429
" />
<path d="M49.0755 142.1429
L49.1469 142.2143
" />
<path d="M49.1469 142.2143
L49.2183 142.3571
" />
<path d="M49.2183 142.3571
L49.2183 142.5000
" />
<path d="M49.2183 142.5000
L49.1469 142.6429
" />
<path d="M49.1469 142.6429
L49.0755 142.7143
" />
<path d="M49.0755 142.7143
L48.9326 142.7857
" />
<path d="M48.9326 142.7857
L48.6469 142.8571
" />
<path d="M48.6469 142.8571
L48.2898 142.8571
" />
<path d="M48.2898 142.8571
L48.0040 142.7857
" />
<path d="M48.0040 142.7857
L47.8612 142.7143
" />
<path d="M47.8612 142.7143
L47.7898 142.6429
" />
<path d="M47.7898 142.6429
L47.7183 142.5000
" />
<path d="M47.7183 141.0714
L47.7183 140.9286
" />
<path d="M47.7183 140.9286
L47.7898 140.7857
" />
<path d="M47.7898 140.7857
L47.8612 140.7143
" />
<path d="M47.8612 140.7143
L48.0040 140.6429
" />
<path d="M48.0040 140.6429
L48.2898 140.5714
" />
<path d="M48.2898 140.5714
L48.6469 140.5714
" />
<path d="M48.6469 140.5714
L48.9326 140.6429
" />
<path d="M48.9326 140.6429
L49.0755 140.7143
" />
<path d="M49.0755 140.7143
L49.1469 140.7857
" />
<path d="M49.1469 140.7857
L49.2183 140.9286
" />
<path d="M49.2183 140.9286
L49.2183 141.0714
" />
<path d="M49.2183 141.0714
L49.1469 141.2143
" />
<path d="M49.1469 141.2143
L49.0755 141.2857
" />
<path d="M49.0755 141.2857
L48.9326 141.3571
" />
<path d="M48.9326 141.3571
L48.6469 141.4286
" />
<path d="M48.6469 141.4286
L48.2898 141.4286
" />
<path d="M48.2898 141.4286
L48.0040 141.3571
" />
<path d="M48.0040 141.3571
L47.8612 141.2857
" />
<path d="M47.8612 141.2857
L47.7898 141.2143
" />
<path d="M47.7898 141.2143
L47.7183 141.0714
" />
<path d="M47.7183 139.6429
L47.7183 139.5000
" />
<path d="M47.7183 139.5000
L47.7898 139.3571
" />
<path d="M47.7898 139.3571
L47.8612 139.2857
" />
<path d="M47.8612 139.2857
L48.0040 139.2143
" />
<path d="M48.0040 139.2143
L48.2898 139.1429
" />
<path d="M48.2898 139.1429
L48.6469 139.1429
" />
<path d="M48.6469 139.1429
L48.9326 139.2143
" />
<path d="M48.9326 139.2143
L49.0755 139.2857
" />
<path d="M49.0755 139.2857
L49.1469 139.3571
" />
<path d="M49.1469 139.3571
L49.2183 139.5000
" />
<path d="M49.2183 139.5000
L49.2183 139.6429
" />
<path d="M49.2183 139.6429
L49.1469 139.7857
" />
<path d="M49.1469 139.7857
L49.0755 139.8571
" />
<path d="M49.0755 139.8571
L48.9326 139.9286
" />
<path d="M48.9326 139.9286
L48.6469 140.0000
" />
<path d="M48.6469 140.0000
L48.2898 140.0000
" />
<path d="M48.2898 140.0000
L48.0040 139.9286
" />
<path d="M48.0040 139.9286
L47.8612 139.8571
" />
<path d="M47.8612 139.8571
L47.7898 139.7857
" />
<path d="M47.7898 139.7857
L47.7183 139.6429
" />
<path d="M47.7183 138.2143
L47.7183 138.0714
" />
<path d="M47.7183 138.0714
L47.7898 137.9286
" />
<path d="M47.7898 137.9286
L47.8612 137.8571
" />
<path d="M47.8612 137.8571
L48.0040 137.7857
" />
<path d="M48.0040 137.7857
L48.2898 137.7143
" />
<path d="M48.2898 137.7143
L48.6469 137.7143
" />
<path d="M48.6469 137.7143
L48.9326 137.7857
" />
<path d="M48.9326 137.7857
L49.0755 137.8571
" />
<path d="M49.0755 137.8571
L49.1469 137.9286
" />
<path d="M49.1469 137.9286
L49.2183 138.0714
" />
<path d="M49.2183 138.0714
L49.2183 138.2143
" />
<path d="M49.2183 138.2143
L49.1469 138.3571
" />
<path d="M49.1469 138.3571
L49.0755 138.4286
" />
<path d="M49.0755 138.4286
L48.9326 138.5000
" />
<path d="M48.9326 138.5000
L48.6469 138.5714
" />
<path d="M48.6469 138.5714
L48.2898 138.5714
" />
<path d="M48.2898 138.5714
L48.0040 138.5000
" />
<path d="M48.0040 138.5000
L47.8612 138.4286
" />
<path d="M47.8612 138.4286
L47.7898 138.3571
" />
<path d="M47.7898 138.3571
L47.7183 138.2143
" />
<path d="M49.2183 135.9286
L48.2183 135.9286
" />
<path d="M48.3612 135.9286
L48.2898 135.8571
" />
<path d="M48.2898 135.8571
L48.2183 135.7143
" />
<path d="M48.2183 135.7143
L48.2183 135.5000
" />
<path d="M48.2183 135.5000
L48.2898 135.3571
" />
<path d="M48.2898 135.3571
L48.4326 135.2857
" />
<path d="M48.4326 135.2857
L49.2183 135.2857
" />
<path d="M48.4326 135.2857
L48.2898 135.2143
" />
<path d="M48.2898 135.2143
L48.2183 135.0714
" />
<path d="M48.2183 135.0714
L48.2183 134.8571
" />
<path d="M48.2183 134.8571
L48.2898 134.7143
" />
<path d="M48.2898 134.7143
L48.4326 134.6429
" />
<path d="M48.4326 134.6429
L49.2183 134.6429
" />
<path d="M49.2183 133.9286
L48.2183 133.9286
" />
<path d="M48.3612 133.9286
L48.2898 133.8571
" />
<path d="M48.2898 133.8571
L48.2183 133.7143
" />
<path d="M48.2183 133.7143
L48.2183 133.5000
" />
<path d="M48.2183 133.5000
L48.2898 133.3571
" />
<path d="M48.2898 133.3571
L48.4326 133.2857
" />
<path d="M48.4326 133.2857
L49.2183 133.2857
" />
<path d="M48.4326 133.2857
L48.2898 133.2143
" />
<path d="M48.2898 133.2143
L48.2183 133.0714
" />
<path d="M48.2183 133.0714
L48.2183 132.8571
" />
<path d="M48.2183 132.8571
L48.2898 132.7143
" />
<path d="M48.2898 132.7143
L48.4326 132.6429
" />
<path d="M48.4326 132.6429
L49.2183 132.6429
" />
</g><path d="M60.5000 114.5000
L49.7536 114.5000
" />
<path d="M60.5000 164.5000
L49.7536 164.5000
" />
<path d="M50.3400 114.5000
L50.3400 164.5000
" />
<path d="M50.3400 114.5000
L50.9264 115.6265
" />
<path d="M50.3400 114.5000
L49.7536 115.6265
" />
<path d="M50.3400 164.5000
L49.7536 163.3735
" />
<path d="M50.3400 164.5000
L50.9264 163.3735
" />
<g transform="rotate(-90.000000 53.6200 147.0000)">
<text x="53.6200" y="147.7500"
textLength="15.0286" font-size="2.0000" lengthAdjust="spacingAndGlyphs"
text-anchor="middle" opacity="0" stroke-opacity="0">35.0000 mm</text>
</g>
<g class="stroked-text"><desc>35.0000 mm</desc>
<path d="M52.7983 154.0000
L52.7983 153.0714
" />
<path d="M52.7983 153.0714
L53.3698 153.5714
" />
<path d="M53.3698 153.5714
L53.3698 153.3571
" />
<path d="M53.3698 153.3571
L53.4412 153.2143
" />
<path d="M53.4412 153.2143
L53.5126 153.1429
" />
<path d="M53.5126 153.1429
L53.6555 153.0714
" />
<path d="M53.6555 153.0714
L54.0126 153.0714
" />
<path d="M54.0126 153.0714
L54.1555 153.1429
" />
<path d="M54.1555 153.1429
L54.2269 153.2143
" />
<path d="M54.2269 153.2143
L54.2983 153.3571
" />
<path d="M54.2983 153.3571
L54.2983 153.7857
" />
<path d="M54.2983 153.7857
L54.2269 153.9286
" />
<path d="M54.2269 153.9286
L54.1555 154.0000
" />
<path d="M52.7983 151.7143
L52.7983 152.4286
" />
<path d="M52.7983 152.4286
L53.5126 152.5000
" />
<path d="M53.5126 152.5000
L53.4412 152.4286
" />
<path d="M53.4412 152.4286
L53.3698 152.2857
" />
<path d="M53.3698 152.2857
L53.3698 151.9286
" />
<path d="M53.3698 151.9286
L53.4412 151.7857
" />
<path d="M53.4412 151.7857
L53.5126 151.7143
" />
<path d="M53.5126 151.7143
L53.6555 151.6429
" />
<path d="M53.6555 151.6429
L54.0126 151.6429
" />
<path d="M54.0126 151.6429
L54.1555 151.7143
" />
<path d="M54.1555 151.7143
L54.2269 151.7857
" />
<path d="M54.2269 151.7857
L54.2983 151.9286
" />
<path d="M54.2983 151.9286
L54.2983 152.2857
" />
<path d="M54.2983 152.2857
L54.2269 152.4286
" />
<path d="M54.2269 152.4286
L54.1555 152.5000
" />
<path d="M54.1555 151.0000
L54.2269 150.9286
" />
<path d="M54.2269 150.9286
L54.2983 151.0000
" />
<path d="M54.2983 151.0000
L54.2269 151.0714
" />
<path d="M54.2269 151.0714
L54.1555 151.0000
" />
<path d="M54.1555 151.0000
L54.2983 151.0000
" />
<path d="M52.7983 150.0000
L52.7983 149.8571
" />
<path d="M52.7983 149.8571
L52.8698 149.7143
" />
<path d="M52.8698 149.7143
L52.9412 149.6429
" />
<path d="M52.9412 149.6429
L53.0840 149.5714
" />
<path d="M53.0840 149.5714
L53.3698 149.5000
" />
<path d="M53.3698 149.5000
L53.7269 149.5000
" />
<path d="M53.7269 149.5000
L54.0126 149.5714
" />
<path d="M54.0126 149.5714
L54.1555 149.6429
" />
<path d="M54.1555 149.6429
L54.2269 149.7143
" />
<path d="M54.2269 149.7143
L54.2983 149.8571
" />
<path d="M54.2983 149.8571
L54.2983 150.0000
" />
<path d="M54.2983 150.0000
L54.2269 150.1429
" />
<path d="M54.2269 150.1429
L54.1555 150.2143
" />
<path d="M54.1555 150.2143
L54.0126 150.2857
" />
<path d="M54.0126 150.2857
L53.7269 150.3571
" />
<path d="M53.7269 150.3571
L53.3698 150.3571
" />
<path d="M53.3698 150.3571
L53.0840 150.2857
" />
<path d="M53.0840 150.2857
L52.9412 150.2143
" />
<path d="M52.9412 150.2143
L52.8698 150.1429
" />
<path d="M52.8698 150.1429
L52.7983 150.0000
" />
<path d="M52.7983 148.5714
L52.7983 148.4286
" />
<path d="M52.7983 148.4286
L52.8698 148.2857
" />
<path d="M52.8698 148.2857
L52.9412 148.2143
" />
<path d="M52.9412 148.2143
L53.0840 148.1429
" />
<path d="M53.0840 148.1429
L53.3698 148.0714
" />
<path d="M53.3698 148.0714
L53.7269 148.0714
" />
<path d="M53.7269 148.0714
L54.0126 148.1429
" />
<path d="M54.0126 148.1429
L54.1555 148.2143
" />
<path d="M54.1555 148.2143
L54.2269 148.2857
" />
<path d="M54.2269 148.2857
L54.2983 148.4286
" />
<path d="M54.2983 148.4286
L54.2983 148.5714
" />
<path d="M54.2983 148.5714
L54.2269 148.7143
" />
<path d="M54.2269 148.7143
L54.1555 148.7857
" />
<path d="M54.1555 148.7857
L54.0126 148.8571
" />
<path d="M54.0126 148.8571
L53.7269 148.9286
" />
<path d="M53.7269 148.9286
L53.3698 148.9286
" />
<path d="M53.3698 148.9286
L53.0840 148.8571
" />
<path d="M53.0840 148.8571
L52.9412 148.7857
" />
<path d="M52.9412 148.7857
L52.8698 148.7143
" />
<path d="M52.8698 148.7143
L52.7983 148.5714
" />
<path d="M52.7983 147.1429
L52.7983 147.0000
" />
<path d="M52.7983 147.0000
L52.8698 146.8571
" />
<path d="M52.8698 146.8571
L52.9412 146.7857
" />
<path d="M52.9412 146.7857
L53.0840 146.7143
" />
<path d="M53.0840 146.7143
L53.3698 146.6429
" />
<path d="M53.3698 146.6429
L53.7269 146.6429
" />
<path d="M53.7269 146.6429
L54.0126 146.7143
" />
<path d="M54.0126 146.7143
L54.1555 146.7857
" />
<path d="M54.1555 146.7857
L54.2269 146.8571
" />
<path d="M54.2269 146.8571
L54.2983 147.0000
" />
<path d="M54.2983 147.0000
L54.2983 147.1429
" />
<path d="M54.2983 147.1429
L54.2269 147.2857
" />
<path d="M54.2269 147.2857
L54.1555 147.3571
" />
<path d="M54.1555 147.3571
L54.0126 147.4286
" />
<path d="M54.0126 147.4286
L53.7269 147.5000
" />
<path d="M53.7269 147.5000
L53.3698 147.5000
" />
<path d="M53.3698 147.5000
L53.0840 147.4286
" />
<path d="M53.0840 147.4286
L52.9412 147.3571
" />
<path d="M52.9412 147.3571
L52.8698 147.2857
" />
<path d="M52.8698 147.2857
L52.7983 147.1429
" />
<path d="M52.7983 145.7143
L52.7983 145.5714
" />
<path d="M52.7983 145.5714
L52.8698 145.4286
" />
<path d="M52.8698 145.4286
L52.9412 145.3571
" />
<path d="M52.9412 145.3571
L53.0840 145.2857
" />
<path d="M53.0840 145.2857
L53.3698 145.2143
" />
<path d="M53.3698 145.2143
L53.7269 145.2143
" />
<path d="M53.7269 145.2143
L54.0126 145.2857
" />
<path d="M54.0126 145.2857
L54.1555 145.3571
" />
<path d="M54.1555 145.3571
L54.2269 145.4286
" />
<path d="M54.2269 145.4286
L54.2983 145.5714
" />
<path d="M54.2983 145.5714
L54.2983 145.7143
" />
<path d="M54.2983 145.7143
L54.2269 145.8571
" />
<path d="M54.2269 145.8571
L54.1555 145.9286
" />
<path d="M54.1555 145.9286
L54.0126 146.0000
" />
<path d="M54.0126 146.0000
L53.7269 146.0714
" />
<path d="M53.7269 146.0714
L53.3698 146.0714
" />
<path d="M53.3698 146.0714
L53.0840 146.0000
" />
<path d="M53.0840 146.0000
L52.9412 145.9286
" />
<path d="M52.9412 145.9286
L52.8698 145.8571
" />
<path d="M52.8698 145.8571
L52.7983 145.7143
" />
<path d="M54.2983 143.4286
L53.2983 143.4286
" />
<path d="M53.4412 143.4286
L53.3698 143.3571
" />
<path d="M53.3698 143.3571
L53.2983 143.2143
" />
<path d="M53.2983 143.2143
L53.2983 143.0000
" />
<path d="M53.2983 143.0000
L53.3698 142.8571
" />
<path d="M53.3698 142.8571
L53.5126 142.7857
" />
<path d="M53.5126 142.7857
L54.2983 142.7857
" />
<path d="M53.5126 142.7857
L53.3698 142.7143
" />
<path d="M53.3698 142.7143
L53.2983 142.5714
" />
<path d="M53.2983 142.5714
L53.2983 142.3571
" />
<path d="M53.2983 142.3571
L53.3698 142.2143
" />
<path d="M53.3698 142.2143
L53.5126 142.1429
" />
<path d="M53.5126 142.1429
L54.2983 142.1429
" />
<path d="M54.2983 141.4286
L53.2983 141.4286
" />
<path d="M53.4412 141.4286
L53.3698 141.3571
" />
<path d="M53.3698 141.3571
L53.2983 141.2143
" />
<path d="M53.2983 141.2143
L53.2983 141.0000
" />
<path d="M53.2983 141.0000
L53.3698 140.8571
" />
<path d="M53.3698 140.8571
L53.5126 140.7857
" />
<path d="M53.5126 140.7857
L54.2983 140.7857
" />
<path d="M53.5126 140.7857
L53.3698 140.7143
" />
<path d="M53.3698 140.7143
L53.2983 140.5714
" />
<path d="M53.2983 140.5714
L53.2983 140.3571
" />
<path d="M53.2983 140.3571
L53.3698 140.2143
" />
<path d="M53.3698 140.2143
L53.5126 140.1429
" />
<path d="M53.5126 140.1429
L54.2983 140.1429
" />
</g><path d="M60.5000 129.5000
L54.8336 129.5000
" />
<path d="M60.5000 164.5000
L54.8336 164.5000
" />
<path d="M55.4200 129.5000
L55.4200 164.5000
" />
<path d="M55.4200 129.5000
L56.0064 130.6265
" />
<path d="M55.4200 129.5000
L54.8336 130.6265
" />
<path d="M55.4200 164.5000
L54.8336 163.3735
" />
<path d="M55.4200 164.5000
L56.0064 163.3735
" />
</g> 
</svg>
