<?xml version="1.0" standalone="no"?>
 <!DOCTYPE svg PUBLIC "-//W3C//DTD SVG 1.1//EN" 
 "http://www.w3.org/Graphics/SVG/1.1/DTD/svg11.dtd"> 
<svg
  xmlns:svg="http://www.w3.org/2000/svg"
  xmlns="http://www.w3.org/2000/svg"
  xmlns:xlink="http://www.w3.org/1999/xlink"
  xmlns:inkscape="http://www.inkscape.org/namespaces/inkscape"
  version="1.1"
  width="10.215000000000002cm" height="5.215cm" viewBox="59.425 113.425 102.15 52.15">
<title>SVG Image created as rc2014-ym2149-F_Mask.svg date 2026-07-20T20:24:12 </title>
  <desc>Image generated by PCBNEW </desc>
<g style="fill:#000000; fill-opacity:1.000000;stroke:#000000; stroke-opacity:1.000000;
stroke-linecap:round; stroke-linejoin:round;"
 transform="translate(0 0) scale(1 1)">
</g>
<g style="fill:#000000; fill-opacity:1.000000; stroke:none;">
<circle cx="90.550000" cy="159.400000" r="0.850000" /> 
<circle cx="88.050000" cy="159.400000" r="0.850000" /> 
<circle cx="82.050000" cy="159.400000" r="0.850000" /> 
<circle cx="84.550000" cy="159.400000" r="0.850000" /> 
<circle cx="67.470000" cy="159.600000" r="0.850000" /> 
<circle cx="69.970000" cy="159.600000" r="0.850000" /> 
<circle cx="103.900000" cy="159.650000" r="0.850000" /> 
<circle cx="106.400000" cy="159.650000" r="0.850000" /> 
<path style="fill:#000000; fill-opacity:1.000000; stroke:none;fill-rule:evenodd;"
d="M 93.210000,139.600000
93.190866,139.596194
93.174645,139.585355
93.163806,139.569134
93.160000,139.550000
93.160000,137.850000
93.163806,137.830866
93.174645,137.814645
93.190866,137.803806
93.210000,137.800000
94.910000,137.800000
94.929134,137.803806
94.945355,137.814645
94.956194,137.830866
94.960000,137.850000
94.960000,139.550000
94.956194,139.569134
94.945355,139.585355
94.929134,139.596194
94.910000,139.600000
Z" /> 
<circle cx="96.600000" cy="138.700000" r="0.900000" /> 
<circle cx="99.140000" cy="138.700000" r="0.900000" /> 
<path style="fill:#000000; fill-opacity:1.000000; stroke:none;fill-rule:evenodd;"
d="M 78.100000,148.470000
78.103806,148.450866
78.114645,148.434645
78.130866,148.423806
78.150000,148.420000
79.850000,148.420000
79.869134,148.423806
79.885355,148.434645
79.896194,148.450866
79.900000,148.470000
79.900000,150.170000
79.896194,150.189134
79.885355,150.205355
79.869134,150.216194
79.850000,150.220000
78.150000,150.220000
78.130866,150.216194
78.114645,150.205355
78.103806,150.189134
78.100000,150.170000
Z" /> 
<circle cx="79.000000" cy="151.860000" r="0.900000" /> 
<circle cx="79.000000" cy="154.400000" r="0.900000" /> 
<path style="fill:#000000; fill-opacity:1.000000; stroke:none;fill-rule:evenodd;"
d="M 78.100000,138.250000
78.103806,138.230866
78.114645,138.214645
78.130866,138.203806
78.150000,138.200000
79.850000,138.200000
79.869134,138.203806
79.885355,138.214645
79.896194,138.230866
79.900000,138.250000
79.900000,139.950000
79.896194,139.969134
79.885355,139.985355
79.869134,139.996194
79.850000,140.000000
78.150000,140.000000
78.130866,139.996194
78.114645,139.985355
78.103806,139.969134
78.100000,139.950000
Z" /> 
<circle cx="79.000000" cy="141.640000" r="0.900000" /> 
<circle cx="79.000000" cy="144.180000" r="0.900000" /> 
<path style="fill:#000000; fill-opacity:1.000000; stroke:none;fill-rule:evenodd;"
d="M 93.250000,135.900000
93.230866,135.896194
93.214645,135.885355
93.203806,135.869134
93.200000,135.850000
93.200000,134.150000
93.203806,134.130866
93.214645,134.114645
93.230866,134.103806
93.250000,134.100000
94.950000,134.100000
94.969134,134.103806
94.985355,134.114645
94.996194,134.130866
95.000000,134.150000
95.000000,135.850000
94.996194,135.869134
94.985355,135.885355
94.969134,135.896194
94.950000,135.900000
Z" /> 
<circle cx="96.640000" cy="135.000000" r="0.900000" /> 
<circle cx="99.180000" cy="135.000000" r="0.900000" /> 
<path style="fill:#000000; fill-opacity:1.000000; stroke:none;fill-rule:evenodd;"
d="M 76.310000,156.950000
76.302031,157.018685
76.257499,157.119541
76.179541,157.197499
76.078685,157.242031
76.010000,157.250000
74.910000,157.250000
74.841315,157.242031
74.740459,157.197499
74.662501,157.119541
74.617969,157.018685
74.610000,156.950000
74.610000,155.850000
74.617969,155.781315
74.662501,155.680459
74.740459,155.602501
74.841315,155.557969
74.910000,155.550000
76.010000,155.550000
76.078685,155.557969
76.179541,155.602501
76.257499,155.680459
76.302031,155.781315
76.310000,155.850000
Z" /> 
<circle cx="75.460000" cy="153.860000" r="0.850000" /> 
<circle cx="75.460000" cy="151.320000" r="0.850000" /> 
<circle cx="75.460000" cy="148.780000" r="0.850000" /> 
<circle cx="75.460000" cy="146.240000" r="0.850000" /> 
<circle cx="75.460000" cy="143.700000" r="0.850000" /> 
<circle cx="75.460000" cy="141.160000" r="0.850000" /> 
<circle cx="75.460000" cy="138.620000" r="0.850000" /> 
<circle cx="67.840000" cy="138.620000" r="0.850000" /> 
<circle cx="67.840000" cy="141.160000" r="0.850000" /> 
<circle cx="67.840000" cy="143.700000" r="0.850000" /> 
<circle cx="67.840000" cy="146.240000" r="0.850000" /> 
<circle cx="67.840000" cy="148.780000" r="0.850000" /> 
<circle cx="67.840000" cy="151.320000" r="0.850000" /> 
<circle cx="67.840000" cy="153.860000" r="0.850000" /> 
<circle cx="67.840000" cy="156.400000" r="0.850000" /> 
<path style="fill:#000000; fill-opacity:1.000000; stroke:none;fill-rule:evenodd;"
d="M 90.960000,156.640000
90.952031,156.708685
90.907499,156.809541
90.829541,156.887499
90.728685,156.932031
90.660000,156.940000
89.560000,156.940000
89.491315,156.932031
89.390459,156.887499
89.312501,156.809541
89.267969,156.708685
89.260000,156.640000
89.260000,155.540000
89.267969,155.471315
89.312501,155.370459
89.390459,155.292501
89.491315,155.247969
89.560000,155.240000
90.660000,155.240000
90.728685,155.247969
90.829541,155.292501
90.907499,155.370459
90.952031,155.471315
90.960000,155.540000
Z" /> 
<circle cx="90.110000" cy="153.550000" r="0.850000" /> 
<circle cx="90.110000" cy="151.010000" r="0.850000" /> 
<circle cx="90.110000" cy="148.470000" r="0.850000" /> 
<circle cx="90.110000" cy="145.930000" r="0.850000" /> 
<circle cx="90.110000" cy="143.390000" r="0.850000" /> 
<circle cx="90.110000" cy="140.850000" r="0.850000" /> 
<circle cx="90.110000" cy="138.310000" r="0.850000" /> 
<circle cx="82.490000" cy="138.310000" r="0.850000" /> 
<circle cx="82.490000" cy="140.850000" r="0.850000" /> 
<circle cx="82.490000" cy="143.390000" r="0.850000" /> 
<circle cx="82.490000" cy="145.930000" r="0.850000" /> 
<circle cx="82.490000" cy="148.470000" r="0.850000" /> 
<circle cx="82.490000" cy="151.010000" r="0.850000" /> 
<circle cx="82.490000" cy="153.550000" r="0.850000" /> 
<circle cx="82.490000" cy="156.090000" r="0.850000" /> 
<path style="fill:#000000; fill-opacity:1.000000; stroke:none;fill-rule:evenodd;"
d="M 101.860000,158.015000
101.852031,158.083685
101.807499,158.184541
101.729541,158.262499
101.628685,158.307031
101.560000,158.315000
100.460000,158.315000
100.391315,158.307031
100.290459,158.262499
100.212501,158.184541
100.167969,158.083685
100.160000,158.015000
100.160000,156.915000
100.167969,156.846315
100.212501,156.745459
100.290459,156.667501
100.391315,156.622969
100.460000,156.615000
101.560000,156.615000
101.628685,156.622969
101.729541,156.667501
101.807499,156.745459
101.852031,156.846315
101.860000,156.915000
Z" /> 
<circle cx="101.010000" cy="154.925000" r="0.850000" /> 
<circle cx="101.010000" cy="152.385000" r="0.850000" /> 
<circle cx="101.010000" cy="149.845000" r="0.850000" /> 
<circle cx="101.010000" cy="147.305000" r="0.850000" /> 
<circle cx="101.010000" cy="144.765000" r="0.850000" /> 
<circle cx="101.010000" cy="142.225000" r="0.850000" /> 
<circle cx="93.390000" cy="142.225000" r="0.850000" /> 
<circle cx="93.390000" cy="144.765000" r="0.850000" /> 
<circle cx="93.390000" cy="147.305000" r="0.850000" /> 
<circle cx="93.390000" cy="149.845000" r="0.850000" /> 
<circle cx="93.390000" cy="152.385000" r="0.850000" /> 
<circle cx="93.390000" cy="154.925000" r="0.850000" /> 
<circle cx="93.390000" cy="157.465000" r="0.850000" /> 
<path style="fill:#000000; fill-opacity:1.000000; stroke:none;fill-rule:evenodd;"
d="M 103.860000,157.400000
103.791315,157.392031
103.690459,157.347499
103.612501,157.269541
103.567969,157.168685
103.560000,157.100000
103.560000,156.000000
103.567969,155.931315
103.612501,155.830459
103.690459,155.752501
103.791315,155.707969
103.860000,155.700000
104.960000,155.700000
105.028685,155.707969
105.129541,155.752501
105.207499,155.830459
105.252031,155.931315
105.260000,156.000000
105.260000,157.100000
105.252031,157.168685
105.207499,157.269541
105.129541,157.347499
105.028685,157.392031
104.960000,157.400000
Z" /> 
<circle cx="106.950000" cy="156.550000" r="0.850000" /> 
<circle cx="109.490000" cy="156.550000" r="0.850000" /> 
<circle cx="112.030000" cy="156.550000" r="0.850000" /> 
<circle cx="114.570000" cy="156.550000" r="0.850000" /> 
<circle cx="117.110000" cy="156.550000" r="0.850000" /> 
<circle cx="119.650000" cy="156.550000" r="0.850000" /> 
<circle cx="122.190000" cy="156.550000" r="0.850000" /> 
<circle cx="124.730000" cy="156.550000" r="0.850000" /> 
<circle cx="127.270000" cy="156.550000" r="0.850000" /> 
<circle cx="129.810000" cy="156.550000" r="0.850000" /> 
<circle cx="132.350000" cy="156.550000" r="0.850000" /> 
<circle cx="134.890000" cy="156.550000" r="0.850000" /> 
<circle cx="137.430000" cy="156.550000" r="0.850000" /> 
<circle cx="139.970000" cy="156.550000" r="0.850000" /> 
<circle cx="142.510000" cy="156.550000" r="0.850000" /> 
<circle cx="145.050000" cy="156.550000" r="0.850000" /> 
<circle cx="147.590000" cy="156.550000" r="0.850000" /> 
<circle cx="150.130000" cy="156.550000" r="0.850000" /> 
<circle cx="152.670000" cy="156.550000" r="0.850000" /> 
<circle cx="152.670000" cy="141.310000" r="0.850000" /> 
<circle cx="150.130000" cy="141.310000" r="0.850000" /> 
<circle cx="147.590000" cy="141.310000" r="0.850000" /> 
<circle cx="145.050000" cy="141.310000" r="0.850000" /> 
<circle cx="142.510000" cy="141.310000" r="0.850000" /> 
<circle cx="139.970000" cy="141.310000" r="0.850000" /> 
<circle cx="137.430000" cy="141.310000" r="0.850000" /> 
<circle cx="134.890000" cy="141.310000" r="0.850000" /> 
<circle cx="132.350000" cy="141.310000" r="0.850000" /> 
<circle cx="129.810000" cy="141.310000" r="0.850000" /> 
<circle cx="127.270000" cy="141.310000" r="0.850000" /> 
<circle cx="124.730000" cy="141.310000" r="0.850000" /> 
<circle cx="122.190000" cy="141.310000" r="0.850000" /> 
<circle cx="119.650000" cy="141.310000" r="0.850000" /> 
<circle cx="117.110000" cy="141.310000" r="0.850000" /> 
<circle cx="114.570000" cy="141.310000" r="0.850000" /> 
<circle cx="112.030000" cy="141.310000" r="0.850000" /> 
<circle cx="109.490000" cy="141.310000" r="0.850000" /> 
<circle cx="106.950000" cy="141.310000" r="0.850000" /> 
<circle cx="104.410000" cy="141.310000" r="0.850000" /> 
<path style="fill:#000000; fill-opacity:1.000000; stroke:none;fill-rule:evenodd;"
d="M 65.430000,158.230000
65.426194,158.249134
65.415355,158.265355
65.399134,158.276194
65.380000,158.280000
63.680000,158.280000
63.660866,158.276194
63.644645,158.265355
63.633806,158.249134
63.630000,158.230000
63.630000,156.530000
63.633806,156.510866
63.644645,156.494645
63.660866,156.483806
63.680000,156.480000
65.380000,156.480000
65.399134,156.483806
65.415355,156.494645
65.426194,156.510866
65.430000,156.530000
Z" /> 
<circle cx="61.990000" cy="157.380000" r="0.900000" /> 
<circle cx="64.530000" cy="154.840000" r="0.900000" /> 
<circle cx="61.990000" cy="154.840000" r="0.900000" /> 
<circle cx="64.530000" cy="152.300000" r="0.900000" /> 
<circle cx="61.990000" cy="152.300000" r="0.900000" /> 
<circle cx="64.530000" cy="149.760000" r="0.900000" /> 
<circle cx="61.990000" cy="149.760000" r="0.900000" /> 
<circle cx="64.530000" cy="147.220000" r="0.900000" /> 
<circle cx="61.990000" cy="147.220000" r="0.900000" /> 
<circle cx="64.530000" cy="144.680000" r="0.900000" /> 
<circle cx="61.990000" cy="144.680000" r="0.900000" /> 
<circle cx="64.530000" cy="142.140000" r="0.900000" /> 
<circle cx="61.990000" cy="142.140000" r="0.900000" /> 
<circle cx="64.530000" cy="139.600000" r="0.900000" /> 
<circle cx="61.990000" cy="139.600000" r="0.900000" /> 
<circle cx="64.530000" cy="137.060000" r="0.900000" /> 
<circle cx="61.990000" cy="137.060000" r="0.900000" /> 
<path style="fill:#000000; fill-opacity:1.000000; stroke:none;fill-rule:evenodd;"
d="M 150.975000,136.800000
150.994134,136.803806
151.010355,136.814645
151.021194,136.830866
151.025000,136.850000
151.025000,138.550000
151.021194,138.569134
151.010355,138.585355
150.994134,138.596194
150.975000,138.600000
149.275000,138.600000
149.255866,138.596194
149.239645,138.585355
149.228806,138.569134
149.225000,138.550000
149.225000,136.850000
149.228806,136.830866
149.239645,136.814645
149.255866,136.803806
149.275000,136.800000
Z" /> 
<circle cx="147.585000" cy="137.700000" r="0.900000" /> 
<circle cx="65.532000" cy="131.382000" r="1.650000" /> 
<path style="fill:#000000; fill-opacity:1.000000; stroke:none;fill-rule:evenodd;"
d="M 61.150000,163.900000
61.130866,163.896194
61.114645,163.885355
61.103806,163.869134
61.100000,163.850000
61.100000,162.150000
61.103806,162.130866
61.114645,162.114645
61.130866,162.103806
61.150000,162.100000
62.850000,162.100000
62.869134,162.103806
62.885355,162.114645
62.896194,162.130866
62.900000,162.150000
62.900000,163.850000
62.896194,163.869134
62.885355,163.885355
62.869134,163.896194
62.850000,163.900000
Z" /> 
<circle cx="64.540000" cy="163.000000" r="0.900000" /> 
<circle cx="67.080000" cy="163.000000" r="0.900000" /> 
<circle cx="69.620000" cy="163.000000" r="0.900000" /> 
<circle cx="72.160000" cy="163.000000" r="0.900000" /> 
<circle cx="74.700000" cy="163.000000" r="0.900000" /> 
<circle cx="77.240000" cy="163.000000" r="0.900000" /> 
<circle cx="79.780000" cy="163.000000" r="0.900000" /> 
<circle cx="82.320000" cy="163.000000" r="0.900000" /> 
<circle cx="84.860000" cy="163.000000" r="0.900000" /> 
<circle cx="87.400000" cy="163.000000" r="0.900000" /> 
<circle cx="89.940000" cy="163.000000" r="0.900000" /> 
<circle cx="92.480000" cy="163.000000" r="0.900000" /> 
<circle cx="95.020000" cy="163.000000" r="0.900000" /> 
<circle cx="97.560000" cy="163.000000" r="0.900000" /> 
<circle cx="100.100000" cy="163.000000" r="0.900000" /> 
<circle cx="102.640000" cy="163.000000" r="0.900000" /> 
<circle cx="105.180000" cy="163.000000" r="0.900000" /> 
<circle cx="107.720000" cy="163.000000" r="0.900000" /> 
<circle cx="110.260000" cy="163.000000" r="0.900000" /> 
<circle cx="112.800000" cy="163.000000" r="0.900000" /> 
<circle cx="115.340000" cy="163.000000" r="0.900000" /> 
<circle cx="117.880000" cy="163.000000" r="0.900000" /> 
<circle cx="120.420000" cy="163.000000" r="0.900000" /> 
<circle cx="122.960000" cy="163.000000" r="0.900000" /> 
<circle cx="125.500000" cy="163.000000" r="0.900000" /> 
<circle cx="128.040000" cy="163.000000" r="0.900000" /> 
<circle cx="130.580000" cy="163.000000" r="0.900000" /> 
<circle cx="133.120000" cy="163.000000" r="0.900000" /> 
<circle cx="135.660000" cy="163.000000" r="0.900000" /> 
<circle cx="138.200000" cy="163.000000" r="0.900000" /> 
<circle cx="140.740000" cy="163.000000" r="0.900000" /> 
<circle cx="143.280000" cy="163.000000" r="0.900000" /> 
<circle cx="145.820000" cy="163.000000" r="0.900000" /> 
<circle cx="148.360000" cy="163.000000" r="0.900000" /> 
<circle cx="150.900000" cy="163.000000" r="0.900000" /> 
<circle cx="153.440000" cy="163.000000" r="0.900000" /> 
<circle cx="155.980000" cy="163.000000" r="0.900000" /> 
<circle cx="158.520000" cy="163.000000" r="0.900000" /> 
<circle cx="156.550000" cy="131.200000" r="0.650000" /> 
<circle cx="156.550000" cy="121.200000" r="0.650000" /> 
<circle cx="154.050000" cy="131.200000" r="0.650000" /> 
<circle cx="154.050000" cy="121.200000" r="0.650000" /> 
<circle cx="149.050000" cy="126.200000" r="0.650000" /> 
<path style="fill:#000000; fill-opacity:1.000000; stroke:none;fill-rule:evenodd;"
d="M 150.350000,132.100000
150.346194,132.119134
150.335355,132.135355
150.319134,132.146194
150.300000,132.150000
147.800000,132.150000
147.780866,132.146194
147.764645,132.135355
147.753806,132.119134
147.750000,132.100000
147.750000,130.300000
147.753806,130.280866
147.764645,130.264645
147.780866,130.253806
147.800000,130.250000
150.300000,130.250000
150.319134,130.253806
150.335355,130.264645
150.346194,130.280866
150.350000,130.300000
Z" /> 
<path style="fill:#000000; fill-opacity:1.000000; stroke:none;fill-rule:evenodd;"
d="M 150.350000,129.600000
150.346194,129.619134
150.335355,129.635355
150.319134,129.646194
150.300000,129.650000
147.800000,129.650000
147.780866,129.646194
147.764645,129.635355
147.753806,129.619134
147.750000,129.600000
147.750000,127.800000
147.753806,127.780866
147.764645,127.764645
147.780866,127.753806
147.800000,127.750000
150.300000,127.750000
150.319134,127.753806
150.335355,127.764645
150.346194,127.780866
150.350000,127.800000
Z" /> 
<path style="fill:#000000; fill-opacity:1.000000; stroke:none;fill-rule:evenodd;"
d="M 155.000000,127.450000
154.996194,127.469134
154.985355,127.485355
154.969134,127.496194
154.950000,127.500000
153.150000,127.500000
153.130866,127.496194
153.114645,127.485355
153.103806,127.469134
153.100000,127.450000
153.100000,124.950000
153.103806,124.930866
153.114645,124.914645
153.130866,124.903806
153.150000,124.900000
154.950000,124.900000
154.969134,124.903806
154.985355,124.914645
154.996194,124.930866
155.000000,124.950000
Z" /> 
<path style="fill:#000000; fill-opacity:1.000000; stroke:none;fill-rule:evenodd;"
d="M 150.350000,122.100000
150.346194,122.119134
150.335355,122.135355
150.319134,122.146194
150.300000,122.150000
147.800000,122.150000
147.780866,122.146194
147.764645,122.135355
147.753806,122.119134
147.750000,122.100000
147.750000,120.300000
147.753806,120.280866
147.764645,120.264645
147.780866,120.253806
147.800000,120.250000
150.300000,120.250000
150.319134,120.253806
150.335355,120.264645
150.346194,120.280866
150.350000,120.300000
Z" /> 
<path style="fill:#000000; fill-opacity:1.000000; stroke:none;fill-rule:evenodd;"
d="M 150.350000,124.600000
150.346194,124.619134
150.335355,124.635355
150.319134,124.646194
150.300000,124.650000
147.800000,124.650000
147.780866,124.646194
147.764645,124.635355
147.753806,124.619134
147.750000,124.600000
147.750000,122.800000
147.753806,122.780866
147.764645,122.764645
147.780866,122.753806
147.800000,122.750000
150.300000,122.750000
150.319134,122.753806
150.335355,122.764645
150.346194,122.780866
150.350000,122.800000
Z" /> 
<circle cx="114.260000" cy="118.400000" r="0.770000" /> 
<circle cx="116.800000" cy="115.860000" r="0.770000" /> 
<circle cx="119.340000" cy="118.400000" r="0.770000" /> 
<path style="fill:#000000; fill-opacity:1.000000; stroke:none;fill-rule:evenodd;"
d="M 139.677401,132.150000
139.685370,132.081315
139.729902,131.980459
139.807860,131.902501
139.908716,131.857969
139.977401,131.850000
140.677401,131.850000
140.746086,131.857969
140.846942,131.902501
140.924900,131.980459
140.969432,132.081315
140.977401,132.150000
140.977401,132.850000
140.969432,132.918685
140.924900,133.019541
140.846942,133.097499
140.746086,133.142031
140.677401,133.150000
139.977401,133.150000
139.908716,133.142031
139.807860,133.097499
139.729902,133.019541
139.685370,132.918685
139.677401,132.850000
Z" /> 
<circle cx="142.327401" cy="132.500000" r="0.650000" /> 
<path style="fill:#000000; fill-opacity:1.000000; stroke:none;fill-rule:evenodd;"
d="M 89.860000,131.965000
89.852031,132.033685
89.807499,132.134541
89.729541,132.212499
89.628685,132.257031
89.560000,132.265000
88.460000,132.265000
88.391315,132.257031
88.290459,132.212499
88.212501,132.134541
88.167969,132.033685
88.160000,131.965000
88.160000,130.865000
88.167969,130.796315
88.212501,130.695459
88.290459,130.617501
88.391315,130.572969
88.460000,130.565000
89.560000,130.565000
89.628685,130.572969
89.729541,130.617501
89.807499,130.695459
89.852031,130.796315
89.860000,130.865000
Z" /> 
<circle cx="89.010000" cy="128.875000" r="0.850000" /> 
<circle cx="89.010000" cy="126.335000" r="0.850000" /> 
<circle cx="89.010000" cy="123.795000" r="0.850000" /> 
<circle cx="89.010000" cy="121.255000" r="0.850000" /> 
<circle cx="89.010000" cy="118.715000" r="0.850000" /> 
<circle cx="89.010000" cy="116.175000" r="0.850000" /> 
<circle cx="81.390000" cy="116.175000" r="0.850000" /> 
<circle cx="81.390000" cy="118.715000" r="0.850000" /> 
<circle cx="81.390000" cy="121.255000" r="0.850000" /> 
<circle cx="81.390000" cy="123.795000" r="0.850000" /> 
<circle cx="81.390000" cy="126.335000" r="0.850000" /> 
<circle cx="81.390000" cy="128.875000" r="0.850000" /> 
<circle cx="81.390000" cy="131.415000" r="0.850000" /> 
<path style="fill:#000000; fill-opacity:1.000000; stroke:none;fill-rule:evenodd;"
d="M 135.940000,129.360000
135.871315,129.352031
135.770459,129.307499
135.692501,129.229541
135.647969,129.128685
135.640000,129.060000
135.640000,127.960000
135.647969,127.891315
135.692501,127.790459
135.770459,127.712501
135.871315,127.667969
135.940000,127.660000
137.040000,127.660000
137.108685,127.667969
137.209541,127.712501
137.287499,127.790459
137.332031,127.891315
137.340000,127.960000
137.340000,129.060000
137.332031,129.128685
137.287499,129.229541
137.209541,129.307499
137.108685,129.352031
137.040000,129.360000
Z" /> 
<circle cx="139.030000" cy="128.510000" r="0.850000" /> 
<circle cx="141.570000" cy="128.510000" r="0.850000" /> 
<circle cx="144.110000" cy="128.510000" r="0.850000" /> 
<circle cx="144.110000" cy="120.890000" r="0.850000" /> 
<circle cx="141.570000" cy="120.890000" r="0.850000" /> 
<circle cx="139.030000" cy="120.890000" r="0.850000" /> 
<circle cx="136.490000" cy="120.890000" r="0.850000" /> 
<circle cx="116.860000" cy="131.350000" r="0.850000" /> 
<circle cx="109.240000" cy="131.350000" r="0.850000" /> 
<circle cx="145.300000" cy="134.200000" r="0.850000" /> 
<circle cx="152.920000" cy="134.200000" r="0.850000" /> 
<circle cx="126.650000" cy="125.150000" r="0.850000" /> 
<circle cx="119.030000" cy="125.150000" r="0.850000" /> 
<circle cx="137.000000" cy="132.200000" r="0.850000" /> 
<circle cx="129.380000" cy="132.200000" r="0.850000" /> 
<path style="fill:#000000; fill-opacity:1.000000; stroke:none;fill-rule:evenodd;"
d="M 139.677401,136.850000
139.685370,136.781315
139.729902,136.680459
139.807860,136.602501
139.908716,136.557969
139.977401,136.550000
140.677401,136.550000
140.746086,136.557969
140.846942,136.602501
140.924900,136.680459
140.969432,136.781315
140.977401,136.850000
140.977401,137.550000
140.969432,137.618685
140.924900,137.719541
140.846942,137.797499
140.746086,137.842031
140.677401,137.850000
139.977401,137.850000
139.908716,137.842031
139.807860,137.797499
139.729902,137.719541
139.685370,137.618685
139.677401,137.550000
Z" /> 
<circle cx="142.327401" cy="137.200000" r="0.650000" /> 
<circle cx="75.750000" cy="130.500000" r="0.850000" /> 
<circle cx="78.250000" cy="130.500000" r="0.850000" /> 
<circle cx="150.490000" cy="117.550000" r="0.850000" /> 
<circle cx="158.110000" cy="117.550000" r="0.850000" /> 
<circle cx="126.660000" cy="131.350000" r="0.850000" /> 
<circle cx="119.040000" cy="131.350000" r="0.850000" /> 
<circle cx="89.300000" cy="134.800000" r="0.850000" /> 
<circle cx="86.800000" cy="134.800000" r="0.850000" /> 
<circle cx="131.100000" cy="122.600000" r="0.650000" /> 
<circle cx="133.100000" cy="122.600000" r="0.650000" /> 
<circle cx="78.000000" cy="134.500000" r="0.850000" /> 
<circle cx="70.380000" cy="134.500000" r="0.850000" /> 
<circle cx="126.650000" cy="122.050000" r="0.850000" /> 
<circle cx="119.030000" cy="122.050000" r="0.850000" /> 
<path style="fill:#000000; fill-opacity:1.000000; stroke:none;fill-rule:evenodd;"
d="M 155.200000,136.110000
155.203806,136.090866
155.214645,136.074645
155.230866,136.063806
155.250000,136.060000
156.950000,136.060000
156.969134,136.063806
156.985355,136.074645
156.996194,136.090866
157.000000,136.110000
157.000000,137.810000
156.996194,137.829134
156.985355,137.845355
156.969134,137.856194
156.950000,137.860000
155.250000,137.860000
155.230866,137.856194
155.214645,137.845355
155.203806,137.829134
155.200000,137.810000
Z" /> 
<circle cx="158.640000" cy="136.960000" r="0.900000" /> 
<circle cx="156.100000" cy="139.500000" r="0.900000" /> 
<circle cx="158.640000" cy="139.500000" r="0.900000" /> 
<circle cx="156.100000" cy="142.040000" r="0.900000" /> 
<circle cx="158.640000" cy="142.040000" r="0.900000" /> 
<circle cx="156.100000" cy="144.580000" r="0.900000" /> 
<circle cx="158.640000" cy="144.580000" r="0.900000" /> 
<circle cx="156.100000" cy="147.120000" r="0.900000" /> 
<circle cx="158.640000" cy="147.120000" r="0.900000" /> 
<circle cx="156.100000" cy="149.660000" r="0.900000" /> 
<circle cx="158.640000" cy="149.660000" r="0.900000" /> 
<circle cx="156.100000" cy="152.200000" r="0.900000" /> 
<circle cx="158.640000" cy="152.200000" r="0.900000" /> 
<circle cx="156.100000" cy="154.740000" r="0.900000" /> 
<circle cx="158.640000" cy="154.740000" r="0.900000" /> 
<circle cx="156.100000" cy="157.280000" r="0.900000" /> 
<circle cx="158.640000" cy="157.280000" r="0.900000" /> 
<path style="fill:#000000; fill-opacity:1.000000; stroke:none;fill-rule:evenodd;"
d="M 100.860000,131.965000
100.852031,132.033685
100.807499,132.134541
100.729541,132.212499
100.628685,132.257031
100.560000,132.265000
99.460000,132.265000
99.391315,132.257031
99.290459,132.212499
99.212501,132.134541
99.167969,132.033685
99.160000,131.965000
99.160000,130.865000
99.167969,130.796315
99.212501,130.695459
99.290459,130.617501
99.391315,130.572969
99.460000,130.565000
100.560000,130.565000
100.628685,130.572969
100.729541,130.617501
100.807499,130.695459
100.852031,130.796315
100.860000,130.865000
Z" /> 
<circle cx="100.010000" cy="128.875000" r="0.850000" /> 
<circle cx="100.010000" cy="126.335000" r="0.850000" /> 
<circle cx="100.010000" cy="123.795000" r="0.850000" /> 
<circle cx="100.010000" cy="121.255000" r="0.850000" /> 
<circle cx="100.010000" cy="118.715000" r="0.850000" /> 
<circle cx="100.010000" cy="116.175000" r="0.850000" /> 
<circle cx="92.390000" cy="116.175000" r="0.850000" /> 
<circle cx="92.390000" cy="118.715000" r="0.850000" /> 
<circle cx="92.390000" cy="121.255000" r="0.850000" /> 
<circle cx="92.390000" cy="123.795000" r="0.850000" /> 
<circle cx="92.390000" cy="126.335000" r="0.850000" /> 
<circle cx="92.390000" cy="128.875000" r="0.850000" /> 
<circle cx="92.390000" cy="131.415000" r="0.850000" /> 
<circle cx="81.000000" cy="134.800000" r="0.850000" /> 
<circle cx="83.500000" cy="134.800000" r="0.850000" /> 
<path style="fill:#000000; fill-opacity:1.000000; stroke:none;fill-rule:evenodd;"
d="M 78.790000,119.500000
78.809134,119.503806
78.825355,119.514645
78.836194,119.530866
78.840000,119.550000
78.840000,121.250000
78.836194,121.269134
78.825355,121.285355
78.809134,121.296194
78.790000,121.300000
77.090000,121.300000
77.070866,121.296194
77.054645,121.285355
77.043806,121.269134
77.040000,121.250000
77.040000,119.550000
77.043806,119.530866
77.054645,119.514645
77.070866,119.503806
77.090000,119.500000
Z" /> 
<circle cx="75.400000" cy="120.400000" r="0.900000" /> 
<circle cx="72.860000" cy="120.400000" r="0.900000" /> 
<circle cx="129.500000" cy="127.900000" r="0.650000" /> 
<circle cx="131.500000" cy="127.900000" r="0.650000" /> 
<circle cx="116.870000" cy="137.550000" r="0.850000" /> 
<circle cx="109.250000" cy="137.550000" r="0.850000" /> 
<circle cx="116.860000" cy="134.450000" r="0.850000" /> 
<circle cx="109.240000" cy="134.450000" r="0.850000" /> 
<path style="fill:#000000; fill-opacity:1.000000; stroke:none;fill-rule:evenodd;"
d="M 102.700000,120.830000
102.703806,120.810866
102.714645,120.794645
102.730866,120.783806
102.750000,120.780000
104.450000,120.780000
104.469134,120.783806
104.485355,120.794645
104.496194,120.810866
104.500000,120.830000
104.500000,122.530000
104.496194,122.549134
104.485355,122.565355
104.469134,122.576194
104.450000,122.580000
102.750000,122.580000
102.730866,122.576194
102.714645,122.565355
102.703806,122.549134
102.700000,122.530000
Z" /> 
<circle cx="106.140000" cy="121.680000" r="0.900000" /> 
<circle cx="103.600000" cy="124.220000" r="0.900000" /> 
<circle cx="106.140000" cy="124.220000" r="0.900000" /> 
<circle cx="103.600000" cy="126.760000" r="0.900000" /> 
<circle cx="106.140000" cy="126.760000" r="0.900000" /> 
<circle cx="103.600000" cy="129.300000" r="0.900000" /> 
<circle cx="106.140000" cy="129.300000" r="0.900000" /> 
<circle cx="103.600000" cy="131.840000" r="0.900000" /> 
<circle cx="106.140000" cy="131.840000" r="0.900000" /> 
<circle cx="103.600000" cy="134.380000" r="0.900000" /> 
<circle cx="106.140000" cy="134.380000" r="0.900000" /> 
<circle cx="103.600000" cy="136.920000" r="0.900000" /> 
<circle cx="106.140000" cy="136.920000" r="0.900000" /> 
<circle cx="143.710000" cy="117.550000" r="0.850000" /> 
<circle cx="136.090000" cy="117.550000" r="0.850000" /> 
<circle cx="124.300000" cy="118.400000" r="0.770000" /> 
<circle cx="126.840000" cy="115.860000" r="0.770000" /> 
<circle cx="129.380000" cy="118.400000" r="0.770000" /> 
<path style="fill:#000000; fill-opacity:1.000000; stroke:none;fill-rule:evenodd;"
d="M 145.427400,116.950000
145.435369,116.881315
145.479901,116.780459
145.557859,116.702501
145.658715,116.657969
145.727400,116.650000
146.427400,116.650000
146.496085,116.657969
146.596941,116.702501
146.674899,116.780459
146.719431,116.881315
146.727400,116.950000
146.727400,117.650000
146.719431,117.718685
146.674899,117.819541
146.596941,117.897499
146.496085,117.942031
146.427400,117.950000
145.727400,117.950000
145.658715,117.942031
145.557859,117.897499
145.479901,117.819541
145.435369,117.718685
145.427400,117.650000
Z" /> 
<circle cx="148.077400" cy="117.300000" r="0.650000" /> 
<circle cx="116.860000" cy="122.050000" r="0.850000" /> 
<circle cx="109.240000" cy="122.050000" r="0.850000" /> 
<circle cx="137.010000" cy="138.200000" r="0.850000" /> 
<circle cx="129.390000" cy="138.200000" r="0.850000" /> 
<circle cx="126.670000" cy="137.550000" r="0.850000" /> 
<circle cx="119.050000" cy="137.550000" r="0.850000" /> 
<circle cx="126.660000" cy="134.450000" r="0.850000" /> 
<circle cx="119.040000" cy="134.450000" r="0.850000" /> 
<circle cx="126.660000" cy="128.250000" r="0.850000" /> 
<circle cx="119.040000" cy="128.250000" r="0.850000" /> 
<circle cx="116.860000" cy="125.150000" r="0.850000" /> 
<circle cx="109.240000" cy="125.150000" r="0.850000" /> 
<circle cx="75.740000" cy="125.400000" r="0.800000" /> 
<circle cx="70.860000" cy="125.400000" r="0.800000" /> 
<circle cx="116.860000" cy="128.250000" r="0.850000" /> 
<circle cx="109.240000" cy="128.250000" r="0.850000" /> 
<circle cx="70.250000" cy="130.500000" r="0.850000" /> 
<circle cx="72.750000" cy="130.500000" r="0.850000" /> 
<circle cx="133.450000" cy="115.700000" r="0.850000" /> 
<circle cx="133.450000" cy="118.200000" r="0.850000" /> 
<circle cx="137.010000" cy="135.200000" r="0.850000" /> 
<circle cx="129.390000" cy="135.200000" r="0.850000" /> 
<circle cx="104.220000" cy="118.400000" r="0.770000" /> 
<circle cx="106.760000" cy="115.860000" r="0.770000" /> 
<circle cx="109.300000" cy="118.400000" r="0.770000" /> 
<path style="fill:#000000; fill-opacity:1.000000; stroke:none;fill-rule:evenodd;"
d="M 160.442121,158.820002
160.488614,158.873658
160.500000,158.926000
160.500000,161.274000
160.479998,161.342121
160.426342,161.388614
160.374000,161.400000
154.226000,161.400000
154.157879,161.379998
154.111386,161.326342
154.100000,161.274000
154.100000,158.926000
154.120002,158.857879
154.173658,158.811386
154.226000,158.800000
160.374000,158.800000
Z" /> 
</g> 
</svg>
