<?xml version="1.0" standalone="no"?>
 <!DOCTYPE svg PUBLIC "-//W3C//DTD SVG 1.1//EN" 
 "http://www.w3.org/Graphics/SVG/1.1/DTD/svg11.dtd"> 
<svg
  xmlns:svg="http://www.w3.org/2000/svg"
  xmlns="http://www.w3.org/2000/svg"
  xmlns:xlink="http://www.w3.org/1999/xlink"
  xmlns:inkscape="http://www.inkscape.org/namespaces/inkscape"
  version="1.1"
  width="10.215000000000002cm" height="5.215cm" viewBox="59.425 113.425 102.15 52.15">
<title>SVG Image created as rc2014-ym2149-B_Cu.svg date 2026-07-20T21:18:46 </title>
  <desc>Image generated by PCBNEW </desc>
<g style="fill:#000000; fill-opacity:1.000000;stroke:#000000; stroke-opacity:1.000000;
stroke-linecap:round; stroke-linejoin:round;"
 transform="translate(0 0) scale(1 1)">
</g>
<g style="fill:none; 
stroke:#000000; stroke-width:0.200000; stroke-opacity:1; 
stroke-linecap:round; stroke-linejoin:round;">
<text x="159.205000" y="160.575000"
textLength="1.352381" font-size="1.333333" lengthAdjust="spacingAndGlyphs"
text-anchor="middle" opacity="0" stroke-opacity="0">4</text>
<g class="stroked-text"><desc>4</desc>
<path d="M159.395476 159.860552
L159.395476 160.527219
" />
<path d="M159.157381 159.479600
L158.919286 160.193885
" />
<path d="M158.919286 160.193885
L159.538333 160.193885
" />
</g></g>
<g style="fill:#000000; fill-opacity:1.000000; stroke:none;">
<circle cx="90.550000" cy="159.400000" r="0.800000" /> 
<circle cx="88.050000" cy="159.400000" r="0.800000" /> 
<circle cx="82.050000" cy="159.400000" r="0.800000" /> 
<circle cx="84.550000" cy="159.400000" r="0.800000" /> 
<circle cx="67.470000" cy="159.600000" r="0.800000" /> 
<circle cx="69.970000" cy="159.600000" r="0.800000" /> 
<circle cx="103.900000" cy="159.650000" r="0.800000" /> 
<circle cx="106.400000" cy="159.650000" r="0.800000" /> 
<path style="fill:#000000; fill-opacity:1.000000; stroke:none;fill-rule:evenodd;"
d="M 94.910000,139.550000
93.210000,139.550000
93.210000,137.850000
94.910000,137.850000
Z" /> 
<circle cx="96.600000" cy="138.700000" r="0.850000" /> 
<circle cx="99.140000" cy="138.700000" r="0.850000" /> 
<path style="fill:#000000; fill-opacity:1.000000; stroke:none;fill-rule:evenodd;"
d="M 78.150000,150.170000
78.150000,148.470000
79.850000,148.470000
79.850000,150.170000
Z" /> 
<circle cx="79.000000" cy="151.860000" r="0.850000" /> 
<circle cx="79.000000" cy="154.400000" r="0.850000" /> 
<path style="fill:#000000; fill-opacity:1.000000; stroke:none;fill-rule:evenodd;"
d="M 78.150000,139.950000
78.150000,138.250000
79.850000,138.250000
79.850000,139.950000
Z" /> 
<circle cx="79.000000" cy="141.640000" r="0.850000" /> 
<circle cx="79.000000" cy="144.180000" r="0.850000" /> 
<path style="fill:#000000; fill-opacity:1.000000; stroke:none;fill-rule:evenodd;"
d="M 94.950000,135.850000
93.250000,135.850000
93.250000,134.150000
94.950000,134.150000
Z" /> 
<circle cx="96.640000" cy="135.000000" r="0.850000" /> 
<circle cx="99.180000" cy="135.000000" r="0.850000" /> 
<path style="fill:#000000; fill-opacity:1.000000; stroke:none;fill-rule:evenodd;"
d="M 76.260000,156.950000
76.240970,157.045671
76.186777,157.126777
76.105671,157.180970
76.010000,157.200000
74.910000,157.200000
74.814329,157.180970
74.733223,157.126777
74.679030,157.045671
74.660000,156.950000
74.660000,155.850000
74.679030,155.754329
74.733223,155.673223
74.814329,155.619030
74.910000,155.600000
76.010000,155.600000
76.105671,155.619030
76.186777,155.673223
76.240970,155.754329
76.260000,155.850000
Z" /> 
<circle cx="75.460000" cy="153.860000" r="0.800000" /> 
<circle cx="75.460000" cy="151.320000" r="0.800000" /> 
<circle cx="75.460000" cy="148.780000" r="0.800000" /> 
<circle cx="75.460000" cy="146.240000" r="0.800000" /> 
<circle cx="75.460000" cy="143.700000" r="0.800000" /> 
<circle cx="75.460000" cy="141.160000" r="0.800000" /> 
<circle cx="75.460000" cy="138.620000" r="0.800000" /> 
<circle cx="67.840000" cy="138.620000" r="0.800000" /> 
<circle cx="67.840000" cy="141.160000" r="0.800000" /> 
<circle cx="67.840000" cy="143.700000" r="0.800000" /> 
<circle cx="67.840000" cy="146.240000" r="0.800000" /> 
<circle cx="67.840000" cy="148.780000" r="0.800000" /> 
<circle cx="67.840000" cy="151.320000" r="0.800000" /> 
<circle cx="67.840000" cy="153.860000" r="0.800000" /> 
<circle cx="67.840000" cy="156.400000" r="0.800000" /> 
<path style="fill:#000000; fill-opacity:1.000000; stroke:none;fill-rule:evenodd;"
d="M 90.910000,156.640000
90.890970,156.735671
90.836777,156.816777
90.755671,156.870970
90.660000,156.890000
89.560000,156.890000
89.464329,156.870970
89.383223,156.816777
89.329030,156.735671
89.310000,156.640000
89.310000,155.540000
89.329030,155.444329
89.383223,155.363223
89.464329,155.309030
89.560000,155.290000
90.660000,155.290000
90.755671,155.309030
90.836777,155.363223
90.890970,155.444329
90.910000,155.540000
Z" /> 
<circle cx="90.110000" cy="153.550000" r="0.800000" /> 
<circle cx="90.110000" cy="151.010000" r="0.800000" /> 
<circle cx="90.110000" cy="148.470000" r="0.800000" /> 
<circle cx="90.110000" cy="145.930000" r="0.800000" /> 
<circle cx="90.110000" cy="143.390000" r="0.800000" /> 
<circle cx="90.110000" cy="140.850000" r="0.800000" /> 
<circle cx="90.110000" cy="138.310000" r="0.800000" /> 
<circle cx="82.490000" cy="138.310000" r="0.800000" /> 
<circle cx="82.490000" cy="140.850000" r="0.800000" /> 
<circle cx="82.490000" cy="143.390000" r="0.800000" /> 
<circle cx="82.490000" cy="145.930000" r="0.800000" /> 
<circle cx="82.490000" cy="148.470000" r="0.800000" /> 
<circle cx="82.490000" cy="151.010000" r="0.800000" /> 
<circle cx="82.490000" cy="153.550000" r="0.800000" /> 
<circle cx="82.490000" cy="156.090000" r="0.800000" /> 
<path style="fill:#000000; fill-opacity:1.000000; stroke:none;fill-rule:evenodd;"
d="M 101.810000,158.015000
101.790970,158.110671
101.736777,158.191777
101.655671,158.245970
101.560000,158.265000
100.460000,158.265000
100.364329,158.245970
100.283223,158.191777
100.229030,158.110671
100.210000,158.015000
100.210000,156.915000
100.229030,156.819329
100.283223,156.738223
100.364329,156.684030
100.460000,156.665000
101.560000,156.665000
101.655671,156.684030
101.736777,156.738223
101.790970,156.819329
101.810000,156.915000
Z" /> 
<circle cx="101.010000" cy="154.925000" r="0.800000" /> 
<circle cx="101.010000" cy="152.385000" r="0.800000" /> 
<circle cx="101.010000" cy="149.845000" r="0.800000" /> 
<circle cx="101.010000" cy="147.305000" r="0.800000" /> 
<circle cx="101.010000" cy="144.765000" r="0.800000" /> 
<circle cx="101.010000" cy="142.225000" r="0.800000" /> 
<circle cx="93.390000" cy="142.225000" r="0.800000" /> 
<circle cx="93.390000" cy="144.765000" r="0.800000" /> 
<circle cx="93.390000" cy="147.305000" r="0.800000" /> 
<circle cx="93.390000" cy="149.845000" r="0.800000" /> 
<circle cx="93.390000" cy="152.385000" r="0.800000" /> 
<circle cx="93.390000" cy="154.925000" r="0.800000" /> 
<circle cx="93.390000" cy="157.465000" r="0.800000" /> 
<path style="fill:#000000; fill-opacity:1.000000; stroke:none;fill-rule:evenodd;"
d="M 103.860000,157.350000
103.764329,157.330970
103.683223,157.276777
103.629030,157.195671
103.610000,157.100000
103.610000,156.000000
103.629030,155.904329
103.683223,155.823223
103.764329,155.769030
103.860000,155.750000
104.960000,155.750000
105.055671,155.769030
105.136777,155.823223
105.190970,155.904329
105.210000,156.000000
105.210000,157.100000
105.190970,157.195671
105.136777,157.276777
105.055671,157.330970
104.960000,157.350000
Z" /> 
<circle cx="106.950000" cy="156.550000" r="0.800000" /> 
<circle cx="109.490000" cy="156.550000" r="0.800000" /> 
<circle cx="112.030000" cy="156.550000" r="0.800000" /> 
<circle cx="114.570000" cy="156.550000" r="0.800000" /> 
<circle cx="117.110000" cy="156.550000" r="0.800000" /> 
<circle cx="119.650000" cy="156.550000" r="0.800000" /> 
<circle cx="122.190000" cy="156.550000" r="0.800000" /> 
<circle cx="124.730000" cy="156.550000" r="0.800000" /> 
<circle cx="127.270000" cy="156.550000" r="0.800000" /> 
<circle cx="129.810000" cy="156.550000" r="0.800000" /> 
<circle cx="132.350000" cy="156.550000" r="0.800000" /> 
<circle cx="134.890000" cy="156.550000" r="0.800000" /> 
<circle cx="137.430000" cy="156.550000" r="0.800000" /> 
<circle cx="139.970000" cy="156.550000" r="0.800000" /> 
<circle cx="142.510000" cy="156.550000" r="0.800000" /> 
<circle cx="145.050000" cy="156.550000" r="0.800000" /> 
<circle cx="147.590000" cy="156.550000" r="0.800000" /> 
<circle cx="150.130000" cy="156.550000" r="0.800000" /> 
<circle cx="152.670000" cy="156.550000" r="0.800000" /> 
<circle cx="152.670000" cy="141.310000" r="0.800000" /> 
<circle cx="150.130000" cy="141.310000" r="0.800000" /> 
<circle cx="147.590000" cy="141.310000" r="0.800000" /> 
<circle cx="145.050000" cy="141.310000" r="0.800000" /> 
<circle cx="142.510000" cy="141.310000" r="0.800000" /> 
<circle cx="139.970000" cy="141.310000" r="0.800000" /> 
<circle cx="137.430000" cy="141.310000" r="0.800000" /> 
<circle cx="134.890000" cy="141.310000" r="0.800000" /> 
<circle cx="132.350000" cy="141.310000" r="0.800000" /> 
<circle cx="129.810000" cy="141.310000" r="0.800000" /> 
<circle cx="127.270000" cy="141.310000" r="0.800000" /> 
<circle cx="124.730000" cy="141.310000" r="0.800000" /> 
<circle cx="122.190000" cy="141.310000" r="0.800000" /> 
<circle cx="119.650000" cy="141.310000" r="0.800000" /> 
<circle cx="117.110000" cy="141.310000" r="0.800000" /> 
<circle cx="114.570000" cy="141.310000" r="0.800000" /> 
<circle cx="112.030000" cy="141.310000" r="0.800000" /> 
<circle cx="109.490000" cy="141.310000" r="0.800000" /> 
<circle cx="106.950000" cy="141.310000" r="0.800000" /> 
<circle cx="104.410000" cy="141.310000" r="0.800000" /> 
<path style="fill:#000000; fill-opacity:1.000000; stroke:none;fill-rule:evenodd;"
d="M 65.380000,156.530000
65.380000,158.230000
63.680000,158.230000
63.680000,156.530000
Z" /> 
<circle cx="61.990000" cy="157.380000" r="0.850000" /> 
<circle cx="64.530000" cy="154.840000" r="0.850000" /> 
<circle cx="61.990000" cy="154.840000" r="0.850000" /> 
<circle cx="64.530000" cy="152.300000" r="0.850000" /> 
<circle cx="61.990000" cy="152.300000" r="0.850000" /> 
<circle cx="64.530000" cy="149.760000" r="0.850000" /> 
<circle cx="61.990000" cy="149.760000" r="0.850000" /> 
<circle cx="64.530000" cy="147.220000" r="0.850000" /> 
<circle cx="61.990000" cy="147.220000" r="0.850000" /> 
<circle cx="64.530000" cy="144.680000" r="0.850000" /> 
<circle cx="61.990000" cy="144.680000" r="0.850000" /> 
<circle cx="64.530000" cy="142.140000" r="0.850000" /> 
<circle cx="61.990000" cy="142.140000" r="0.850000" /> 
<circle cx="64.530000" cy="139.600000" r="0.850000" /> 
<circle cx="61.990000" cy="139.600000" r="0.850000" /> 
<circle cx="64.530000" cy="137.060000" r="0.850000" /> 
<circle cx="61.990000" cy="137.060000" r="0.850000" /> 
<path style="fill:#000000; fill-opacity:1.000000; stroke:none;fill-rule:evenodd;"
d="M 149.275000,136.850000
150.975000,136.850000
150.975000,138.550000
149.275000,138.550000
Z" /> 
<circle cx="147.585000" cy="137.700000" r="0.850000" /> 
<path style="fill:#000000; fill-opacity:1.000000; stroke:none;fill-rule:evenodd;"
d="M 62.850000,163.850000
61.150000,163.850000
61.150000,162.150000
62.850000,162.150000
Z" /> 
<circle cx="64.540000" cy="163.000000" r="0.850000" /> 
<circle cx="67.080000" cy="163.000000" r="0.850000" /> 
<circle cx="69.620000" cy="163.000000" r="0.850000" /> 
<circle cx="72.160000" cy="163.000000" r="0.850000" /> 
<circle cx="74.700000" cy="163.000000" r="0.850000" /> 
<circle cx="77.240000" cy="163.000000" r="0.850000" /> 
<circle cx="79.780000" cy="163.000000" r="0.850000" /> 
<circle cx="82.320000" cy="163.000000" r="0.850000" /> 
<circle cx="84.860000" cy="163.000000" r="0.850000" /> 
<circle cx="87.400000" cy="163.000000" r="0.850000" /> 
<circle cx="89.940000" cy="163.000000" r="0.850000" /> 
<circle cx="92.480000" cy="163.000000" r="0.850000" /> 
<circle cx="95.020000" cy="163.000000" r="0.850000" /> 
<circle cx="97.560000" cy="163.000000" r="0.850000" /> 
<circle cx="100.100000" cy="163.000000" r="0.850000" /> 
<circle cx="102.640000" cy="163.000000" r="0.850000" /> 
<circle cx="105.180000" cy="163.000000" r="0.850000" /> 
<circle cx="107.720000" cy="163.000000" r="0.850000" /> 
<circle cx="110.260000" cy="163.000000" r="0.850000" /> 
<circle cx="112.800000" cy="163.000000" r="0.850000" /> 
<circle cx="115.340000" cy="163.000000" r="0.850000" /> 
<circle cx="117.880000" cy="163.000000" r="0.850000" /> 
<circle cx="120.420000" cy="163.000000" r="0.850000" /> 
<circle cx="122.960000" cy="163.000000" r="0.850000" /> 
<circle cx="125.500000" cy="163.000000" r="0.850000" /> 
<circle cx="128.040000" cy="163.000000" r="0.850000" /> 
<circle cx="130.580000" cy="163.000000" r="0.850000" /> 
<circle cx="133.120000" cy="163.000000" r="0.850000" /> 
<circle cx="135.660000" cy="163.000000" r="0.850000" /> 
<circle cx="138.200000" cy="163.000000" r="0.850000" /> 
<circle cx="140.740000" cy="163.000000" r="0.850000" /> 
<circle cx="143.280000" cy="163.000000" r="0.850000" /> 
<circle cx="145.820000" cy="163.000000" r="0.850000" /> 
<circle cx="148.360000" cy="163.000000" r="0.850000" /> 
<circle cx="150.900000" cy="163.000000" r="0.850000" /> 
<circle cx="153.440000" cy="163.000000" r="0.850000" /> 
<circle cx="155.980000" cy="163.000000" r="0.850000" /> 
<circle cx="158.520000" cy="163.000000" r="0.850000" /> 
<path style="fill:#000000; fill-opacity:1.000000; stroke:none;fill-rule:evenodd;"
d="M 150.300000,130.300000
150.300000,132.100000
147.800000,132.100000
147.800000,130.300000
Z" /> 
<path style="fill:#000000; fill-opacity:1.000000; stroke:none;fill-rule:evenodd;"
d="M 150.300000,127.800000
150.300000,129.600000
147.800000,129.600000
147.800000,127.800000
Z" /> 
<path style="fill:#000000; fill-opacity:1.000000; stroke:none;fill-rule:evenodd;"
d="M 154.950000,124.950000
154.950000,127.450000
153.150000,127.450000
153.150000,124.950000
Z" /> 
<path style="fill:#000000; fill-opacity:1.000000; stroke:none;fill-rule:evenodd;"
d="M 150.300000,120.300000
150.300000,122.100000
147.800000,122.100000
147.800000,120.300000
Z" /> 
<path style="fill:#000000; fill-opacity:1.000000; stroke:none;fill-rule:evenodd;"
d="M 150.300000,122.800000
150.300000,124.600000
147.800000,124.600000
147.800000,122.800000
Z" /> 
<circle cx="114.260000" cy="118.400000" r="0.720000" /> 
<circle cx="116.800000" cy="115.860000" r="0.720000" /> 
<circle cx="119.340000" cy="118.400000" r="0.720000" /> 
<path style="fill:#000000; fill-opacity:1.000000; stroke:none;fill-rule:evenodd;"
d="M 139.727401,132.150000
139.746431,132.054329
139.800624,131.973223
139.881730,131.919030
139.977401,131.900000
140.677401,131.900000
140.773072,131.919030
140.854178,131.973223
140.908371,132.054329
140.927401,132.150000
140.927401,132.850000
140.908371,132.945671
140.854178,133.026777
140.773072,133.080970
140.677401,133.100000
139.977401,133.100000
139.881730,133.080970
139.800624,133.026777
139.746431,132.945671
139.727401,132.850000
Z" /> 
<circle cx="142.327401" cy="132.500000" r="0.600000" /> 
<path style="fill:#000000; fill-opacity:1.000000; stroke:none;fill-rule:evenodd;"
d="M 89.810000,131.965000
89.790970,132.060671
89.736777,132.141777
89.655671,132.195970
89.560000,132.215000
88.460000,132.215000
88.364329,132.195970
88.283223,132.141777
88.229030,132.060671
88.210000,131.965000
88.210000,130.865000
88.229030,130.769329
88.283223,130.688223
88.364329,130.634030
88.460000,130.615000
89.560000,130.615000
89.655671,130.634030
89.736777,130.688223
89.790970,130.769329
89.810000,130.865000
Z" /> 
<circle cx="89.010000" cy="128.875000" r="0.800000" /> 
<circle cx="89.010000" cy="126.335000" r="0.800000" /> 
<circle cx="89.010000" cy="123.795000" r="0.800000" /> 
<circle cx="89.010000" cy="121.255000" r="0.800000" /> 
<circle cx="89.010000" cy="118.715000" r="0.800000" /> 
<circle cx="89.010000" cy="116.175000" r="0.800000" /> 
<circle cx="81.390000" cy="116.175000" r="0.800000" /> 
<circle cx="81.390000" cy="118.715000" r="0.800000" /> 
<circle cx="81.390000" cy="121.255000" r="0.800000" /> 
<circle cx="81.390000" cy="123.795000" r="0.800000" /> 
<circle cx="81.390000" cy="126.335000" r="0.800000" /> 
<circle cx="81.390000" cy="128.875000" r="0.800000" /> 
<circle cx="81.390000" cy="131.415000" r="0.800000" /> 
<path style="fill:#000000; fill-opacity:1.000000; stroke:none;fill-rule:evenodd;"
d="M 135.940000,129.310000
135.844329,129.290970
135.763223,129.236777
135.709030,129.155671
135.690000,129.060000
135.690000,127.960000
135.709030,127.864329
135.763223,127.783223
135.844329,127.729030
135.940000,127.710000
137.040000,127.710000
137.135671,127.729030
137.216777,127.783223
137.270970,127.864329
137.290000,127.960000
137.290000,129.060000
137.270970,129.155671
137.216777,129.236777
137.135671,129.290970
137.040000,129.310000
Z" /> 
<circle cx="139.030000" cy="128.510000" r="0.800000" /> 
<circle cx="141.570000" cy="128.510000" r="0.800000" /> 
<circle cx="144.110000" cy="128.510000" r="0.800000" /> 
<circle cx="144.110000" cy="120.890000" r="0.800000" /> 
<circle cx="141.570000" cy="120.890000" r="0.800000" /> 
<circle cx="139.030000" cy="120.890000" r="0.800000" /> 
<circle cx="136.490000" cy="120.890000" r="0.800000" /> 
<circle cx="116.860000" cy="131.350000" r="0.800000" /> 
<circle cx="109.240000" cy="131.350000" r="0.800000" /> 
<circle cx="145.300000" cy="134.200000" r="0.800000" /> 
<circle cx="152.920000" cy="134.200000" r="0.800000" /> 
<circle cx="126.650000" cy="125.150000" r="0.800000" /> 
<circle cx="119.030000" cy="125.150000" r="0.800000" /> 
<circle cx="137.000000" cy="132.200000" r="0.800000" /> 
<circle cx="129.380000" cy="132.200000" r="0.800000" /> 
<path style="fill:#000000; fill-opacity:1.000000; stroke:none;fill-rule:evenodd;"
d="M 139.727401,136.850000
139.746431,136.754329
139.800624,136.673223
139.881730,136.619030
139.977401,136.600000
140.677401,136.600000
140.773072,136.619030
140.854178,136.673223
140.908371,136.754329
140.927401,136.850000
140.927401,137.550000
140.908371,137.645671
140.854178,137.726777
140.773072,137.780970
140.677401,137.800000
139.977401,137.800000
139.881730,137.780970
139.800624,137.726777
139.746431,137.645671
139.727401,137.550000
Z" /> 
<circle cx="142.327401" cy="137.200000" r="0.600000" /> 
<circle cx="75.750000" cy="130.500000" r="0.800000" /> 
<circle cx="78.250000" cy="130.500000" r="0.800000" /> 
<circle cx="150.490000" cy="117.550000" r="0.800000" /> 
<circle cx="158.110000" cy="117.550000" r="0.800000" /> 
<circle cx="126.660000" cy="131.350000" r="0.800000" /> 
<circle cx="119.040000" cy="131.350000" r="0.800000" /> 
<circle cx="89.300000" cy="134.800000" r="0.800000" /> 
<circle cx="86.800000" cy="134.800000" r="0.800000" /> 
<circle cx="131.100000" cy="122.600000" r="0.600000" /> 
<circle cx="133.100000" cy="122.600000" r="0.600000" /> 
<circle cx="78.000000" cy="134.500000" r="0.800000" /> 
<circle cx="70.380000" cy="134.500000" r="0.800000" /> 
<circle cx="126.650000" cy="122.050000" r="0.800000" /> 
<circle cx="119.030000" cy="122.050000" r="0.800000" /> 
<path style="fill:#000000; fill-opacity:1.000000; stroke:none;fill-rule:evenodd;"
d="M 155.250000,137.810000
155.250000,136.110000
156.950000,136.110000
156.950000,137.810000
Z" /> 
<circle cx="158.640000" cy="136.960000" r="0.850000" /> 
<circle cx="156.100000" cy="139.500000" r="0.850000" /> 
<circle cx="158.640000" cy="139.500000" r="0.850000" /> 
<circle cx="156.100000" cy="142.040000" r="0.850000" /> 
<circle cx="158.640000" cy="142.040000" r="0.850000" /> 
<circle cx="156.100000" cy="144.580000" r="0.850000" /> 
<circle cx="158.640000" cy="144.580000" r="0.850000" /> 
<circle cx="156.100000" cy="147.120000" r="0.850000" /> 
<circle cx="158.640000" cy="147.120000" r="0.850000" /> 
<circle cx="156.100000" cy="149.660000" r="0.850000" /> 
<circle cx="158.640000" cy="149.660000" r="0.850000" /> 
<circle cx="156.100000" cy="152.200000" r="0.850000" /> 
<circle cx="158.640000" cy="152.200000" r="0.850000" /> 
<circle cx="156.100000" cy="154.740000" r="0.850000" /> 
<circle cx="158.640000" cy="154.740000" r="0.850000" /> 
<circle cx="156.100000" cy="157.280000" r="0.850000" /> 
<circle cx="158.640000" cy="157.280000" r="0.850000" /> 
<path style="fill:#000000; fill-opacity:1.000000; stroke:none;fill-rule:evenodd;"
d="M 100.810000,131.965000
100.790970,132.060671
100.736777,132.141777
100.655671,132.195970
100.560000,132.215000
99.460000,132.215000
99.364329,132.195970
99.283223,132.141777
99.229030,132.060671
99.210000,131.965000
99.210000,130.865000
99.229030,130.769329
99.283223,130.688223
99.364329,130.634030
99.460000,130.615000
100.560000,130.615000
100.655671,130.634030
100.736777,130.688223
100.790970,130.769329
100.810000,130.865000
Z" /> 
<circle cx="100.010000" cy="128.875000" r="0.800000" /> 
<circle cx="100.010000" cy="126.335000" r="0.800000" /> 
<circle cx="100.010000" cy="123.795000" r="0.800000" /> 
<circle cx="100.010000" cy="121.255000" r="0.800000" /> 
<circle cx="100.010000" cy="118.715000" r="0.800000" /> 
<circle cx="100.010000" cy="116.175000" r="0.800000" /> 
<circle cx="92.390000" cy="116.175000" r="0.800000" /> 
<circle cx="92.390000" cy="118.715000" r="0.800000" /> 
<circle cx="92.390000" cy="121.255000" r="0.800000" /> 
<circle cx="92.390000" cy="123.795000" r="0.800000" /> 
<circle cx="92.390000" cy="126.335000" r="0.800000" /> 
<circle cx="92.390000" cy="128.875000" r="0.800000" /> 
<circle cx="92.390000" cy="131.415000" r="0.800000" /> 
<circle cx="81.000000" cy="134.800000" r="0.800000" /> 
<circle cx="83.500000" cy="134.800000" r="0.800000" /> 
<path style="fill:#000000; fill-opacity:1.000000; stroke:none;fill-rule:evenodd;"
d="M 77.090000,119.550000
78.790000,119.550000
78.790000,121.250000
77.090000,121.250000
Z" /> 
<circle cx="75.400000" cy="120.400000" r="0.850000" /> 
<circle cx="72.860000" cy="120.400000" r="0.850000" /> 
<circle cx="129.500000" cy="127.900000" r="0.600000" /> 
<circle cx="131.500000" cy="127.900000" r="0.600000" /> 
<circle cx="116.870000" cy="137.550000" r="0.800000" /> 
<circle cx="109.250000" cy="137.550000" r="0.800000" /> 
<circle cx="116.860000" cy="134.450000" r="0.800000" /> 
<circle cx="109.240000" cy="134.450000" r="0.800000" /> 
<path style="fill:#000000; fill-opacity:1.000000; stroke:none;fill-rule:evenodd;"
d="M 102.750000,122.530000
102.750000,120.830000
104.450000,120.830000
104.450000,122.530000
Z" /> 
<circle cx="106.140000" cy="121.680000" r="0.850000" /> 
<circle cx="103.600000" cy="124.220000" r="0.850000" /> 
<circle cx="106.140000" cy="124.220000" r="0.850000" /> 
<circle cx="103.600000" cy="126.760000" r="0.850000" /> 
<circle cx="106.140000" cy="126.760000" r="0.850000" /> 
<circle cx="103.600000" cy="129.300000" r="0.850000" /> 
<circle cx="106.140000" cy="129.300000" r="0.850000" /> 
<circle cx="103.600000" cy="131.840000" r="0.850000" /> 
<circle cx="106.140000" cy="131.840000" r="0.850000" /> 
<circle cx="103.600000" cy="134.380000" r="0.850000" /> 
<circle cx="106.140000" cy="134.380000" r="0.850000" /> 
<circle cx="103.600000" cy="136.920000" r="0.850000" /> 
<circle cx="106.140000" cy="136.920000" r="0.850000" /> 
<circle cx="143.710000" cy="117.550000" r="0.800000" /> 
<circle cx="136.090000" cy="117.550000" r="0.800000" /> 
<circle cx="124.300000" cy="118.400000" r="0.720000" /> 
<circle cx="126.840000" cy="115.860000" r="0.720000" /> 
<circle cx="129.380000" cy="118.400000" r="0.720000" /> 
<path style="fill:#000000; fill-opacity:1.000000; stroke:none;fill-rule:evenodd;"
d="M 145.477400,116.950000
145.496430,116.854329
145.550623,116.773223
145.631729,116.719030
145.727400,116.700000
146.427400,116.700000
146.523071,116.719030
146.604177,116.773223
146.658370,116.854329
146.677400,116.950000
146.677400,117.650000
146.658370,117.745671
146.604177,117.826777
146.523071,117.880970
146.427400,117.900000
145.727400,117.900000
145.631729,117.880970
145.550623,117.826777
145.496430,117.745671
145.477400,117.650000
Z" /> 
<circle cx="148.077400" cy="117.300000" r="0.600000" /> 
<circle cx="116.860000" cy="122.050000" r="0.800000" /> 
<circle cx="109.240000" cy="122.050000" r="0.800000" /> 
<circle cx="137.010000" cy="138.200000" r="0.800000" /> 
<circle cx="129.390000" cy="138.200000" r="0.800000" /> 
<circle cx="126.670000" cy="137.550000" r="0.800000" /> 
<circle cx="119.050000" cy="137.550000" r="0.800000" /> 
<circle cx="126.660000" cy="134.450000" r="0.800000" /> 
<circle cx="119.040000" cy="134.450000" r="0.800000" /> 
<circle cx="126.660000" cy="128.250000" r="0.800000" /> 
<circle cx="119.040000" cy="128.250000" r="0.800000" /> 
<circle cx="116.860000" cy="125.150000" r="0.800000" /> 
<circle cx="109.240000" cy="125.150000" r="0.800000" /> 
<circle cx="75.740000" cy="125.400000" r="0.750000" /> 
<circle cx="70.860000" cy="125.400000" r="0.750000" /> 
<circle cx="116.860000" cy="128.250000" r="0.800000" /> 
<circle cx="109.240000" cy="128.250000" r="0.800000" /> 
<circle cx="70.250000" cy="130.500000" r="0.800000" /> 
<circle cx="72.750000" cy="130.500000" r="0.800000" /> 
<circle cx="133.450000" cy="115.700000" r="0.800000" /> 
<circle cx="133.450000" cy="118.200000" r="0.800000" /> 
<circle cx="137.010000" cy="135.200000" r="0.800000" /> 
<circle cx="129.390000" cy="135.200000" r="0.800000" /> 
<circle cx="104.220000" cy="118.400000" r="0.720000" /> 
<circle cx="106.760000" cy="115.860000" r="0.720000" /> 
<circle cx="109.300000" cy="118.400000" r="0.720000" /> 
<circle cx="98.544700" cy="148.206900" r="0.400000" /> 
<circle cx="107.000000" cy="139.100000" r="0.400000" /> 
<circle cx="111.100000" cy="136.800000" r="0.400000" /> 
</g>
<g style="fill:none; 
stroke:#000000; stroke-width:0.381000; stroke-opacity:1; 
stroke-linecap:round; stroke-linejoin:round;">
<path d="M77.583500 140.280400
L77.578500 140.275400
" />
<path d="M78.103800 137.678500
L81.181900 137.678500
" />
<path d="M97.188800 137.278500
L98.610300 138.700000
" />
<path d="M66.901900 158.228500
L67.951100 158.228500
" />
<path d="M76.730000 144.226100
L76.730000 142.893100
" />
<path d="M81.181900 137.678500
L81.921900 136.938500
" />
<path d="M77.583500 138.015300
L77.915300 137.683500
" />
<path d="M91.018100 137.278500
L97.188800 137.278500
" />
<path d="M77.578500 140.275400
L77.578500 139.504600
" />
<path d="M74.933900 144.970000
L75.986100 144.970000
" />
<path d="M90.678100 136.938500
L91.018100 137.278500
" />
<path d="M64.540000 160.590400
L66.901900 158.228500
" />
<path d="M67.951100 158.228500
L69.211500 156.968100
" />
<path d="M81.921900 136.938500
L90.678100 136.938500
" />
<path d="M77.583500 139.499600
L77.583500 138.015300
" />
<path d="M69.211500 150.692400
L74.933900 144.970000
" />
<path d="M64.540000 163.000000
L64.540000 160.590400
" />
<path d="M78.098800 137.683500
L78.103800 137.678500
" />
<path d="M76.730000 142.893100
L77.583500 142.039600
" />
<path d="M77.578500 139.504600
L77.583500 139.499600
" />
<path d="M77.583500 142.039600
L77.583500 140.280400
" />
<path d="M77.915300 137.683500
L78.098800 137.683500
" />
<path d="M69.211500 156.968100
L69.211500 150.692400
" />
<path d="M75.986100 144.970000
L76.730000 144.226100
" />
<path d="M91.926100 158.836500
L99.434800 158.836500
" />
<path d="M86.968500 158.028500
L91.118100 158.028500
" />
<path d="M100.218600 158.063000
L100.208300 158.063000
" />
<path d="M101.010000 157.465000
L100.218600 158.063000
" />
<path d="M100.208300 158.063000
L99.434800 158.836500
" />
<path d="M86.968500 158.028500
L82.490000 153.550000
" />
<path d="M91.926100 158.836500
L91.118100 158.028500
" />
<path d="M91.698900 147.200000
L89.583900 147.200000
" />
<path d="M93.916100 146.035000
L92.863900 146.035000
" />
<path d="M87.043900 149.740000
L81.963900 149.740000
" />
<path d="M101.010000 149.845000
L97.726100 149.845000
" />
<path d="M97.726100 149.845000
L93.916100 146.035000
" />
<path d="M89.583900 147.200000
L87.043900 149.740000
" />
<path d="M79.843900 151.860000
L79.000000 151.860000
" />
<path d="M92.863900 146.035000
L91.698900 147.200000
" />
<path d="M81.963900 149.740000
L79.843900 151.860000
" />
<path d="M93.916100 153.655000
L92.011100 153.655000
" />
<path d="M83.760000 152.280000
L82.490000 151.010000
" />
<path d="M95.186100 154.925000
L93.916100 153.655000
" />
<path d="M101.010000 154.925000
L95.186100 154.925000
" />
<path d="M90.636100 152.280000
L83.760000 152.280000
" />
<path d="M92.011100 153.655000
L90.636100 152.280000
" />
<path d="M82.490000 151.010000
L79.100000 154.400000
" />
<path d="M82.359500 138.440500
L79.850000 138.440500
" />
<path d="M79.850000 138.440500
L79.659500 138.440500
" />
<path d="M100.409600 147.305000
L93.958100 140.853500
" />
<path d="M81.963900 139.580000
L90.636100 139.580000
" />
<path d="M91.909600 140.853500
L90.636100 139.580000
" />
<path d="M79.903900 141.640000
L79.000000 141.640000
" />
<path d="M81.963900 139.580000
L79.903900 141.640000
" />
<path d="M93.958100 140.853500
L91.909600 140.853500
" />
<path d="M82.490000 140.850000
L79.160000 144.180000
" />
<path d="M80.866300 136.916500
L81.606300 136.176500
" />
<path d="M76.826500 140.594000
L76.816500 140.584000
" />
<path d="M77.601800 136.926500
L77.778100 136.926500
" />
<path d="M76.826500 139.186000
L76.826500 137.701800
" />
<path d="M91.238700 136.421500
L95.218500 136.421500
" />
<path d="M77.778100 136.926500
L77.788100 136.916500
" />
<path d="M77.788100 136.916500
L80.866300 136.916500
" />
<path d="M76.816500 140.584000
L76.816500 139.196000
" />
<path d="M81.606300 136.176500
L90.993700 136.176500
" />
<path d="M95.218500 136.421500
L96.640000 135.000000
" />
<path d="M76.816500 139.196000
L76.826500 139.186000
" />
<path d="M75.460000 143.092500
L76.826500 141.726000
" />
<path d="M90.993700 136.176500
L91.238700 136.421500
" />
<path d="M76.826500 141.726000
L76.826500 140.594000
" />
<path d="M76.826500 137.701800
L77.601800 136.926500
" />
<path d="M102.372900 158.261300
L102.382500 158.251700
" />
<path d="M102.336100 158.388400
L102.336100 158.374900
" />
<path d="M102.336100 158.374900
L102.363300 158.347700
" />
<path d="M91.891200 161.578500
L99.159500 161.578500
" />
<path d="M102.372900 156.668700
L102.372900 156.630300
" />
<path d="M102.308900 158.415600
L102.336100 158.388400
" />
<path d="M102.382500 156.678300
L102.372900 156.668700
" />
<path d="M90.469700 163.000000
L91.891200 161.578500
" />
<path d="M102.363300 156.620700
L102.363300 156.582300
" />
<path d="M102.336100 156.541600
L102.001300 156.206800
" />
<path d="M102.001300 156.206800
L101.974700 156.206800
" />
<path d="M102.382500 158.251700
L102.382500 156.678300
" />
<path d="M102.363300 158.347700
L102.363300 158.309300
" />
<path d="M99.159500 161.578500
L102.308900 158.429100
" />
<path d="M102.308900 158.429100
L102.308900 158.415600
" />
<path d="M102.336100 156.555100
L102.336100 156.541600
" />
<path d="M102.372900 156.630300
L102.363300 156.620700
" />
<path d="M102.363300 158.309300
L102.372900 158.299700
" />
<path d="M101.974700 156.206800
L101.962400 156.194500
" />
<path d="M94.659500 156.194500
L101.962400 156.194500
" />
<path d="M102.372900 158.299700
L102.372900 158.261300
" />
<path d="M94.659500 156.194500
L93.390000 154.925000
" />
<path d="M102.363300 156.582300
L102.336100 156.555100
" />
<path d="M77.698300 156.501600
L77.594500 156.397800
" />
<path d="M77.698300 156.929100
L81.585700 160.816500
" />
<path d="M83.986400 161.578500
L83.224400 160.816500
" />
<path d="M77.575300 155.240000
L77.575300 155.201600
" />
<path d="M86.870300 163.000000
L85.448800 161.578500
" />
<path d="M77.520900 155.133700
L77.520900 155.120200
" />
<path d="M77.698300 156.929100
L77.698300 156.501600
" />
<path d="M77.584900 155.288000
L77.584900 155.249600
" />
<path d="M77.548100 155.160900
L77.520900 155.133700
" />
<path d="M77.594500 156.397800
L77.594500 155.297600
" />
<path d="M77.594500 155.297600
L77.584900 155.288000
" />
<path d="M77.575300 155.201600
L77.548100 155.174400
" />
<path d="M77.548100 155.174400
L77.548100 155.160900
" />
<path d="M77.520900 155.120200
L76.831500 154.430800
" />
<path d="M77.584900 155.249600
L77.575300 155.240000
" />
<path d="M76.831500 154.430800
L76.831500 153.291900
" />
<path d="M85.448800 161.578500
L83.986400 161.578500
" />
<path d="M76.831500 153.291900
L75.460000 151.920400
" />
<path d="M83.224400 160.816500
L81.585700 160.816500
" />
<path d="M105.196700 155.177500
L103.058600 155.177500
" />
<path d="M105.613700 155.574900
L105.613700 155.560200
" />
<path d="M105.670900 155.729200
L105.670900 155.705600
" />
<path d="M105.643700 155.612900
L105.633100 155.602300
" />
<path d="M105.201700 155.182500
L105.196700 155.177500
" />
<path d="M105.650800 155.637100
L105.643700 155.630000
" />
<path d="M105.267600 155.191700
L105.231000 155.191700
" />
<path d="M105.602400 155.526500
L105.267600 155.191700
" />
<path d="M106.883200 158.278500
L105.680500 157.075800
" />
<path d="M105.602400 155.541000
L105.602400 155.526500
" />
<path d="M105.680500 157.075800
L105.680500 155.805500
" />
<path d="M103.058600 155.177500
L101.536100 153.655000
" />
<path d="M105.231000 155.191700
L105.221800 155.182500
" />
<path d="M105.673400 155.731700
L105.670900 155.729200
" />
<path d="M105.673400 155.774800
L105.673400 155.731700
" />
<path d="M105.221800 155.182500
L105.201700 155.182500
" />
<path d="M105.670900 155.705600
L105.663800 155.698500
" />
<path d="M118.998500 161.578500
L110.268100 161.578500
" />
<path d="M120.420000 163.000000
L118.998500 161.578500
" />
<path d="M105.613700 155.560200
L105.603000 155.549500
" />
<path d="M106.968100 158.278500
L106.883200 158.278500
" />
<path d="M105.633100 155.602300
L105.633100 155.594300
" />
<path d="M105.680500 155.805500
L105.678000 155.803000
" />
<path d="M105.663800 155.681300
L105.650800 155.668300
" />
<path d="M96.456100 153.655000
L93.916100 151.115000
" />
<path d="M105.603000 155.549500
L105.603000 155.541600
" />
<path d="M105.650800 155.668300
L105.650800 155.637100
" />
<path d="M105.663800 155.698500
L105.663800 155.681300
" />
<path d="M110.268100 161.578500
L106.968100 158.278500
" />
<path d="M105.678000 155.803000
L105.678000 155.779400
" />
<path d="M105.633100 155.594300
L105.613700 155.574900
" />
<path d="M101.536100 153.655000
L96.456100 153.655000
" />
<path d="M93.916100 151.115000
L90.215000 151.115000
" />
<path d="M105.678000 155.779400
L105.673400 155.774800
" />
<path d="M105.643700 155.630000
L105.643700 155.612900
" />
<path d="M105.603000 155.541600
L105.602400 155.541000
" />
<path d="M108.220000 156.023900
L107.476100 155.280000
" />
<path d="M105.512400 154.415500
L104.836600 154.415500
" />
<path d="M105.546700 154.429700
L105.537500 154.420500
" />
<path d="M104.836600 154.415500
L101.536100 151.115000
" />
<path d="M111.960400 160.816500
L108.220000 157.076100
" />
<path d="M119.896526 161.578500
L119.134526 160.816500
" />
<path d="M105.608400 154.434700
L105.588300 154.434700
" />
<path d="M108.220000 157.076100
L108.220000 156.023900
" />
<path d="M107.476100 155.280000
L106.453700 155.280000
" />
<path d="M106.453700 155.280000
L105.608400 154.434700
" />
<path d="M105.517400 154.420500
L105.512400 154.415500
" />
<path d="M105.537500 154.420500
L105.517400 154.420500
" />
<path d="M124.078500 161.578500
L119.896526 161.578500
" />
<path d="M119.134526 160.816500
L111.960400 160.816500
" />
<path d="M93.916100 148.575000
L90.215000 148.575000
" />
<path d="M125.500000 163.000000
L124.078500 161.578500
" />
<path d="M105.588300 154.434700
L105.583300 154.429700
" />
<path d="M105.583300 154.429700
L105.546700 154.429700
" />
<path d="M96.456100 151.115000
L93.916100 148.575000
" />
<path d="M101.536100 151.115000
L96.456100 151.115000
" />
<path d="M94.660000 144.238900
L93.916100 143.495000
" />
<path d="M94.660000 144.322200
L94.660000 144.238900
" />
<path d="M93.916100 143.495000
L90.215000 143.495000
" />
<path d="M98.544700 148.206900
L94.660000 144.322200
" />
<path d="M117.785500 123.294500
L110.484500 123.294500
" />
<path d="M119.030000 122.050000
L117.785500 123.294500
" />
<path d="M110.484500 123.294500
L109.240000 122.050000
" />
<path d="M109.240000 134.450000
L107.844500 135.845500
" />
<path d="M108.194500 152.714500
L112.030000 156.550000
" />
<path d="M108.194500 140.794511
L108.194500 152.714500
" />
<path d="M107.844500 140.444511
L108.194500 140.794511
" />
<path d="M107.844500 135.845500
L107.844500 140.444511
" />
</g>
<g style="fill:none; 
stroke:#000000; stroke-width:0.300000; stroke-opacity:1; 
stroke-linecap:round; stroke-linejoin:round;">
<path d="M152.670000 153.115424
L155.580576 156.026000
" />
<path d="M155.580576 156.026000
L157.386000 156.026000
" />
<path d="M157.386000 156.026000
L158.640000 157.280000
" />
<path d="M152.670000 141.310000
L152.670000 153.115424
" />
</g>
<g style="fill:none; 
stroke:#000000; stroke-width:0.381000; stroke-opacity:1; 
stroke-linecap:round; stroke-linejoin:round;">
<path d="M106.140000 126.760000
L106.140000 129.300000
" />
<path d="M106.140000 134.380000
L106.140000 136.920000
" />
<path d="M106.140000 124.220000
L106.140000 126.760000
" />
<path d="M106.140000 121.680000
L106.140000 124.220000
" />
<path d="M107.000000 139.100000
L106.700000 139.100000
" />
<path d="M106.140000 138.540000
L106.140000 136.920000
" />
<path d="M106.700000 139.100000
L106.140000 138.540000
" />
<path d="M106.140000 129.300000
L106.140000 131.840000
" />
<path d="M106.140000 131.840000
L106.140000 134.380000
" />
<path d="M141.941900 139.938500
L140.570400 141.310000
" />
<path d="M147.585000 137.700000
L145.346500 139.938500
" />
<path d="M145.346500 139.938500
L141.941900 139.938500
" />
<path d="M136.805578 158.911500
L137.194078 159.300000
" />
<path d="M133.620000 157.076100
L135.455400 158.911500
" />
<path d="M142.000000 159.500000
L143.868800 161.368800
" />
<path d="M133.620000 145.120000
L133.620000 157.076100
" />
<path d="M140.773176 159.500000
L142.000000 159.500000
" />
<path d="M144.188800 161.368800
L145.820000 163.000000
" />
<path d="M140.573176 159.300000
L140.773176 159.500000
" />
<path d="M137.194078 159.300000
L140.573176 159.300000
" />
<path d="M143.868800 161.368800
L144.188800 161.368800
" />
<path d="M135.455400 158.911500
L136.805578 158.911500
" />
<path d="M129.810000 141.310000
L133.620000 145.120000
" />
<path d="M134.909700 159.546500
L134.274700 158.911500
" />
<path d="M136.542552 159.546500
L134.909700 159.546500
" />
<path d="M142.430000 162.150000
L142.430000 162.054850
" />
<path d="M140.429650 160.054500
L137.050552 160.054500
" />
<path d="M131.080000 145.120000
L127.270000 141.310000
" />
<path d="M134.274700 158.911500
L132.915400 158.911500
" />
<path d="M137.050552 160.054500
L136.542552 159.546500
" />
<path d="M132.915400 158.911500
L131.080000 157.076100
" />
<path d="M143.280000 163.000000
L142.430000 162.150000
" />
<path d="M131.080000 157.076100
L131.080000 145.120000
" />
<path d="M142.430000 162.054850
L140.429650 160.054500
" />
<path d="M132.369700 159.546500
L134.002552 159.546500
" />
<path d="M128.540000 157.076100
L130.375400 158.911500
" />
<path d="M136.279526 160.181500
L136.914526 160.816500
" />
<path d="M134.637552 160.181500
L136.279526 160.181500
" />
<path d="M131.734700 158.911500
L132.369700 159.546500
" />
<path d="M124.730000 141.310000
L128.540000 145.120000
" />
<path d="M128.540000 145.120000
L128.540000 157.076100
" />
<path d="M134.002552 159.546500
L134.637552 160.181500
" />
<path d="M138.556500 160.816500
L140.740000 163.000000
" />
<path d="M130.375400 158.911500
L131.734700 158.911500
" />
<path d="M136.914526 160.816500
L138.556500 160.816500
" />
<path d="M134.374526 160.816500
L133.739526 160.181500
" />
<path d="M126.000000 145.120000
L122.190000 141.310000
" />
<path d="M129.194700 158.911500
L127.835400 158.911500
" />
<path d="M129.829700 159.546500
L129.194700 158.911500
" />
<path d="M138.200000 163.000000
L136.016500 160.816500
" />
<path d="M131.462552 159.546500
L129.829700 159.546500
" />
<path d="M136.016500 160.816500
L134.374526 160.816500
" />
<path d="M126.000000 157.076100
L126.000000 145.120000
" />
<path d="M132.097552 160.181500
L131.462552 159.546500
" />
<path d="M127.835400 158.911500
L126.000000 157.076100
" />
<path d="M133.739526 160.181500
L132.097552 160.181500
" />
<path d="M127.289700 159.546500
L127.035700 159.292500
" />
<path d="M131.199526 160.181500
L129.502702 160.181500
" />
<path d="M123.460000 145.120000
L119.650000 141.310000
" />
<path d="M135.660000 163.000000
L133.476500 160.816500
" />
<path d="M131.834526 160.816500
L131.199526 160.181500
" />
<path d="M128.867702 159.546500
L127.289700 159.546500
" />
<path d="M125.676400 159.292500
L123.460000 157.076100
" />
<path d="M129.502702 160.181500
L128.867702 159.546500
" />
<path d="M133.476500 160.816500
L131.834526 160.816500
" />
<path d="M127.035700 159.292500
L125.676400 159.292500
" />
<path d="M123.460000 157.076100
L123.460000 145.120000
" />
<path d="M130.936500 160.816500
L129.239676 160.816500
" />
<path d="M126.847100 160.181500
L126.720100 160.054500
" />
<path d="M133.120000 163.000000
L130.936500 160.816500
" />
<path d="M120.920000 157.076100
L120.920000 145.120000
" />
<path d="M129.239676 160.816500
L128.604676 160.181500
" />
<path d="M120.920000 145.120000
L117.110000 141.310000
" />
<path d="M128.604676 160.181500
L126.847100 160.181500
" />
<path d="M123.136400 159.292500
L120.920000 157.076100
" />
<path d="M124.495700 159.292500
L123.136400 159.292500
" />
<path d="M125.257700 160.054500
L124.495700 159.292500
" />
<path d="M126.720100 160.054500
L125.257700 160.054500
" />
<path d="M125.112552 160.816500
L124.350552 160.054500
" />
<path d="M118.380000 145.120000
L114.570000 141.310000
" />
<path d="M121.358400 160.054500
L118.380000 157.076100
" />
<path d="M118.380000 157.076100
L118.380000 145.120000
" />
<path d="M130.525150 163.000000
L128.341650 160.816500
" />
<path d="M124.350552 160.054500
L121.358400 160.054500
" />
<path d="M128.341650 160.816500
L125.112552 160.816500
" />
<path d="M115.840000 157.076100
L115.840000 145.120000
" />
<path d="M120.032552 160.816500
L119.270552 160.054500
" />
<path d="M128.040000 163.000000
L126.618500 161.578500
" />
<path d="M115.840000 145.120000
L112.030000 141.310000
" />
<path d="M124.214526 160.816500
L120.032552 160.816500
" />
<path d="M119.270552 160.054500
L118.818400 160.054500
" />
<path d="M124.976526 161.578500
L124.214526 160.816500
" />
<path d="M126.618500 161.578500
L124.976526 161.578500
" />
<path d="M118.818400 160.054500
L115.840000 157.076100
" />
<path d="M109.240000 128.250000
L111.100000 130.110000
" />
<path d="M109.190000 124.500000
L109.190000 127.600000
" />
<path d="M111.100000 130.110000
L111.100000 136.800000
" />
<path d="M119.040000 134.450000
L116.860000 134.450000
" />
<path d="M120.895500 133.205500
L128.605500 133.205500
" />
<path d="M128.605500 133.205500
L129.355500 133.955500
" />
<path d="M131.450000 135.200000
L137.010000 135.200000
" />
<path d="M130.205500 133.955500
L131.450000 135.200000
" />
<path d="M119.040000 131.350000
L120.895500 133.205500
" />
<path d="M129.355500 133.955500
L130.205500 133.955500
" />
<path d="M139.030000 118.870000
L139.030000 120.890000
" />
<path d="M140.350000 117.550000
L139.030000 118.870000
" />
<path d="M143.710000 117.550000
L140.350000 117.550000
" />
<path d="M89.010000 126.335000
L89.010000 128.875000
" />
<path d="M99.255400 130.728300
L96.039400 130.728300
" />
<path d="M100.010000 131.415000
L99.255400 130.728300
" />
<path d="M90.381500 126.122600
L91.863900 127.605000
" />
<path d="M96.039400 130.728300
L92.916100 127.605000
" />
<path d="M90.381500 125.766900
L89.010000 124.395400
" />
<path d="M92.916100 127.605000
L91.863900 127.605000
" />
<path d="M90.381500 126.122600
L90.381500 125.766900
" />
<path d="M140.327401 137.200000
L138.600000 135.472599
" />
<path d="M138.600000 135.472599
L138.600000 131.480000
" />
<path d="M138.600000 131.480000
L141.570000 128.510000
" />
<path d="M126.650000 125.150000
L129.400000 127.900000
" />
<path d="M117.110400 137.550000
L118.481900 136.178500
" />
<path d="M124.931500 136.178500
L126.660000 134.450000
" />
<path d="M118.481900 136.178500
L124.931500 136.178500
" />
<path d="M112.350000 122.050000
L109.350000 119.050000
" />
<path d="M107.818500 119.881500
L109.300000 118.400000
" />
<path d="M116.860000 122.050000
L112.350000 122.050000
" />
<path d="M109.190000 130.700000
L107.818500 129.328500
" />
<path d="M107.818500 129.328500
L107.818500 119.881500
" />
<path d="M126.660000 131.350000
L125.415500 130.105500
" />
<path d="M125.415500 130.105500
L118.104500 130.105500
" />
<path d="M118.104500 130.105500
L116.860000 131.350000
" />
<path d="M123.650000 122.050000
L126.650000 122.050000
" />
<path d="M119.030000 125.150000
L120.550000 125.150000
" />
<path d="M120.550000 125.150000
L123.650000 122.050000
" />
<path d="M101.381500 123.226900
L100.010000 121.855400
" />
<path d="M101.381500 124.541500
L101.381500 123.226900
" />
<path d="M103.600000 126.760000
L101.381500 124.541500
" />
<path d="M91.120000 119.985000
L92.390000 118.715000
" />
<path d="M91.120000 121.781100
L91.120000 119.985000
" />
<path d="M101.280000 128.348900
L100.536100 127.605000
" />
<path d="M101.372900 130.580300
L101.363300 130.570700
" />
<path d="M100.536100 127.605000
L97.996100 127.605000
" />
<path d="M101.363300 130.532300
L101.336100 130.505100
" />
<path d="M101.372900 130.618700
L101.372900 130.580300
" />
<path d="M101.336100 130.491600
L101.308900 130.464400
" />
<path d="M101.336100 130.505100
L101.336100 130.491600
" />
<path d="M101.382500 130.628300
L101.372900 130.618700
" />
<path d="M101.363300 130.570700
L101.363300 130.532300
" />
<path d="M101.382500 134.702500
L101.382500 130.628300
" />
<path d="M97.996100 127.605000
L92.916100 122.525000
" />
<path d="M91.863900 122.525000
L91.120000 121.781100
" />
<path d="M101.280000 130.422000
L101.280000 128.348900
" />
<path d="M103.600000 136.920000
L101.382500 134.702500
" />
<path d="M92.916100 122.525000
L91.863900 122.525000
" />
<path d="M101.308900 130.464400
L101.308900 130.450900
" />
<path d="M101.308900 130.450900
L101.280000 130.422000
" />
<path d="M100.536100 125.065000
L96.677200 125.065000
" />
<path d="M101.280000 127.127800
L101.280000 125.808900
" />
<path d="M101.280000 125.808900
L100.536100 125.065000
" />
<path d="M102.144500 132.924500
L102.144500 130.312600
" />
<path d="M103.600000 134.380000
L102.144500 132.924500
" />
<path d="M102.143500 130.311600
L102.143500 127.991300
" />
<path d="M96.677200 125.065000
L93.273700 121.661500
" />
<path d="M102.143500 127.991300
L101.280000 127.127800
" />
<path d="M102.144500 130.312600
L102.143500 130.311600
" />
<path d="M93.273700 121.661500
L92.796500 121.661500
" />
<path d="M110.744305 138.349999
L110.049999 138.349999
" />
<path d="M117.090400 125.150000
L118.461900 123.778500
" />
<path d="M119.621500 123.778500
L124.350000 119.050000
" />
<path d="M113.735000 128.275000
L113.735000 135.359304
" />
<path d="M118.461900 123.778500
L119.621500 123.778500
" />
<path d="M113.735000 135.359304
L110.744305 138.349999
" />
<path d="M116.860000 125.150000
L113.735000 128.275000
" />
<path d="M110.049999 138.349999
L109.250000 137.550000
" />
<path d="M129.380000 121.079989
L129.380000 118.400000
" />
<path d="M119.040000 128.250000
L123.995500 123.294500
" />
<path d="M123.995500 123.294500
L127.165489 123.294500
" />
<path d="M116.860000 128.250000
L119.040000 128.250000
" />
<path d="M127.165489 123.294500
L129.380000 121.079989
" />
</g> 
</svg>
