<?xml version='1.0' encoding='ASCII' standalone='yes'?>
<svg xmlns="http://www.w3.org/2000/svg" version="1.1" width="297.0022mm" height="210.0072mm" viewBox="0.0000 0.0000 297.0022 210.0072">
            <title>Picture generated by PcbDraw </title>
            <desc>Picture generated by PcbDraw</desc>
        <defs><clipPath id="cut-off"><path d=" M 60.5 164.5 L 160.5 164.5 L 160.5 129.8159 A 1.016 1.016 0 0 1 159.484 128.7999 L 159.484 123.6093 A 1.016 1.016 0 0 1 160.5 122.6024 L 160.5 120.0 A 5.5 5.5 0 0 0 155.0 114.5 L 75.5 114.5 L 60.5 129.5 L 60.5 164.5 " style="fill-rule: evenodd;"/></clipPath><mask id="pads-mask-silkscreen"><rect x="41.025716" y="106.69212" width="123.524284" height="69.974302" fill="white"/><g style="fill:#000000; fill-opacity:1.0000; stroke:none;">
<circle cx="90.5500" cy="159.4000" r="0.8500"/> 
<circle cx="88.0500" cy="159.4000" r="0.8500"/> 
<circle cx="82.0500" cy="159.4000" r="0.8500"/> 
<circle cx="84.5500" cy="159.4000" r="0.8500"/> 
<circle cx="67.4700" cy="159.6000" r="0.8500"/> 
<circle cx="69.9700" cy="159.6000" r="0.8500"/> 
<circle cx="103.9000" cy="159.6500" r="0.8500"/> 
<circle cx="106.4000" cy="159.6500" r="0.8500"/> 
<path style="fill:#000000; fill-opacity:1.0000; stroke:none;fill-rule:evenodd;" d="M 93.2100,139.6000 93.1909,139.5962 93.1746,139.5854 93.1638,139.5691 93.1600,139.5500 93.1600,137.8500 93.1638,137.8309 93.1746,137.8146 93.1909,137.8038 93.2100,137.8000 94.9100,137.8000 94.9291,137.8038 94.9454,137.8146 94.9562,137.8309 94.9600,137.8500 94.9600,139.5500 94.9562,139.5691 94.9454,139.5854 94.9291,139.5962 94.9100,139.6000 Z"/> 
<circle cx="96.6000" cy="138.7000" r="0.9000"/> 
<circle cx="99.1400" cy="138.7000" r="0.9000"/> 
<path style="fill:#000000; fill-opacity:1.0000; stroke:none;fill-rule:evenodd;" d="M 78.1000,148.4700 78.1038,148.4509 78.1146,148.4346 78.1309,148.4238 78.1500,148.4200 79.8500,148.4200 79.8691,148.4238 79.8854,148.4346 79.8962,148.4509 79.9000,148.4700 79.9000,150.1700 79.8962,150.1891 79.8854,150.2054 79.8691,150.2162 79.8500,150.2200 78.1500,150.2200 78.1309,150.2162 78.1146,150.2054 78.1038,150.1891 78.1000,150.1700 Z"/> 
<circle cx="79.0000" cy="151.8600" r="0.9000"/> 
<circle cx="79.0000" cy="154.4000" r="0.9000"/> 
<path style="fill:#000000; fill-opacity:1.0000; stroke:none;fill-rule:evenodd;" d="M 78.1000,138.2500 78.1038,138.2309 78.1146,138.2146 78.1309,138.2038 78.1500,138.2000 79.8500,138.2000 79.8691,138.2038 79.8854,138.2146 79.8962,138.2309 79.9000,138.2500 79.9000,139.9500 79.8962,139.9691 79.8854,139.9854 79.8691,139.9962 79.8500,140.0000 78.1500,140.0000 78.1309,139.9962 78.1146,139.9854 78.1038,139.9691 78.1000,139.9500 Z"/> 
<circle cx="79.0000" cy="141.6400" r="0.9000"/> 
<circle cx="79.0000" cy="144.1800" r="0.9000"/> 
<path style="fill:#000000; fill-opacity:1.0000; stroke:none;fill-rule:evenodd;" d="M 93.2500,135.9000 93.2309,135.8962 93.2146,135.8854 93.2038,135.8691 93.2000,135.8500 93.2000,134.1500 93.2038,134.1309 93.2146,134.1146 93.2309,134.1038 93.2500,134.1000 94.9500,134.1000 94.9691,134.1038 94.9854,134.1146 94.9962,134.1309 95.0000,134.1500 95.0000,135.8500 94.9962,135.8691 94.9854,135.8854 94.9691,135.8962 94.9500,135.9000 Z"/> 
<circle cx="96.6400" cy="135.0000" r="0.9000"/> 
<circle cx="99.1800" cy="135.0000" r="0.9000"/> 
<path style="fill:#000000; fill-opacity:1.0000; stroke:none;fill-rule:evenodd;" d="M 76.3100,156.9500 76.3020,157.0187 76.2575,157.1195 76.1795,157.1975 76.0787,157.2420 76.0100,157.2500 74.9100,157.2500 74.8413,157.2420 74.7405,157.1975 74.6625,157.1195 74.6180,157.0187 74.6100,156.9500 74.6100,155.8500 74.6180,155.7813 74.6625,155.6805 74.7405,155.6025 74.8413,155.5580 74.9100,155.5500 76.0100,155.5500 76.0787,155.5580 76.1795,155.6025 76.2575,155.6805 76.3020,155.7813 76.3100,155.8500 Z"/> 
<circle cx="75.4600" cy="153.8600" r="0.8500"/> 
<circle cx="75.4600" cy="151.3200" r="0.8500"/> 
<circle cx="75.4600" cy="148.7800" r="0.8500"/> 
<circle cx="75.4600" cy="146.2400" r="0.8500"/> 
<circle cx="75.4600" cy="143.7000" r="0.8500"/> 
<circle cx="75.4600" cy="141.1600" r="0.8500"/> 
<circle cx="75.4600" cy="138.6200" r="0.8500"/> 
<circle cx="67.8400" cy="138.6200" r="0.8500"/> 
<circle cx="67.8400" cy="141.1600" r="0.8500"/> 
<circle cx="67.8400" cy="143.7000" r="0.8500"/> 
<circle cx="67.8400" cy="146.2400" r="0.8500"/> 
<circle cx="67.8400" cy="148.7800" r="0.8500"/> 
<circle cx="67.8400" cy="151.3200" r="0.8500"/> 
<circle cx="67.8400" cy="153.8600" r="0.8500"/> 
<circle cx="67.8400" cy="156.4000" r="0.8500"/> 
<path style="fill:#000000; fill-opacity:1.0000; stroke:none;fill-rule:evenodd;" d="M 90.9600,156.6400 90.9520,156.7087 90.9075,156.8095 90.8295,156.8875 90.7287,156.9320 90.6600,156.9400 89.5600,156.9400 89.4913,156.9320 89.3905,156.8875 89.3125,156.8095 89.2680,156.7087 89.2600,156.6400 89.2600,155.5400 89.2680,155.4713 89.3125,155.3705 89.3905,155.2925 89.4913,155.2480 89.5600,155.2400 90.6600,155.2400 90.7287,155.2480 90.8295,155.2925 90.9075,155.3705 90.9520,155.4713 90.9600,155.5400 Z"/> 
<circle cx="90.1100" cy="153.5500" r="0.8500"/> 
<circle cx="90.1100" cy="151.0100" r="0.8500"/> 
<circle cx="90.1100" cy="148.4700" r="0.8500"/> 
<circle cx="90.1100" cy="145.9300" r="0.8500"/> 
<circle cx="90.1100" cy="143.3900" r="0.8500"/> 
<circle cx="90.1100" cy="140.8500" r="0.8500"/> 
<circle cx="90.1100" cy="138.3100" r="0.8500"/> 
<circle cx="82.4900" cy="138.3100" r="0.8500"/> 
<circle cx="82.4900" cy="140.8500" r="0.8500"/> 
<circle cx="82.4900" cy="143.3900" r="0.8500"/> 
<circle cx="82.4900" cy="145.9300" r="0.8500"/> 
<circle cx="82.4900" cy="148.4700" r="0.8500"/> 
<circle cx="82.4900" cy="151.0100" r="0.8500"/> 
<circle cx="82.4900" cy="153.5500" r="0.8500"/> 
<circle cx="82.4900" cy="156.0900" r="0.8500"/> 
<path style="fill:#000000; fill-opacity:1.0000; stroke:none;fill-rule:evenodd;" d="M 101.8600,158.0150 101.8520,158.0837 101.8075,158.1845 101.7295,158.2625 101.6287,158.3070 101.5600,158.3150 100.4600,158.3150 100.3913,158.3070 100.2905,158.2625 100.2125,158.1845 100.1680,158.0837 100.1600,158.0150 100.1600,156.9150 100.1680,156.8463 100.2125,156.7455 100.2905,156.6675 100.3913,156.6230 100.4600,156.6150 101.5600,156.6150 101.6287,156.6230 101.7295,156.6675 101.8075,156.7455 101.8520,156.8463 101.8600,156.9150 Z"/> 
<circle cx="101.0100" cy="154.9250" r="0.8500"/> 
<circle cx="101.0100" cy="152.3850" r="0.8500"/> 
<circle cx="101.0100" cy="149.8450" r="0.8500"/> 
<circle cx="101.0100" cy="147.3050" r="0.8500"/> 
<circle cx="101.0100" cy="144.7650" r="0.8500"/> 
<circle cx="101.0100" cy="142.2250" r="0.8500"/> 
<circle cx="93.3900" cy="142.2250" r="0.8500"/> 
<circle cx="93.3900" cy="144.7650" r="0.8500"/> 
<circle cx="93.3900" cy="147.3050" r="0.8500"/> 
<circle cx="93.3900" cy="149.8450" r="0.8500"/> 
<circle cx="93.3900" cy="152.3850" r="0.8500"/> 
<circle cx="93.3900" cy="154.9250" r="0.8500"/> 
<circle cx="93.3900" cy="157.4650" r="0.8500"/> 
<path style="fill:#000000; fill-opacity:1.0000; stroke:none;fill-rule:evenodd;" d="M 103.8600,157.4000 103.7913,157.3920 103.6905,157.3475 103.6125,157.2695 103.5680,157.1687 103.5600,157.1000 103.5600,156.0000 103.5680,155.9313 103.6125,155.8305 103.6905,155.7525 103.7913,155.7080 103.8600,155.7000 104.9600,155.7000 105.0287,155.7080 105.1295,155.7525 105.2075,155.8305 105.2520,155.9313 105.2600,156.0000 105.2600,157.1000 105.2520,157.1687 105.2075,157.2695 105.1295,157.3475 105.0287,157.3920 104.9600,157.4000 Z"/> 
<circle cx="106.9500" cy="156.5500" r="0.8500"/> 
<circle cx="109.4900" cy="156.5500" r="0.8500"/> 
<circle cx="112.0300" cy="156.5500" r="0.8500"/> 
<circle cx="114.5700" cy="156.5500" r="0.8500"/> 
<circle cx="117.1100" cy="156.5500" r="0.8500"/> 
<circle cx="119.6500" cy="156.5500" r="0.8500"/> 
<circle cx="122.1900" cy="156.5500" r="0.8500"/> 
<circle cx="124.7300" cy="156.5500" r="0.8500"/> 
<circle cx="127.2700" cy="156.5500" r="0.8500"/> 
<circle cx="129.8100" cy="156.5500" r="0.8500"/> 
<circle cx="132.3500" cy="156.5500" r="0.8500"/> 
<circle cx="134.8900" cy="156.5500" r="0.8500"/> 
<circle cx="137.4300" cy="156.5500" r="0.8500"/> 
<circle cx="139.9700" cy="156.5500" r="0.8500"/> 
<circle cx="142.5100" cy="156.5500" r="0.8500"/> 
<circle cx="145.0500" cy="156.5500" r="0.8500"/> 
<circle cx="147.5900" cy="156.5500" r="0.8500"/> 
<circle cx="150.1300" cy="156.5500" r="0.8500"/> 
<circle cx="152.6700" cy="156.5500" r="0.8500"/> 
<circle cx="152.6700" cy="141.3100" r="0.8500"/> 
<circle cx="150.1300" cy="141.3100" r="0.8500"/> 
<circle cx="147.5900" cy="141.3100" r="0.8500"/> 
<circle cx="145.0500" cy="141.3100" r="0.8500"/> 
<circle cx="142.5100" cy="141.3100" r="0.8500"/> 
<circle cx="139.9700" cy="141.3100" r="0.8500"/> 
<circle cx="137.4300" cy="141.3100" r="0.8500"/> 
<circle cx="134.8900" cy="141.3100" r="0.8500"/> 
<circle cx="132.3500" cy="141.3100" r="0.8500"/> 
<circle cx="129.8100" cy="141.3100" r="0.8500"/> 
<circle cx="127.2700" cy="141.3100" r="0.8500"/> 
<circle cx="124.7300" cy="141.3100" r="0.8500"/> 
<circle cx="122.1900" cy="141.3100" r="0.8500"/> 
<circle cx="119.6500" cy="141.3100" r="0.8500"/> 
<circle cx="117.1100" cy="141.3100" r="0.8500"/> 
<circle cx="114.5700" cy="141.3100" r="0.8500"/> 
<circle cx="112.0300" cy="141.3100" r="0.8500"/> 
<circle cx="109.4900" cy="141.3100" r="0.8500"/> 
<circle cx="106.9500" cy="141.3100" r="0.8500"/> 
<circle cx="104.4100" cy="141.3100" r="0.8500"/> 
<path style="fill:#000000; fill-opacity:1.0000; stroke:none;fill-rule:evenodd;" d="M 65.4300,158.2300 65.4262,158.2491 65.4154,158.2654 65.3991,158.2762 65.3800,158.2800 63.6800,158.2800 63.6609,158.2762 63.6446,158.2654 63.6338,158.2491 63.6300,158.2300 63.6300,156.5300 63.6338,156.5109 63.6446,156.4946 63.6609,156.4838 63.6800,156.4800 65.3800,156.4800 65.3991,156.4838 65.4154,156.4946 65.4262,156.5109 65.4300,156.5300 Z"/> 
<circle cx="61.9900" cy="157.3800" r="0.9000"/> 
<circle cx="64.5300" cy="154.8400" r="0.9000"/> 
<circle cx="61.9900" cy="154.8400" r="0.9000"/> 
<circle cx="64.5300" cy="152.3000" r="0.9000"/> 
<circle cx="61.9900" cy="152.3000" r="0.9000"/> 
<circle cx="64.5300" cy="149.7600" r="0.9000"/> 
<circle cx="61.9900" cy="149.7600" r="0.9000"/> 
<circle cx="64.5300" cy="147.2200" r="0.9000"/> 
<circle cx="61.9900" cy="147.2200" r="0.9000"/> 
<circle cx="64.5300" cy="144.6800" r="0.9000"/> 
<circle cx="61.9900" cy="144.6800" r="0.9000"/> 
<circle cx="64.5300" cy="142.1400" r="0.9000"/> 
<circle cx="61.9900" cy="142.1400" r="0.9000"/> 
<circle cx="64.5300" cy="139.6000" r="0.9000"/> 
<circle cx="61.9900" cy="139.6000" r="0.9000"/> 
<circle cx="64.5300" cy="137.0600" r="0.9000"/> 
<circle cx="61.9900" cy="137.0600" r="0.9000"/> 
<path style="fill:#000000; fill-opacity:1.0000; stroke:none;fill-rule:evenodd;" d="M 150.9750,136.8000 150.9941,136.8038 151.0104,136.8146 151.0212,136.8309 151.0250,136.8500 151.0250,138.5500 151.0212,138.5691 151.0104,138.5854 150.9941,138.5962 150.9750,138.6000 149.2750,138.6000 149.2559,138.5962 149.2396,138.5854 149.2288,138.5691 149.2250,138.5500 149.2250,136.8500 149.2288,136.8309 149.2396,136.8146 149.2559,136.8038 149.2750,136.8000 Z"/> 
<circle cx="147.5850" cy="137.7000" r="0.9000"/> 
<circle cx="65.5320" cy="131.3820" r="1.6500"/> 
<path style="fill:#000000; fill-opacity:1.0000; stroke:none;fill-rule:evenodd;" d="M 61.1500,163.9000 61.1309,163.8962 61.1146,163.8854 61.1038,163.8691 61.1000,163.8500 61.1000,162.1500 61.1038,162.1309 61.1146,162.1146 61.1309,162.1038 61.1500,162.1000 62.8500,162.1000 62.8691,162.1038 62.8854,162.1146 62.8962,162.1309 62.9000,162.1500 62.9000,163.8500 62.8962,163.8691 62.8854,163.8854 62.8691,163.8962 62.8500,163.9000 Z"/> 
<circle cx="64.5400" cy="163.0000" r="0.9000"/> 
<circle cx="67.0800" cy="163.0000" r="0.9000"/> 
<circle cx="69.6200" cy="163.0000" r="0.9000"/> 
<circle cx="72.1600" cy="163.0000" r="0.9000"/> 
<circle cx="74.7000" cy="163.0000" r="0.9000"/> 
<circle cx="77.2400" cy="163.0000" r="0.9000"/> 
<circle cx="79.7800" cy="163.0000" r="0.9000"/> 
<circle cx="82.3200" cy="163.0000" r="0.9000"/> 
<circle cx="84.8600" cy="163.0000" r="0.9000"/> 
<circle cx="87.4000" cy="163.0000" r="0.9000"/> 
<circle cx="89.9400" cy="163.0000" r="0.9000"/> 
<circle cx="92.4800" cy="163.0000" r="0.9000"/> 
<circle cx="95.0200" cy="163.0000" r="0.9000"/> 
<circle cx="97.5600" cy="163.0000" r="0.9000"/> 
<circle cx="100.1000" cy="163.0000" r="0.9000"/> 
<circle cx="102.6400" cy="163.0000" r="0.9000"/> 
<circle cx="105.1800" cy="163.0000" r="0.9000"/> 
<circle cx="107.7200" cy="163.0000" r="0.9000"/> 
<circle cx="110.2600" cy="163.0000" r="0.9000"/> 
<circle cx="112.8000" cy="163.0000" r="0.9000"/> 
<circle cx="115.3400" cy="163.0000" r="0.9000"/> 
<circle cx="117.8800" cy="163.0000" r="0.9000"/> 
<circle cx="120.4200" cy="163.0000" r="0.9000"/> 
<circle cx="122.9600" cy="163.0000" r="0.9000"/> 
<circle cx="125.5000" cy="163.0000" r="0.9000"/> 
<circle cx="128.0400" cy="163.0000" r="0.9000"/> 
<circle cx="130.5800" cy="163.0000" r="0.9000"/> 
<circle cx="133.1200" cy="163.0000" r="0.9000"/> 
<circle cx="135.6600" cy="163.0000" r="0.9000"/> 
<circle cx="138.2000" cy="163.0000" r="0.9000"/> 
<circle cx="140.7400" cy="163.0000" r="0.9000"/> 
<circle cx="143.2800" cy="163.0000" r="0.9000"/> 
<circle cx="145.8200" cy="163.0000" r="0.9000"/> 
<circle cx="148.3600" cy="163.0000" r="0.9000"/> 
<circle cx="150.9000" cy="163.0000" r="0.9000"/> 
<circle cx="153.4400" cy="163.0000" r="0.9000"/> 
<circle cx="155.9800" cy="163.0000" r="0.9000"/> 
<circle cx="158.5200" cy="163.0000" r="0.9000"/> 
<circle cx="156.5500" cy="131.2000" r="0.6500"/> 
<circle cx="156.5500" cy="121.2000" r="0.6500"/> 
<circle cx="154.0500" cy="131.2000" r="0.6500"/> 
<circle cx="154.0500" cy="121.2000" r="0.6500"/> 
<circle cx="149.0500" cy="126.2000" r="0.6500"/> 
<path style="fill:#000000; fill-opacity:1.0000; stroke:none;fill-rule:evenodd;" d="M 150.3500,132.1000 150.3462,132.1191 150.3354,132.1354 150.3191,132.1462 150.3000,132.1500 147.8000,132.1500 147.7809,132.1462 147.7646,132.1354 147.7538,132.1191 147.7500,132.1000 147.7500,130.3000 147.7538,130.2809 147.7646,130.2646 147.7809,130.2538 147.8000,130.2500 150.3000,130.2500 150.3191,130.2538 150.3354,130.2646 150.3462,130.2809 150.3500,130.3000 Z"/> 
<path style="fill:#000000; fill-opacity:1.0000; stroke:none;fill-rule:evenodd;" d="M 150.3500,129.6000 150.3462,129.6191 150.3354,129.6354 150.3191,129.6462 150.3000,129.6500 147.8000,129.6500 147.7809,129.6462 147.7646,129.6354 147.7538,129.6191 147.7500,129.6000 147.7500,127.8000 147.7538,127.7809 147.7646,127.7646 147.7809,127.7538 147.8000,127.7500 150.3000,127.7500 150.3191,127.7538 150.3354,127.7646 150.3462,127.7809 150.3500,127.8000 Z"/> 
<path style="fill:#000000; fill-opacity:1.0000; stroke:none;fill-rule:evenodd;" d="M 155.0000,127.4500 154.9962,127.4691 154.9854,127.4854 154.9691,127.4962 154.9500,127.5000 153.1500,127.5000 153.1309,127.4962 153.1146,127.4854 153.1038,127.4691 153.1000,127.4500 153.1000,124.9500 153.1038,124.9309 153.1146,124.9146 153.1309,124.9038 153.1500,124.9000 154.9500,124.9000 154.9691,124.9038 154.9854,124.9146 154.9962,124.9309 155.0000,124.9500 Z"/> 
<path style="fill:#000000; fill-opacity:1.0000; stroke:none;fill-rule:evenodd;" d="M 150.3500,122.1000 150.3462,122.1191 150.3354,122.1354 150.3191,122.1462 150.3000,122.1500 147.8000,122.1500 147.7809,122.1462 147.7646,122.1354 147.7538,122.1191 147.7500,122.1000 147.7500,120.3000 147.7538,120.2809 147.7646,120.2646 147.7809,120.2538 147.8000,120.2500 150.3000,120.2500 150.3191,120.2538 150.3354,120.2646 150.3462,120.2809 150.3500,120.3000 Z"/> 
<path style="fill:#000000; fill-opacity:1.0000; stroke:none;fill-rule:evenodd;" d="M 150.3500,124.6000 150.3462,124.6191 150.3354,124.6354 150.3191,124.6462 150.3000,124.6500 147.8000,124.6500 147.7809,124.6462 147.7646,124.6354 147.7538,124.6191 147.7500,124.6000 147.7500,122.8000 147.7538,122.7809 147.7646,122.7646 147.7809,122.7538 147.8000,122.7500 150.3000,122.7500 150.3191,122.7538 150.3354,122.7646 150.3462,122.7809 150.3500,122.8000 Z"/> 
<circle cx="114.2600" cy="118.4000" r="0.7700"/> 
<circle cx="116.8000" cy="115.8600" r="0.7700"/> 
<circle cx="119.3400" cy="118.4000" r="0.7700"/> 
<path style="fill:#000000; fill-opacity:1.0000; stroke:none;fill-rule:evenodd;" d="M 139.6774,132.1500 139.6854,132.0813 139.7299,131.9805 139.8079,131.9025 139.9087,131.8580 139.9774,131.8500 140.6774,131.8500 140.7461,131.8580 140.8469,131.9025 140.9249,131.9805 140.9694,132.0813 140.9774,132.1500 140.9774,132.8500 140.9694,132.9187 140.9249,133.0195 140.8469,133.0975 140.7461,133.1420 140.6774,133.1500 139.9774,133.1500 139.9087,133.1420 139.8079,133.0975 139.7299,133.0195 139.6854,132.9187 139.6774,132.8500 Z"/> 
<circle cx="142.3274" cy="132.5000" r="0.6500"/> 
<path style="fill:#000000; fill-opacity:1.0000; stroke:none;fill-rule:evenodd;" d="M 89.8600,131.9650 89.8520,132.0337 89.8075,132.1345 89.7295,132.2125 89.6287,132.2570 89.5600,132.2650 88.4600,132.2650 88.3913,132.2570 88.2905,132.2125 88.2125,132.1345 88.1680,132.0337 88.1600,131.9650 88.1600,130.8650 88.1680,130.7963 88.2125,130.6955 88.2905,130.6175 88.3913,130.5730 88.4600,130.5650 89.5600,130.5650 89.6287,130.5730 89.7295,130.6175 89.8075,130.6955 89.8520,130.7963 89.8600,130.8650 Z"/> 
<circle cx="89.0100" cy="128.8750" r="0.8500"/> 
<circle cx="89.0100" cy="126.3350" r="0.8500"/> 
<circle cx="89.0100" cy="123.7950" r="0.8500"/> 
<circle cx="89.0100" cy="121.2550" r="0.8500"/> 
<circle cx="89.0100" cy="118.7150" r="0.8500"/> 
<circle cx="89.0100" cy="116.1750" r="0.8500"/> 
<circle cx="81.3900" cy="116.1750" r="0.8500"/> 
<circle cx="81.3900" cy="118.7150" r="0.8500"/> 
<circle cx="81.3900" cy="121.2550" r="0.8500"/> 
<circle cx="81.3900" cy="123.7950" r="0.8500"/> 
<circle cx="81.3900" cy="126.3350" r="0.8500"/> 
<circle cx="81.3900" cy="128.8750" r="0.8500"/> 
<circle cx="81.3900" cy="131.4150" r="0.8500"/> 
<path style="fill:#000000; fill-opacity:1.0000; stroke:none;fill-rule:evenodd;" d="M 135.9400,129.3600 135.8713,129.3520 135.7705,129.3075 135.6925,129.2295 135.6480,129.1287 135.6400,129.0600 135.6400,127.9600 135.6480,127.8913 135.6925,127.7905 135.7705,127.7125 135.8713,127.6680 135.9400,127.6600 137.0400,127.6600 137.1087,127.6680 137.2095,127.7125 137.2875,127.7905 137.3320,127.8913 137.3400,127.9600 137.3400,129.0600 137.3320,129.1287 137.2875,129.2295 137.2095,129.3075 137.1087,129.3520 137.0400,129.3600 Z"/> 
<circle cx="139.0300" cy="128.5100" r="0.8500"/> 
<circle cx="141.5700" cy="128.5100" r="0.8500"/> 
<circle cx="144.1100" cy="128.5100" r="0.8500"/> 
<circle cx="144.1100" cy="120.8900" r="0.8500"/> 
<circle cx="141.5700" cy="120.8900" r="0.8500"/> 
<circle cx="139.0300" cy="120.8900" r="0.8500"/> 
<circle cx="136.4900" cy="120.8900" r="0.8500"/> 
<circle cx="116.8600" cy="131.3500" r="0.8500"/> 
<circle cx="109.2400" cy="131.3500" r="0.8500"/> 
<circle cx="145.3000" cy="134.2000" r="0.8500"/> 
<circle cx="152.9200" cy="134.2000" r="0.8500"/> 
<circle cx="126.6500" cy="125.1500" r="0.8500"/> 
<circle cx="119.0300" cy="125.1500" r="0.8500"/> 
<circle cx="137.0000" cy="132.2000" r="0.8500"/> 
<circle cx="129.3800" cy="132.2000" r="0.8500"/> 
<path style="fill:#000000; fill-opacity:1.0000; stroke:none;fill-rule:evenodd;" d="M 139.6774,136.8500 139.6854,136.7813 139.7299,136.6805 139.8079,136.6025 139.9087,136.5580 139.9774,136.5500 140.6774,136.5500 140.7461,136.5580 140.8469,136.6025 140.9249,136.6805 140.9694,136.7813 140.9774,136.8500 140.9774,137.5500 140.9694,137.6187 140.9249,137.7195 140.8469,137.7975 140.7461,137.8420 140.6774,137.8500 139.9774,137.8500 139.9087,137.8420 139.8079,137.7975 139.7299,137.7195 139.6854,137.6187 139.6774,137.5500 Z"/> 
<circle cx="142.3274" cy="137.2000" r="0.6500"/> 
<circle cx="75.7500" cy="130.5000" r="0.8500"/> 
<circle cx="78.2500" cy="130.5000" r="0.8500"/> 
<circle cx="150.4900" cy="117.5500" r="0.8500"/> 
<circle cx="158.1100" cy="117.5500" r="0.8500"/> 
<circle cx="126.6600" cy="131.3500" r="0.8500"/> 
<circle cx="119.0400" cy="131.3500" r="0.8500"/> 
<circle cx="89.3000" cy="134.8000" r="0.8500"/> 
<circle cx="86.8000" cy="134.8000" r="0.8500"/> 
<circle cx="131.1000" cy="122.6000" r="0.6500"/> 
<circle cx="133.1000" cy="122.6000" r="0.6500"/> 
<circle cx="78.0000" cy="134.5000" r="0.8500"/> 
<circle cx="70.3800" cy="134.5000" r="0.8500"/> 
<circle cx="126.6500" cy="122.0500" r="0.8500"/> 
<circle cx="119.0300" cy="122.0500" r="0.8500"/> 
<path style="fill:#000000; fill-opacity:1.0000; stroke:none;fill-rule:evenodd;" d="M 155.2000,136.1100 155.2038,136.0909 155.2146,136.0746 155.2309,136.0638 155.2500,136.0600 156.9500,136.0600 156.9691,136.0638 156.9854,136.0746 156.9962,136.0909 157.0000,136.1100 157.0000,137.8100 156.9962,137.8291 156.9854,137.8454 156.9691,137.8562 156.9500,137.8600 155.2500,137.8600 155.2309,137.8562 155.2146,137.8454 155.2038,137.8291 155.2000,137.8100 Z"/> 
<circle cx="158.6400" cy="136.9600" r="0.9000"/> 
<circle cx="156.1000" cy="139.5000" r="0.9000"/> 
<circle cx="158.6400" cy="139.5000" r="0.9000"/> 
<circle cx="156.1000" cy="142.0400" r="0.9000"/> 
<circle cx="158.6400" cy="142.0400" r="0.9000"/> 
<circle cx="156.1000" cy="144.5800" r="0.9000"/> 
<circle cx="158.6400" cy="144.5800" r="0.9000"/> 
<circle cx="156.1000" cy="147.1200" r="0.9000"/> 
<circle cx="158.6400" cy="147.1200" r="0.9000"/> 
<circle cx="156.1000" cy="149.6600" r="0.9000"/> 
<circle cx="158.6400" cy="149.6600" r="0.9000"/> 
<circle cx="156.1000" cy="152.2000" r="0.9000"/> 
<circle cx="158.6400" cy="152.2000" r="0.9000"/> 
<circle cx="156.1000" cy="154.7400" r="0.9000"/> 
<circle cx="158.6400" cy="154.7400" r="0.9000"/> 
<circle cx="156.1000" cy="157.2800" r="0.9000"/> 
<circle cx="158.6400" cy="157.2800" r="0.9000"/> 
<path style="fill:#000000; fill-opacity:1.0000; stroke:none;fill-rule:evenodd;" d="M 100.8600,131.9650 100.8520,132.0337 100.8075,132.1345 100.7295,132.2125 100.6287,132.2570 100.5600,132.2650 99.4600,132.2650 99.3913,132.2570 99.2905,132.2125 99.2125,132.1345 99.1680,132.0337 99.1600,131.9650 99.1600,130.8650 99.1680,130.7963 99.2125,130.6955 99.2905,130.6175 99.3913,130.5730 99.4600,130.5650 100.5600,130.5650 100.6287,130.5730 100.7295,130.6175 100.8075,130.6955 100.8520,130.7963 100.8600,130.8650 Z"/> 
<circle cx="100.0100" cy="128.8750" r="0.8500"/> 
<circle cx="100.0100" cy="126.3350" r="0.8500"/> 
<circle cx="100.0100" cy="123.7950" r="0.8500"/> 
<circle cx="100.0100" cy="121.2550" r="0.8500"/> 
<circle cx="100.0100" cy="118.7150" r="0.8500"/> 
<circle cx="100.0100" cy="116.1750" r="0.8500"/> 
<circle cx="92.3900" cy="116.1750" r="0.8500"/> 
<circle cx="92.3900" cy="118.7150" r="0.8500"/> 
<circle cx="92.3900" cy="121.2550" r="0.8500"/> 
<circle cx="92.3900" cy="123.7950" r="0.8500"/> 
<circle cx="92.3900" cy="126.3350" r="0.8500"/> 
<circle cx="92.3900" cy="128.8750" r="0.8500"/> 
<circle cx="92.3900" cy="131.4150" r="0.8500"/> 
<circle cx="81.0000" cy="134.8000" r="0.8500"/> 
<circle cx="83.5000" cy="134.8000" r="0.8500"/> 
<path style="fill:#000000; fill-opacity:1.0000; stroke:none;fill-rule:evenodd;" d="M 78.7900,119.5000 78.8091,119.5038 78.8254,119.5146 78.8362,119.5309 78.8400,119.5500 78.8400,121.2500 78.8362,121.2691 78.8254,121.2854 78.8091,121.2962 78.7900,121.3000 77.0900,121.3000 77.0709,121.2962 77.0546,121.2854 77.0438,121.2691 77.0400,121.2500 77.0400,119.5500 77.0438,119.5309 77.0546,119.5146 77.0709,119.5038 77.0900,119.5000 Z"/> 
<circle cx="75.4000" cy="120.4000" r="0.9000"/> 
<circle cx="72.8600" cy="120.4000" r="0.9000"/> 
<circle cx="129.5000" cy="127.9000" r="0.6500"/> 
<circle cx="131.5000" cy="127.9000" r="0.6500"/> 
<circle cx="116.8700" cy="137.5500" r="0.8500"/> 
<circle cx="109.2500" cy="137.5500" r="0.8500"/> 
<circle cx="116.8600" cy="134.4500" r="0.8500"/> 
<circle cx="109.2400" cy="134.4500" r="0.8500"/> 
<path style="fill:#000000; fill-opacity:1.0000; stroke:none;fill-rule:evenodd;" d="M 102.7000,120.8300 102.7038,120.8109 102.7146,120.7946 102.7309,120.7838 102.7500,120.7800 104.4500,120.7800 104.4691,120.7838 104.4854,120.7946 104.4962,120.8109 104.5000,120.8300 104.5000,122.5300 104.4962,122.5491 104.4854,122.5654 104.4691,122.5762 104.4500,122.5800 102.7500,122.5800 102.7309,122.5762 102.7146,122.5654 102.7038,122.5491 102.7000,122.5300 Z"/> 
<circle cx="106.1400" cy="121.6800" r="0.9000"/> 
<circle cx="103.6000" cy="124.2200" r="0.9000"/> 
<circle cx="106.1400" cy="124.2200" r="0.9000"/> 
<circle cx="103.6000" cy="126.7600" r="0.9000"/> 
<circle cx="106.1400" cy="126.7600" r="0.9000"/> 
<circle cx="103.6000" cy="129.3000" r="0.9000"/> 
<circle cx="106.1400" cy="129.3000" r="0.9000"/> 
<circle cx="103.6000" cy="131.8400" r="0.9000"/> 
<circle cx="106.1400" cy="131.8400" r="0.9000"/> 
<circle cx="103.6000" cy="134.3800" r="0.9000"/> 
<circle cx="106.1400" cy="134.3800" r="0.9000"/> 
<circle cx="103.6000" cy="136.9200" r="0.9000"/> 
<circle cx="106.1400" cy="136.9200" r="0.9000"/> 
<circle cx="143.7100" cy="117.5500" r="0.8500"/> 
<circle cx="136.0900" cy="117.5500" r="0.8500"/> 
<circle cx="124.3000" cy="118.4000" r="0.7700"/> 
<circle cx="126.8400" cy="115.8600" r="0.7700"/> 
<circle cx="129.3800" cy="118.4000" r="0.7700"/> 
<path style="fill:#000000; fill-opacity:1.0000; stroke:none;fill-rule:evenodd;" d="M 145.4274,116.9500 145.4354,116.8813 145.4799,116.7805 145.5579,116.7025 145.6587,116.6580 145.7274,116.6500 146.4274,116.6500 146.4961,116.6580 146.5969,116.7025 146.6749,116.7805 146.7194,116.8813 146.7274,116.9500 146.7274,117.6500 146.7194,117.7187 146.6749,117.8195 146.5969,117.8975 146.4961,117.9420 146.4274,117.9500 145.7274,117.9500 145.6587,117.9420 145.5579,117.8975 145.4799,117.8195 145.4354,117.7187 145.4274,117.6500 Z"/> 
<circle cx="148.0774" cy="117.3000" r="0.6500"/> 
<circle cx="116.8600" cy="122.0500" r="0.8500"/> 
<circle cx="109.2400" cy="122.0500" r="0.8500"/> 
<circle cx="137.0100" cy="138.2000" r="0.8500"/> 
<circle cx="129.3900" cy="138.2000" r="0.8500"/> 
<circle cx="126.6700" cy="137.5500" r="0.8500"/> 
<circle cx="119.0500" cy="137.5500" r="0.8500"/> 
<circle cx="126.6600" cy="134.4500" r="0.8500"/> 
<circle cx="119.0400" cy="134.4500" r="0.8500"/> 
<circle cx="126.6600" cy="128.2500" r="0.8500"/> 
<circle cx="119.0400" cy="128.2500" r="0.8500"/> 
<circle cx="116.8600" cy="125.1500" r="0.8500"/> 
<circle cx="109.2400" cy="125.1500" r="0.8500"/> 
<circle cx="75.7400" cy="125.4000" r="0.8000"/> 
<circle cx="70.8600" cy="125.4000" r="0.8000"/> 
<circle cx="116.8600" cy="128.2500" r="0.8500"/> 
<circle cx="109.2400" cy="128.2500" r="0.8500"/> 
<circle cx="70.2500" cy="130.5000" r="0.8500"/> 
<circle cx="72.7500" cy="130.5000" r="0.8500"/> 
<circle cx="133.4500" cy="115.7000" r="0.8500"/> 
<circle cx="133.4500" cy="118.2000" r="0.8500"/> 
<circle cx="137.0100" cy="135.2000" r="0.8500"/> 
<circle cx="129.3900" cy="135.2000" r="0.8500"/> 
<circle cx="104.2200" cy="118.4000" r="0.7700"/> 
<circle cx="106.7600" cy="115.8600" r="0.7700"/> 
<circle cx="109.3000" cy="118.4000" r="0.7700"/> 
<path style="fill:#000000; fill-opacity:1.0000; stroke:none;fill-rule:evenodd;" d="M 160.4421,158.8200 160.4886,158.8737 160.5000,158.9260 160.5000,161.2740 160.4800,161.3421 160.4263,161.3886 160.3740,161.4000 154.2260,161.4000 154.1579,161.3800 154.1114,161.3263 154.1000,161.2740 154.1000,158.9260 154.1200,158.8579 154.1737,158.8114 154.2260,158.8000 160.3740,158.8000 Z"/> 
</g> 
</mask></defs><g transform="scale(-1,1) translate(-297.0022,0)" id="boardContainer"><g id="substrate" clip-path="url(#cut-off)" mask="url(#pads-mask-silkscreen)"><g id="substrate-board" style="fill:#143324; fill-opacity:0.25098039215686274; stroke:#143324; stroke-width:0;"><path d=" M 60.5 164.5 L 160.5 164.5 L 160.5 129.8159 A 1.016 1.016 0 0 1 159.484 128.7999 L 159.484 123.6093 A 1.016 1.016 0 0 1 160.5 122.6024 L 160.5 120.0 A 5.5 5.5 0 0 0 155.0 114.5 L 75.5 114.5 L 60.5 129.5 L 60.5 164.5 " style="fill-rule: evenodd;"/><g style="fill: none;stroke: #4ca06c;stroke-width: 0.1500;stroke-opacity: 1;stroke-linecap: round;stroke-linejoin: round">
<path d="M60.5000 129.5000 L60.5000 164.5000 "/>
<path d="M60.5000 129.5000 L75.5000 114.5000 "/>
<path d="M60.5000 164.5000 L160.5000 164.5000 "/>
<path d="M155.0000 114.5000 L75.5000 114.5000 "/>
<path d="M160.5000 120.0000 A5.5000 5.5000 0.0 0 0 155.0000 114.5000"/>
<path d="M159.4840 123.6093 L159.4840 128.7907 "/>
<path d="M160.5000 122.6024 A1.0160 1.0160 0.0 0 0 159.4840 123.6184"/>
<path d="M160.5000 122.6024 L160.5000 120.0000 "/>
<path d="M159.4840 128.7999 A1.0160 1.0160 0.0 0 0 160.5000 129.8159"/>
<path d="M160.5000 164.5000 L160.5000 129.8159 "/>
</g> 
</g></g></g></svg>
