<?xml version="1.0" standalone="no"?>
 <!DOCTYPE svg PUBLIC "-//W3C//DTD SVG 1.1//EN" 
 "http://www.w3.org/Graphics/SVG/1.1/DTD/svg11.dtd"> 
<svg
  xmlns:svg="http://www.w3.org/2000/svg"
  xmlns="http://www.w3.org/2000/svg"
  xmlns:xlink="http://www.w3.org/1999/xlink"
  xmlns:inkscape="http://www.inkscape.org/namespaces/inkscape"
  version="1.1"
  width="297.0022mm" height="210.0072mm" viewBox="0.0000 0.0000 297.0022 210.0072">
<title>SVG Image created as rc2014-ym2149-B_Cu0.svg date 2026-07-20T21:42:18 </title>
  <desc>Image generated by PCBNEW </desc>
<g style="fill:#000000; fill-opacity:1.0000;stroke:#000000; stroke-opacity:1.0000;
stroke-linecap:round; stroke-linejoin:round;"
 transform="translate(0 0) scale(1 1)">
</g>
<g style="fill:none; 
stroke:#000000; stroke-width:0.2000; stroke-opacity:1; 
stroke-linecap:round; stroke-linejoin:round;">
<text x="137.7972" y="160.5750"
transform="scale(-1 1) translate(-275.594400 0)"
textLength="1.3524" font-size="1.3333" lengthAdjust="spacingAndGlyphs"
text-anchor="middle" opacity="0" stroke-opacity="0">4</text>
<g class="stroked-text"><desc>4</desc>
<path d="M137.6067 159.8606
L137.6067 160.5272
" />
<path d="M137.8448 159.4796
L138.0829 160.1939
" />
<path d="M138.0829 160.1939
L137.4639 160.1939
" />
</g></g>
<g style="fill:#000000; fill-opacity:1.0000; stroke:none;">
<circle cx="206.4522" cy="159.4000" r="0.8000" /> 
<circle cx="208.9522" cy="159.4000" r="0.8000" /> 
<circle cx="214.9522" cy="159.4000" r="0.8000" /> 
<circle cx="212.4522" cy="159.4000" r="0.8000" /> 
<circle cx="229.5322" cy="159.6000" r="0.8000" /> 
<circle cx="227.0322" cy="159.6000" r="0.8000" /> 
<circle cx="193.1022" cy="159.6500" r="0.8000" /> 
<circle cx="190.6022" cy="159.6500" r="0.8000" /> 
<path style="fill:#000000; fill-opacity:1.0000; stroke:none;fill-rule:evenodd;"
d="M 202.0922,139.5500
203.7922,139.5500
203.7922,137.8500
202.0922,137.8500
Z" /> 
<circle cx="200.4022" cy="138.7000" r="0.8500" /> 
<circle cx="197.8622" cy="138.7000" r="0.8500" /> 
<path style="fill:#000000; fill-opacity:1.0000; stroke:none;fill-rule:evenodd;"
d="M 218.8522,150.1700
218.8522,148.4700
217.1522,148.4700
217.1522,150.1700
Z" /> 
<circle cx="218.0022" cy="151.8600" r="0.8500" /> 
<circle cx="218.0022" cy="154.4000" r="0.8500" /> 
<path style="fill:#000000; fill-opacity:1.0000; stroke:none;fill-rule:evenodd;"
d="M 218.8522,139.9500
218.8522,138.2500
217.1522,138.2500
217.1522,139.9500
Z" /> 
<circle cx="218.0022" cy="141.6400" r="0.8500" /> 
<circle cx="218.0022" cy="144.1800" r="0.8500" /> 
<path style="fill:#000000; fill-opacity:1.0000; stroke:none;fill-rule:evenodd;"
d="M 202.0522,135.8500
203.7522,135.8500
203.7522,134.1500
202.0522,134.1500
Z" /> 
<circle cx="200.3622" cy="135.0000" r="0.8500" /> 
<circle cx="197.8222" cy="135.0000" r="0.8500" /> 
<path style="fill:#000000; fill-opacity:1.0000; stroke:none;fill-rule:evenodd;"
d="M 220.7422,156.9500
220.7612,157.0457
220.8154,157.1268
220.8965,157.1810
220.9922,157.2000
222.0922,157.2000
222.1879,157.1810
222.2690,157.1268
222.3232,157.0457
222.3422,156.9500
222.3422,155.8500
222.3232,155.7543
222.2690,155.6732
222.1879,155.6190
222.0922,155.6000
220.9922,155.6000
220.8965,155.6190
220.8154,155.6732
220.7612,155.7543
220.7422,155.8500
Z" /> 
<circle cx="221.5422" cy="153.8600" r="0.8000" /> 
<circle cx="221.5422" cy="151.3200" r="0.8000" /> 
<circle cx="221.5422" cy="148.7800" r="0.8000" /> 
<circle cx="221.5422" cy="146.2400" r="0.8000" /> 
<circle cx="221.5422" cy="143.7000" r="0.8000" /> 
<circle cx="221.5422" cy="141.1600" r="0.8000" /> 
<circle cx="221.5422" cy="138.6200" r="0.8000" /> 
<circle cx="229.1622" cy="138.6200" r="0.8000" /> 
<circle cx="229.1622" cy="141.1600" r="0.8000" /> 
<circle cx="229.1622" cy="143.7000" r="0.8000" /> 
<circle cx="229.1622" cy="146.2400" r="0.8000" /> 
<circle cx="229.1622" cy="148.7800" r="0.8000" /> 
<circle cx="229.1622" cy="151.3200" r="0.8000" /> 
<circle cx="229.1622" cy="153.8600" r="0.8000" /> 
<circle cx="229.1622" cy="156.4000" r="0.8000" /> 
<path style="fill:#000000; fill-opacity:1.0000; stroke:none;fill-rule:evenodd;"
d="M 206.0922,156.6400
206.1112,156.7357
206.1654,156.8168
206.2465,156.8710
206.3422,156.8900
207.4422,156.8900
207.5379,156.8710
207.6190,156.8168
207.6732,156.7357
207.6922,156.6400
207.6922,155.5400
207.6732,155.4443
207.6190,155.3632
207.5379,155.3090
207.4422,155.2900
206.3422,155.2900
206.2465,155.3090
206.1654,155.3632
206.1112,155.4443
206.0922,155.5400
Z" /> 
<circle cx="206.8922" cy="153.5500" r="0.8000" /> 
<circle cx="206.8922" cy="151.0100" r="0.8000" /> 
<circle cx="206.8922" cy="148.4700" r="0.8000" /> 
<circle cx="206.8922" cy="145.9300" r="0.8000" /> 
<circle cx="206.8922" cy="143.3900" r="0.8000" /> 
<circle cx="206.8922" cy="140.8500" r="0.8000" /> 
<circle cx="206.8922" cy="138.3100" r="0.8000" /> 
<circle cx="214.5122" cy="138.3100" r="0.8000" /> 
<circle cx="214.5122" cy="140.8500" r="0.8000" /> 
<circle cx="214.5122" cy="143.3900" r="0.8000" /> 
<circle cx="214.5122" cy="145.9300" r="0.8000" /> 
<circle cx="214.5122" cy="148.4700" r="0.8000" /> 
<circle cx="214.5122" cy="151.0100" r="0.8000" /> 
<circle cx="214.5122" cy="153.5500" r="0.8000" /> 
<circle cx="214.5122" cy="156.0900" r="0.8000" /> 
<path style="fill:#000000; fill-opacity:1.0000; stroke:none;fill-rule:evenodd;"
d="M 195.1922,158.0150
195.2112,158.1107
195.2654,158.1918
195.3465,158.2460
195.4422,158.2650
196.5422,158.2650
196.6379,158.2460
196.7190,158.1918
196.7732,158.1107
196.7922,158.0150
196.7922,156.9150
196.7732,156.8193
196.7190,156.7382
196.6379,156.6840
196.5422,156.6650
195.4422,156.6650
195.3465,156.6840
195.2654,156.7382
195.2112,156.8193
195.1922,156.9150
Z" /> 
<circle cx="195.9922" cy="154.9250" r="0.8000" /> 
<circle cx="195.9922" cy="152.3850" r="0.8000" /> 
<circle cx="195.9922" cy="149.8450" r="0.8000" /> 
<circle cx="195.9922" cy="147.3050" r="0.8000" /> 
<circle cx="195.9922" cy="144.7650" r="0.8000" /> 
<circle cx="195.9922" cy="142.2250" r="0.8000" /> 
<circle cx="203.6122" cy="142.2250" r="0.8000" /> 
<circle cx="203.6122" cy="144.7650" r="0.8000" /> 
<circle cx="203.6122" cy="147.3050" r="0.8000" /> 
<circle cx="203.6122" cy="149.8450" r="0.8000" /> 
<circle cx="203.6122" cy="152.3850" r="0.8000" /> 
<circle cx="203.6122" cy="154.9250" r="0.8000" /> 
<circle cx="203.6122" cy="157.4650" r="0.8000" /> 
<path style="fill:#000000; fill-opacity:1.0000; stroke:none;fill-rule:evenodd;"
d="M 193.1422,157.3500
193.2379,157.3310
193.3190,157.2768
193.3732,157.1957
193.3922,157.1000
193.3922,156.0000
193.3732,155.9043
193.3190,155.8232
193.2379,155.7690
193.1422,155.7500
192.0422,155.7500
191.9465,155.7690
191.8654,155.8232
191.8112,155.9043
191.7922,156.0000
191.7922,157.1000
191.8112,157.1957
191.8654,157.2768
191.9465,157.3310
192.0422,157.3500
Z" /> 
<circle cx="190.0522" cy="156.5500" r="0.8000" /> 
<circle cx="187.5122" cy="156.5500" r="0.8000" /> 
<circle cx="184.9722" cy="156.5500" r="0.8000" /> 
<circle cx="182.4322" cy="156.5500" r="0.8000" /> 
<circle cx="179.8922" cy="156.5500" r="0.8000" /> 
<circle cx="177.3522" cy="156.5500" r="0.8000" /> 
<circle cx="174.8122" cy="156.5500" r="0.8000" /> 
<circle cx="172.2722" cy="156.5500" r="0.8000" /> 
<circle cx="169.7322" cy="156.5500" r="0.8000" /> 
<circle cx="167.1922" cy="156.5500" r="0.8000" /> 
<circle cx="164.6522" cy="156.5500" r="0.8000" /> 
<circle cx="162.1122" cy="156.5500" r="0.8000" /> 
<circle cx="159.5722" cy="156.5500" r="0.8000" /> 
<circle cx="157.0322" cy="156.5500" r="0.8000" /> 
<circle cx="154.4922" cy="156.5500" r="0.8000" /> 
<circle cx="151.9522" cy="156.5500" r="0.8000" /> 
<circle cx="149.4122" cy="156.5500" r="0.8000" /> 
<circle cx="146.8722" cy="156.5500" r="0.8000" /> 
<circle cx="144.3322" cy="156.5500" r="0.8000" /> 
<circle cx="144.3322" cy="141.3100" r="0.8000" /> 
<circle cx="146.8722" cy="141.3100" r="0.8000" /> 
<circle cx="149.4122" cy="141.3100" r="0.8000" /> 
<circle cx="151.9522" cy="141.3100" r="0.8000" /> 
<circle cx="154.4922" cy="141.3100" r="0.8000" /> 
<circle cx="157.0322" cy="141.3100" r="0.8000" /> 
<circle cx="159.5722" cy="141.3100" r="0.8000" /> 
<circle cx="162.1122" cy="141.3100" r="0.8000" /> 
<circle cx="164.6522" cy="141.3100" r="0.8000" /> 
<circle cx="167.1922" cy="141.3100" r="0.8000" /> 
<circle cx="169.7322" cy="141.3100" r="0.8000" /> 
<circle cx="172.2722" cy="141.3100" r="0.8000" /> 
<circle cx="174.8122" cy="141.3100" r="0.8000" /> 
<circle cx="177.3522" cy="141.3100" r="0.8000" /> 
<circle cx="179.8922" cy="141.3100" r="0.8000" /> 
<circle cx="182.4322" cy="141.3100" r="0.8000" /> 
<circle cx="184.9722" cy="141.3100" r="0.8000" /> 
<circle cx="187.5122" cy="141.3100" r="0.8000" /> 
<circle cx="190.0522" cy="141.3100" r="0.8000" /> 
<circle cx="192.5922" cy="141.3100" r="0.8000" /> 
<path style="fill:#000000; fill-opacity:1.0000; stroke:none;fill-rule:evenodd;"
d="M 231.6222,156.5300
231.6222,158.2300
233.3222,158.2300
233.3222,156.5300
Z" /> 
<circle cx="235.0122" cy="157.3800" r="0.8500" /> 
<circle cx="232.4722" cy="154.8400" r="0.8500" /> 
<circle cx="235.0122" cy="154.8400" r="0.8500" /> 
<circle cx="232.4722" cy="152.3000" r="0.8500" /> 
<circle cx="235.0122" cy="152.3000" r="0.8500" /> 
<circle cx="232.4722" cy="149.7600" r="0.8500" /> 
<circle cx="235.0122" cy="149.7600" r="0.8500" /> 
<circle cx="232.4722" cy="147.2200" r="0.8500" /> 
<circle cx="235.0122" cy="147.2200" r="0.8500" /> 
<circle cx="232.4722" cy="144.6800" r="0.8500" /> 
<circle cx="235.0122" cy="144.6800" r="0.8500" /> 
<circle cx="232.4722" cy="142.1400" r="0.8500" /> 
<circle cx="235.0122" cy="142.1400" r="0.8500" /> 
<circle cx="232.4722" cy="139.6000" r="0.8500" /> 
<circle cx="235.0122" cy="139.6000" r="0.8500" /> 
<circle cx="232.4722" cy="137.0600" r="0.8500" /> 
<circle cx="235.0122" cy="137.0600" r="0.8500" /> 
<path style="fill:#000000; fill-opacity:1.0000; stroke:none;fill-rule:evenodd;"
d="M 147.7272,136.8500
146.0272,136.8500
146.0272,138.5500
147.7272,138.5500
Z" /> 
<circle cx="149.4172" cy="137.7000" r="0.8500" /> 
<circle cx="231.4702" cy="131.3820" r="1.6000" /> 
<path style="fill:#000000; fill-opacity:1.0000; stroke:none;fill-rule:evenodd;"
d="M 234.1522,163.8500
235.8522,163.8500
235.8522,162.1500
234.1522,162.1500
Z" /> 
<circle cx="232.4622" cy="163.0000" r="0.8500" /> 
<circle cx="229.9222" cy="163.0000" r="0.8500" /> 
<circle cx="227.3822" cy="163.0000" r="0.8500" /> 
<circle cx="224.8422" cy="163.0000" r="0.8500" /> 
<circle cx="222.3022" cy="163.0000" r="0.8500" /> 
<circle cx="219.7622" cy="163.0000" r="0.8500" /> 
<circle cx="217.2222" cy="163.0000" r="0.8500" /> 
<circle cx="214.6822" cy="163.0000" r="0.8500" /> 
<circle cx="212.1422" cy="163.0000" r="0.8500" /> 
<circle cx="209.6022" cy="163.0000" r="0.8500" /> 
<circle cx="207.0622" cy="163.0000" r="0.8500" /> 
<circle cx="204.5222" cy="163.0000" r="0.8500" /> 
<circle cx="201.9822" cy="163.0000" r="0.8500" /> 
<circle cx="199.4422" cy="163.0000" r="0.8500" /> 
<circle cx="196.9022" cy="163.0000" r="0.8500" /> 
<circle cx="194.3622" cy="163.0000" r="0.8500" /> 
<circle cx="191.8222" cy="163.0000" r="0.8500" /> 
<circle cx="189.2822" cy="163.0000" r="0.8500" /> 
<circle cx="186.7422" cy="163.0000" r="0.8500" /> 
<circle cx="184.2022" cy="163.0000" r="0.8500" /> 
<circle cx="181.6622" cy="163.0000" r="0.8500" /> 
<circle cx="179.1222" cy="163.0000" r="0.8500" /> 
<circle cx="176.5822" cy="163.0000" r="0.8500" /> 
<circle cx="174.0422" cy="163.0000" r="0.8500" /> 
<circle cx="171.5022" cy="163.0000" r="0.8500" /> 
<circle cx="168.9622" cy="163.0000" r="0.8500" /> 
<circle cx="166.4222" cy="163.0000" r="0.8500" /> 
<circle cx="163.8822" cy="163.0000" r="0.8500" /> 
<circle cx="161.3422" cy="163.0000" r="0.8500" /> 
<circle cx="158.8022" cy="163.0000" r="0.8500" /> 
<circle cx="156.2622" cy="163.0000" r="0.8500" /> 
<circle cx="153.7222" cy="163.0000" r="0.8500" /> 
<circle cx="151.1822" cy="163.0000" r="0.8500" /> 
<circle cx="148.6422" cy="163.0000" r="0.8500" /> 
<circle cx="146.1022" cy="163.0000" r="0.8500" /> 
<circle cx="143.5622" cy="163.0000" r="0.8500" /> 
<circle cx="141.0222" cy="163.0000" r="0.8500" /> 
<circle cx="138.4822" cy="163.0000" r="0.8500" /> 
<circle cx="140.4522" cy="131.2000" r="0.6000" /> 
<circle cx="140.4522" cy="121.2000" r="0.6000" /> 
<circle cx="142.9522" cy="131.2000" r="0.6000" /> 
<circle cx="142.9522" cy="121.2000" r="0.6000" /> 
<circle cx="147.9522" cy="126.2000" r="0.6000" /> 
<path style="fill:#000000; fill-opacity:1.0000; stroke:none;fill-rule:evenodd;"
d="M 146.7022,130.3000
146.7022,132.1000
149.2022,132.1000
149.2022,130.3000
Z" /> 
<path style="fill:#000000; fill-opacity:1.0000; stroke:none;fill-rule:evenodd;"
d="M 146.7022,127.8000
146.7022,129.6000
149.2022,129.6000
149.2022,127.8000
Z" /> 
<path style="fill:#000000; fill-opacity:1.0000; stroke:none;fill-rule:evenodd;"
d="M 142.0522,124.9500
142.0522,127.4500
143.8522,127.4500
143.8522,124.9500
Z" /> 
<path style="fill:#000000; fill-opacity:1.0000; stroke:none;fill-rule:evenodd;"
d="M 146.7022,120.3000
146.7022,122.1000
149.2022,122.1000
149.2022,120.3000
Z" /> 
<path style="fill:#000000; fill-opacity:1.0000; stroke:none;fill-rule:evenodd;"
d="M 146.7022,122.8000
146.7022,124.6000
149.2022,124.6000
149.2022,122.8000
Z" /> 
<circle cx="182.7422" cy="118.4000" r="0.7200" /> 
<circle cx="180.2022" cy="115.8600" r="0.7200" /> 
<circle cx="177.6622" cy="118.4000" r="0.7200" /> 
<path style="fill:#000000; fill-opacity:1.0000; stroke:none;fill-rule:evenodd;"
d="M 157.2748,132.1500
157.2558,132.0543
157.2016,131.9732
157.1205,131.9190
157.0248,131.9000
156.3248,131.9000
156.2291,131.9190
156.1480,131.9732
156.0938,132.0543
156.0748,132.1500
156.0748,132.8500
156.0938,132.9457
156.1480,133.0268
156.2291,133.0810
156.3248,133.1000
157.0248,133.1000
157.1205,133.0810
157.2016,133.0268
157.2558,132.9457
157.2748,132.8500
Z" /> 
<circle cx="154.6748" cy="132.5000" r="0.6000" /> 
<path style="fill:#000000; fill-opacity:1.0000; stroke:none;fill-rule:evenodd;"
d="M 207.1922,131.9650
207.2112,132.0607
207.2654,132.1418
207.3465,132.1960
207.4422,132.2150
208.5422,132.2150
208.6379,132.1960
208.7190,132.1418
208.7732,132.0607
208.7922,131.9650
208.7922,130.8650
208.7732,130.7693
208.7190,130.6882
208.6379,130.6340
208.5422,130.6150
207.4422,130.6150
207.3465,130.6340
207.2654,130.6882
207.2112,130.7693
207.1922,130.8650
Z" /> 
<circle cx="207.9922" cy="128.8750" r="0.8000" /> 
<circle cx="207.9922" cy="126.3350" r="0.8000" /> 
<circle cx="207.9922" cy="123.7950" r="0.8000" /> 
<circle cx="207.9922" cy="121.2550" r="0.8000" /> 
<circle cx="207.9922" cy="118.7150" r="0.8000" /> 
<circle cx="207.9922" cy="116.1750" r="0.8000" /> 
<circle cx="215.6122" cy="116.1750" r="0.8000" /> 
<circle cx="215.6122" cy="118.7150" r="0.8000" /> 
<circle cx="215.6122" cy="121.2550" r="0.8000" /> 
<circle cx="215.6122" cy="123.7950" r="0.8000" /> 
<circle cx="215.6122" cy="126.3350" r="0.8000" /> 
<circle cx="215.6122" cy="128.8750" r="0.8000" /> 
<circle cx="215.6122" cy="131.4150" r="0.8000" /> 
<path style="fill:#000000; fill-opacity:1.0000; stroke:none;fill-rule:evenodd;"
d="M 161.0622,129.3100
161.1579,129.2910
161.2390,129.2368
161.2932,129.1557
161.3122,129.0600
161.3122,127.9600
161.2932,127.8643
161.2390,127.7832
161.1579,127.7290
161.0622,127.7100
159.9622,127.7100
159.8665,127.7290
159.7854,127.7832
159.7312,127.8643
159.7122,127.9600
159.7122,129.0600
159.7312,129.1557
159.7854,129.2368
159.8665,129.2910
159.9622,129.3100
Z" /> 
<circle cx="157.9722" cy="128.5100" r="0.8000" /> 
<circle cx="155.4322" cy="128.5100" r="0.8000" /> 
<circle cx="152.8922" cy="128.5100" r="0.8000" /> 
<circle cx="152.8922" cy="120.8900" r="0.8000" /> 
<circle cx="155.4322" cy="120.8900" r="0.8000" /> 
<circle cx="157.9722" cy="120.8900" r="0.8000" /> 
<circle cx="160.5122" cy="120.8900" r="0.8000" /> 
<circle cx="180.1422" cy="131.3500" r="0.8000" /> 
<circle cx="187.7622" cy="131.3500" r="0.8000" /> 
<circle cx="151.7022" cy="134.2000" r="0.8000" /> 
<circle cx="144.0822" cy="134.2000" r="0.8000" /> 
<circle cx="170.3522" cy="125.1500" r="0.8000" /> 
<circle cx="177.9722" cy="125.1500" r="0.8000" /> 
<circle cx="160.0022" cy="132.2000" r="0.8000" /> 
<circle cx="167.6222" cy="132.2000" r="0.8000" /> 
<path style="fill:#000000; fill-opacity:1.0000; stroke:none;fill-rule:evenodd;"
d="M 157.2748,136.8500
157.2558,136.7543
157.2016,136.6732
157.1205,136.6190
157.0248,136.6000
156.3248,136.6000
156.2291,136.6190
156.1480,136.6732
156.0938,136.7543
156.0748,136.8500
156.0748,137.5500
156.0938,137.6457
156.1480,137.7268
156.2291,137.7810
156.3248,137.8000
157.0248,137.8000
157.1205,137.7810
157.2016,137.7268
157.2558,137.6457
157.2748,137.5500
Z" /> 
<circle cx="154.6748" cy="137.2000" r="0.6000" /> 
<circle cx="221.2522" cy="130.5000" r="0.8000" /> 
<circle cx="218.7522" cy="130.5000" r="0.8000" /> 
<circle cx="146.5122" cy="117.5500" r="0.8000" /> 
<circle cx="138.8922" cy="117.5500" r="0.8000" /> 
<circle cx="170.3422" cy="131.3500" r="0.8000" /> 
<circle cx="177.9622" cy="131.3500" r="0.8000" /> 
<circle cx="207.7022" cy="134.8000" r="0.8000" /> 
<circle cx="210.2022" cy="134.8000" r="0.8000" /> 
<circle cx="165.9022" cy="122.6000" r="0.6000" /> 
<circle cx="163.9022" cy="122.6000" r="0.6000" /> 
<circle cx="219.0022" cy="134.5000" r="0.8000" /> 
<circle cx="226.6222" cy="134.5000" r="0.8000" /> 
<circle cx="170.3522" cy="122.0500" r="0.8000" /> 
<circle cx="177.9722" cy="122.0500" r="0.8000" /> 
<path style="fill:#000000; fill-opacity:1.0000; stroke:none;fill-rule:evenodd;"
d="M 141.7522,137.8100
141.7522,136.1100
140.0522,136.1100
140.0522,137.8100
Z" /> 
<circle cx="138.3622" cy="136.9600" r="0.8500" /> 
<circle cx="140.9022" cy="139.5000" r="0.8500" /> 
<circle cx="138.3622" cy="139.5000" r="0.8500" /> 
<circle cx="140.9022" cy="142.0400" r="0.8500" /> 
<circle cx="138.3622" cy="142.0400" r="0.8500" /> 
<circle cx="140.9022" cy="144.5800" r="0.8500" /> 
<circle cx="138.3622" cy="144.5800" r="0.8500" /> 
<circle cx="140.9022" cy="147.1200" r="0.8500" /> 
<circle cx="138.3622" cy="147.1200" r="0.8500" /> 
<circle cx="140.9022" cy="149.6600" r="0.8500" /> 
<circle cx="138.3622" cy="149.6600" r="0.8500" /> 
<circle cx="140.9022" cy="152.2000" r="0.8500" /> 
<circle cx="138.3622" cy="152.2000" r="0.8500" /> 
<circle cx="140.9022" cy="154.7400" r="0.8500" /> 
<circle cx="138.3622" cy="154.7400" r="0.8500" /> 
<circle cx="140.9022" cy="157.2800" r="0.8500" /> 
<circle cx="138.3622" cy="157.2800" r="0.8500" /> 
<path style="fill:#000000; fill-opacity:1.0000; stroke:none;fill-rule:evenodd;"
d="M 196.1922,131.9650
196.2112,132.0607
196.2654,132.1418
196.3465,132.1960
196.4422,132.2150
197.5422,132.2150
197.6379,132.1960
197.7190,132.1418
197.7732,132.0607
197.7922,131.9650
197.7922,130.8650
197.7732,130.7693
197.7190,130.6882
197.6379,130.6340
197.5422,130.6150
196.4422,130.6150
196.3465,130.6340
196.2654,130.6882
196.2112,130.7693
196.1922,130.8650
Z" /> 
<circle cx="196.9922" cy="128.8750" r="0.8000" /> 
<circle cx="196.9922" cy="126.3350" r="0.8000" /> 
<circle cx="196.9922" cy="123.7950" r="0.8000" /> 
<circle cx="196.9922" cy="121.2550" r="0.8000" /> 
<circle cx="196.9922" cy="118.7150" r="0.8000" /> 
<circle cx="196.9922" cy="116.1750" r="0.8000" /> 
<circle cx="204.6122" cy="116.1750" r="0.8000" /> 
<circle cx="204.6122" cy="118.7150" r="0.8000" /> 
<circle cx="204.6122" cy="121.2550" r="0.8000" /> 
<circle cx="204.6122" cy="123.7950" r="0.8000" /> 
<circle cx="204.6122" cy="126.3350" r="0.8000" /> 
<circle cx="204.6122" cy="128.8750" r="0.8000" /> 
<circle cx="204.6122" cy="131.4150" r="0.8000" /> 
<circle cx="216.0022" cy="134.8000" r="0.8000" /> 
<circle cx="213.5022" cy="134.8000" r="0.8000" /> 
<path style="fill:#000000; fill-opacity:1.0000; stroke:none;fill-rule:evenodd;"
d="M 219.9122,119.5500
218.2122,119.5500
218.2122,121.2500
219.9122,121.2500
Z" /> 
<circle cx="221.6022" cy="120.4000" r="0.8500" /> 
<circle cx="224.1422" cy="120.4000" r="0.8500" /> 
<circle cx="167.5022" cy="127.9000" r="0.6000" /> 
<circle cx="165.5022" cy="127.9000" r="0.6000" /> 
<circle cx="180.1322" cy="137.5500" r="0.8000" /> 
<circle cx="187.7522" cy="137.5500" r="0.8000" /> 
<circle cx="180.1422" cy="134.4500" r="0.8000" /> 
<circle cx="187.7622" cy="134.4500" r="0.8000" /> 
<path style="fill:#000000; fill-opacity:1.0000; stroke:none;fill-rule:evenodd;"
d="M 194.2522,122.5300
194.2522,120.8300
192.5522,120.8300
192.5522,122.5300
Z" /> 
<circle cx="190.8622" cy="121.6800" r="0.8500" /> 
<circle cx="193.4022" cy="124.2200" r="0.8500" /> 
<circle cx="190.8622" cy="124.2200" r="0.8500" /> 
<circle cx="193.4022" cy="126.7600" r="0.8500" /> 
<circle cx="190.8622" cy="126.7600" r="0.8500" /> 
<circle cx="193.4022" cy="129.3000" r="0.8500" /> 
<circle cx="190.8622" cy="129.3000" r="0.8500" /> 
<circle cx="193.4022" cy="131.8400" r="0.8500" /> 
<circle cx="190.8622" cy="131.8400" r="0.8500" /> 
<circle cx="193.4022" cy="134.3800" r="0.8500" /> 
<circle cx="190.8622" cy="134.3800" r="0.8500" /> 
<circle cx="193.4022" cy="136.9200" r="0.8500" /> 
<circle cx="190.8622" cy="136.9200" r="0.8500" /> 
<circle cx="153.2922" cy="117.5500" r="0.8000" /> 
<circle cx="160.9122" cy="117.5500" r="0.8000" /> 
<circle cx="172.7022" cy="118.4000" r="0.7200" /> 
<circle cx="170.1622" cy="115.8600" r="0.7200" /> 
<circle cx="167.6222" cy="118.4000" r="0.7200" /> 
<path style="fill:#000000; fill-opacity:1.0000; stroke:none;fill-rule:evenodd;"
d="M 151.5248,116.9500
151.5058,116.8543
151.4516,116.7732
151.3705,116.7190
151.2748,116.7000
150.5748,116.7000
150.4791,116.7190
150.3980,116.7732
150.3438,116.8543
150.3248,116.9500
150.3248,117.6500
150.3438,117.7457
150.3980,117.8268
150.4791,117.8810
150.5748,117.9000
151.2748,117.9000
151.3705,117.8810
151.4516,117.8268
151.5058,117.7457
151.5248,117.6500
Z" /> 
<circle cx="148.9248" cy="117.3000" r="0.6000" /> 
<circle cx="180.1422" cy="122.0500" r="0.8000" /> 
<circle cx="187.7622" cy="122.0500" r="0.8000" /> 
<circle cx="159.9922" cy="138.2000" r="0.8000" /> 
<circle cx="167.6122" cy="138.2000" r="0.8000" /> 
<circle cx="170.3322" cy="137.5500" r="0.8000" /> 
<circle cx="177.9522" cy="137.5500" r="0.8000" /> 
<circle cx="170.3422" cy="134.4500" r="0.8000" /> 
<circle cx="177.9622" cy="134.4500" r="0.8000" /> 
<circle cx="170.3422" cy="128.2500" r="0.8000" /> 
<circle cx="177.9622" cy="128.2500" r="0.8000" /> 
<circle cx="180.1422" cy="125.1500" r="0.8000" /> 
<circle cx="187.7622" cy="125.1500" r="0.8000" /> 
<circle cx="221.2622" cy="125.4000" r="0.7500" /> 
<circle cx="226.1422" cy="125.4000" r="0.7500" /> 
<circle cx="180.1422" cy="128.2500" r="0.8000" /> 
<circle cx="187.7622" cy="128.2500" r="0.8000" /> 
<circle cx="226.7522" cy="130.5000" r="0.8000" /> 
<circle cx="224.2522" cy="130.5000" r="0.8000" /> 
<circle cx="163.5522" cy="115.7000" r="0.8000" /> 
<circle cx="163.5522" cy="118.2000" r="0.8000" /> 
<circle cx="159.9922" cy="135.2000" r="0.8000" /> 
<circle cx="167.6122" cy="135.2000" r="0.8000" /> 
<circle cx="192.7822" cy="118.4000" r="0.7200" /> 
<circle cx="190.2422" cy="115.8600" r="0.7200" /> 
<circle cx="187.7022" cy="118.4000" r="0.7200" /> 
<circle cx="198.4575" cy="148.2069" r="0.4000" /> 
<circle cx="190.0022" cy="139.1000" r="0.4000" /> 
<circle cx="185.9022" cy="136.8000" r="0.4000" /> 
</g>
<g style="fill:none; 
stroke:#000000; stroke-width:0.3810; stroke-opacity:1; 
stroke-linecap:round; stroke-linejoin:round;">
<path d="M219.4187 140.2804
L219.4237 140.2754
" />
<path d="M218.8984 137.6785
L215.8203 137.6785
" />
<path d="M199.8134 137.2785
L198.3919 138.7000
" />
<path d="M230.1003 158.2285
L229.0511 158.2285
" />
<path d="M220.2722 144.2261
L220.2722 142.8931
" />
<path d="M215.8203 137.6785
L215.0803 136.9385
" />
<path d="M219.4187 138.0153
L219.0869 137.6835
" />
<path d="M205.9841 137.2785
L199.8134 137.2785
" />
<path d="M219.4237 140.2754
L219.4237 139.5046
" />
<path d="M222.0683 144.9700
L221.0161 144.9700
" />
<path d="M206.3241 136.9385
L205.9841 137.2785
" />
<path d="M232.4622 160.5904
L230.1003 158.2285
" />
<path d="M229.0511 158.2285
L227.7907 156.9681
" />
<path d="M215.0803 136.9385
L206.3241 136.9385
" />
<path d="M219.4187 139.4996
L219.4187 138.0153
" />
<path d="M227.7907 150.6924
L222.0683 144.9700
" />
<path d="M232.4622 163.0000
L232.4622 160.5904
" />
<path d="M218.9034 137.6835
L218.8984 137.6785
" />
<path d="M220.2722 142.8931
L219.4187 142.0396
" />
<path d="M219.4237 139.5046
L219.4187 139.4996
" />
<path d="M219.4187 142.0396
L219.4187 140.2804
" />
<path d="M219.0869 137.6835
L218.9034 137.6835
" />
<path d="M227.7907 156.9681
L227.7907 150.6924
" />
<path d="M221.0161 144.9700
L220.2722 144.2261
" />
<path d="M205.0761 158.8365
L197.5674 158.8365
" />
<path d="M210.0337 158.0285
L205.8841 158.0285
" />
<path d="M196.7836 158.0630
L196.7939 158.0630
" />
<path d="M195.9922 157.4650
L196.7836 158.0630
" />
<path d="M196.7939 158.0630
L197.5674 158.8365
" />
<path d="M210.0337 158.0285
L214.5122 153.5500
" />
<path d="M205.0761 158.8365
L205.8841 158.0285
" />
<path d="M205.3033 147.2000
L207.4183 147.2000
" />
<path d="M203.0861 146.0350
L204.1383 146.0350
" />
<path d="M209.9583 149.7400
L215.0383 149.7400
" />
<path d="M195.9922 149.8450
L199.2761 149.8450
" />
<path d="M199.2761 149.8450
L203.0861 146.0350
" />
<path d="M207.4183 147.2000
L209.9583 149.7400
" />
<path d="M217.1583 151.8600
L218.0022 151.8600
" />
<path d="M204.1383 146.0350
L205.3033 147.2000
" />
<path d="M215.0383 149.7400
L217.1583 151.8600
" />
<path d="M203.0861 153.6550
L204.9911 153.6550
" />
<path d="M213.2422 152.2800
L214.5122 151.0100
" />
<path d="M201.8161 154.9250
L203.0861 153.6550
" />
<path d="M195.9922 154.9250
L201.8161 154.9250
" />
<path d="M206.3661 152.2800
L213.2422 152.2800
" />
<path d="M204.9911 153.6550
L206.3661 152.2800
" />
<path d="M214.5122 151.0100
L217.9022 154.4000
" />
<path d="M214.6427 138.4405
L217.1522 138.4405
" />
<path d="M217.1522 138.4405
L217.3427 138.4405
" />
<path d="M196.5926 147.3050
L203.0441 140.8535
" />
<path d="M215.0383 139.5800
L206.3661 139.5800
" />
<path d="M205.0926 140.8535
L206.3661 139.5800
" />
<path d="M217.0983 141.6400
L218.0022 141.6400
" />
<path d="M215.0383 139.5800
L217.0983 141.6400
" />
<path d="M203.0441 140.8535
L205.0926 140.8535
" />
<path d="M214.5122 140.8500
L217.8422 144.1800
" />
<path d="M216.1359 136.9165
L215.3959 136.1765
" />
<path d="M220.1757 140.5940
L220.1857 140.5840
" />
<path d="M219.4004 136.9265
L219.2241 136.9265
" />
<path d="M220.1757 139.1860
L220.1757 137.7018
" />
<path d="M205.7635 136.4215
L201.7837 136.4215
" />
<path d="M219.2241 136.9265
L219.2141 136.9165
" />
<path d="M219.2141 136.9165
L216.1359 136.9165
" />
<path d="M220.1857 140.5840
L220.1857 139.1960
" />
<path d="M215.3959 136.1765
L206.0085 136.1765
" />
<path d="M201.7837 136.4215
L200.3622 135.0000
" />
<path d="M220.1857 139.1960
L220.1757 139.1860
" />
<path d="M221.5422 143.0925
L220.1757 141.7260
" />
<path d="M206.0085 136.1765
L205.7635 136.4215
" />
<path d="M220.1757 141.7260
L220.1757 140.5940
" />
<path d="M220.1757 137.7018
L219.4004 136.9265
" />
<path d="M194.6293 158.2613
L194.6197 158.2517
" />
<path d="M194.6661 158.3884
L194.6661 158.3749
" />
<path d="M194.6661 158.3749
L194.6389 158.3477
" />
<path d="M205.1110 161.5785
L197.8427 161.5785
" />
<path d="M194.6293 156.6687
L194.6293 156.6303
" />
<path d="M194.6933 158.4156
L194.6661 158.3884
" />
<path d="M194.6197 156.6783
L194.6293 156.6687
" />
<path d="M206.5325 163.0000
L205.1110 161.5785
" />
<path d="M194.6389 156.6207
L194.6389 156.5823
" />
<path d="M194.6661 156.5416
L195.0009 156.2068
" />
<path d="M195.0009 156.2068
L195.0275 156.2068
" />
<path d="M194.6197 158.2517
L194.6197 156.6783
" />
<path d="M194.6389 158.3477
L194.6389 158.3093
" />
<path d="M197.8427 161.5785
L194.6933 158.4291
" />
<path d="M194.6933 158.4291
L194.6933 158.4156
" />
<path d="M194.6661 156.5551
L194.6661 156.5416
" />
<path d="M194.6293 156.6303
L194.6389 156.6207
" />
<path d="M194.6389 158.3093
L194.6293 158.2997
" />
<path d="M195.0275 156.2068
L195.0398 156.1945
" />
<path d="M202.3427 156.1945
L195.0398 156.1945
" />
<path d="M194.6293 158.2997
L194.6293 158.2613
" />
<path d="M202.3427 156.1945
L203.6122 154.9250
" />
<path d="M194.6389 156.5823
L194.6661 156.5551
" />
<path d="M219.3039 156.5016
L219.4077 156.3978
" />
<path d="M219.3039 156.9291
L215.4165 160.8165
" />
<path d="M213.0158 161.5785
L213.7778 160.8165
" />
<path d="M219.4269 155.2400
L219.4269 155.2016
" />
<path d="M210.1319 163.0000
L211.5534 161.5785
" />
<path d="M219.4813 155.1337
L219.4813 155.1202
" />
<path d="M219.3039 156.9291
L219.3039 156.5016
" />
<path d="M219.4173 155.2880
L219.4173 155.2496
" />
<path d="M219.4541 155.1609
L219.4813 155.1337
" />
<path d="M219.4077 156.3978
L219.4077 155.2976
" />
<path d="M219.4077 155.2976
L219.4173 155.2880
" />
<path d="M219.4269 155.2016
L219.4541 155.1744
" />
<path d="M219.4541 155.1744
L219.4541 155.1609
" />
<path d="M219.4813 155.1202
L220.1707 154.4308
" />
<path d="M219.4173 155.2496
L219.4269 155.2400
" />
<path d="M220.1707 154.4308
L220.1707 153.2919
" />
<path d="M211.5534 161.5785
L213.0158 161.5785
" />
<path d="M220.1707 153.2919
L221.5422 151.9204
" />
<path d="M213.7778 160.8165
L215.4165 160.8165
" />
<path d="M191.8055 155.1775
L193.9436 155.1775
" />
<path d="M191.3885 155.5749
L191.3885 155.5602
" />
<path d="M191.3313 155.7292
L191.3313 155.7056
" />
<path d="M191.3585 155.6129
L191.3691 155.6023
" />
<path d="M191.8005 155.1825
L191.8055 155.1775
" />
<path d="M191.3514 155.6371
L191.3585 155.6300
" />
<path d="M191.7346 155.1917
L191.7712 155.1917
" />
<path d="M191.3998 155.5265
L191.7346 155.1917
" />
<path d="M190.1190 158.2785
L191.3217 157.0758
" />
<path d="M191.3998 155.5410
L191.3998 155.5265
" />
<path d="M191.3217 157.0758
L191.3217 155.8055
" />
<path d="M193.9436 155.1775
L195.4661 153.6550
" />
<path d="M191.7712 155.1917
L191.7804 155.1825
" />
<path d="M191.3288 155.7317
L191.3313 155.7292
" />
<path d="M191.3288 155.7748
L191.3288 155.7317
" />
<path d="M191.7804 155.1825
L191.8005 155.1825
" />
<path d="M191.3313 155.7056
L191.3384 155.6985
" />
<path d="M178.0037 161.5785
L186.7341 161.5785
" />
<path d="M176.5822 163.0000
L178.0037 161.5785
" />
<path d="M191.3885 155.5602
L191.3992 155.5495
" />
<path d="M190.0341 158.2785
L190.1190 158.2785
" />
<path d="M191.3691 155.6023
L191.3691 155.5943
" />
<path d="M191.3217 155.8055
L191.3242 155.8030
" />
<path d="M191.3384 155.6813
L191.3514 155.6683
" />
<path d="M200.5461 153.6550
L203.0861 151.1150
" />
<path d="M191.3992 155.5495
L191.3992 155.5416
" />
<path d="M191.3514 155.6683
L191.3514 155.6371
" />
<path d="M191.3384 155.6985
L191.3384 155.6813
" />
<path d="M186.7341 161.5785
L190.0341 158.2785
" />
<path d="M191.3242 155.8030
L191.3242 155.7794
" />
<path d="M191.3691 155.5943
L191.3885 155.5749
" />
<path d="M195.4661 153.6550
L200.5461 153.6550
" />
<path d="M203.0861 151.1150
L206.7872 151.1150
" />
<path d="M191.3242 155.7794
L191.3288 155.7748
" />
<path d="M191.3585 155.6300
L191.3585 155.6129
" />
<path d="M191.3992 155.5416
L191.3998 155.5410
" />
<path d="M188.7822 156.0239
L189.5261 155.2800
" />
<path d="M191.4898 154.4155
L192.1656 154.4155
" />
<path d="M191.4555 154.4297
L191.4647 154.4205
" />
<path d="M192.1656 154.4155
L195.4661 151.1150
" />
<path d="M185.0418 160.8165
L188.7822 157.0761
" />
<path d="M177.1057 161.5785
L177.8677 160.8165
" />
<path d="M191.3938 154.4347
L191.4139 154.4347
" />
<path d="M188.7822 157.0761
L188.7822 156.0239
" />
<path d="M189.5261 155.2800
L190.5485 155.2800
" />
<path d="M190.5485 155.2800
L191.3938 154.4347
" />
<path d="M191.4848 154.4205
L191.4898 154.4155
" />
<path d="M191.4647 154.4205
L191.4848 154.4205
" />
<path d="M172.9237 161.5785
L177.1057 161.5785
" />
<path d="M177.8677 160.8165
L185.0418 160.8165
" />
<path d="M203.0861 148.5750
L206.7872 148.5750
" />
<path d="M171.5022 163.0000
L172.9237 161.5785
" />
<path d="M191.4139 154.4347
L191.4189 154.4297
" />
<path d="M191.4189 154.4297
L191.4555 154.4297
" />
<path d="M200.5461 151.1150
L203.0861 148.5750
" />
<path d="M195.4661 151.1150
L200.5461 151.1150
" />
<path d="M202.3422 144.2389
L203.0861 143.4950
" />
<path d="M202.3422 144.3222
L202.3422 144.2389
" />
<path d="M203.0861 143.4950
L206.7872 143.4950
" />
<path d="M198.4575 148.2069
L202.3422 144.3222
" />
<path d="M179.2167 123.2945
L186.5177 123.2945
" />
<path d="M177.9722 122.0500
L179.2167 123.2945
" />
<path d="M186.5177 123.2945
L187.7622 122.0500
" />
<path d="M187.7622 134.4500
L189.1577 135.8455
" />
<path d="M188.8077 152.7145
L184.9722 156.5500
" />
<path d="M188.8077 140.7945
L188.8077 152.7145
" />
<path d="M189.1577 140.4445
L188.8077 140.7945
" />
<path d="M189.1577 135.8455
L189.1577 140.4445
" />
</g>
<g style="fill:none; 
stroke:#000000; stroke-width:0.3000; stroke-opacity:1; 
stroke-linecap:round; stroke-linejoin:round;">
<path d="M144.3322 153.1154
L141.4216 156.0260
" />
<path d="M141.4216 156.0260
L139.6162 156.0260
" />
<path d="M139.6162 156.0260
L138.3622 157.2800
" />
<path d="M144.3322 141.3100
L144.3322 153.1154
" />
</g>
<g style="fill:none; 
stroke:#000000; stroke-width:0.3810; stroke-opacity:1; 
stroke-linecap:round; stroke-linejoin:round;">
<path d="M190.8622 126.7600
L190.8622 129.3000
" />
<path d="M190.8622 134.3800
L190.8622 136.9200
" />
<path d="M190.8622 124.2200
L190.8622 126.7600
" />
<path d="M190.8622 121.6800
L190.8622 124.2200
" />
<path d="M190.0022 139.1000
L190.3022 139.1000
" />
<path d="M190.8622 138.5400
L190.8622 136.9200
" />
<path d="M190.3022 139.1000
L190.8622 138.5400
" />
<path d="M190.8622 129.3000
L190.8622 131.8400
" />
<path d="M190.8622 131.8400
L190.8622 134.3800
" />
<path d="M155.0603 139.9385
L156.4318 141.3100
" />
<path d="M149.4172 137.7000
L151.6557 139.9385
" />
<path d="M151.6557 139.9385
L155.0603 139.9385
" />
<path d="M160.1966 158.9115
L159.8081 159.3000
" />
<path d="M163.3822 157.0761
L161.5468 158.9115
" />
<path d="M155.0022 159.5000
L153.1334 161.3688
" />
<path d="M163.3822 145.1200
L163.3822 157.0761
" />
<path d="M156.2290 159.5000
L155.0022 159.5000
" />
<path d="M152.8134 161.3688
L151.1822 163.0000
" />
<path d="M156.4290 159.3000
L156.2290 159.5000
" />
<path d="M159.8081 159.3000
L156.4290 159.3000
" />
<path d="M153.1334 161.3688
L152.8134 161.3688
" />
<path d="M161.5468 158.9115
L160.1966 158.9115
" />
<path d="M167.1922 141.3100
L163.3822 145.1200
" />
<path d="M162.0925 159.5465
L162.7275 158.9115
" />
<path d="M160.4596 159.5465
L162.0925 159.5465
" />
<path d="M154.5722 162.1500
L154.5722 162.0548
" />
<path d="M156.5726 160.0545
L159.9516 160.0545
" />
<path d="M165.9222 145.1200
L169.7322 141.3100
" />
<path d="M162.7275 158.9115
L164.0868 158.9115
" />
<path d="M159.9516 160.0545
L160.4596 159.5465
" />
<path d="M164.0868 158.9115
L165.9222 157.0761
" />
<path d="M153.7222 163.0000
L154.5722 162.1500
" />
<path d="M165.9222 157.0761
L165.9222 145.1200
" />
<path d="M154.5722 162.0548
L156.5726 160.0545
" />
<path d="M164.6325 159.5465
L162.9996 159.5465
" />
<path d="M168.4622 157.0761
L166.6268 158.9115
" />
<path d="M160.7227 160.1815
L160.0877 160.8165
" />
<path d="M162.3646 160.1815
L160.7227 160.1815
" />
<path d="M165.2675 158.9115
L164.6325 159.5465
" />
<path d="M172.2722 141.3100
L168.4622 145.1200
" />
<path d="M168.4622 145.1200
L168.4622 157.0761
" />
<path d="M162.9996 159.5465
L162.3646 160.1815
" />
<path d="M158.4457 160.8165
L156.2622 163.0000
" />
<path d="M166.6268 158.9115
L165.2675 158.9115
" />
<path d="M160.0877 160.8165
L158.4457 160.8165
" />
<path d="M162.6277 160.8165
L163.2627 160.1815
" />
<path d="M171.0022 145.1200
L174.8122 141.3100
" />
<path d="M167.8075 158.9115
L169.1668 158.9115
" />
<path d="M167.1725 159.5465
L167.8075 158.9115
" />
<path d="M158.8022 163.0000
L160.9857 160.8165
" />
<path d="M165.5396 159.5465
L167.1725 159.5465
" />
<path d="M160.9857 160.8165
L162.6277 160.8165
" />
<path d="M171.0022 157.0761
L171.0022 145.1200
" />
<path d="M164.9046 160.1815
L165.5396 159.5465
" />
<path d="M169.1668 158.9115
L171.0022 157.0761
" />
<path d="M163.2627 160.1815
L164.9046 160.1815
" />
<path d="M169.7125 159.5465
L169.9665 159.2925
" />
<path d="M165.8027 160.1815
L167.4995 160.1815
" />
<path d="M173.5422 145.1200
L177.3522 141.3100
" />
<path d="M161.3422 163.0000
L163.5257 160.8165
" />
<path d="M165.1677 160.8165
L165.8027 160.1815
" />
<path d="M168.1345 159.5465
L169.7125 159.5465
" />
<path d="M171.3258 159.2925
L173.5422 157.0761
" />
<path d="M167.4995 160.1815
L168.1345 159.5465
" />
<path d="M163.5257 160.8165
L165.1677 160.8165
" />
<path d="M169.9665 159.2925
L171.3258 159.2925
" />
<path d="M173.5422 157.0761
L173.5422 145.1200
" />
<path d="M166.0657 160.8165
L167.7625 160.8165
" />
<path d="M170.1551 160.1815
L170.2821 160.0545
" />
<path d="M163.8822 163.0000
L166.0657 160.8165
" />
<path d="M176.0822 157.0761
L176.0822 145.1200
" />
<path d="M167.7625 160.8165
L168.3975 160.1815
" />
<path d="M176.0822 145.1200
L179.8922 141.3100
" />
<path d="M168.3975 160.1815
L170.1551 160.1815
" />
<path d="M173.8658 159.2925
L176.0822 157.0761
" />
<path d="M172.5065 159.2925
L173.8658 159.2925
" />
<path d="M171.7445 160.0545
L172.5065 159.2925
" />
<path d="M170.2821 160.0545
L171.7445 160.0545
" />
<path d="M171.8896 160.8165
L172.6516 160.0545
" />
<path d="M178.6222 145.1200
L182.4322 141.3100
" />
<path d="M175.6438 160.0545
L178.6222 157.0761
" />
<path d="M178.6222 157.0761
L178.6222 145.1200
" />
<path d="M166.4770 163.0000
L168.6606 160.8165
" />
<path d="M172.6516 160.0545
L175.6438 160.0545
" />
<path d="M168.6606 160.8165
L171.8896 160.8165
" />
<path d="M181.1622 157.0761
L181.1622 145.1200
" />
<path d="M176.9696 160.8165
L177.7316 160.0545
" />
<path d="M168.9622 163.0000
L170.3837 161.5785
" />
<path d="M181.1622 145.1200
L184.9722 141.3100
" />
<path d="M172.7877 160.8165
L176.9696 160.8165
" />
<path d="M177.7316 160.0545
L178.1838 160.0545
" />
<path d="M172.0257 161.5785
L172.7877 160.8165
" />
<path d="M170.3837 161.5785
L172.0257 161.5785
" />
<path d="M178.1838 160.0545
L181.1622 157.0761
" />
<path d="M187.7622 128.2500
L185.9022 130.1100
" />
<path d="M187.8122 124.5000
L187.8122 127.6000
" />
<path d="M185.9022 130.1100
L185.9022 136.8000
" />
<path d="M177.9622 134.4500
L180.1422 134.4500
" />
<path d="M176.1067 133.2055
L168.3967 133.2055
" />
<path d="M168.3967 133.2055
L167.6467 133.9555
" />
<path d="M165.5522 135.2000
L159.9922 135.2000
" />
<path d="M166.7967 133.9555
L165.5522 135.2000
" />
<path d="M177.9622 131.3500
L176.1067 133.2055
" />
<path d="M167.6467 133.9555
L166.7967 133.9555
" />
<path d="M157.9722 118.8700
L157.9722 120.8900
" />
<path d="M156.6522 117.5500
L157.9722 118.8700
" />
<path d="M153.2922 117.5500
L156.6522 117.5500
" />
<path d="M207.9922 126.3350
L207.9922 128.8750
" />
<path d="M197.7468 130.7283
L200.9628 130.7283
" />
<path d="M196.9922 131.4150
L197.7468 130.7283
" />
<path d="M206.6207 126.1226
L205.1383 127.6050
" />
<path d="M200.9628 130.7283
L204.0861 127.6050
" />
<path d="M206.6207 125.7669
L207.9922 124.3954
" />
<path d="M204.0861 127.6050
L205.1383 127.6050
" />
<path d="M206.6207 126.1226
L206.6207 125.7669
" />
<path d="M156.6748 137.2000
L158.4022 135.4726
" />
<path d="M158.4022 135.4726
L158.4022 131.4800
" />
<path d="M158.4022 131.4800
L155.4322 128.5100
" />
<path d="M170.3522 125.1500
L167.6022 127.9000
" />
<path d="M179.8918 137.5500
L178.5203 136.1785
" />
<path d="M172.0707 136.1785
L170.3422 134.4500
" />
<path d="M178.5203 136.1785
L172.0707 136.1785
" />
<path d="M184.6522 122.0500
L187.6522 119.0500
" />
<path d="M189.1837 119.8815
L187.7022 118.4000
" />
<path d="M180.1422 122.0500
L184.6522 122.0500
" />
<path d="M187.8122 130.7000
L189.1837 129.3285
" />
<path d="M189.1837 129.3285
L189.1837 119.8815
" />
<path d="M170.3422 131.3500
L171.5867 130.1055
" />
<path d="M171.5867 130.1055
L178.8977 130.1055
" />
<path d="M178.8977 130.1055
L180.1422 131.3500
" />
<path d="M173.3522 122.0500
L170.3522 122.0500
" />
<path d="M177.9722 125.1500
L176.4522 125.1500
" />
<path d="M176.4522 125.1500
L173.3522 122.0500
" />
<path d="M195.6207 123.2269
L196.9922 121.8554
" />
<path d="M195.6207 124.5415
L195.6207 123.2269
" />
<path d="M193.4022 126.7600
L195.6207 124.5415
" />
<path d="M205.8822 119.9850
L204.6122 118.7150
" />
<path d="M205.8822 121.7811
L205.8822 119.9850
" />
<path d="M195.7222 128.3489
L196.4661 127.6050
" />
<path d="M195.6293 130.5803
L195.6389 130.5707
" />
<path d="M196.4661 127.6050
L199.0061 127.6050
" />
<path d="M195.6389 130.5323
L195.6661 130.5051
" />
<path d="M195.6293 130.6187
L195.6293 130.5803
" />
<path d="M195.6661 130.4916
L195.6933 130.4644
" />
<path d="M195.6661 130.5051
L195.6661 130.4916
" />
<path d="M195.6197 130.6283
L195.6293 130.6187
" />
<path d="M195.6389 130.5707
L195.6389 130.5323
" />
<path d="M195.6197 134.7025
L195.6197 130.6283
" />
<path d="M199.0061 127.6050
L204.0861 122.5250
" />
<path d="M205.1383 122.5250
L205.8822 121.7811
" />
<path d="M195.7222 130.4220
L195.7222 128.3489
" />
<path d="M193.4022 136.9200
L195.6197 134.7025
" />
<path d="M204.0861 122.5250
L205.1383 122.5250
" />
<path d="M195.6933 130.4644
L195.6933 130.4509
" />
<path d="M195.6933 130.4509
L195.7222 130.4220
" />
<path d="M196.4661 125.0650
L200.3250 125.0650
" />
<path d="M195.7222 127.1278
L195.7222 125.8089
" />
<path d="M195.7222 125.8089
L196.4661 125.0650
" />
<path d="M194.8577 132.9245
L194.8577 130.3126
" />
<path d="M193.4022 134.3800
L194.8577 132.9245
" />
<path d="M194.8587 130.3116
L194.8587 127.9913
" />
<path d="M200.3250 125.0650
L203.7285 121.6615
" />
<path d="M194.8587 127.9913
L195.7222 127.1278
" />
<path d="M194.8577 130.3126
L194.8587 130.3116
" />
<path d="M203.7285 121.6615
L204.2057 121.6615
" />
<path d="M186.2579 138.3500
L186.9522 138.3500
" />
<path d="M179.9118 125.1500
L178.5403 123.7785
" />
<path d="M177.3807 123.7785
L172.6522 119.0500
" />
<path d="M183.2672 128.2750
L183.2672 135.3593
" />
<path d="M178.5403 123.7785
L177.3807 123.7785
" />
<path d="M183.2672 135.3593
L186.2579 138.3500
" />
<path d="M180.1422 125.1500
L183.2672 128.2750
" />
<path d="M186.9522 138.3500
L187.7522 137.5500
" />
<path d="M167.6222 121.0800
L167.6222 118.4000
" />
<path d="M177.9622 128.2500
L173.0067 123.2945
" />
<path d="M173.0067 123.2945
L169.8367 123.2945
" />
<path d="M180.1422 128.2500
L177.9622 128.2500
" />
<path d="M169.8367 123.2945
L167.6222 121.0800
" />
</g>
<g style="fill:#FFFFFF; fill-opacity:1.0000; stroke:none;">
<circle cx="198.4575" cy="148.2069" r="0.2250" /> 
<circle cx="190.0022" cy="139.1000" r="0.2250" /> 
<circle cx="185.9022" cy="136.8000" r="0.2250" /> 
</g>
<g style="fill:#FFFFFF; fill-opacity:1.0000; stroke:none;">
<circle cx="206.4522" cy="159.4000" r="0.4000" /> 
</g>
<g style="fill:#FFFFFF; fill-opacity:1.0000; stroke:none;">
<circle cx="208.9522" cy="159.4000" r="0.4000" /> 
</g>
<g style="fill:#FFFFFF; fill-opacity:1.0000; stroke:none;">
<circle cx="214.9522" cy="159.4000" r="0.4000" /> 
</g>
<g style="fill:#FFFFFF; fill-opacity:1.0000; stroke:none;">
<circle cx="212.4522" cy="159.4000" r="0.4000" /> 
</g>
<g style="fill:#FFFFFF; fill-opacity:1.0000; stroke:none;">
<circle cx="229.5322" cy="159.6000" r="0.4000" /> 
</g>
<g style="fill:#FFFFFF; fill-opacity:1.0000; stroke:none;">
<circle cx="227.0322" cy="159.6000" r="0.4000" /> 
</g>
<g style="fill:#FFFFFF; fill-opacity:1.0000; stroke:none;">
<circle cx="193.1022" cy="159.6500" r="0.4000" /> 
</g>
<g style="fill:#FFFFFF; fill-opacity:1.0000; stroke:none;">
<circle cx="190.6022" cy="159.6500" r="0.4000" /> 
</g>
<g style="fill:#FFFFFF; fill-opacity:1.0000; stroke:none;">
<circle cx="202.9422" cy="138.7000" r="0.5000" /> 
</g>
<g style="fill:#FFFFFF; fill-opacity:1.0000; stroke:none;">
<circle cx="200.4022" cy="138.7000" r="0.5000" /> 
</g>
<g style="fill:#FFFFFF; fill-opacity:1.0000; stroke:none;">
<circle cx="197.8622" cy="138.7000" r="0.5000" /> 
</g>
<g style="fill:#FFFFFF; fill-opacity:1.0000; stroke:none;">
<circle cx="218.0022" cy="149.3200" r="0.5000" /> 
</g>
<g style="fill:#FFFFFF; fill-opacity:1.0000; stroke:none;">
<circle cx="218.0022" cy="151.8600" r="0.5000" /> 
</g>
<g style="fill:#FFFFFF; fill-opacity:1.0000; stroke:none;">
<circle cx="218.0022" cy="154.4000" r="0.5000" /> 
</g>
<g style="fill:#FFFFFF; fill-opacity:1.0000; stroke:none;">
<circle cx="218.0022" cy="139.1000" r="0.5000" /> 
</g>
<g style="fill:#FFFFFF; fill-opacity:1.0000; stroke:none;">
<circle cx="218.0022" cy="141.6400" r="0.5000" /> 
</g>
<g style="fill:#FFFFFF; fill-opacity:1.0000; stroke:none;">
<circle cx="218.0022" cy="144.1800" r="0.5000" /> 
</g>
<g style="fill:#FFFFFF; fill-opacity:1.0000; stroke:none;">
<circle cx="202.9022" cy="135.0000" r="0.5000" /> 
</g>
<g style="fill:#FFFFFF; fill-opacity:1.0000; stroke:none;">
<circle cx="200.3622" cy="135.0000" r="0.5000" /> 
</g>
<g style="fill:#FFFFFF; fill-opacity:1.0000; stroke:none;">
<circle cx="197.8222" cy="135.0000" r="0.5000" /> 
</g>
<g style="fill:#FFFFFF; fill-opacity:1.0000; stroke:none;">
<circle cx="221.5422" cy="156.4000" r="0.4000" /> 
</g>
<g style="fill:#FFFFFF; fill-opacity:1.0000; stroke:none;">
<circle cx="221.5422" cy="153.8600" r="0.4000" /> 
</g>
<g style="fill:#FFFFFF; fill-opacity:1.0000; stroke:none;">
<circle cx="221.5422" cy="151.3200" r="0.4000" /> 
</g>
<g style="fill:#FFFFFF; fill-opacity:1.0000; stroke:none;">
<circle cx="221.5422" cy="148.7800" r="0.4000" /> 
</g>
<g style="fill:#FFFFFF; fill-opacity:1.0000; stroke:none;">
<circle cx="221.5422" cy="146.2400" r="0.4000" /> 
</g>
<g style="fill:#FFFFFF; fill-opacity:1.0000; stroke:none;">
<circle cx="221.5422" cy="143.7000" r="0.4000" /> 
</g>
<g style="fill:#FFFFFF; fill-opacity:1.0000; stroke:none;">
<circle cx="221.5422" cy="141.1600" r="0.4000" /> 
</g>
<g style="fill:#FFFFFF; fill-opacity:1.0000; stroke:none;">
<circle cx="221.5422" cy="138.6200" r="0.4000" /> 
</g>
<g style="fill:#FFFFFF; fill-opacity:1.0000; stroke:none;">
<circle cx="229.1622" cy="138.6200" r="0.4000" /> 
</g>
<g style="fill:#FFFFFF; fill-opacity:1.0000; stroke:none;">
<circle cx="229.1622" cy="141.1600" r="0.4000" /> 
</g>
<g style="fill:#FFFFFF; fill-opacity:1.0000; stroke:none;">
<circle cx="229.1622" cy="143.7000" r="0.4000" /> 
</g>
<g style="fill:#FFFFFF; fill-opacity:1.0000; stroke:none;">
<circle cx="229.1622" cy="146.2400" r="0.4000" /> 
</g>
<g style="fill:#FFFFFF; fill-opacity:1.0000; stroke:none;">
<circle cx="229.1622" cy="148.7800" r="0.4000" /> 
</g>
<g style="fill:#FFFFFF; fill-opacity:1.0000; stroke:none;">
<circle cx="229.1622" cy="151.3200" r="0.4000" /> 
</g>
<g style="fill:#FFFFFF; fill-opacity:1.0000; stroke:none;">
<circle cx="229.1622" cy="153.8600" r="0.4000" /> 
</g>
<g style="fill:#FFFFFF; fill-opacity:1.0000; stroke:none;">
<circle cx="229.1622" cy="156.4000" r="0.4000" /> 
</g>
<g style="fill:#FFFFFF; fill-opacity:1.0000; stroke:none;">
<circle cx="206.8922" cy="156.0900" r="0.4000" /> 
</g>
<g style="fill:#FFFFFF; fill-opacity:1.0000; stroke:none;">
<circle cx="206.8922" cy="153.5500" r="0.4000" /> 
</g>
<g style="fill:#FFFFFF; fill-opacity:1.0000; stroke:none;">
<circle cx="206.8922" cy="151.0100" r="0.4000" /> 
</g>
<g style="fill:#FFFFFF; fill-opacity:1.0000; stroke:none;">
<circle cx="206.8922" cy="148.4700" r="0.4000" /> 
</g>
<g style="fill:#FFFFFF; fill-opacity:1.0000; stroke:none;">
<circle cx="206.8922" cy="145.9300" r="0.4000" /> 
</g>
<g style="fill:#FFFFFF; fill-opacity:1.0000; stroke:none;">
<circle cx="206.8922" cy="143.3900" r="0.4000" /> 
</g>
<g style="fill:#FFFFFF; fill-opacity:1.0000; stroke:none;">
<circle cx="206.8922" cy="140.8500" r="0.4000" /> 
</g>
<g style="fill:#FFFFFF; fill-opacity:1.0000; stroke:none;">
<circle cx="206.8922" cy="138.3100" r="0.4000" /> 
</g>
<g style="fill:#FFFFFF; fill-opacity:1.0000; stroke:none;">
<circle cx="214.5122" cy="138.3100" r="0.4000" /> 
</g>
<g style="fill:#FFFFFF; fill-opacity:1.0000; stroke:none;">
<circle cx="214.5122" cy="140.8500" r="0.4000" /> 
</g>
<g style="fill:#FFFFFF; fill-opacity:1.0000; stroke:none;">
<circle cx="214.5122" cy="143.3900" r="0.4000" /> 
</g>
<g style="fill:#FFFFFF; fill-opacity:1.0000; stroke:none;">
<circle cx="214.5122" cy="145.9300" r="0.4000" /> 
</g>
<g style="fill:#FFFFFF; fill-opacity:1.0000; stroke:none;">
<circle cx="214.5122" cy="148.4700" r="0.4000" /> 
</g>
<g style="fill:#FFFFFF; fill-opacity:1.0000; stroke:none;">
<circle cx="214.5122" cy="151.0100" r="0.4000" /> 
</g>
<g style="fill:#FFFFFF; fill-opacity:1.0000; stroke:none;">
<circle cx="214.5122" cy="153.5500" r="0.4000" /> 
</g>
<g style="fill:#FFFFFF; fill-opacity:1.0000; stroke:none;">
<circle cx="214.5122" cy="156.0900" r="0.4000" /> 
</g>
<g style="fill:#FFFFFF; fill-opacity:1.0000; stroke:none;">
<circle cx="195.9922" cy="157.4650" r="0.4000" /> 
</g>
<g style="fill:#FFFFFF; fill-opacity:1.0000; stroke:none;">
<circle cx="195.9922" cy="154.9250" r="0.4000" /> 
</g>
<g style="fill:#FFFFFF; fill-opacity:1.0000; stroke:none;">
<circle cx="195.9922" cy="152.3850" r="0.4000" /> 
</g>
<g style="fill:#FFFFFF; fill-opacity:1.0000; stroke:none;">
<circle cx="195.9922" cy="149.8450" r="0.4000" /> 
</g>
<g style="fill:#FFFFFF; fill-opacity:1.0000; stroke:none;">
<circle cx="195.9922" cy="147.3050" r="0.4000" /> 
</g>
<g style="fill:#FFFFFF; fill-opacity:1.0000; stroke:none;">
<circle cx="195.9922" cy="144.7650" r="0.4000" /> 
</g>
<g style="fill:#FFFFFF; fill-opacity:1.0000; stroke:none;">
<circle cx="195.9922" cy="142.2250" r="0.4000" /> 
</g>
<g style="fill:#FFFFFF; fill-opacity:1.0000; stroke:none;">
<circle cx="203.6122" cy="142.2250" r="0.4000" /> 
</g>
<g style="fill:#FFFFFF; fill-opacity:1.0000; stroke:none;">
<circle cx="203.6122" cy="144.7650" r="0.4000" /> 
</g>
<g style="fill:#FFFFFF; fill-opacity:1.0000; stroke:none;">
<circle cx="203.6122" cy="147.3050" r="0.4000" /> 
</g>
<g style="fill:#FFFFFF; fill-opacity:1.0000; stroke:none;">
<circle cx="203.6122" cy="149.8450" r="0.4000" /> 
</g>
<g style="fill:#FFFFFF; fill-opacity:1.0000; stroke:none;">
<circle cx="203.6122" cy="152.3850" r="0.4000" /> 
</g>
<g style="fill:#FFFFFF; fill-opacity:1.0000; stroke:none;">
<circle cx="203.6122" cy="154.9250" r="0.4000" /> 
</g>
<g style="fill:#FFFFFF; fill-opacity:1.0000; stroke:none;">
<circle cx="203.6122" cy="157.4650" r="0.4000" /> 
</g>
<g style="fill:#FFFFFF; fill-opacity:1.0000; stroke:none;">
<circle cx="192.5922" cy="156.5500" r="0.4000" /> 
</g>
<g style="fill:#FFFFFF; fill-opacity:1.0000; stroke:none;">
<circle cx="190.0522" cy="156.5500" r="0.4000" /> 
</g>
<g style="fill:#FFFFFF; fill-opacity:1.0000; stroke:none;">
<circle cx="187.5122" cy="156.5500" r="0.4000" /> 
</g>
<g style="fill:#FFFFFF; fill-opacity:1.0000; stroke:none;">
<circle cx="184.9722" cy="156.5500" r="0.4000" /> 
</g>
<g style="fill:#FFFFFF; fill-opacity:1.0000; stroke:none;">
<circle cx="182.4322" cy="156.5500" r="0.4000" /> 
</g>
<g style="fill:#FFFFFF; fill-opacity:1.0000; stroke:none;">
<circle cx="179.8922" cy="156.5500" r="0.4000" /> 
</g>
<g style="fill:#FFFFFF; fill-opacity:1.0000; stroke:none;">
<circle cx="177.3522" cy="156.5500" r="0.4000" /> 
</g>
<g style="fill:#FFFFFF; fill-opacity:1.0000; stroke:none;">
<circle cx="174.8122" cy="156.5500" r="0.4000" /> 
</g>
<g style="fill:#FFFFFF; fill-opacity:1.0000; stroke:none;">
<circle cx="172.2722" cy="156.5500" r="0.4000" /> 
</g>
<g style="fill:#FFFFFF; fill-opacity:1.0000; stroke:none;">
<circle cx="169.7322" cy="156.5500" r="0.4000" /> 
</g>
<g style="fill:#FFFFFF; fill-opacity:1.0000; stroke:none;">
<circle cx="167.1922" cy="156.5500" r="0.4000" /> 
</g>
<g style="fill:#FFFFFF; fill-opacity:1.0000; stroke:none;">
<circle cx="164.6522" cy="156.5500" r="0.4000" /> 
</g>
<g style="fill:#FFFFFF; fill-opacity:1.0000; stroke:none;">
<circle cx="162.1122" cy="156.5500" r="0.4000" /> 
</g>
<g style="fill:#FFFFFF; fill-opacity:1.0000; stroke:none;">
<circle cx="159.5722" cy="156.5500" r="0.4000" /> 
</g>
<g style="fill:#FFFFFF; fill-opacity:1.0000; stroke:none;">
<circle cx="157.0322" cy="156.5500" r="0.4000" /> 
</g>
<g style="fill:#FFFFFF; fill-opacity:1.0000; stroke:none;">
<circle cx="154.4922" cy="156.5500" r="0.4000" /> 
</g>
<g style="fill:#FFFFFF; fill-opacity:1.0000; stroke:none;">
<circle cx="151.9522" cy="156.5500" r="0.4000" /> 
</g>
<g style="fill:#FFFFFF; fill-opacity:1.0000; stroke:none;">
<circle cx="149.4122" cy="156.5500" r="0.4000" /> 
</g>
<g style="fill:#FFFFFF; fill-opacity:1.0000; stroke:none;">
<circle cx="146.8722" cy="156.5500" r="0.4000" /> 
</g>
<g style="fill:#FFFFFF; fill-opacity:1.0000; stroke:none;">
<circle cx="144.3322" cy="156.5500" r="0.4000" /> 
</g>
<g style="fill:#FFFFFF; fill-opacity:1.0000; stroke:none;">
<circle cx="144.3322" cy="141.3100" r="0.4000" /> 
</g>
<g style="fill:#FFFFFF; fill-opacity:1.0000; stroke:none;">
<circle cx="146.8722" cy="141.3100" r="0.4000" /> 
</g>
<g style="fill:#FFFFFF; fill-opacity:1.0000; stroke:none;">
<circle cx="149.4122" cy="141.3100" r="0.4000" /> 
</g>
<g style="fill:#FFFFFF; fill-opacity:1.0000; stroke:none;">
<circle cx="151.9522" cy="141.3100" r="0.4000" /> 
</g>
<g style="fill:#FFFFFF; fill-opacity:1.0000; stroke:none;">
<circle cx="154.4922" cy="141.3100" r="0.4000" /> 
</g>
<g style="fill:#FFFFFF; fill-opacity:1.0000; stroke:none;">
<circle cx="157.0322" cy="141.3100" r="0.4000" /> 
</g>
<g style="fill:#FFFFFF; fill-opacity:1.0000; stroke:none;">
<circle cx="159.5722" cy="141.3100" r="0.4000" /> 
</g>
<g style="fill:#FFFFFF; fill-opacity:1.0000; stroke:none;">
<circle cx="162.1122" cy="141.3100" r="0.4000" /> 
</g>
<g style="fill:#FFFFFF; fill-opacity:1.0000; stroke:none;">
<circle cx="164.6522" cy="141.3100" r="0.4000" /> 
</g>
<g style="fill:#FFFFFF; fill-opacity:1.0000; stroke:none;">
<circle cx="167.1922" cy="141.3100" r="0.4000" /> 
</g>
<g style="fill:#FFFFFF; fill-opacity:1.0000; stroke:none;">
<circle cx="169.7322" cy="141.3100" r="0.4000" /> 
</g>
<g style="fill:#FFFFFF; fill-opacity:1.0000; stroke:none;">
<circle cx="172.2722" cy="141.3100" r="0.4000" /> 
</g>
<g style="fill:#FFFFFF; fill-opacity:1.0000; stroke:none;">
<circle cx="174.8122" cy="141.3100" r="0.4000" /> 
</g>
<g style="fill:#FFFFFF; fill-opacity:1.0000; stroke:none;">
<circle cx="177.3522" cy="141.3100" r="0.4000" /> 
</g>
<g style="fill:#FFFFFF; fill-opacity:1.0000; stroke:none;">
<circle cx="179.8922" cy="141.3100" r="0.4000" /> 
</g>
<g style="fill:#FFFFFF; fill-opacity:1.0000; stroke:none;">
<circle cx="182.4322" cy="141.3100" r="0.4000" /> 
</g>
<g style="fill:#FFFFFF; fill-opacity:1.0000; stroke:none;">
<circle cx="184.9722" cy="141.3100" r="0.4000" /> 
</g>
<g style="fill:#FFFFFF; fill-opacity:1.0000; stroke:none;">
<circle cx="187.5122" cy="141.3100" r="0.4000" /> 
</g>
<g style="fill:#FFFFFF; fill-opacity:1.0000; stroke:none;">
<circle cx="190.0522" cy="141.3100" r="0.4000" /> 
</g>
<g style="fill:#FFFFFF; fill-opacity:1.0000; stroke:none;">
<circle cx="192.5922" cy="141.3100" r="0.4000" /> 
</g>
<g style="fill:#FFFFFF; fill-opacity:1.0000; stroke:none;">
<circle cx="232.4722" cy="157.3800" r="0.5000" /> 
</g>
<g style="fill:#FFFFFF; fill-opacity:1.0000; stroke:none;">
<circle cx="235.0122" cy="157.3800" r="0.5000" /> 
</g>
<g style="fill:#FFFFFF; fill-opacity:1.0000; stroke:none;">
<circle cx="232.4722" cy="154.8400" r="0.5000" /> 
</g>
<g style="fill:#FFFFFF; fill-opacity:1.0000; stroke:none;">
<circle cx="235.0122" cy="154.8400" r="0.5000" /> 
</g>
<g style="fill:#FFFFFF; fill-opacity:1.0000; stroke:none;">
<circle cx="232.4722" cy="152.3000" r="0.5000" /> 
</g>
<g style="fill:#FFFFFF; fill-opacity:1.0000; stroke:none;">
<circle cx="235.0122" cy="152.3000" r="0.5000" /> 
</g>
<g style="fill:#FFFFFF; fill-opacity:1.0000; stroke:none;">
<circle cx="232.4722" cy="149.7600" r="0.5000" /> 
</g>
<g style="fill:#FFFFFF; fill-opacity:1.0000; stroke:none;">
<circle cx="235.0122" cy="149.7600" r="0.5000" /> 
</g>
<g style="fill:#FFFFFF; fill-opacity:1.0000; stroke:none;">
<circle cx="232.4722" cy="147.2200" r="0.5000" /> 
</g>
<g style="fill:#FFFFFF; fill-opacity:1.0000; stroke:none;">
<circle cx="235.0122" cy="147.2200" r="0.5000" /> 
</g>
<g style="fill:#FFFFFF; fill-opacity:1.0000; stroke:none;">
<circle cx="232.4722" cy="144.6800" r="0.5000" /> 
</g>
<g style="fill:#FFFFFF; fill-opacity:1.0000; stroke:none;">
<circle cx="235.0122" cy="144.6800" r="0.5000" /> 
</g>
<g style="fill:#FFFFFF; fill-opacity:1.0000; stroke:none;">
<circle cx="232.4722" cy="142.1400" r="0.5000" /> 
</g>
<g style="fill:#FFFFFF; fill-opacity:1.0000; stroke:none;">
<circle cx="235.0122" cy="142.1400" r="0.5000" /> 
</g>
<g style="fill:#FFFFFF; fill-opacity:1.0000; stroke:none;">
<circle cx="232.4722" cy="139.6000" r="0.5000" /> 
</g>
<g style="fill:#FFFFFF; fill-opacity:1.0000; stroke:none;">
<circle cx="235.0122" cy="139.6000" r="0.5000" /> 
</g>
<g style="fill:#FFFFFF; fill-opacity:1.0000; stroke:none;">
<circle cx="232.4722" cy="137.0600" r="0.5000" /> 
</g>
<g style="fill:#FFFFFF; fill-opacity:1.0000; stroke:none;">
<circle cx="235.0122" cy="137.0600" r="0.5000" /> 
</g>
<g style="fill:#FFFFFF; fill-opacity:1.0000; stroke:none;">
<circle cx="146.8772" cy="137.7000" r="0.5000" /> 
</g>
<g style="fill:#FFFFFF; fill-opacity:1.0000; stroke:none;">
<circle cx="149.4172" cy="137.7000" r="0.5000" /> 
</g>
<g style="fill:#FFFFFF; fill-opacity:1.0000; stroke:none;">
<circle cx="231.4702" cy="131.3820" r="1.5999" /> 
</g>
<g style="fill:#FFFFFF; fill-opacity:1.0000; stroke:none;">
<circle cx="235.0022" cy="163.0000" r="0.5000" /> 
</g>
<g style="fill:#FFFFFF; fill-opacity:1.0000; stroke:none;">
<circle cx="232.4622" cy="163.0000" r="0.5000" /> 
</g>
<g style="fill:#FFFFFF; fill-opacity:1.0000; stroke:none;">
<circle cx="229.9222" cy="163.0000" r="0.5000" /> 
</g>
<g style="fill:#FFFFFF; fill-opacity:1.0000; stroke:none;">
<circle cx="227.3822" cy="163.0000" r="0.5000" /> 
</g>
<g style="fill:#FFFFFF; fill-opacity:1.0000; stroke:none;">
<circle cx="224.8422" cy="163.0000" r="0.5000" /> 
</g>
<g style="fill:#FFFFFF; fill-opacity:1.0000; stroke:none;">
<circle cx="222.3022" cy="163.0000" r="0.5000" /> 
</g>
<g style="fill:#FFFFFF; fill-opacity:1.0000; stroke:none;">
<circle cx="219.7622" cy="163.0000" r="0.5000" /> 
</g>
<g style="fill:#FFFFFF; fill-opacity:1.0000; stroke:none;">
<circle cx="217.2222" cy="163.0000" r="0.5000" /> 
</g>
<g style="fill:#FFFFFF; fill-opacity:1.0000; stroke:none;">
<circle cx="214.6822" cy="163.0000" r="0.5000" /> 
</g>
<g style="fill:#FFFFFF; fill-opacity:1.0000; stroke:none;">
<circle cx="212.1422" cy="163.0000" r="0.5000" /> 
</g>
<g style="fill:#FFFFFF; fill-opacity:1.0000; stroke:none;">
<circle cx="209.6022" cy="163.0000" r="0.5000" /> 
</g>
<g style="fill:#FFFFFF; fill-opacity:1.0000; stroke:none;">
<circle cx="207.0622" cy="163.0000" r="0.5000" /> 
</g>
<g style="fill:#FFFFFF; fill-opacity:1.0000; stroke:none;">
<circle cx="204.5222" cy="163.0000" r="0.5000" /> 
</g>
<g style="fill:#FFFFFF; fill-opacity:1.0000; stroke:none;">
<circle cx="201.9822" cy="163.0000" r="0.5000" /> 
</g>
<g style="fill:#FFFFFF; fill-opacity:1.0000; stroke:none;">
<circle cx="199.4422" cy="163.0000" r="0.5000" /> 
</g>
<g style="fill:#FFFFFF; fill-opacity:1.0000; stroke:none;">
<circle cx="196.9022" cy="163.0000" r="0.5000" /> 
</g>
<g style="fill:#FFFFFF; fill-opacity:1.0000; stroke:none;">
<circle cx="194.3622" cy="163.0000" r="0.5000" /> 
</g>
<g style="fill:#FFFFFF; fill-opacity:1.0000; stroke:none;">
<circle cx="191.8222" cy="163.0000" r="0.5000" /> 
</g>
<g style="fill:#FFFFFF; fill-opacity:1.0000; stroke:none;">
<circle cx="189.2822" cy="163.0000" r="0.5000" /> 
</g>
<g style="fill:#FFFFFF; fill-opacity:1.0000; stroke:none;">
<circle cx="186.7422" cy="163.0000" r="0.5000" /> 
</g>
<g style="fill:#FFFFFF; fill-opacity:1.0000; stroke:none;">
<circle cx="184.2022" cy="163.0000" r="0.5000" /> 
</g>
<g style="fill:#FFFFFF; fill-opacity:1.0000; stroke:none;">
<circle cx="181.6622" cy="163.0000" r="0.5000" /> 
</g>
<g style="fill:#FFFFFF; fill-opacity:1.0000; stroke:none;">
<circle cx="179.1222" cy="163.0000" r="0.5000" /> 
</g>
<g style="fill:#FFFFFF; fill-opacity:1.0000; stroke:none;">
<circle cx="176.5822" cy="163.0000" r="0.5000" /> 
</g>
<g style="fill:#FFFFFF; fill-opacity:1.0000; stroke:none;">
<circle cx="174.0422" cy="163.0000" r="0.5000" /> 
</g>
<g style="fill:#FFFFFF; fill-opacity:1.0000; stroke:none;">
<circle cx="171.5022" cy="163.0000" r="0.5000" /> 
</g>
<g style="fill:#FFFFFF; fill-opacity:1.0000; stroke:none;">
<circle cx="168.9622" cy="163.0000" r="0.5000" /> 
</g>
<g style="fill:#FFFFFF; fill-opacity:1.0000; stroke:none;">
<circle cx="166.4222" cy="163.0000" r="0.5000" /> 
</g>
<g style="fill:#FFFFFF; fill-opacity:1.0000; stroke:none;">
<circle cx="163.8822" cy="163.0000" r="0.5000" /> 
</g>
<g style="fill:#FFFFFF; fill-opacity:1.0000; stroke:none;">
<circle cx="161.3422" cy="163.0000" r="0.5000" /> 
</g>
<g style="fill:#FFFFFF; fill-opacity:1.0000; stroke:none;">
<circle cx="158.8022" cy="163.0000" r="0.5000" /> 
</g>
<g style="fill:#FFFFFF; fill-opacity:1.0000; stroke:none;">
<circle cx="156.2622" cy="163.0000" r="0.5000" /> 
</g>
<g style="fill:#FFFFFF; fill-opacity:1.0000; stroke:none;">
<circle cx="153.7222" cy="163.0000" r="0.5000" /> 
</g>
<g style="fill:#FFFFFF; fill-opacity:1.0000; stroke:none;">
<circle cx="151.1822" cy="163.0000" r="0.5000" /> 
</g>
<g style="fill:#FFFFFF; fill-opacity:1.0000; stroke:none;">
<circle cx="148.6422" cy="163.0000" r="0.5000" /> 
</g>
<g style="fill:#FFFFFF; fill-opacity:1.0000; stroke:none;">
<circle cx="146.1022" cy="163.0000" r="0.5000" /> 
</g>
<g style="fill:#FFFFFF; fill-opacity:1.0000; stroke:none;">
<circle cx="143.5622" cy="163.0000" r="0.5000" /> 
</g>
<g style="fill:#FFFFFF; fill-opacity:1.0000; stroke:none;">
<circle cx="141.0222" cy="163.0000" r="0.5000" /> 
</g>
<g style="fill:#FFFFFF; fill-opacity:1.0000; stroke:none;">
<circle cx="138.4822" cy="163.0000" r="0.5000" /> 
</g>
<g style="fill:#FFFFFF; fill-opacity:1.0000; stroke:none;">
<circle cx="140.4522" cy="131.2000" r="0.5999" /> 
</g>
<g style="fill:#FFFFFF; fill-opacity:1.0000; stroke:none;">
<circle cx="140.4522" cy="121.2000" r="0.5999" /> 
</g>
<g style="fill:#FFFFFF; fill-opacity:1.0000; stroke:none;">
<circle cx="142.9522" cy="131.2000" r="0.5999" /> 
</g>
<g style="fill:#FFFFFF; fill-opacity:1.0000; stroke:none;">
<circle cx="142.9522" cy="121.2000" r="0.5999" /> 
</g>
<g style="fill:#FFFFFF; fill-opacity:1.0000; stroke:none;">
<circle cx="147.9522" cy="126.2000" r="0.5999" /> 
</g>
<g style="fill:none; 
stroke:#FFFFFF; stroke-width:0.8000; stroke-opacity:1; 
stroke-linecap:round; stroke-linejoin:round;">
<path d="M147.6022 131.2000
L148.3022 131.2000
" />
</g>
<g style="fill:none; 
stroke:#FFFFFF; stroke-width:0.8000; stroke-opacity:1; 
stroke-linecap:round; stroke-linejoin:round;">
<path d="M147.6022 128.7000
L148.3022 128.7000
" />
</g>
<g style="fill:none; 
stroke:#FFFFFF; stroke-width:0.8000; stroke-opacity:1; 
stroke-linecap:round; stroke-linejoin:round;">
<path d="M142.9522 126.5500
L142.9522 125.8500
" />
</g>
<g style="fill:none; 
stroke:#FFFFFF; stroke-width:0.8000; stroke-opacity:1; 
stroke-linecap:round; stroke-linejoin:round;">
<path d="M147.6022 121.2000
L148.3022 121.2000
" />
</g>
<g style="fill:none; 
stroke:#FFFFFF; stroke-width:0.8000; stroke-opacity:1; 
stroke-linecap:round; stroke-linejoin:round;">
<path d="M147.6022 123.7000
L148.3022 123.7000
" />
</g>
<g style="fill:#FFFFFF; fill-opacity:1.0000; stroke:none;">
<circle cx="182.7422" cy="118.4000" r="0.4000" /> 
</g>
<g style="fill:#FFFFFF; fill-opacity:1.0000; stroke:none;">
<circle cx="180.2022" cy="115.8600" r="0.4000" /> 
</g>
<g style="fill:#FFFFFF; fill-opacity:1.0000; stroke:none;">
<circle cx="177.6622" cy="118.4000" r="0.4000" /> 
</g>
<g style="fill:#FFFFFF; fill-opacity:1.0000; stroke:none;">
<circle cx="156.6748" cy="132.5000" r="0.3000" /> 
</g>
<g style="fill:#FFFFFF; fill-opacity:1.0000; stroke:none;">
<circle cx="154.6748" cy="132.5000" r="0.3000" /> 
</g>
<g style="fill:#FFFFFF; fill-opacity:1.0000; stroke:none;">
<circle cx="207.9922" cy="131.4150" r="0.4000" /> 
</g>
<g style="fill:#FFFFFF; fill-opacity:1.0000; stroke:none;">
<circle cx="207.9922" cy="128.8750" r="0.4000" /> 
</g>
<g style="fill:#FFFFFF; fill-opacity:1.0000; stroke:none;">
<circle cx="207.9922" cy="126.3350" r="0.4000" /> 
</g>
<g style="fill:#FFFFFF; fill-opacity:1.0000; stroke:none;">
<circle cx="207.9922" cy="123.7950" r="0.4000" /> 
</g>
<g style="fill:#FFFFFF; fill-opacity:1.0000; stroke:none;">
<circle cx="207.9922" cy="121.2550" r="0.4000" /> 
</g>
<g style="fill:#FFFFFF; fill-opacity:1.0000; stroke:none;">
<circle cx="207.9922" cy="118.7150" r="0.4000" /> 
</g>
<g style="fill:#FFFFFF; fill-opacity:1.0000; stroke:none;">
<circle cx="207.9922" cy="116.1750" r="0.4000" /> 
</g>
<g style="fill:#FFFFFF; fill-opacity:1.0000; stroke:none;">
<circle cx="215.6122" cy="116.1750" r="0.4000" /> 
</g>
<g style="fill:#FFFFFF; fill-opacity:1.0000; stroke:none;">
<circle cx="215.6122" cy="118.7150" r="0.4000" /> 
</g>
<g style="fill:#FFFFFF; fill-opacity:1.0000; stroke:none;">
<circle cx="215.6122" cy="121.2550" r="0.4000" /> 
</g>
<g style="fill:#FFFFFF; fill-opacity:1.0000; stroke:none;">
<circle cx="215.6122" cy="123.7950" r="0.4000" /> 
</g>
<g style="fill:#FFFFFF; fill-opacity:1.0000; stroke:none;">
<circle cx="215.6122" cy="126.3350" r="0.4000" /> 
</g>
<g style="fill:#FFFFFF; fill-opacity:1.0000; stroke:none;">
<circle cx="215.6122" cy="128.8750" r="0.4000" /> 
</g>
<g style="fill:#FFFFFF; fill-opacity:1.0000; stroke:none;">
<circle cx="215.6122" cy="131.4150" r="0.4000" /> 
</g>
<g style="fill:#FFFFFF; fill-opacity:1.0000; stroke:none;">
<circle cx="160.5122" cy="128.5100" r="0.4000" /> 
</g>
<g style="fill:#FFFFFF; fill-opacity:1.0000; stroke:none;">
<circle cx="157.9722" cy="128.5100" r="0.4000" /> 
</g>
<g style="fill:#FFFFFF; fill-opacity:1.0000; stroke:none;">
<circle cx="155.4322" cy="128.5100" r="0.4000" /> 
</g>
<g style="fill:#FFFFFF; fill-opacity:1.0000; stroke:none;">
<circle cx="152.8922" cy="128.5100" r="0.4000" /> 
</g>
<g style="fill:#FFFFFF; fill-opacity:1.0000; stroke:none;">
<circle cx="152.8922" cy="120.8900" r="0.4000" /> 
</g>
<g style="fill:#FFFFFF; fill-opacity:1.0000; stroke:none;">
<circle cx="155.4322" cy="120.8900" r="0.4000" /> 
</g>
<g style="fill:#FFFFFF; fill-opacity:1.0000; stroke:none;">
<circle cx="157.9722" cy="120.8900" r="0.4000" /> 
</g>
<g style="fill:#FFFFFF; fill-opacity:1.0000; stroke:none;">
<circle cx="160.5122" cy="120.8900" r="0.4000" /> 
</g>
<g style="fill:#FFFFFF; fill-opacity:1.0000; stroke:none;">
<circle cx="180.1422" cy="131.3500" r="0.4000" /> 
</g>
<g style="fill:#FFFFFF; fill-opacity:1.0000; stroke:none;">
<circle cx="187.7622" cy="131.3500" r="0.4000" /> 
</g>
<g style="fill:#FFFFFF; fill-opacity:1.0000; stroke:none;">
<circle cx="151.7022" cy="134.2000" r="0.4000" /> 
</g>
<g style="fill:#FFFFFF; fill-opacity:1.0000; stroke:none;">
<circle cx="144.0822" cy="134.2000" r="0.4000" /> 
</g>
<g style="fill:#FFFFFF; fill-opacity:1.0000; stroke:none;">
<circle cx="170.3522" cy="125.1500" r="0.4000" /> 
</g>
<g style="fill:#FFFFFF; fill-opacity:1.0000; stroke:none;">
<circle cx="177.9722" cy="125.1500" r="0.4000" /> 
</g>
<g style="fill:#FFFFFF; fill-opacity:1.0000; stroke:none;">
<circle cx="160.0022" cy="132.2000" r="0.4000" /> 
</g>
<g style="fill:#FFFFFF; fill-opacity:1.0000; stroke:none;">
<circle cx="167.6222" cy="132.2000" r="0.4000" /> 
</g>
<g style="fill:#FFFFFF; fill-opacity:1.0000; stroke:none;">
<circle cx="156.6748" cy="137.2000" r="0.3000" /> 
</g>
<g style="fill:#FFFFFF; fill-opacity:1.0000; stroke:none;">
<circle cx="154.6748" cy="137.2000" r="0.3000" /> 
</g>
<g style="fill:#FFFFFF; fill-opacity:1.0000; stroke:none;">
<circle cx="221.2522" cy="130.5000" r="0.4000" /> 
</g>
<g style="fill:#FFFFFF; fill-opacity:1.0000; stroke:none;">
<circle cx="218.7522" cy="130.5000" r="0.4000" /> 
</g>
<g style="fill:#FFFFFF; fill-opacity:1.0000; stroke:none;">
<circle cx="146.5122" cy="117.5500" r="0.4000" /> 
</g>
<g style="fill:#FFFFFF; fill-opacity:1.0000; stroke:none;">
<circle cx="138.8922" cy="117.5500" r="0.4000" /> 
</g>
<g style="fill:#FFFFFF; fill-opacity:1.0000; stroke:none;">
<circle cx="170.3422" cy="131.3500" r="0.4000" /> 
</g>
<g style="fill:#FFFFFF; fill-opacity:1.0000; stroke:none;">
<circle cx="177.9622" cy="131.3500" r="0.4000" /> 
</g>
<g style="fill:#FFFFFF; fill-opacity:1.0000; stroke:none;">
<circle cx="207.7022" cy="134.8000" r="0.4000" /> 
</g>
<g style="fill:#FFFFFF; fill-opacity:1.0000; stroke:none;">
<circle cx="210.2022" cy="134.8000" r="0.4000" /> 
</g>
<g style="fill:#FFFFFF; fill-opacity:1.0000; stroke:none;">
<circle cx="165.9022" cy="122.6000" r="0.3000" /> 
</g>
<g style="fill:#FFFFFF; fill-opacity:1.0000; stroke:none;">
<circle cx="163.9022" cy="122.6000" r="0.3000" /> 
</g>
<g style="fill:#FFFFFF; fill-opacity:1.0000; stroke:none;">
<circle cx="219.0022" cy="134.5000" r="0.4000" /> 
</g>
<g style="fill:#FFFFFF; fill-opacity:1.0000; stroke:none;">
<circle cx="226.6222" cy="134.5000" r="0.4000" /> 
</g>
<g style="fill:#FFFFFF; fill-opacity:1.0000; stroke:none;">
<circle cx="170.3522" cy="122.0500" r="0.4000" /> 
</g>
<g style="fill:#FFFFFF; fill-opacity:1.0000; stroke:none;">
<circle cx="177.9722" cy="122.0500" r="0.4000" /> 
</g>
<g style="fill:#FFFFFF; fill-opacity:1.0000; stroke:none;">
<circle cx="140.9022" cy="136.9600" r="0.5000" /> 
</g>
<g style="fill:#FFFFFF; fill-opacity:1.0000; stroke:none;">
<circle cx="138.3622" cy="136.9600" r="0.5000" /> 
</g>
<g style="fill:#FFFFFF; fill-opacity:1.0000; stroke:none;">
<circle cx="140.9022" cy="139.5000" r="0.5000" /> 
</g>
<g style="fill:#FFFFFF; fill-opacity:1.0000; stroke:none;">
<circle cx="138.3622" cy="139.5000" r="0.5000" /> 
</g>
<g style="fill:#FFFFFF; fill-opacity:1.0000; stroke:none;">
<circle cx="140.9022" cy="142.0400" r="0.5000" /> 
</g>
<g style="fill:#FFFFFF; fill-opacity:1.0000; stroke:none;">
<circle cx="138.3622" cy="142.0400" r="0.5000" /> 
</g>
<g style="fill:#FFFFFF; fill-opacity:1.0000; stroke:none;">
<circle cx="140.9022" cy="144.5800" r="0.5000" /> 
</g>
<g style="fill:#FFFFFF; fill-opacity:1.0000; stroke:none;">
<circle cx="138.3622" cy="144.5800" r="0.5000" /> 
</g>
<g style="fill:#FFFFFF; fill-opacity:1.0000; stroke:none;">
<circle cx="140.9022" cy="147.1200" r="0.5000" /> 
</g>
<g style="fill:#FFFFFF; fill-opacity:1.0000; stroke:none;">
<circle cx="138.3622" cy="147.1200" r="0.5000" /> 
</g>
<g style="fill:#FFFFFF; fill-opacity:1.0000; stroke:none;">
<circle cx="140.9022" cy="149.6600" r="0.5000" /> 
</g>
<g style="fill:#FFFFFF; fill-opacity:1.0000; stroke:none;">
<circle cx="138.3622" cy="149.6600" r="0.5000" /> 
</g>
<g style="fill:#FFFFFF; fill-opacity:1.0000; stroke:none;">
<circle cx="140.9022" cy="152.2000" r="0.5000" /> 
</g>
<g style="fill:#FFFFFF; fill-opacity:1.0000; stroke:none;">
<circle cx="138.3622" cy="152.2000" r="0.5000" /> 
</g>
<g style="fill:#FFFFFF; fill-opacity:1.0000; stroke:none;">
<circle cx="140.9022" cy="154.7400" r="0.5000" /> 
</g>
<g style="fill:#FFFFFF; fill-opacity:1.0000; stroke:none;">
<circle cx="138.3622" cy="154.7400" r="0.5000" /> 
</g>
<g style="fill:#FFFFFF; fill-opacity:1.0000; stroke:none;">
<circle cx="140.9022" cy="157.2800" r="0.5000" /> 
</g>
<g style="fill:#FFFFFF; fill-opacity:1.0000; stroke:none;">
<circle cx="138.3622" cy="157.2800" r="0.5000" /> 
</g>
<g style="fill:#FFFFFF; fill-opacity:1.0000; stroke:none;">
<circle cx="196.9922" cy="131.4150" r="0.4000" /> 
</g>
<g style="fill:#FFFFFF; fill-opacity:1.0000; stroke:none;">
<circle cx="196.9922" cy="128.8750" r="0.4000" /> 
</g>
<g style="fill:#FFFFFF; fill-opacity:1.0000; stroke:none;">
<circle cx="196.9922" cy="126.3350" r="0.4000" /> 
</g>
<g style="fill:#FFFFFF; fill-opacity:1.0000; stroke:none;">
<circle cx="196.9922" cy="123.7950" r="0.4000" /> 
</g>
<g style="fill:#FFFFFF; fill-opacity:1.0000; stroke:none;">
<circle cx="196.9922" cy="121.2550" r="0.4000" /> 
</g>
<g style="fill:#FFFFFF; fill-opacity:1.0000; stroke:none;">
<circle cx="196.9922" cy="118.7150" r="0.4000" /> 
</g>
<g style="fill:#FFFFFF; fill-opacity:1.0000; stroke:none;">
<circle cx="196.9922" cy="116.1750" r="0.4000" /> 
</g>
<g style="fill:#FFFFFF; fill-opacity:1.0000; stroke:none;">
<circle cx="204.6122" cy="116.1750" r="0.4000" /> 
</g>
<g style="fill:#FFFFFF; fill-opacity:1.0000; stroke:none;">
<circle cx="204.6122" cy="118.7150" r="0.4000" /> 
</g>
<g style="fill:#FFFFFF; fill-opacity:1.0000; stroke:none;">
<circle cx="204.6122" cy="121.2550" r="0.4000" /> 
</g>
<g style="fill:#FFFFFF; fill-opacity:1.0000; stroke:none;">
<circle cx="204.6122" cy="123.7950" r="0.4000" /> 
</g>
<g style="fill:#FFFFFF; fill-opacity:1.0000; stroke:none;">
<circle cx="204.6122" cy="126.3350" r="0.4000" /> 
</g>
<g style="fill:#FFFFFF; fill-opacity:1.0000; stroke:none;">
<circle cx="204.6122" cy="128.8750" r="0.4000" /> 
</g>
<g style="fill:#FFFFFF; fill-opacity:1.0000; stroke:none;">
<circle cx="204.6122" cy="131.4150" r="0.4000" /> 
</g>
<g style="fill:#FFFFFF; fill-opacity:1.0000; stroke:none;">
<circle cx="216.0022" cy="134.8000" r="0.4000" /> 
</g>
<g style="fill:#FFFFFF; fill-opacity:1.0000; stroke:none;">
<circle cx="213.5022" cy="134.8000" r="0.4000" /> 
</g>
<g style="fill:#FFFFFF; fill-opacity:1.0000; stroke:none;">
<circle cx="219.0622" cy="120.4000" r="0.5000" /> 
</g>
<g style="fill:#FFFFFF; fill-opacity:1.0000; stroke:none;">
<circle cx="221.6022" cy="120.4000" r="0.5000" /> 
</g>
<g style="fill:#FFFFFF; fill-opacity:1.0000; stroke:none;">
<circle cx="224.1422" cy="120.4000" r="0.5000" /> 
</g>
<g style="fill:#FFFFFF; fill-opacity:1.0000; stroke:none;">
<circle cx="167.5022" cy="127.9000" r="0.3000" /> 
</g>
<g style="fill:#FFFFFF; fill-opacity:1.0000; stroke:none;">
<circle cx="165.5022" cy="127.9000" r="0.3000" /> 
</g>
<g style="fill:#FFFFFF; fill-opacity:1.0000; stroke:none;">
<circle cx="180.1322" cy="137.5500" r="0.4000" /> 
</g>
<g style="fill:#FFFFFF; fill-opacity:1.0000; stroke:none;">
<circle cx="187.7522" cy="137.5500" r="0.4000" /> 
</g>
<g style="fill:#FFFFFF; fill-opacity:1.0000; stroke:none;">
<circle cx="180.1422" cy="134.4500" r="0.4000" /> 
</g>
<g style="fill:#FFFFFF; fill-opacity:1.0000; stroke:none;">
<circle cx="187.7622" cy="134.4500" r="0.4000" /> 
</g>
<g style="fill:#FFFFFF; fill-opacity:1.0000; stroke:none;">
<circle cx="193.4022" cy="121.6800" r="0.5000" /> 
</g>
<g style="fill:#FFFFFF; fill-opacity:1.0000; stroke:none;">
<circle cx="190.8622" cy="121.6800" r="0.5000" /> 
</g>
<g style="fill:#FFFFFF; fill-opacity:1.0000; stroke:none;">
<circle cx="193.4022" cy="124.2200" r="0.5000" /> 
</g>
<g style="fill:#FFFFFF; fill-opacity:1.0000; stroke:none;">
<circle cx="190.8622" cy="124.2200" r="0.5000" /> 
</g>
<g style="fill:#FFFFFF; fill-opacity:1.0000; stroke:none;">
<circle cx="193.4022" cy="126.7600" r="0.5000" /> 
</g>
<g style="fill:#FFFFFF; fill-opacity:1.0000; stroke:none;">
<circle cx="190.8622" cy="126.7600" r="0.5000" /> 
</g>
<g style="fill:#FFFFFF; fill-opacity:1.0000; stroke:none;">
<circle cx="193.4022" cy="129.3000" r="0.5000" /> 
</g>
<g style="fill:#FFFFFF; fill-opacity:1.0000; stroke:none;">
<circle cx="190.8622" cy="129.3000" r="0.5000" /> 
</g>
<g style="fill:#FFFFFF; fill-opacity:1.0000; stroke:none;">
<circle cx="193.4022" cy="131.8400" r="0.5000" /> 
</g>
<g style="fill:#FFFFFF; fill-opacity:1.0000; stroke:none;">
<circle cx="190.8622" cy="131.8400" r="0.5000" /> 
</g>
<g style="fill:#FFFFFF; fill-opacity:1.0000; stroke:none;">
<circle cx="193.4022" cy="134.3800" r="0.5000" /> 
</g>
<g style="fill:#FFFFFF; fill-opacity:1.0000; stroke:none;">
<circle cx="190.8622" cy="134.3800" r="0.5000" /> 
</g>
<g style="fill:#FFFFFF; fill-opacity:1.0000; stroke:none;">
<circle cx="193.4022" cy="136.9200" r="0.5000" /> 
</g>
<g style="fill:#FFFFFF; fill-opacity:1.0000; stroke:none;">
<circle cx="190.8622" cy="136.9200" r="0.5000" /> 
</g>
<g style="fill:#FFFFFF; fill-opacity:1.0000; stroke:none;">
<circle cx="153.2922" cy="117.5500" r="0.4000" /> 
</g>
<g style="fill:#FFFFFF; fill-opacity:1.0000; stroke:none;">
<circle cx="160.9122" cy="117.5500" r="0.4000" /> 
</g>
<g style="fill:#FFFFFF; fill-opacity:1.0000; stroke:none;">
<circle cx="172.7022" cy="118.4000" r="0.4000" /> 
</g>
<g style="fill:#FFFFFF; fill-opacity:1.0000; stroke:none;">
<circle cx="170.1622" cy="115.8600" r="0.4000" /> 
</g>
<g style="fill:#FFFFFF; fill-opacity:1.0000; stroke:none;">
<circle cx="167.6222" cy="118.4000" r="0.4000" /> 
</g>
<g style="fill:#FFFFFF; fill-opacity:1.0000; stroke:none;">
<circle cx="150.9248" cy="117.3000" r="0.3000" /> 
</g>
<g style="fill:#FFFFFF; fill-opacity:1.0000; stroke:none;">
<circle cx="148.9248" cy="117.3000" r="0.3000" /> 
</g>
<g style="fill:#FFFFFF; fill-opacity:1.0000; stroke:none;">
<circle cx="180.1422" cy="122.0500" r="0.4000" /> 
</g>
<g style="fill:#FFFFFF; fill-opacity:1.0000; stroke:none;">
<circle cx="187.7622" cy="122.0500" r="0.4000" /> 
</g>
<g style="fill:#FFFFFF; fill-opacity:1.0000; stroke:none;">
<circle cx="159.9922" cy="138.2000" r="0.4000" /> 
</g>
<g style="fill:#FFFFFF; fill-opacity:1.0000; stroke:none;">
<circle cx="167.6122" cy="138.2000" r="0.4000" /> 
</g>
<g style="fill:#FFFFFF; fill-opacity:1.0000; stroke:none;">
<circle cx="170.3322" cy="137.5500" r="0.4000" /> 
</g>
<g style="fill:#FFFFFF; fill-opacity:1.0000; stroke:none;">
<circle cx="177.9522" cy="137.5500" r="0.4000" /> 
</g>
<g style="fill:#FFFFFF; fill-opacity:1.0000; stroke:none;">
<circle cx="170.3422" cy="134.4500" r="0.4000" /> 
</g>
<g style="fill:#FFFFFF; fill-opacity:1.0000; stroke:none;">
<circle cx="177.9622" cy="134.4500" r="0.4000" /> 
</g>
<g style="fill:#FFFFFF; fill-opacity:1.0000; stroke:none;">
<circle cx="170.3422" cy="128.2500" r="0.4000" /> 
</g>
<g style="fill:#FFFFFF; fill-opacity:1.0000; stroke:none;">
<circle cx="177.9622" cy="128.2500" r="0.4000" /> 
</g>
<g style="fill:#FFFFFF; fill-opacity:1.0000; stroke:none;">
<circle cx="180.1422" cy="125.1500" r="0.4000" /> 
</g>
<g style="fill:#FFFFFF; fill-opacity:1.0000; stroke:none;">
<circle cx="187.7622" cy="125.1500" r="0.4000" /> 
</g>
<g style="fill:#FFFFFF; fill-opacity:1.0000; stroke:none;">
<circle cx="221.2622" cy="125.4000" r="0.4000" /> 
</g>
<g style="fill:#FFFFFF; fill-opacity:1.0000; stroke:none;">
<circle cx="226.1422" cy="125.4000" r="0.4000" /> 
</g>
<g style="fill:#FFFFFF; fill-opacity:1.0000; stroke:none;">
<circle cx="180.1422" cy="128.2500" r="0.4000" /> 
</g>
<g style="fill:#FFFFFF; fill-opacity:1.0000; stroke:none;">
<circle cx="187.7622" cy="128.2500" r="0.4000" /> 
</g>
<g style="fill:#FFFFFF; fill-opacity:1.0000; stroke:none;">
<circle cx="226.7522" cy="130.5000" r="0.4000" /> 
</g>
<g style="fill:#FFFFFF; fill-opacity:1.0000; stroke:none;">
<circle cx="224.2522" cy="130.5000" r="0.4000" /> 
</g>
<g style="fill:#FFFFFF; fill-opacity:1.0000; stroke:none;">
<circle cx="163.5522" cy="115.7000" r="0.4000" /> 
</g>
<g style="fill:#FFFFFF; fill-opacity:1.0000; stroke:none;">
<circle cx="163.5522" cy="118.2000" r="0.4000" /> 
</g>
<g style="fill:#FFFFFF; fill-opacity:1.0000; stroke:none;">
<circle cx="159.9922" cy="135.2000" r="0.4000" /> 
</g>
<g style="fill:#FFFFFF; fill-opacity:1.0000; stroke:none;">
<circle cx="167.6122" cy="135.2000" r="0.4000" /> 
</g>
<g style="fill:#FFFFFF; fill-opacity:1.0000; stroke:none;">
<circle cx="192.7822" cy="118.4000" r="0.4000" /> 
</g>
<g style="fill:#FFFFFF; fill-opacity:1.0000; stroke:none;">
<circle cx="190.2422" cy="115.8600" r="0.4000" /> 
</g>
<g style="fill:#FFFFFF; fill-opacity:1.0000; stroke:none;">
<circle cx="187.7022" cy="118.4000" r="0.4000" /> 
</g> 
</svg>
