<?xml version="1.0" standalone="no"?>
 <!DOCTYPE svg PUBLIC "-//W3C//DTD SVG 1.1//EN" 
 "http://www.w3.org/Graphics/SVG/1.1/DTD/svg11.dtd"> 
<svg
  xmlns:svg="http://www.w3.org/2000/svg"
  xmlns="http://www.w3.org/2000/svg"
  xmlns:xlink="http://www.w3.org/1999/xlink"
  xmlns:inkscape="http://www.inkscape.org/namespaces/inkscape"
  version="1.1"
  width="297.0022mm" height="210.0072mm" viewBox="0.0000 0.0000 297.0022 210.0072">
<title>SVG Image created as rc2014-ym2149-F_Courtyard0.svg date 2026-07-20T21:23:24 </title>
  <desc>Image generated by PCBNEW </desc>
<g style="fill:#000000; fill-opacity:1.0000;stroke:#000000; stroke-opacity:1.0000;
stroke-linecap:round; stroke-linejoin:round;"
 transform="translate(0 0) scale(1 1)">
<path style="fill:none; 
stroke:#000000; stroke-width:0.0500; stroke-opacity:1; 
stroke-linecap:round; stroke-linejoin:round;fill:none"
d="M 87.0000,157.8500
91.6000,157.8500
91.6000,160.9500
87.0000,160.9500
Z" /> 
<path style="fill:none; 
stroke:#000000; stroke-width:0.0500; stroke-opacity:1; 
stroke-linecap:round; stroke-linejoin:round;fill:none"
d="M 81.0000,157.8500
85.6000,157.8500
85.6000,160.9500
81.0000,160.9500
Z" /> 
<path style="fill:none; 
stroke:#000000; stroke-width:0.0500; stroke-opacity:1; 
stroke-linecap:round; stroke-linejoin:round;fill:none"
d="M 66.4200,158.0500
71.0200,158.0500
71.0200,161.1500
66.4200,161.1500
Z" /> 
<path style="fill:none; 
stroke:#000000; stroke-width:0.0500; stroke-opacity:1; 
stroke-linecap:round; stroke-linejoin:round;fill:none"
d="M 102.8500,158.1000
107.4500,158.1000
107.4500,161.2000
102.8500,161.2000
Z" /> 
<path style="fill:none; 
stroke:#000000; stroke-width:0.0500; stroke-opacity:1; 
stroke-linecap:round; stroke-linejoin:round;fill:none"
d="M 92.2900,136.9300
100.9100,136.9300
100.9100,140.4700
92.2900,140.4700
Z" /> 
<path style="fill:none; 
stroke:#000000; stroke-width:0.0500; stroke-opacity:1; 
stroke-linecap:round; stroke-linejoin:round;fill:none"
d="M 77.2300,147.5500
80.7700,147.5500
80.7700,156.1700
77.2300,156.1700
Z" /> 
<path style="fill:none; 
stroke:#000000; stroke-width:0.0500; stroke-opacity:1; 
stroke-linecap:round; stroke-linejoin:round;fill:none"
d="M 77.2300,137.3300
80.7700,137.3300
80.7700,145.9500
77.2300,145.9500
Z" /> 
<path style="fill:none; 
stroke:#000000; stroke-width:0.0500; stroke-opacity:1; 
stroke-linecap:round; stroke-linejoin:round;fill:none"
d="M 92.3300,133.2300
100.9500,133.2300
100.9500,136.7700
92.3300,136.7700
Z" /> 
<path style="fill:none; 
stroke:#000000; stroke-width:0.0500; stroke-opacity:1; 
stroke-linecap:round; stroke-linejoin:round;fill:none"
d="M 66.3200,137.0400
76.9800,137.0400
76.9800,157.9800
66.3200,157.9800
Z" /> 
<path style="fill:none; 
stroke:#000000; stroke-width:0.0500; stroke-opacity:1; 
stroke-linecap:round; stroke-linejoin:round;fill:none"
d="M 80.9700,136.7300
91.6300,136.7300
91.6300,157.6700
80.9700,157.6700
Z" /> 
<path style="fill:none; 
stroke:#000000; stroke-width:0.0500; stroke-opacity:1; 
stroke-linecap:round; stroke-linejoin:round;fill:none"
d="M 91.8700,140.6450
102.5300,140.6450
102.5300,159.0550
91.8700,159.0550
Z" /> 
<path style="fill:none; 
stroke:#000000; stroke-width:0.0500; stroke-opacity:1; 
stroke-linecap:round; stroke-linejoin:round;fill:none"
d="M 102.8200,139.7800
154.2500,139.7800
154.2500,158.0800
102.8200,158.0800
Z" /> 
<path style="fill:none; 
stroke:#000000; stroke-width:0.0500; stroke-opacity:1; 
stroke-linecap:round; stroke-linejoin:round;fill:none"
d="M 60.2100,135.2900
66.3000,135.2900
66.3000,159.1500
60.2100,159.1500
Z" /> 
<path style="fill:none; 
stroke:#000000; stroke-width:0.0500; stroke-opacity:1; 
stroke-linecap:round; stroke-linejoin:round;fill:none"
d="M 145.8050,135.9300
151.8950,135.9300
151.8950,139.4700
145.8050,139.4700
Z" /> 
</g>
<g style="fill:none; 
stroke:#000000; stroke-width:0.0500; stroke-opacity:1; 
stroke-linecap:round; stroke-linejoin:round;">
<circle cx="65.5320" cy="131.3820" r="3.4500" /> 
<path d="M60.2000 161.2000
L60.2000 164.8000
" />
<path d="M60.2000 164.8000
L160.3000 164.8000
" />
<path d="M160.3000 161.2000
L60.2000 161.2000
" />
<path d="M160.3000 164.8000
L160.3000 161.2000
" />
<path d="M145.8000 132.4500
L145.8000 119.9500
" />
<path d="M160.8000 119.9500
L145.8000 119.9500
" />
<path d="M160.8000 132.4500
L145.8000 132.4500
" />
<path d="M160.8000 132.4500
L160.8000 119.9500
" />
<path style="fill:none; 
stroke:#000000; stroke-width:0.0500; stroke-opacity:1; 
stroke-linecap:round; stroke-linejoin:round;fill:none"
d="M 111.7800,114.4600
121.8200,114.4600
121.8200,119.8000
111.7800,119.8000
Z" /> 
<circle cx="141.3274" cy="132.5000" r="2.2500" /> 
<path style="fill:none; 
stroke:#000000; stroke-width:0.0500; stroke-opacity:1; 
stroke-linecap:round; stroke-linejoin:round;fill:none"
d="M 79.8700,114.5950
90.5300,114.5950
90.5300,133.0050
79.8700,133.0050
Z" /> 
<path style="fill:none; 
stroke:#000000; stroke-width:0.0500; stroke-opacity:1; 
stroke-linecap:round; stroke-linejoin:round;fill:none"
d="M 134.9100,119.3700
145.6900,119.3700
145.6900,130.0300
134.9100,130.0300
Z" /> 
<path style="fill:none; 
stroke:#000000; stroke-width:0.0500; stroke-opacity:1; 
stroke-linecap:round; stroke-linejoin:round;fill:none"
d="M 108.1900,129.8500
117.9100,129.8500
117.9100,132.8500
108.1900,132.8500
Z" /> 
<path style="fill:none; 
stroke:#000000; stroke-width:0.0500; stroke-opacity:1; 
stroke-linecap:round; stroke-linejoin:round;fill:none"
d="M 144.2500,132.7000
153.9700,132.7000
153.9700,135.7000
144.2500,135.7000
Z" /> 
<path style="fill:none; 
stroke:#000000; stroke-width:0.0500; stroke-opacity:1; 
stroke-linecap:round; stroke-linejoin:round;fill:none"
d="M 117.9800,123.6500
127.7000,123.6500
127.7000,126.6500
117.9800,126.6500
Z" /> 
<path style="fill:none; 
stroke:#000000; stroke-width:0.0500; stroke-opacity:1; 
stroke-linecap:round; stroke-linejoin:round;fill:none"
d="M 128.3300,130.7000
138.0500,130.7000
138.0500,133.7000
128.3300,133.7000
Z" /> 
<circle cx="141.3274" cy="137.2000" r="2.2500" /> 
<path style="fill:none; 
stroke:#000000; stroke-width:0.0500; stroke-opacity:1; 
stroke-linecap:round; stroke-linejoin:round;fill:none"
d="M 74.7000,128.9500
79.3000,128.9500
79.3000,132.0500
74.7000,132.0500
Z" /> 
<path style="fill:none; 
stroke:#000000; stroke-width:0.0500; stroke-opacity:1; 
stroke-linecap:round; stroke-linejoin:round;fill:none"
d="M 149.4400,116.0500
159.1600,116.0500
159.1600,119.0500
149.4400,119.0500
Z" /> 
<path style="fill:none; 
stroke:#000000; stroke-width:0.0500; stroke-opacity:1; 
stroke-linecap:round; stroke-linejoin:round;fill:none"
d="M 117.9900,129.8500
127.7100,129.8500
127.7100,132.8500
117.9900,132.8500
Z" /> 
<path style="fill:none; 
stroke:#000000; stroke-width:0.0500; stroke-opacity:1; 
stroke-linecap:round; stroke-linejoin:round;fill:none"
d="M 85.7500,133.2500
90.3500,133.2500
90.3500,136.3500
85.7500,136.3500
Z" /> 
<circle cx="132.1000" cy="122.6000" r="2.7500" /> 
<path style="fill:none; 
stroke:#000000; stroke-width:0.0500; stroke-opacity:1; 
stroke-linecap:round; stroke-linejoin:round;fill:none"
d="M 69.3300,133.0000
79.0500,133.0000
79.0500,136.0000
69.3300,136.0000
Z" /> 
<path style="fill:none; 
stroke:#000000; stroke-width:0.0500; stroke-opacity:1; 
stroke-linecap:round; stroke-linejoin:round;fill:none"
d="M 117.9800,120.5500
127.7000,120.5500
127.7000,123.5500
117.9800,123.5500
Z" /> 
<path style="fill:none; 
stroke:#000000; stroke-width:0.0500; stroke-opacity:1; 
stroke-linecap:round; stroke-linejoin:round;fill:none"
d="M 154.3300,135.1900
160.4200,135.1900
160.4200,159.0500
154.3300,159.0500
Z" /> 
<path style="fill:none; 
stroke:#000000; stroke-width:0.0500; stroke-opacity:1; 
stroke-linecap:round; stroke-linejoin:round;fill:none"
d="M 90.8700,114.5950
101.5300,114.5950
101.5300,133.0050
90.8700,133.0050
Z" /> 
<path style="fill:none; 
stroke:#000000; stroke-width:0.0500; stroke-opacity:1; 
stroke-linecap:round; stroke-linejoin:round;fill:none"
d="M 79.9500,133.2500
84.5500,133.2500
84.5500,136.3500
79.9500,136.3500
Z" /> 
<path d="M71.0900 118.6300
L79.7100 118.6300
" />
<path d="M71.0900 122.1700
L71.0900 118.6300
" />
<path d="M79.7100 118.6300
L79.7100 122.1700
" />
<path d="M79.7100 122.1700
L71.0900 122.1700
" />
<circle cx="130.5000" cy="127.9000" r="2.7500" /> 
<path style="fill:none; 
stroke:#000000; stroke-width:0.0500; stroke-opacity:1; 
stroke-linecap:round; stroke-linejoin:round;fill:none"
d="M 108.2000,136.0500
117.9200,136.0500
117.9200,139.0500
108.2000,139.0500
Z" /> 
<path style="fill:none; 
stroke:#000000; stroke-width:0.0500; stroke-opacity:1; 
stroke-linecap:round; stroke-linejoin:round;fill:none"
d="M 108.1900,132.9500
117.9100,132.9500
117.9100,135.9500
108.1900,135.9500
Z" /> 
<path style="fill:none; 
stroke:#000000; stroke-width:0.0500; stroke-opacity:1; 
stroke-linecap:round; stroke-linejoin:round;fill:none"
d="M 101.8300,119.9000
107.9200,119.9000
107.9200,138.7000
101.8300,138.7000
Z" /> 
<path style="fill:none; 
stroke:#000000; stroke-width:0.0500; stroke-opacity:1; 
stroke-linecap:round; stroke-linejoin:round;fill:none"
d="M 135.0400,116.0500
144.7600,116.0500
144.7600,119.0500
135.0400,119.0500
Z" /> 
<path style="fill:none; 
stroke:#000000; stroke-width:0.0500; stroke-opacity:1; 
stroke-linecap:round; stroke-linejoin:round;fill:none"
d="M 121.8200,114.4600
131.8600,114.4600
131.8600,119.8000
121.8200,119.8000
Z" /> 
<circle cx="147.0774" cy="117.3000" r="2.2500" /> 
<path style="fill:none; 
stroke:#000000; stroke-width:0.0500; stroke-opacity:1; 
stroke-linecap:round; stroke-linejoin:round;fill:none"
d="M 108.1900,120.5500
117.9100,120.5500
117.9100,123.5500
108.1900,123.5500
Z" /> 
<path style="fill:none; 
stroke:#000000; stroke-width:0.0500; stroke-opacity:1; 
stroke-linecap:round; stroke-linejoin:round;fill:none"
d="M 128.3400,136.7000
138.0600,136.7000
138.0600,139.7000
128.3400,139.7000
Z" /> 
<path style="fill:none; 
stroke:#000000; stroke-width:0.0500; stroke-opacity:1; 
stroke-linecap:round; stroke-linejoin:round;fill:none"
d="M 118.0000,136.0500
127.7200,136.0500
127.7200,139.0500
118.0000,139.0500
Z" /> 
<path style="fill:none; 
stroke:#000000; stroke-width:0.0500; stroke-opacity:1; 
stroke-linecap:round; stroke-linejoin:round;fill:none"
d="M 117.9900,132.9500
127.7100,132.9500
127.7100,135.9500
117.9900,135.9500
Z" /> 
<path style="fill:none; 
stroke:#000000; stroke-width:0.0500; stroke-opacity:1; 
stroke-linecap:round; stroke-linejoin:round;fill:none"
d="M 117.9900,126.7500
127.7100,126.7500
127.7100,129.7500
117.9900,129.7500
Z" /> 
<path style="fill:none; 
stroke:#000000; stroke-width:0.0500; stroke-opacity:1; 
stroke-linecap:round; stroke-linejoin:round;fill:none"
d="M 108.1900,123.6500
117.9100,123.6500
117.9100,126.6500
108.1900,126.6500
Z" /> 
<path d="M70.1800 122.5700
L76.4200 122.5700
" />
<path d="M76.4200 128.2300
L70.1800 128.2300
" />
<path d="M70.1800 122.5700 A2.8300 2.8300 0.0 0 0 70.1800 128.2300" />
<path d="M76.4200 128.2300 A2.8300 2.8300 0.0 0 0 76.4200 122.5700" />
<path style="fill:none; 
stroke:#000000; stroke-width:0.0500; stroke-opacity:1; 
stroke-linecap:round; stroke-linejoin:round;fill:none"
d="M 108.1900,126.7500
117.9100,126.7500
117.9100,129.7500
108.1900,129.7500
Z" /> 
<path style="fill:none; 
stroke:#000000; stroke-width:0.0500; stroke-opacity:1; 
stroke-linecap:round; stroke-linejoin:round;fill:none"
d="M 69.2000,128.9500
73.8000,128.9500
73.8000,132.0500
69.2000,132.0500
Z" /> 
<path style="fill:none; 
stroke:#000000; stroke-width:0.0500; stroke-opacity:1; 
stroke-linecap:round; stroke-linejoin:round;fill:none"
d="M 131.9000,114.6500
135.0000,114.6500
135.0000,119.2500
131.9000,119.2500
Z" /> 
<path style="fill:none; 
stroke:#000000; stroke-width:0.0500; stroke-opacity:1; 
stroke-linecap:round; stroke-linejoin:round;fill:none"
d="M 128.3400,133.7000
138.0600,133.7000
138.0600,136.7000
128.3400,136.7000
Z" /> 
<path style="fill:none; 
stroke:#000000; stroke-width:0.0500; stroke-opacity:1; 
stroke-linecap:round; stroke-linejoin:round;fill:none"
d="M 101.7400,114.4600
111.7800,114.4600
111.7800,119.8000
101.7400,119.8000
Z" /> 
</g> 
</svg>
