<?xml version="1.0" standalone="no"?>
 <!DOCTYPE svg PUBLIC "-//W3C//DTD SVG 1.1//EN" 
 "http://www.w3.org/Graphics/SVG/1.1/DTD/svg11.dtd"> 
<svg
  xmlns:svg="http://www.w3.org/2000/svg"
  xmlns="http://www.w3.org/2000/svg"
  xmlns:xlink="http://www.w3.org/1999/xlink"
  xmlns:inkscape="http://www.inkscape.org/namespaces/inkscape"
  version="1.1"
  width="297.0022mm" height="210.0072mm" viewBox="0.0000 0.0000 297.0022 210.0072">
<title>SVG Image created as rc2014-ym2149-B_Cu_vias_1.svg date 2026-07-20T21:23:23 </title>
  <desc>Image generated by PCBNEW </desc>
<g style="fill:#000000; fill-opacity:1.0000;stroke:#000000; stroke-opacity:1.0000;
stroke-linecap:round; stroke-linejoin:round;"
 transform="translate(0 0) scale(1 1)">
</g>
<g style="fill:#000000; fill-opacity:1.0000; stroke:none;">
<circle cx="132.4522" cy="176.6664" r="0.0000" /> 
<circle cx="255.9765" cy="106.6921" r="0.0000" /> 
</g>
<g style="fill:#FFFFFF; fill-opacity:1.0000; stroke:none;">
<circle cx="198.4575" cy="148.2069" r="-0.0000" /> 
<circle cx="190.0022" cy="139.1000" r="-0.0000" /> 
<circle cx="185.9022" cy="136.8000" r="-0.0000" /> 
</g>
<g style="fill:#000000; fill-opacity:1.0000; stroke:none;">
<circle cx="206.4522" cy="159.4000" r="-0.0000" /> 
<circle cx="208.9522" cy="159.4000" r="-0.0000" /> 
<circle cx="214.9522" cy="159.4000" r="-0.0000" /> 
<circle cx="212.4522" cy="159.4000" r="-0.0000" /> 
<circle cx="229.5322" cy="159.6000" r="-0.0000" /> 
<circle cx="227.0322" cy="159.6000" r="-0.0000" /> 
<circle cx="193.1022" cy="159.6500" r="-0.0000" /> 
<circle cx="190.6022" cy="159.6500" r="-0.0000" /> 
<circle cx="202.9422" cy="138.7000" r="-0.0000" /> 
<circle cx="200.4022" cy="138.7000" r="-0.0000" /> 
<circle cx="197.8622" cy="138.7000" r="-0.0000" /> 
<circle cx="218.0022" cy="149.3200" r="-0.0000" /> 
<circle cx="218.0022" cy="151.8600" r="-0.0000" /> 
<circle cx="218.0022" cy="154.4000" r="-0.0000" /> 
<circle cx="218.0022" cy="139.1000" r="-0.0000" /> 
<circle cx="218.0022" cy="141.6400" r="-0.0000" /> 
<circle cx="218.0022" cy="144.1800" r="-0.0000" /> 
<circle cx="202.9022" cy="135.0000" r="-0.0000" /> 
<circle cx="200.3622" cy="135.0000" r="-0.0000" /> 
<circle cx="197.8222" cy="135.0000" r="-0.0000" /> 
<circle cx="221.5422" cy="156.4000" r="-0.0000" /> 
<circle cx="221.5422" cy="153.8600" r="-0.0000" /> 
<circle cx="221.5422" cy="151.3200" r="-0.0000" /> 
<circle cx="221.5422" cy="148.7800" r="-0.0000" /> 
<circle cx="221.5422" cy="146.2400" r="-0.0000" /> 
<circle cx="221.5422" cy="143.7000" r="-0.0000" /> 
<circle cx="221.5422" cy="141.1600" r="-0.0000" /> 
<circle cx="221.5422" cy="138.6200" r="-0.0000" /> 
<circle cx="229.1622" cy="138.6200" r="-0.0000" /> 
<circle cx="229.1622" cy="141.1600" r="-0.0000" /> 
<circle cx="229.1622" cy="143.7000" r="-0.0000" /> 
<circle cx="229.1622" cy="146.2400" r="-0.0000" /> 
<circle cx="229.1622" cy="148.7800" r="-0.0000" /> 
<circle cx="229.1622" cy="151.3200" r="-0.0000" /> 
<circle cx="229.1622" cy="153.8600" r="-0.0000" /> 
<circle cx="229.1622" cy="156.4000" r="-0.0000" /> 
<circle cx="206.8922" cy="156.0900" r="-0.0000" /> 
<circle cx="206.8922" cy="153.5500" r="-0.0000" /> 
<circle cx="206.8922" cy="151.0100" r="-0.0000" /> 
<circle cx="206.8922" cy="148.4700" r="-0.0000" /> 
<circle cx="206.8922" cy="145.9300" r="-0.0000" /> 
<circle cx="206.8922" cy="143.3900" r="-0.0000" /> 
<circle cx="206.8922" cy="140.8500" r="-0.0000" /> 
<circle cx="206.8922" cy="138.3100" r="-0.0000" /> 
<circle cx="214.5122" cy="138.3100" r="-0.0000" /> 
<circle cx="214.5122" cy="140.8500" r="-0.0000" /> 
<circle cx="214.5122" cy="143.3900" r="-0.0000" /> 
<circle cx="214.5122" cy="145.9300" r="-0.0000" /> 
<circle cx="214.5122" cy="148.4700" r="-0.0000" /> 
<circle cx="214.5122" cy="151.0100" r="-0.0000" /> 
<circle cx="214.5122" cy="153.5500" r="-0.0000" /> 
<circle cx="214.5122" cy="156.0900" r="-0.0000" /> 
<circle cx="195.9922" cy="157.4650" r="-0.0000" /> 
<circle cx="195.9922" cy="154.9250" r="-0.0000" /> 
<circle cx="195.9922" cy="152.3850" r="-0.0000" /> 
<circle cx="195.9922" cy="149.8450" r="-0.0000" /> 
<circle cx="195.9922" cy="147.3050" r="-0.0000" /> 
<circle cx="195.9922" cy="144.7650" r="-0.0000" /> 
<circle cx="195.9922" cy="142.2250" r="-0.0000" /> 
<circle cx="203.6122" cy="142.2250" r="-0.0000" /> 
<circle cx="203.6122" cy="144.7650" r="-0.0000" /> 
<circle cx="203.6122" cy="147.3050" r="-0.0000" /> 
<circle cx="203.6122" cy="149.8450" r="-0.0000" /> 
<circle cx="203.6122" cy="152.3850" r="-0.0000" /> 
<circle cx="203.6122" cy="154.9250" r="-0.0000" /> 
<circle cx="203.6122" cy="157.4650" r="-0.0000" /> 
<circle cx="192.5922" cy="156.5500" r="-0.0000" /> 
<circle cx="190.0522" cy="156.5500" r="-0.0000" /> 
<circle cx="187.5122" cy="156.5500" r="-0.0000" /> 
<circle cx="184.9722" cy="156.5500" r="-0.0000" /> 
<circle cx="182.4322" cy="156.5500" r="-0.0000" /> 
<circle cx="179.8922" cy="156.5500" r="-0.0000" /> 
<circle cx="177.3522" cy="156.5500" r="-0.0000" /> 
<circle cx="174.8122" cy="156.5500" r="-0.0000" /> 
<circle cx="172.2722" cy="156.5500" r="-0.0000" /> 
<circle cx="169.7322" cy="156.5500" r="-0.0000" /> 
<circle cx="167.1922" cy="156.5500" r="-0.0000" /> 
<circle cx="164.6522" cy="156.5500" r="-0.0000" /> 
<circle cx="162.1122" cy="156.5500" r="-0.0000" /> 
<circle cx="159.5722" cy="156.5500" r="-0.0000" /> 
<circle cx="157.0322" cy="156.5500" r="-0.0000" /> 
<circle cx="154.4922" cy="156.5500" r="-0.0000" /> 
<circle cx="151.9522" cy="156.5500" r="-0.0000" /> 
<circle cx="149.4122" cy="156.5500" r="-0.0000" /> 
<circle cx="146.8722" cy="156.5500" r="-0.0000" /> 
<circle cx="144.3322" cy="156.5500" r="-0.0000" /> 
<circle cx="144.3322" cy="141.3100" r="-0.0000" /> 
<circle cx="146.8722" cy="141.3100" r="-0.0000" /> 
<circle cx="149.4122" cy="141.3100" r="-0.0000" /> 
<circle cx="151.9522" cy="141.3100" r="-0.0000" /> 
<circle cx="154.4922" cy="141.3100" r="-0.0000" /> 
<circle cx="157.0322" cy="141.3100" r="-0.0000" /> 
<circle cx="159.5722" cy="141.3100" r="-0.0000" /> 
<circle cx="162.1122" cy="141.3100" r="-0.0000" /> 
<circle cx="164.6522" cy="141.3100" r="-0.0000" /> 
<circle cx="167.1922" cy="141.3100" r="-0.0000" /> 
<circle cx="169.7322" cy="141.3100" r="-0.0000" /> 
<circle cx="172.2722" cy="141.3100" r="-0.0000" /> 
<circle cx="174.8122" cy="141.3100" r="-0.0000" /> 
<circle cx="177.3522" cy="141.3100" r="-0.0000" /> 
<circle cx="179.8922" cy="141.3100" r="-0.0000" /> 
<circle cx="182.4322" cy="141.3100" r="-0.0000" /> 
<circle cx="184.9722" cy="141.3100" r="-0.0000" /> 
<circle cx="187.5122" cy="141.3100" r="-0.0000" /> 
<circle cx="190.0522" cy="141.3100" r="-0.0000" /> 
<circle cx="192.5922" cy="141.3100" r="-0.0000" /> 
<circle cx="232.4722" cy="157.3800" r="-0.0000" /> 
<circle cx="235.0122" cy="157.3800" r="-0.0000" /> 
<circle cx="232.4722" cy="154.8400" r="-0.0000" /> 
<circle cx="235.0122" cy="154.8400" r="-0.0000" /> 
<circle cx="232.4722" cy="152.3000" r="-0.0000" /> 
<circle cx="235.0122" cy="152.3000" r="-0.0000" /> 
<circle cx="232.4722" cy="149.7600" r="-0.0000" /> 
<circle cx="235.0122" cy="149.7600" r="-0.0000" /> 
<circle cx="232.4722" cy="147.2200" r="-0.0000" /> 
<circle cx="235.0122" cy="147.2200" r="-0.0000" /> 
<circle cx="232.4722" cy="144.6800" r="-0.0000" /> 
<circle cx="235.0122" cy="144.6800" r="-0.0000" /> 
<circle cx="232.4722" cy="142.1400" r="-0.0000" /> 
<circle cx="235.0122" cy="142.1400" r="-0.0000" /> 
<circle cx="232.4722" cy="139.6000" r="-0.0000" /> 
<circle cx="235.0122" cy="139.6000" r="-0.0000" /> 
<circle cx="232.4722" cy="137.0600" r="-0.0000" /> 
<circle cx="235.0122" cy="137.0600" r="-0.0000" /> 
<circle cx="146.8772" cy="137.7000" r="-0.0000" /> 
<circle cx="149.4172" cy="137.7000" r="-0.0000" /> 
<circle cx="231.4702" cy="131.3820" r="-0.0000" /> 
<circle cx="235.0022" cy="163.0000" r="-0.0000" /> 
<circle cx="232.4622" cy="163.0000" r="-0.0000" /> 
<circle cx="229.9222" cy="163.0000" r="-0.0000" /> 
<circle cx="227.3822" cy="163.0000" r="-0.0000" /> 
<circle cx="224.8422" cy="163.0000" r="-0.0000" /> 
<circle cx="222.3022" cy="163.0000" r="-0.0000" /> 
<circle cx="219.7622" cy="163.0000" r="-0.0000" /> 
<circle cx="217.2222" cy="163.0000" r="-0.0000" /> 
<circle cx="214.6822" cy="163.0000" r="-0.0000" /> 
<circle cx="212.1422" cy="163.0000" r="-0.0000" /> 
<circle cx="209.6022" cy="163.0000" r="-0.0000" /> 
<circle cx="207.0622" cy="163.0000" r="-0.0000" /> 
<circle cx="204.5222" cy="163.0000" r="-0.0000" /> 
<circle cx="201.9822" cy="163.0000" r="-0.0000" /> 
<circle cx="199.4422" cy="163.0000" r="-0.0000" /> 
<circle cx="196.9022" cy="163.0000" r="-0.0000" /> 
<circle cx="194.3622" cy="163.0000" r="-0.0000" /> 
<circle cx="191.8222" cy="163.0000" r="-0.0000" /> 
<circle cx="189.2822" cy="163.0000" r="-0.0000" /> 
<circle cx="186.7422" cy="163.0000" r="-0.0000" /> 
<circle cx="184.2022" cy="163.0000" r="-0.0000" /> 
<circle cx="181.6622" cy="163.0000" r="-0.0000" /> 
<circle cx="179.1222" cy="163.0000" r="-0.0000" /> 
<circle cx="176.5822" cy="163.0000" r="-0.0000" /> 
<circle cx="174.0422" cy="163.0000" r="-0.0000" /> 
<circle cx="171.5022" cy="163.0000" r="-0.0000" /> 
<circle cx="168.9622" cy="163.0000" r="-0.0000" /> 
<circle cx="166.4222" cy="163.0000" r="-0.0000" /> 
<circle cx="163.8822" cy="163.0000" r="-0.0000" /> 
<circle cx="161.3422" cy="163.0000" r="-0.0000" /> 
<circle cx="158.8022" cy="163.0000" r="-0.0000" /> 
<circle cx="156.2622" cy="163.0000" r="-0.0000" /> 
<circle cx="153.7222" cy="163.0000" r="-0.0000" /> 
<circle cx="151.1822" cy="163.0000" r="-0.0000" /> 
<circle cx="148.6422" cy="163.0000" r="-0.0000" /> 
<circle cx="146.1022" cy="163.0000" r="-0.0000" /> 
<circle cx="143.5622" cy="163.0000" r="-0.0000" /> 
<circle cx="141.0222" cy="163.0000" r="-0.0000" /> 
<circle cx="138.4822" cy="163.0000" r="-0.0000" /> 
<circle cx="140.4522" cy="131.2000" r="-0.0000" /> 
<circle cx="140.4522" cy="121.2000" r="-0.0000" /> 
<circle cx="142.9522" cy="131.2000" r="-0.0000" /> 
<circle cx="142.9522" cy="121.2000" r="-0.0000" /> 
<circle cx="147.9522" cy="126.2000" r="-0.0000" /> 
</g>
<g style="fill:#000000; fill-opacity:1.0000; stroke:none;">
<circle cx="147.9522" cy="131.2000" r="0.0106" /> 
</g>
<g style="fill:#000000; fill-opacity:1.0000; stroke:none;">
<circle cx="147.9522" cy="128.7000" r="0.0106" /> 
</g>
<g style="fill:#000000; fill-opacity:1.0000; stroke:none;">
<circle cx="142.9522" cy="126.2000" r="0.0106" /> 
</g>
<g style="fill:#000000; fill-opacity:1.0000; stroke:none;">
<circle cx="147.9522" cy="121.2000" r="0.0106" /> 
</g>
<g style="fill:#000000; fill-opacity:1.0000; stroke:none;">
<circle cx="147.9522" cy="123.7000" r="0.0106" /> 
<circle cx="182.7422" cy="118.4000" r="-0.0000" /> 
<circle cx="180.2022" cy="115.8600" r="-0.0000" /> 
<circle cx="177.6622" cy="118.4000" r="-0.0000" /> 
<circle cx="156.6748" cy="132.5000" r="-0.0000" /> 
<circle cx="154.6748" cy="132.5000" r="-0.0000" /> 
<circle cx="207.9922" cy="131.4150" r="-0.0000" /> 
<circle cx="207.9922" cy="128.8750" r="-0.0000" /> 
<circle cx="207.9922" cy="126.3350" r="-0.0000" /> 
<circle cx="207.9922" cy="123.7950" r="-0.0000" /> 
<circle cx="207.9922" cy="121.2550" r="-0.0000" /> 
<circle cx="207.9922" cy="118.7150" r="-0.0000" /> 
<circle cx="207.9922" cy="116.1750" r="-0.0000" /> 
<circle cx="215.6122" cy="116.1750" r="-0.0000" /> 
<circle cx="215.6122" cy="118.7150" r="-0.0000" /> 
<circle cx="215.6122" cy="121.2550" r="-0.0000" /> 
<circle cx="215.6122" cy="123.7950" r="-0.0000" /> 
<circle cx="215.6122" cy="126.3350" r="-0.0000" /> 
<circle cx="215.6122" cy="128.8750" r="-0.0000" /> 
<circle cx="215.6122" cy="131.4150" r="-0.0000" /> 
<circle cx="160.5122" cy="128.5100" r="-0.0000" /> 
<circle cx="157.9722" cy="128.5100" r="-0.0000" /> 
<circle cx="155.4322" cy="128.5100" r="-0.0000" /> 
<circle cx="152.8922" cy="128.5100" r="-0.0000" /> 
<circle cx="152.8922" cy="120.8900" r="-0.0000" /> 
<circle cx="155.4322" cy="120.8900" r="-0.0000" /> 
<circle cx="157.9722" cy="120.8900" r="-0.0000" /> 
<circle cx="160.5122" cy="120.8900" r="-0.0000" /> 
<circle cx="180.1422" cy="131.3500" r="-0.0000" /> 
<circle cx="187.7622" cy="131.3500" r="-0.0000" /> 
<circle cx="151.7022" cy="134.2000" r="-0.0000" /> 
<circle cx="144.0822" cy="134.2000" r="-0.0000" /> 
<circle cx="170.3522" cy="125.1500" r="-0.0000" /> 
<circle cx="177.9722" cy="125.1500" r="-0.0000" /> 
<circle cx="160.0022" cy="132.2000" r="-0.0000" /> 
<circle cx="167.6222" cy="132.2000" r="-0.0000" /> 
<circle cx="156.6748" cy="137.2000" r="-0.0000" /> 
<circle cx="154.6748" cy="137.2000" r="-0.0000" /> 
<circle cx="221.2522" cy="130.5000" r="-0.0000" /> 
<circle cx="218.7522" cy="130.5000" r="-0.0000" /> 
<circle cx="146.5122" cy="117.5500" r="-0.0000" /> 
<circle cx="138.8922" cy="117.5500" r="-0.0000" /> 
<circle cx="170.3422" cy="131.3500" r="-0.0000" /> 
<circle cx="177.9622" cy="131.3500" r="-0.0000" /> 
<circle cx="207.7022" cy="134.8000" r="-0.0000" /> 
<circle cx="210.2022" cy="134.8000" r="-0.0000" /> 
<circle cx="165.9022" cy="122.6000" r="-0.0000" /> 
<circle cx="163.9022" cy="122.6000" r="-0.0000" /> 
<circle cx="219.0022" cy="134.5000" r="-0.0000" /> 
<circle cx="226.6222" cy="134.5000" r="-0.0000" /> 
<circle cx="170.3522" cy="122.0500" r="-0.0000" /> 
<circle cx="177.9722" cy="122.0500" r="-0.0000" /> 
<circle cx="140.9022" cy="136.9600" r="-0.0000" /> 
<circle cx="138.3622" cy="136.9600" r="-0.0000" /> 
<circle cx="140.9022" cy="139.5000" r="-0.0000" /> 
<circle cx="138.3622" cy="139.5000" r="-0.0000" /> 
<circle cx="140.9022" cy="142.0400" r="-0.0000" /> 
<circle cx="138.3622" cy="142.0400" r="-0.0000" /> 
<circle cx="140.9022" cy="144.5800" r="-0.0000" /> 
<circle cx="138.3622" cy="144.5800" r="-0.0000" /> 
<circle cx="140.9022" cy="147.1200" r="-0.0000" /> 
<circle cx="138.3622" cy="147.1200" r="-0.0000" /> 
<circle cx="140.9022" cy="149.6600" r="-0.0000" /> 
<circle cx="138.3622" cy="149.6600" r="-0.0000" /> 
<circle cx="140.9022" cy="152.2000" r="-0.0000" /> 
<circle cx="138.3622" cy="152.2000" r="-0.0000" /> 
<circle cx="140.9022" cy="154.7400" r="-0.0000" /> 
<circle cx="138.3622" cy="154.7400" r="-0.0000" /> 
<circle cx="140.9022" cy="157.2800" r="-0.0000" /> 
<circle cx="138.3622" cy="157.2800" r="-0.0000" /> 
<circle cx="196.9922" cy="131.4150" r="-0.0000" /> 
<circle cx="196.9922" cy="128.8750" r="-0.0000" /> 
<circle cx="196.9922" cy="126.3350" r="-0.0000" /> 
<circle cx="196.9922" cy="123.7950" r="-0.0000" /> 
<circle cx="196.9922" cy="121.2550" r="-0.0000" /> 
<circle cx="196.9922" cy="118.7150" r="-0.0000" /> 
<circle cx="196.9922" cy="116.1750" r="-0.0000" /> 
<circle cx="204.6122" cy="116.1750" r="-0.0000" /> 
<circle cx="204.6122" cy="118.7150" r="-0.0000" /> 
<circle cx="204.6122" cy="121.2550" r="-0.0000" /> 
<circle cx="204.6122" cy="123.7950" r="-0.0000" /> 
<circle cx="204.6122" cy="126.3350" r="-0.0000" /> 
<circle cx="204.6122" cy="128.8750" r="-0.0000" /> 
<circle cx="204.6122" cy="131.4150" r="-0.0000" /> 
<circle cx="216.0022" cy="134.8000" r="-0.0000" /> 
<circle cx="213.5022" cy="134.8000" r="-0.0000" /> 
<circle cx="219.0622" cy="120.4000" r="-0.0000" /> 
<circle cx="221.6022" cy="120.4000" r="-0.0000" /> 
<circle cx="224.1422" cy="120.4000" r="-0.0000" /> 
<circle cx="167.5022" cy="127.9000" r="-0.0000" /> 
<circle cx="165.5022" cy="127.9000" r="-0.0000" /> 
<circle cx="180.1322" cy="137.5500" r="-0.0000" /> 
<circle cx="187.7522" cy="137.5500" r="-0.0000" /> 
<circle cx="180.1422" cy="134.4500" r="-0.0000" /> 
<circle cx="187.7622" cy="134.4500" r="-0.0000" /> 
<circle cx="193.4022" cy="121.6800" r="-0.0000" /> 
<circle cx="190.8622" cy="121.6800" r="-0.0000" /> 
<circle cx="193.4022" cy="124.2200" r="-0.0000" /> 
<circle cx="190.8622" cy="124.2200" r="-0.0000" /> 
<circle cx="193.4022" cy="126.7600" r="-0.0000" /> 
<circle cx="190.8622" cy="126.7600" r="-0.0000" /> 
<circle cx="193.4022" cy="129.3000" r="-0.0000" /> 
<circle cx="190.8622" cy="129.3000" r="-0.0000" /> 
<circle cx="193.4022" cy="131.8400" r="-0.0000" /> 
<circle cx="190.8622" cy="131.8400" r="-0.0000" /> 
<circle cx="193.4022" cy="134.3800" r="-0.0000" /> 
<circle cx="190.8622" cy="134.3800" r="-0.0000" /> 
<circle cx="193.4022" cy="136.9200" r="-0.0000" /> 
<circle cx="190.8622" cy="136.9200" r="-0.0000" /> 
<circle cx="153.2922" cy="117.5500" r="-0.0000" /> 
<circle cx="160.9122" cy="117.5500" r="-0.0000" /> 
<circle cx="172.7022" cy="118.4000" r="-0.0000" /> 
<circle cx="170.1622" cy="115.8600" r="-0.0000" /> 
<circle cx="167.6222" cy="118.4000" r="-0.0000" /> 
<circle cx="150.9248" cy="117.3000" r="-0.0000" /> 
<circle cx="148.9248" cy="117.3000" r="-0.0000" /> 
<circle cx="180.1422" cy="122.0500" r="-0.0000" /> 
<circle cx="187.7622" cy="122.0500" r="-0.0000" /> 
<circle cx="159.9922" cy="138.2000" r="-0.0000" /> 
<circle cx="167.6122" cy="138.2000" r="-0.0000" /> 
<circle cx="170.3322" cy="137.5500" r="-0.0000" /> 
<circle cx="177.9522" cy="137.5500" r="-0.0000" /> 
<circle cx="170.3422" cy="134.4500" r="-0.0000" /> 
<circle cx="177.9622" cy="134.4500" r="-0.0000" /> 
<circle cx="170.3422" cy="128.2500" r="-0.0000" /> 
<circle cx="177.9622" cy="128.2500" r="-0.0000" /> 
<circle cx="180.1422" cy="125.1500" r="-0.0000" /> 
<circle cx="187.7622" cy="125.1500" r="-0.0000" /> 
<circle cx="221.2622" cy="125.4000" r="-0.0000" /> 
<circle cx="226.1422" cy="125.4000" r="-0.0000" /> 
<circle cx="180.1422" cy="128.2500" r="-0.0000" /> 
<circle cx="187.7622" cy="128.2500" r="-0.0000" /> 
<circle cx="226.7522" cy="130.5000" r="-0.0000" /> 
<circle cx="224.2522" cy="130.5000" r="-0.0000" /> 
<circle cx="163.5522" cy="115.7000" r="-0.0000" /> 
<circle cx="163.5522" cy="118.2000" r="-0.0000" /> 
<circle cx="159.9922" cy="135.2000" r="-0.0000" /> 
<circle cx="167.6122" cy="135.2000" r="-0.0000" /> 
<circle cx="192.7822" cy="118.4000" r="-0.0000" /> 
<circle cx="190.2422" cy="115.8600" r="-0.0000" /> 
<circle cx="187.7022" cy="118.4000" r="-0.0000" /> 
</g> 
</svg>
