<?xml version="1.0" standalone="no"?>
 <!DOCTYPE svg PUBLIC "-//W3C//DTD SVG 1.1//EN" 
 "http://www.w3.org/Graphics/SVG/1.1/DTD/svg11.dtd"> 
<svg
  xmlns:svg="http://www.w3.org/2000/svg"
  xmlns="http://www.w3.org/2000/svg"
  xmlns:xlink="http://www.w3.org/1999/xlink"
  xmlns:inkscape="http://www.inkscape.org/namespaces/inkscape"
  version="1.1"
  width="10.215000000000002cm" height="5.215cm" viewBox="59.425 113.425 102.15 52.15">
<title>SVG Image created as rc2014-ym2149-F_Cu.svg date 2026-07-20T12:47:14 </title>
  <desc>Image generated by PCBNEW </desc>
<g style="fill:#000000; fill-opacity:1.000000;stroke:#000000; stroke-opacity:1.000000;
stroke-linecap:round; stroke-linejoin:round;"
 transform="translate(0 0) scale(1 1)">
</g>
<g style="fill:none; 
stroke:#000000; stroke-width:0.200000; stroke-opacity:1; 
stroke-linecap:round; stroke-linejoin:round;">
<text x="155.395000" y="160.575000"
textLength="1.352381" font-size="1.333333" lengthAdjust="spacingAndGlyphs"
text-anchor="middle" opacity="0" stroke-opacity="0">1</text>
<g class="stroked-text"><desc>1</desc>
<path d="M155.680714 160.527219
L155.109286 160.527219
" />
<path d="M155.395000 160.527219
L155.395000 159.527219
" />
<path d="M155.395000 159.527219
L155.299762 159.670076
" />
<path d="M155.299762 159.670076
L155.204524 159.765314
" />
<path d="M155.204524 159.765314
L155.109286 159.812933
" />
</g></g>
<g style="fill:#000000; fill-opacity:1.000000; stroke:none;">
<circle cx="90.550000" cy="159.400000" r="0.800000" /> 
<circle cx="88.050000" cy="159.400000" r="0.800000" /> 
<circle cx="82.050000" cy="159.400000" r="0.800000" /> 
<circle cx="84.550000" cy="159.400000" r="0.800000" /> 
<circle cx="67.470000" cy="159.600000" r="0.800000" /> 
<circle cx="69.970000" cy="159.600000" r="0.800000" /> 
<circle cx="103.900000" cy="159.650000" r="0.800000" /> 
<circle cx="106.400000" cy="159.650000" r="0.800000" /> 
<path style="fill:#000000; fill-opacity:1.000000; stroke:none;fill-rule:evenodd;"
d="M 94.910000,139.550000
93.210000,139.550000
93.210000,137.850000
94.910000,137.850000
Z" /> 
<circle cx="96.600000" cy="138.700000" r="0.850000" /> 
<circle cx="99.140000" cy="138.700000" r="0.850000" /> 
<path style="fill:#000000; fill-opacity:1.000000; stroke:none;fill-rule:evenodd;"
d="M 78.150000,150.170000
78.150000,148.470000
79.850000,148.470000
79.850000,150.170000
Z" /> 
<circle cx="79.000000" cy="151.860000" r="0.850000" /> 
<circle cx="79.000000" cy="154.400000" r="0.850000" /> 
<path style="fill:#000000; fill-opacity:1.000000; stroke:none;fill-rule:evenodd;"
d="M 78.150000,139.950000
78.150000,138.250000
79.850000,138.250000
79.850000,139.950000
Z" /> 
<circle cx="79.000000" cy="141.640000" r="0.850000" /> 
<circle cx="79.000000" cy="144.180000" r="0.850000" /> 
<path style="fill:#000000; fill-opacity:1.000000; stroke:none;fill-rule:evenodd;"
d="M 94.950000,135.850000
93.250000,135.850000
93.250000,134.150000
94.950000,134.150000
Z" /> 
<circle cx="96.640000" cy="135.000000" r="0.850000" /> 
<circle cx="99.180000" cy="135.000000" r="0.850000" /> 
<path style="fill:#000000; fill-opacity:1.000000; stroke:none;fill-rule:evenodd;"
d="M 76.260000,156.950000
76.240970,157.045671
76.186777,157.126777
76.105671,157.180970
76.010000,157.200000
74.910000,157.200000
74.814329,157.180970
74.733223,157.126777
74.679030,157.045671
74.660000,156.950000
74.660000,155.850000
74.679030,155.754329
74.733223,155.673223
74.814329,155.619030
74.910000,155.600000
76.010000,155.600000
76.105671,155.619030
76.186777,155.673223
76.240970,155.754329
76.260000,155.850000
Z" /> 
<circle cx="75.460000" cy="153.860000" r="0.800000" /> 
<circle cx="75.460000" cy="151.320000" r="0.800000" /> 
<circle cx="75.460000" cy="148.780000" r="0.800000" /> 
<circle cx="75.460000" cy="146.240000" r="0.800000" /> 
<circle cx="75.460000" cy="143.700000" r="0.800000" /> 
<circle cx="75.460000" cy="141.160000" r="0.800000" /> 
<circle cx="75.460000" cy="138.620000" r="0.800000" /> 
<circle cx="67.840000" cy="138.620000" r="0.800000" /> 
<circle cx="67.840000" cy="141.160000" r="0.800000" /> 
<circle cx="67.840000" cy="143.700000" r="0.800000" /> 
<circle cx="67.840000" cy="146.240000" r="0.800000" /> 
<circle cx="67.840000" cy="148.780000" r="0.800000" /> 
<circle cx="67.840000" cy="151.320000" r="0.800000" /> 
<circle cx="67.840000" cy="153.860000" r="0.800000" /> 
<circle cx="67.840000" cy="156.400000" r="0.800000" /> 
<path style="fill:#000000; fill-opacity:1.000000; stroke:none;fill-rule:evenodd;"
d="M 90.910000,156.640000
90.890970,156.735671
90.836777,156.816777
90.755671,156.870970
90.660000,156.890000
89.560000,156.890000
89.464329,156.870970
89.383223,156.816777
89.329030,156.735671
89.310000,156.640000
89.310000,155.540000
89.329030,155.444329
89.383223,155.363223
89.464329,155.309030
89.560000,155.290000
90.660000,155.290000
90.755671,155.309030
90.836777,155.363223
90.890970,155.444329
90.910000,155.540000
Z" /> 
<circle cx="90.110000" cy="153.550000" r="0.800000" /> 
<circle cx="90.110000" cy="151.010000" r="0.800000" /> 
<circle cx="90.110000" cy="148.470000" r="0.800000" /> 
<circle cx="90.110000" cy="145.930000" r="0.800000" /> 
<circle cx="90.110000" cy="143.390000" r="0.800000" /> 
<circle cx="90.110000" cy="140.850000" r="0.800000" /> 
<circle cx="90.110000" cy="138.310000" r="0.800000" /> 
<circle cx="82.490000" cy="138.310000" r="0.800000" /> 
<circle cx="82.490000" cy="140.850000" r="0.800000" /> 
<circle cx="82.490000" cy="143.390000" r="0.800000" /> 
<circle cx="82.490000" cy="145.930000" r="0.800000" /> 
<circle cx="82.490000" cy="148.470000" r="0.800000" /> 
<circle cx="82.490000" cy="151.010000" r="0.800000" /> 
<circle cx="82.490000" cy="153.550000" r="0.800000" /> 
<circle cx="82.490000" cy="156.090000" r="0.800000" /> 
<path style="fill:#000000; fill-opacity:1.000000; stroke:none;fill-rule:evenodd;"
d="M 101.810000,158.015000
101.790970,158.110671
101.736777,158.191777
101.655671,158.245970
101.560000,158.265000
100.460000,158.265000
100.364329,158.245970
100.283223,158.191777
100.229030,158.110671
100.210000,158.015000
100.210000,156.915000
100.229030,156.819329
100.283223,156.738223
100.364329,156.684030
100.460000,156.665000
101.560000,156.665000
101.655671,156.684030
101.736777,156.738223
101.790970,156.819329
101.810000,156.915000
Z" /> 
<circle cx="101.010000" cy="154.925000" r="0.800000" /> 
<circle cx="101.010000" cy="152.385000" r="0.800000" /> 
<circle cx="101.010000" cy="149.845000" r="0.800000" /> 
<circle cx="101.010000" cy="147.305000" r="0.800000" /> 
<circle cx="101.010000" cy="144.765000" r="0.800000" /> 
<circle cx="101.010000" cy="142.225000" r="0.800000" /> 
<circle cx="93.390000" cy="142.225000" r="0.800000" /> 
<circle cx="93.390000" cy="144.765000" r="0.800000" /> 
<circle cx="93.390000" cy="147.305000" r="0.800000" /> 
<circle cx="93.390000" cy="149.845000" r="0.800000" /> 
<circle cx="93.390000" cy="152.385000" r="0.800000" /> 
<circle cx="93.390000" cy="154.925000" r="0.800000" /> 
<circle cx="93.390000" cy="157.465000" r="0.800000" /> 
<path style="fill:#000000; fill-opacity:1.000000; stroke:none;fill-rule:evenodd;"
d="M 103.860000,157.350000
103.764329,157.330970
103.683223,157.276777
103.629030,157.195671
103.610000,157.100000
103.610000,156.000000
103.629030,155.904329
103.683223,155.823223
103.764329,155.769030
103.860000,155.750000
104.960000,155.750000
105.055671,155.769030
105.136777,155.823223
105.190970,155.904329
105.210000,156.000000
105.210000,157.100000
105.190970,157.195671
105.136777,157.276777
105.055671,157.330970
104.960000,157.350000
Z" /> 
<circle cx="106.950000" cy="156.550000" r="0.800000" /> 
<circle cx="109.490000" cy="156.550000" r="0.800000" /> 
<circle cx="112.030000" cy="156.550000" r="0.800000" /> 
<circle cx="114.570000" cy="156.550000" r="0.800000" /> 
<circle cx="117.110000" cy="156.550000" r="0.800000" /> 
<circle cx="119.650000" cy="156.550000" r="0.800000" /> 
<circle cx="122.190000" cy="156.550000" r="0.800000" /> 
<circle cx="124.730000" cy="156.550000" r="0.800000" /> 
<circle cx="127.270000" cy="156.550000" r="0.800000" /> 
<circle cx="129.810000" cy="156.550000" r="0.800000" /> 
<circle cx="132.350000" cy="156.550000" r="0.800000" /> 
<circle cx="134.890000" cy="156.550000" r="0.800000" /> 
<circle cx="137.430000" cy="156.550000" r="0.800000" /> 
<circle cx="139.970000" cy="156.550000" r="0.800000" /> 
<circle cx="142.510000" cy="156.550000" r="0.800000" /> 
<circle cx="145.050000" cy="156.550000" r="0.800000" /> 
<circle cx="147.590000" cy="156.550000" r="0.800000" /> 
<circle cx="150.130000" cy="156.550000" r="0.800000" /> 
<circle cx="152.670000" cy="156.550000" r="0.800000" /> 
<circle cx="152.670000" cy="141.310000" r="0.800000" /> 
<circle cx="150.130000" cy="141.310000" r="0.800000" /> 
<circle cx="147.590000" cy="141.310000" r="0.800000" /> 
<circle cx="145.050000" cy="141.310000" r="0.800000" /> 
<circle cx="142.510000" cy="141.310000" r="0.800000" /> 
<circle cx="139.970000" cy="141.310000" r="0.800000" /> 
<circle cx="137.430000" cy="141.310000" r="0.800000" /> 
<circle cx="134.890000" cy="141.310000" r="0.800000" /> 
<circle cx="132.350000" cy="141.310000" r="0.800000" /> 
<circle cx="129.810000" cy="141.310000" r="0.800000" /> 
<circle cx="127.270000" cy="141.310000" r="0.800000" /> 
<circle cx="124.730000" cy="141.310000" r="0.800000" /> 
<circle cx="122.190000" cy="141.310000" r="0.800000" /> 
<circle cx="119.650000" cy="141.310000" r="0.800000" /> 
<circle cx="117.110000" cy="141.310000" r="0.800000" /> 
<circle cx="114.570000" cy="141.310000" r="0.800000" /> 
<circle cx="112.030000" cy="141.310000" r="0.800000" /> 
<circle cx="109.490000" cy="141.310000" r="0.800000" /> 
<circle cx="106.950000" cy="141.310000" r="0.800000" /> 
<circle cx="104.410000" cy="141.310000" r="0.800000" /> 
<path style="fill:#000000; fill-opacity:1.000000; stroke:none;fill-rule:evenodd;"
d="M 65.380000,156.530000
65.380000,158.230000
63.680000,158.230000
63.680000,156.530000
Z" /> 
<circle cx="61.990000" cy="157.380000" r="0.850000" /> 
<circle cx="64.530000" cy="154.840000" r="0.850000" /> 
<circle cx="61.990000" cy="154.840000" r="0.850000" /> 
<circle cx="64.530000" cy="152.300000" r="0.850000" /> 
<circle cx="61.990000" cy="152.300000" r="0.850000" /> 
<circle cx="64.530000" cy="149.760000" r="0.850000" /> 
<circle cx="61.990000" cy="149.760000" r="0.850000" /> 
<circle cx="64.530000" cy="147.220000" r="0.850000" /> 
<circle cx="61.990000" cy="147.220000" r="0.850000" /> 
<circle cx="64.530000" cy="144.680000" r="0.850000" /> 
<circle cx="61.990000" cy="144.680000" r="0.850000" /> 
<circle cx="64.530000" cy="142.140000" r="0.850000" /> 
<circle cx="61.990000" cy="142.140000" r="0.850000" /> 
<circle cx="64.530000" cy="139.600000" r="0.850000" /> 
<circle cx="61.990000" cy="139.600000" r="0.850000" /> 
<circle cx="64.530000" cy="137.060000" r="0.850000" /> 
<circle cx="61.990000" cy="137.060000" r="0.850000" /> 
<path style="fill:#000000; fill-opacity:1.000000; stroke:none;fill-rule:evenodd;"
d="M 149.275000,136.850000
150.975000,136.850000
150.975000,138.550000
149.275000,138.550000
Z" /> 
<circle cx="147.585000" cy="137.700000" r="0.850000" /> 
<path style="fill:#000000; fill-opacity:1.000000; stroke:none;fill-rule:evenodd;"
d="M 62.850000,163.850000
61.150000,163.850000
61.150000,162.150000
62.850000,162.150000
Z" /> 
<circle cx="64.540000" cy="163.000000" r="0.850000" /> 
<circle cx="67.080000" cy="163.000000" r="0.850000" /> 
<circle cx="69.620000" cy="163.000000" r="0.850000" /> 
<circle cx="72.160000" cy="163.000000" r="0.850000" /> 
<circle cx="74.700000" cy="163.000000" r="0.850000" /> 
<circle cx="77.240000" cy="163.000000" r="0.850000" /> 
<circle cx="79.780000" cy="163.000000" r="0.850000" /> 
<circle cx="82.320000" cy="163.000000" r="0.850000" /> 
<circle cx="84.860000" cy="163.000000" r="0.850000" /> 
<circle cx="87.400000" cy="163.000000" r="0.850000" /> 
<circle cx="89.940000" cy="163.000000" r="0.850000" /> 
<circle cx="92.480000" cy="163.000000" r="0.850000" /> 
<circle cx="95.020000" cy="163.000000" r="0.850000" /> 
<circle cx="97.560000" cy="163.000000" r="0.850000" /> 
<circle cx="100.100000" cy="163.000000" r="0.850000" /> 
<circle cx="102.640000" cy="163.000000" r="0.850000" /> 
<circle cx="105.180000" cy="163.000000" r="0.850000" /> 
<circle cx="107.720000" cy="163.000000" r="0.850000" /> 
<circle cx="110.260000" cy="163.000000" r="0.850000" /> 
<circle cx="112.800000" cy="163.000000" r="0.850000" /> 
<circle cx="115.340000" cy="163.000000" r="0.850000" /> 
<circle cx="117.880000" cy="163.000000" r="0.850000" /> 
<circle cx="120.420000" cy="163.000000" r="0.850000" /> 
<circle cx="122.960000" cy="163.000000" r="0.850000" /> 
<circle cx="125.500000" cy="163.000000" r="0.850000" /> 
<circle cx="128.040000" cy="163.000000" r="0.850000" /> 
<circle cx="130.580000" cy="163.000000" r="0.850000" /> 
<circle cx="133.120000" cy="163.000000" r="0.850000" /> 
<circle cx="135.660000" cy="163.000000" r="0.850000" /> 
<circle cx="138.200000" cy="163.000000" r="0.850000" /> 
<circle cx="140.740000" cy="163.000000" r="0.850000" /> 
<circle cx="143.280000" cy="163.000000" r="0.850000" /> 
<circle cx="145.820000" cy="163.000000" r="0.850000" /> 
<circle cx="148.360000" cy="163.000000" r="0.850000" /> 
<circle cx="150.900000" cy="163.000000" r="0.850000" /> 
<circle cx="153.440000" cy="163.000000" r="0.850000" /> 
<circle cx="155.980000" cy="163.000000" r="0.850000" /> 
<circle cx="158.520000" cy="163.000000" r="0.850000" /> 
<path style="fill:#000000; fill-opacity:1.000000; stroke:none;fill-rule:evenodd;"
d="M 156.350000,122.100000
156.350000,120.300000
158.850000,120.300000
158.850000,122.100000
Z" /> 
<path style="fill:#000000; fill-opacity:1.000000; stroke:none;fill-rule:evenodd;"
d="M 156.350000,124.600000
156.350000,122.800000
158.850000,122.800000
158.850000,124.600000
Z" /> 
<path style="fill:#000000; fill-opacity:1.000000; stroke:none;fill-rule:evenodd;"
d="M 151.700000,127.450000
151.700000,124.950000
153.500000,124.950000
153.500000,127.450000
Z" /> 
<path style="fill:#000000; fill-opacity:1.000000; stroke:none;fill-rule:evenodd;"
d="M 156.350000,132.100000
156.350000,130.300000
158.850000,130.300000
158.850000,132.100000
Z" /> 
<path style="fill:#000000; fill-opacity:1.000000; stroke:none;fill-rule:evenodd;"
d="M 156.350000,129.600000
156.350000,127.800000
158.850000,127.800000
158.850000,129.600000
Z" /> 
<circle cx="114.260000" cy="118.400000" r="0.720000" /> 
<circle cx="116.800000" cy="115.860000" r="0.720000" /> 
<circle cx="119.340000" cy="118.400000" r="0.720000" /> 
<path style="fill:#000000; fill-opacity:1.000000; stroke:none;fill-rule:evenodd;"
d="M 139.727401,132.150000
139.746431,132.054329
139.800624,131.973223
139.881730,131.919030
139.977401,131.900000
140.677401,131.900000
140.773072,131.919030
140.854178,131.973223
140.908371,132.054329
140.927401,132.150000
140.927401,132.850000
140.908371,132.945671
140.854178,133.026777
140.773072,133.080970
140.677401,133.100000
139.977401,133.100000
139.881730,133.080970
139.800624,133.026777
139.746431,132.945671
139.727401,132.850000
Z" /> 
<circle cx="142.327401" cy="132.500000" r="0.600000" /> 
<path style="fill:#000000; fill-opacity:1.000000; stroke:none;fill-rule:evenodd;"
d="M 89.810000,131.965000
89.790970,132.060671
89.736777,132.141777
89.655671,132.195970
89.560000,132.215000
88.460000,132.215000
88.364329,132.195970
88.283223,132.141777
88.229030,132.060671
88.210000,131.965000
88.210000,130.865000
88.229030,130.769329
88.283223,130.688223
88.364329,130.634030
88.460000,130.615000
89.560000,130.615000
89.655671,130.634030
89.736777,130.688223
89.790970,130.769329
89.810000,130.865000
Z" /> 
<circle cx="89.010000" cy="128.875000" r="0.800000" /> 
<circle cx="89.010000" cy="126.335000" r="0.800000" /> 
<circle cx="89.010000" cy="123.795000" r="0.800000" /> 
<circle cx="89.010000" cy="121.255000" r="0.800000" /> 
<circle cx="89.010000" cy="118.715000" r="0.800000" /> 
<circle cx="89.010000" cy="116.175000" r="0.800000" /> 
<circle cx="81.390000" cy="116.175000" r="0.800000" /> 
<circle cx="81.390000" cy="118.715000" r="0.800000" /> 
<circle cx="81.390000" cy="121.255000" r="0.800000" /> 
<circle cx="81.390000" cy="123.795000" r="0.800000" /> 
<circle cx="81.390000" cy="126.335000" r="0.800000" /> 
<circle cx="81.390000" cy="128.875000" r="0.800000" /> 
<circle cx="81.390000" cy="131.415000" r="0.800000" /> 
<path style="fill:#000000; fill-opacity:1.000000; stroke:none;fill-rule:evenodd;"
d="M 135.940000,129.310000
135.844329,129.290970
135.763223,129.236777
135.709030,129.155671
135.690000,129.060000
135.690000,127.960000
135.709030,127.864329
135.763223,127.783223
135.844329,127.729030
135.940000,127.710000
137.040000,127.710000
137.135671,127.729030
137.216777,127.783223
137.270970,127.864329
137.290000,127.960000
137.290000,129.060000
137.270970,129.155671
137.216777,129.236777
137.135671,129.290970
137.040000,129.310000
Z" /> 
<circle cx="139.030000" cy="128.510000" r="0.800000" /> 
<circle cx="141.570000" cy="128.510000" r="0.800000" /> 
<circle cx="144.110000" cy="128.510000" r="0.800000" /> 
<circle cx="144.110000" cy="120.890000" r="0.800000" /> 
<circle cx="141.570000" cy="120.890000" r="0.800000" /> 
<circle cx="139.030000" cy="120.890000" r="0.800000" /> 
<circle cx="136.490000" cy="120.890000" r="0.800000" /> 
<circle cx="116.860000" cy="131.350000" r="0.800000" /> 
<circle cx="109.240000" cy="131.350000" r="0.800000" /> 
<circle cx="145.300000" cy="134.200000" r="0.800000" /> 
<circle cx="152.920000" cy="134.200000" r="0.800000" /> 
<circle cx="126.650000" cy="125.150000" r="0.800000" /> 
<circle cx="119.030000" cy="125.150000" r="0.800000" /> 
<circle cx="137.000000" cy="132.200000" r="0.800000" /> 
<circle cx="129.380000" cy="132.200000" r="0.800000" /> 
<path style="fill:#000000; fill-opacity:1.000000; stroke:none;fill-rule:evenodd;"
d="M 139.727401,136.850000
139.746431,136.754329
139.800624,136.673223
139.881730,136.619030
139.977401,136.600000
140.677401,136.600000
140.773072,136.619030
140.854178,136.673223
140.908371,136.754329
140.927401,136.850000
140.927401,137.550000
140.908371,137.645671
140.854178,137.726777
140.773072,137.780970
140.677401,137.800000
139.977401,137.800000
139.881730,137.780970
139.800624,137.726777
139.746431,137.645671
139.727401,137.550000
Z" /> 
<circle cx="142.327401" cy="137.200000" r="0.600000" /> 
<circle cx="75.750000" cy="130.500000" r="0.800000" /> 
<circle cx="78.250000" cy="130.500000" r="0.800000" /> 
<circle cx="150.490000" cy="117.550000" r="0.800000" /> 
<circle cx="158.110000" cy="117.550000" r="0.800000" /> 
<circle cx="126.660000" cy="131.350000" r="0.800000" /> 
<circle cx="119.040000" cy="131.350000" r="0.800000" /> 
<circle cx="89.300000" cy="134.800000" r="0.800000" /> 
<circle cx="86.800000" cy="134.800000" r="0.800000" /> 
<circle cx="131.100000" cy="122.600000" r="0.600000" /> 
<circle cx="133.100000" cy="122.600000" r="0.600000" /> 
<circle cx="78.000000" cy="134.500000" r="0.800000" /> 
<circle cx="70.380000" cy="134.500000" r="0.800000" /> 
<circle cx="126.650000" cy="122.050000" r="0.800000" /> 
<circle cx="119.030000" cy="122.050000" r="0.800000" /> 
<path style="fill:#000000; fill-opacity:1.000000; stroke:none;fill-rule:evenodd;"
d="M 155.250000,137.810000
155.250000,136.110000
156.950000,136.110000
156.950000,137.810000
Z" /> 
<circle cx="158.640000" cy="136.960000" r="0.850000" /> 
<circle cx="156.100000" cy="139.500000" r="0.850000" /> 
<circle cx="158.640000" cy="139.500000" r="0.850000" /> 
<circle cx="156.100000" cy="142.040000" r="0.850000" /> 
<circle cx="158.640000" cy="142.040000" r="0.850000" /> 
<circle cx="156.100000" cy="144.580000" r="0.850000" /> 
<circle cx="158.640000" cy="144.580000" r="0.850000" /> 
<circle cx="156.100000" cy="147.120000" r="0.850000" /> 
<circle cx="158.640000" cy="147.120000" r="0.850000" /> 
<circle cx="156.100000" cy="149.660000" r="0.850000" /> 
<circle cx="158.640000" cy="149.660000" r="0.850000" /> 
<circle cx="156.100000" cy="152.200000" r="0.850000" /> 
<circle cx="158.640000" cy="152.200000" r="0.850000" /> 
<circle cx="156.100000" cy="154.740000" r="0.850000" /> 
<circle cx="158.640000" cy="154.740000" r="0.850000" /> 
<circle cx="156.100000" cy="157.280000" r="0.850000" /> 
<circle cx="158.640000" cy="157.280000" r="0.850000" /> 
<path style="fill:#000000; fill-opacity:1.000000; stroke:none;fill-rule:evenodd;"
d="M 100.810000,131.965000
100.790970,132.060671
100.736777,132.141777
100.655671,132.195970
100.560000,132.215000
99.460000,132.215000
99.364329,132.195970
99.283223,132.141777
99.229030,132.060671
99.210000,131.965000
99.210000,130.865000
99.229030,130.769329
99.283223,130.688223
99.364329,130.634030
99.460000,130.615000
100.560000,130.615000
100.655671,130.634030
100.736777,130.688223
100.790970,130.769329
100.810000,130.865000
Z" /> 
<circle cx="100.010000" cy="128.875000" r="0.800000" /> 
<circle cx="100.010000" cy="126.335000" r="0.800000" /> 
<circle cx="100.010000" cy="123.795000" r="0.800000" /> 
<circle cx="100.010000" cy="121.255000" r="0.800000" /> 
<circle cx="100.010000" cy="118.715000" r="0.800000" /> 
<circle cx="100.010000" cy="116.175000" r="0.800000" /> 
<circle cx="92.390000" cy="116.175000" r="0.800000" /> 
<circle cx="92.390000" cy="118.715000" r="0.800000" /> 
<circle cx="92.390000" cy="121.255000" r="0.800000" /> 
<circle cx="92.390000" cy="123.795000" r="0.800000" /> 
<circle cx="92.390000" cy="126.335000" r="0.800000" /> 
<circle cx="92.390000" cy="128.875000" r="0.800000" /> 
<circle cx="92.390000" cy="131.415000" r="0.800000" /> 
<circle cx="81.000000" cy="134.800000" r="0.800000" /> 
<circle cx="83.500000" cy="134.800000" r="0.800000" /> 
<path style="fill:#000000; fill-opacity:1.000000; stroke:none;fill-rule:evenodd;"
d="M 77.090000,119.550000
78.790000,119.550000
78.790000,121.250000
77.090000,121.250000
Z" /> 
<circle cx="75.400000" cy="120.400000" r="0.850000" /> 
<circle cx="72.860000" cy="120.400000" r="0.850000" /> 
<circle cx="129.500000" cy="127.900000" r="0.600000" /> 
<circle cx="131.500000" cy="127.900000" r="0.600000" /> 
<circle cx="116.870000" cy="137.550000" r="0.800000" /> 
<circle cx="109.250000" cy="137.550000" r="0.800000" /> 
<circle cx="116.860000" cy="134.450000" r="0.800000" /> 
<circle cx="109.240000" cy="134.450000" r="0.800000" /> 
<path style="fill:#000000; fill-opacity:1.000000; stroke:none;fill-rule:evenodd;"
d="M 102.750000,122.530000
102.750000,120.830000
104.450000,120.830000
104.450000,122.530000
Z" /> 
<circle cx="106.140000" cy="121.680000" r="0.850000" /> 
<circle cx="103.600000" cy="124.220000" r="0.850000" /> 
<circle cx="106.140000" cy="124.220000" r="0.850000" /> 
<circle cx="103.600000" cy="126.760000" r="0.850000" /> 
<circle cx="106.140000" cy="126.760000" r="0.850000" /> 
<circle cx="103.600000" cy="129.300000" r="0.850000" /> 
<circle cx="106.140000" cy="129.300000" r="0.850000" /> 
<circle cx="103.600000" cy="131.840000" r="0.850000" /> 
<circle cx="106.140000" cy="131.840000" r="0.850000" /> 
<circle cx="103.600000" cy="134.380000" r="0.850000" /> 
<circle cx="106.140000" cy="134.380000" r="0.850000" /> 
<circle cx="103.600000" cy="136.920000" r="0.850000" /> 
<circle cx="106.140000" cy="136.920000" r="0.850000" /> 
<circle cx="143.710000" cy="117.550000" r="0.800000" /> 
<circle cx="136.090000" cy="117.550000" r="0.800000" /> 
<circle cx="124.300000" cy="118.400000" r="0.720000" /> 
<circle cx="126.840000" cy="115.860000" r="0.720000" /> 
<circle cx="129.380000" cy="118.400000" r="0.720000" /> 
<path style="fill:#000000; fill-opacity:1.000000; stroke:none;fill-rule:evenodd;"
d="M 145.477400,116.950000
145.496430,116.854329
145.550623,116.773223
145.631729,116.719030
145.727400,116.700000
146.427400,116.700000
146.523071,116.719030
146.604177,116.773223
146.658370,116.854329
146.677400,116.950000
146.677400,117.650000
146.658370,117.745671
146.604177,117.826777
146.523071,117.880970
146.427400,117.900000
145.727400,117.900000
145.631729,117.880970
145.550623,117.826777
145.496430,117.745671
145.477400,117.650000
Z" /> 
<circle cx="148.077400" cy="117.300000" r="0.600000" /> 
<circle cx="116.860000" cy="122.050000" r="0.800000" /> 
<circle cx="109.240000" cy="122.050000" r="0.800000" /> 
<circle cx="137.010000" cy="138.200000" r="0.800000" /> 
<circle cx="129.390000" cy="138.200000" r="0.800000" /> 
<circle cx="126.670000" cy="137.550000" r="0.800000" /> 
<circle cx="119.050000" cy="137.550000" r="0.800000" /> 
<circle cx="126.660000" cy="134.450000" r="0.800000" /> 
<circle cx="119.040000" cy="134.450000" r="0.800000" /> 
<circle cx="126.660000" cy="128.250000" r="0.800000" /> 
<circle cx="119.040000" cy="128.250000" r="0.800000" /> 
<circle cx="116.860000" cy="125.150000" r="0.800000" /> 
<circle cx="109.240000" cy="125.150000" r="0.800000" /> 
<circle cx="75.740000" cy="125.400000" r="0.750000" /> 
<circle cx="70.860000" cy="125.400000" r="0.750000" /> 
<circle cx="116.860000" cy="128.250000" r="0.800000" /> 
<circle cx="109.240000" cy="128.250000" r="0.800000" /> 
<circle cx="70.250000" cy="130.500000" r="0.800000" /> 
<circle cx="72.750000" cy="130.500000" r="0.800000" /> 
<circle cx="133.450000" cy="115.700000" r="0.800000" /> 
<circle cx="133.450000" cy="118.200000" r="0.800000" /> 
<circle cx="137.010000" cy="135.200000" r="0.800000" /> 
<circle cx="129.390000" cy="135.200000" r="0.800000" /> 
<circle cx="104.220000" cy="118.400000" r="0.720000" /> 
<circle cx="106.760000" cy="115.860000" r="0.720000" /> 
<circle cx="109.300000" cy="118.400000" r="0.720000" /> 
<circle cx="98.544700" cy="148.206900" r="0.400000" /> 
<circle cx="107.000000" cy="139.100000" r="0.400000" /> 
<circle cx="111.100000" cy="136.800000" r="0.400000" /> 
</g>
<g style="fill:none; 
stroke:#000000; stroke-width:0.381000; stroke-opacity:1; 
stroke-linecap:round; stroke-linejoin:round;">
<path d="M93.013300 133.578500
L99.768800 133.578500
" />
<path d="M97.573200 143.899800
L101.708900 139.764100
" />
<path d="M93.210000 138.040500
L93.400500 138.040500
" />
<path d="M100.601500 136.528500
L100.601500 134.411200
" />
<path d="M100.100000 163.000000
L97.573200 160.473200
" />
<path d="M93.019500 137.928900
L93.131100 138.040500
" />
<path d="M93.013300 133.578500
L92.678500 133.913300
" />
<path d="M101.708900 139.764100
L101.708900 137.635900
" />
<path d="M101.708900 137.635900
L100.601500 136.528500
" />
<path d="M100.601500 134.411200
L99.768800 133.578500
" />
<path d="M97.573200 160.473200
L97.573200 143.899800
" />
<path d="M93.131100 138.040500
L93.210000 138.040500
" />
<path d="M92.678500 133.913300
L92.678500 137.587900
" />
<path d="M92.678500 137.587900
L93.019500 137.928900
" />
<path d="M95.200000 143.073015
L96.600000 141.673015
" />
<path d="M89.423300 155.335400
L88.500000 154.412100
" />
<path d="M90.110000 156.090000
L89.423300 155.335400
" />
<path d="M91.700000 149.738900
L92.863900 148.575000
" />
<path d="M90.636100 152.280000
L91.700000 151.216100
" />
<path d="M93.916100 148.575000
L95.200000 147.291100
" />
<path d="M89.320000 152.280000
L90.636100 152.280000
" />
<path d="M91.700000 151.216100
L91.700000 149.738900
" />
<path d="M96.600000 141.673015
L96.600000 138.700000
" />
<path d="M88.500000 154.412100
L88.500000 153.100000
" />
<path d="M88.500000 153.100000
L89.320000 152.280000
" />
<path d="M92.863900 148.575000
L93.916100 148.575000
" />
<path d="M95.200000 147.291100
L95.200000 143.073015
" />
<path d="M79.000000 149.320000
L80.720000 151.040000
" />
<path d="M82.490000 153.550000
L80.720000 151.780000
" />
<path d="M80.720000 151.040000
L80.720000 151.780000
" />
<path d="M94.759500 135.928900
L94.759500 135.659500
" />
<path d="M100.436000 139.236800
L100.436000 138.163200
" />
<path d="M97.188800 137.278500
L96.109100 137.278500
" />
<path d="M100.436000 138.163200
L99.676800 137.404000
" />
<path d="M93.867200 149.845000
L96.000000 147.712200
" />
<path d="M97.314300 137.404000
L97.188800 137.278500
" />
<path d="M96.109100 137.278500
L94.759500 135.928900
" />
<path d="M96.000000 143.672800
L100.436000 139.236800
" />
<path d="M99.676800 137.404000
L97.314300 137.404000
" />
<path d="M96.000000 147.712200
L96.000000 143.672800
" />
<path d="M101.072400 139.500400
L101.072400 137.899600
" />
<path d="M96.800000 150.200000
L96.800000 143.772800
" />
<path d="M93.390000 152.385000
L94.615000 152.385000
" />
<path d="M94.615000 152.385000
L96.800000 150.200000
" />
<path d="M96.800000 143.772800
L101.072400 139.500400
" />
<path d="M101.072400 137.899600
L99.180000 136.007200
" />
<path d="M93.390000 154.925000
L93.390000 152.385000
" />
<path d="M99.180000 136.007200
L99.180000 135.000000
" />
<path d="M75.900000 156.400000
L82.320000 162.820000
" />
<path d="M82.320000 162.820000
L82.320000 163.000000
" />
<path d="M75.460000 156.400000
L75.900000 156.400000
" />
<path d="M75.460000 153.860000
L76.704500 155.104500
" />
<path d="M83.565500 161.705500
L84.860000 163.000000
" />
<path d="M76.704500 156.306474
L82.103526 161.705500
" />
<path d="M82.103526 161.705500
L83.565500 161.705500
" />
<path d="M76.704500 155.104500
L76.704500 156.306474
" />
<path d="M91.878600 158.849700
L91.100300 158.071400
" />
<path d="M89.828400 158.071400
L85.500000 153.743000
" />
<path d="M77.031800 148.780000
L75.460000 148.780000
" />
<path d="M83.016100 149.740000
L81.928200 149.740000
" />
<path d="M85.500000 152.223900
L83.016100 149.740000
" />
<path d="M80.086700 147.898500
L77.913300 147.898500
" />
<path d="M95.020000 163.000000
L91.878600 159.858600
" />
<path d="M77.913300 147.898500
L77.031800 148.780000
" />
<path d="M91.878600 159.858600
L91.878600 158.849700
" />
<path d="M85.500000 153.743000
L85.500000 152.223900
" />
<path d="M91.100300 158.071400
L89.828400 158.071400
" />
<path d="M81.928200 149.740000
L80.086700 147.898500
" />
<path d="M76.730000 153.190400
L76.730000 150.793900
" />
<path d="M74.190000 147.510000
L75.460000 146.240000
" />
<path d="M80.618200 158.028500
L76.831500 154.241800
" />
<path d="M76.831500 153.291900
L76.730000 153.190400
" />
<path d="M88.288900 161.578500
L85.921500 159.211100
" />
<path d="M75.986100 150.050000
L74.933900 150.050000
" />
<path d="M76.730000 150.793900
L75.986100 150.050000
" />
<path d="M91.058500 161.578500
L88.288900 161.578500
" />
<path d="M85.118100 158.028500
L80.618200 158.028500
" />
<path d="M74.933900 150.050000
L74.190000 149.306100
" />
<path d="M74.190000 149.306100
L74.190000 147.510000
" />
<path d="M85.921500 158.831900
L85.118100 158.028500
" />
<path d="M76.831500 154.241800
L76.831500 153.291900
" />
<path d="M92.480000 163.000000
L91.058500 161.578500
" />
<path d="M85.921500 159.211100
L85.921500 158.831900
" />
<path d="M64.820000 139.280000
L67.100000 137.000000
" />
<path d="M73.260000 141.160000
L75.460000 141.160000
" />
<path d="M69.100000 137.000000
L73.260000 141.160000
" />
<path d="M67.100000 137.000000
L69.100000 137.000000
" />
<path d="M64.530000 142.140000
L67.840000 138.830000
" />
<path d="M64.530000 144.680000
L67.840000 141.370000
" />
<path d="M64.530000 147.220000
L67.840000 143.910000
" />
<path d="M67.840000 146.305000
L67.840000 146.240000
" />
<path d="M64.530000 149.615000
L67.840000 146.305000
" />
<path d="M64.530000 149.760000
L64.530000 149.615000
" />
<path d="M64.530000 152.300000
L67.840000 148.990000
" />
<path d="M64.530000 154.840000
L67.840000 151.530000
" />
<path d="M64.530000 157.170000
L67.840000 153.860000
" />
<path d="M90.110000 153.827000
L91.408900 155.125900
" />
<path d="M91.482500 156.922500
L92.145500 157.585500
" />
<path d="M91.408900 155.139400
L91.436100 155.166600
" />
<path d="M91.436100 155.166600
L91.436100 155.180100
" />
<path d="M91.408900 155.125900
L91.408900 155.139400
" />
<path d="M91.482500 155.303300
L91.482500 156.922500
" />
<path d="M91.472900 155.255300
L91.472900 155.293700
" />
<path d="M92.145500 157.980489
L92.874511 158.709500
" />
<path d="M91.436100 155.180100
L91.463300 155.207300
" />
<path d="M91.463300 155.245700
L91.472900 155.255300
" />
<path d="M91.463300 155.207300
L91.463300 155.245700
" />
<path d="M92.145500 157.585500
L92.145500 157.980489
" />
<path d="M92.874511 158.709500
L93.269500 158.709500
" />
<path d="M93.269500 158.709500
L97.560000 163.000000
" />
<path d="M91.472900 155.293700
L91.482500 155.303300
" />
<path d="M94.634500 142.740489
L94.634500 141.709511
" />
<path d="M63.550000 135.500000
L61.990000 137.060000
" />
<path d="M89.863489 136.303500
L70.199552 136.303500
" />
<path d="M91.354500 137.794511
L89.863489 136.303500
" />
<path d="M94.634500 141.709511
L91.354500 138.429511
" />
<path d="M92.570500 143.469500
L93.905489 143.469500
" />
<path d="M61.990000 137.060000
L61.990000 157.380000
" />
<path d="M70.199552 136.303500
L69.396052 135.500000
" />
<path d="M90.110000 145.930000
L92.570500 143.469500
" />
<path d="M93.905489 143.469500
L94.634500 142.740489
" />
<path d="M69.396052 135.500000
L63.550000 135.500000
" />
<path d="M91.354500 138.429511
L91.354500 137.794511
" />
<path d="M98.544700 148.206900
L98.544700 158.144700
" />
<path d="M98.544700 158.144700
L101.600000 161.200000
" />
<path d="M107.720000 161.820000
L107.720000 163.000000
" />
<path d="M107.100000 161.200000
L107.720000 161.820000
" />
<path d="M101.600000 161.200000
L107.100000 161.200000
" />
<path d="M137.430000 141.470000
L135.929500 142.970500
" />
<path d="M126.701974 147.100000
L106.295000 147.100000
" />
<path d="M135.929500 142.970500
L130.831474 142.970500
" />
<path d="M106.295000 147.100000
L101.010000 152.385000
" />
<path d="M130.831474 142.970500
L126.701974 147.100000
" />
<path d="M130.568448 142.335500
L128.138948 144.765000
" />
<path d="M132.350000 141.310000
L131.324500 142.335500
" />
<path d="M128.138948 144.765000
L101.010000 144.765000
" />
<path d="M131.324500 142.335500
L130.568448 142.335500
" />
<path d="M81.921900 136.938500
L83.058100 136.938500
" />
<path d="M85.699600 139.580000
L90.636100 139.580000
" />
<path d="M65.380000 136.210000
L69.208026 136.210000
" />
<path d="M83.058100 136.938500
L85.699600 139.580000
" />
<path d="M90.636100 139.580000
L93.281100 142.225000
" />
<path d="M69.208026 136.210000
L70.058026 137.060000
" />
<path d="M70.058026 137.060000
L81.800400 137.060000
" />
<path d="M81.800400 137.060000
L81.921900 136.938500
" />
<path d="M64.530000 137.060000
L65.380000 136.210000
" />
<path d="M80.465900 147.200000
L90.636100 147.200000
" />
<path d="M69.973500 156.026489
L69.973500 149.930400
" />
<path d="M64.709100 159.709100
L66.000000 158.418200
" />
<path d="M90.741100 147.305000
L93.390000 147.305000
" />
<path d="M62.790900 159.709100
L64.709100 159.709100
" />
<path d="M62.000000 163.000000
L62.000000 160.500000
" />
<path d="M80.402400 147.136500
L80.465900 147.200000
" />
<path d="M74.933900 144.970000
L75.986100 144.970000
" />
<path d="M66.446474 157.644500
L68.355489 157.644500
" />
<path d="M78.152600 147.136500
L80.402400 147.136500
" />
<path d="M93.390000 147.305000
L93.390000 144.765000
" />
<path d="M66.000000 158.090974
L66.446474 157.644500
" />
<path d="M75.986100 144.970000
L78.152600 147.136500
" />
<path d="M62.000000 160.500000
L62.790900 159.709100
" />
<path d="M69.973500 149.930400
L74.933900 144.970000
" />
<path d="M66.000000 158.418200
L66.000000 158.090974
" />
<path d="M68.355489 157.644500
L69.973500 156.026489
" />
<path d="M90.636100 147.200000
L90.741100 147.305000
" />
<path d="M106.155500 138.750196
L106.155500 138.914800
" />
<path d="M107.561500 137.344196
L106.155500 138.750196
" />
<path d="M102.280000 141.500400
L102.280000 142.751100
" />
<path d="M109.190000 121.400000
L107.561500 123.028500
" />
<path d="M106.155500 138.914800
L105.131800 139.938500
" />
<path d="M105.131800 139.938500
L103.841900 139.938500
" />
<path d="M100.483900 153.655000
L101.536100 153.655000
" />
<path d="M99.638500 144.340400
L99.638500 152.809600
" />
<path d="M99.638500 152.809600
L100.483900 153.655000
" />
<path d="M107.561500 123.028500
L107.561500 137.344196
" />
<path d="M103.058600 155.177500
L108.117500 155.177500
" />
<path d="M103.841900 139.938500
L102.280000 141.500400
" />
<path d="M100.483900 143.495000
L99.638500 144.340400
" />
<path d="M108.117500 155.177500
L109.490000 156.550000
" />
<path d="M101.536100 153.655000
L103.058600 155.177500
" />
<path d="M101.536100 143.495000
L100.483900 143.495000
" />
<path d="M102.280000 142.751100
L101.536100 143.495000
" />
<path d="M112.094303 135.999999
L128.590001 135.999999
" />
<path d="M109.240000 134.450000
L110.544304 134.450000
" />
<path d="M128.590001 135.999999
L129.390000 135.200000
" />
<path d="M110.544304 134.450000
L112.094303 135.999999
" />
</g>
<g style="fill:none; 
stroke:#000000; stroke-width:0.300000; stroke-opacity:1; 
stroke-linecap:round; stroke-linejoin:round;">
<path d="M121.677974 155.305500
L120.945500 156.037974
" />
<path d="M154.954000 141.512188
L151.712188 144.754000
" />
<path d="M122.294500 155.305500
L121.677974 155.305500
" />
<path d="M118.354500 157.794500
L117.110000 156.550000
" />
<path d="M120.945500 156.037974
L120.945500 157.065489
" />
<path d="M132.846000 144.754000
L122.294500 155.305500
" />
<path d="M120.216489 157.794500
L118.354500 157.794500
" />
<path d="M151.712188 144.754000
L132.846000 144.754000
" />
<path d="M120.945500 157.065489
L120.216489 157.794500
" />
<path d="M154.954000 140.646000
L154.954000 141.512188
" />
<path d="M156.100000 139.500000
L154.954000 140.646000
" />
<path d="M151.482714 144.200000
L154.400000 141.282714
" />
<path d="M119.650000 156.550000
L132.000000 144.200000
" />
<path d="M157.386000 138.246000
L158.640000 139.500000
" />
<path d="M132.000000 144.200000
L151.482714 144.200000
" />
<path d="M154.400000 139.426576
L155.580576 138.246000
" />
<path d="M155.580576 138.246000
L157.386000 138.246000
" />
<path d="M154.400000 141.282714
L154.400000 139.426576
" />
<path d="M134.158948 145.308000
L152.815102 145.308000
" />
<path d="M122.190000 156.550000
L122.916948 156.550000
" />
<path d="M122.916948 156.550000
L134.158948 145.308000
" />
<path d="M155.394000 142.746000
L156.100000 142.040000
" />
<path d="M152.815102 145.308000
L155.377102 142.746000
" />
<path d="M155.377102 142.746000
L155.394000 142.746000
" />
<path d="M135.418000 145.862000
L153.044576 145.862000
" />
<path d="M157.380000 143.300000
L158.640000 142.040000
" />
<path d="M124.730000 156.550000
L135.418000 145.862000
" />
<path d="M155.606576 143.300000
L157.380000 143.300000
" />
<path d="M153.044576 145.862000
L155.606576 143.300000
" />
<path d="M156.100000 144.580000
L155.368000 145.312000
" />
<path d="M155.368000 145.312000
L155.351102 145.312000
" />
<path d="M153.678050 146.012000
L153.274050 146.416000
" />
<path d="M153.274050 146.416000
L137.484000 146.416000
" />
<path d="M137.484000 146.416000
L127.350000 156.550000
" />
<path d="M154.651102 146.012000
L153.678050 146.012000
" />
<path d="M155.351102 145.312000
L154.651102 146.012000
" />
<path d="M139.390000 146.970000
L153.503524 146.970000
" />
<path d="M155.580576 145.866000
L157.354000 145.866000
" />
<path d="M153.503524 146.970000
L153.907524 146.566000
" />
<path d="M154.880576 146.566000
L155.580576 145.866000
" />
<path d="M157.354000 145.866000
L158.640000 144.580000
" />
<path d="M153.907524 146.566000
L154.880576 146.566000
" />
<path d="M129.810000 156.550000
L139.390000 146.970000
" />
<path d="M153.556998 147.700000
L141.200000 147.700000
" />
<path d="M141.200000 147.700000
L132.350000 156.550000
" />
<path d="M156.100000 147.120000
L154.136998 147.120000
" />
<path d="M154.136998 147.120000
L153.556998 147.700000
" />
<path d="M143.034000 148.406000
L157.354000 148.406000
" />
<path d="M157.354000 148.406000
L158.640000 147.120000
" />
<path d="M134.890000 156.550000
L143.034000 148.406000
" />
<path d="M144.320000 149.660000
L137.430000 156.550000
" />
<path d="M156.100000 149.660000
L144.320000 149.660000
" />
<path d="M145.574000 150.946000
L157.354000 150.946000
" />
<path d="M157.354000 150.946000
L158.640000 149.660000
" />
<path d="M139.970000 156.550000
L145.574000 150.946000
" />
<path d="M156.100000 152.200000
L146.860000 152.200000
" />
<path d="M146.860000 152.200000
L142.510000 156.550000
" />
<path d="M148.114000 153.486000
L157.354000 153.486000
" />
<path d="M157.354000 153.486000
L158.640000 152.200000
" />
<path d="M145.050000 156.550000
L148.114000 153.486000
" />
<path d="M156.100000 154.740000
L149.400000 154.740000
" />
<path d="M149.400000 154.740000
L147.590000 156.550000
" />
<path d="M151.334000 155.346000
L154.932576 155.346000
" />
<path d="M154.932576 155.346000
L155.580576 155.994000
" />
<path d="M157.386000 155.994000
L158.640000 154.740000
" />
<path d="M150.130000 156.550000
L151.334000 155.346000
" />
<path d="M155.580576 155.994000
L157.386000 155.994000
" />
<path d="M156.100000 157.280000
L153.400000 157.280000
" />
<path d="M153.400000 157.280000
L152.670000 156.550000
" />
</g>
<g style="fill:none; 
stroke:#000000; stroke-width:0.381000; stroke-opacity:1; 
stroke-linecap:round; stroke-linejoin:round;">
<path d="M113.274500 140.794511
L113.274500 142.525500
" />
<path d="M108.227713 139.927713
L107.400000 139.100000
" />
<path d="M109.200000 143.500000
L108.227713 142.527713
" />
<path d="M150.130000 141.310000
L148.320000 139.500000
" />
<path d="M114.569011 139.500000
L113.274500 140.794511
" />
<path d="M108.227713 142.527713
L108.227713 139.927713
" />
<path d="M113.274500 142.525500
L112.300000 143.500000
" />
<path d="M148.320000 139.500000
L114.569011 139.500000
" />
<path d="M107.400000 139.100000
L107.000000 139.100000
" />
<path d="M112.300000 143.500000
L109.200000 143.500000
" />
<path d="M147.590000 142.010000
L145.994500 143.605500
" />
<path d="M117.283900 149.500000
L110.760000 156.023900
" />
<path d="M125.200000 149.500000
L117.283900 149.500000
" />
<path d="M110.760000 157.076100
L110.260000 157.576100
" />
<path d="M110.260000 157.576100
L110.260000 163.000000
" />
<path d="M145.994500 143.605500
L131.094500 143.605500
" />
<path d="M110.760000 156.023900
L110.760000 157.076100
" />
<path d="M131.094500 143.605500
L125.200000 149.500000
" />
<path d="M147.590000 141.310000
L147.590000 142.010000
" />
<path d="M111.100000 136.800000
L111.100000 139.700000
" />
<path d="M111.100000 139.700000
L109.490000 141.310000
" />
<path d="M157.600000 121.200000
L157.600000 123.700000
" />
<path d="M158.110000 117.550000
L158.110000 120.690000
" />
<path d="M152.920000 134.200000
L154.600000 134.200000
" />
<path d="M154.600000 134.200000
L157.600000 131.200000
" />
<path d="M157.600000 128.700000
L157.600000 131.200000
" />
<path d="M114.310000 131.900000
L114.310000 119.050000
" />
<path d="M116.860000 134.450000
L114.310000 131.900000
" />
<path d="M120.284500 119.344500
L120.284500 130.105500
" />
<path d="M119.340000 118.400000
L120.284500 119.344500
" />
<path d="M120.284500 130.105500
L119.040000 131.350000
" />
<path d="M136.490000 128.510000
L136.490000 131.690000
" />
<path d="M136.490000 131.690000
L137.000000 132.200000
" />
<path d="M137.000000 132.200000
L140.027401 132.200000
" />
<path d="M142.327401 132.500000
L143.890000 132.500000
" />
<path d="M143.890000 132.500000
L145.340000 133.950000
" />
<path d="M75.740000 127.990000
L78.250000 130.500000
" />
<path d="M78.000000 130.900000
L78.000000 134.500000
" />
<path d="M89.010000 131.415000
L87.765500 130.170500
" />
<path d="M87.765500 130.170500
L78.579500 130.170500
" />
<path d="M75.740000 125.400000
L75.740000 127.990000
" />
<path d="M75.010500 122.550500
L87.765500 122.550500
" />
<path d="M72.860000 120.400000
L75.010500 122.550500
" />
<path d="M87.765500 122.550500
L89.010000 123.795000
" />
<path d="M129.380000 132.200000
L129.380000 130.020000
" />
<path d="M129.380000 130.020000
L131.500000 127.900000
" />
<path d="M137.900000 125.800000
L139.030000 126.930000
" />
<path d="M139.030000 126.930000
L139.030000 128.510000
" />
<path d="M133.600000 125.800000
L137.900000 125.800000
" />
<path d="M131.500000 127.900000
L133.600000 125.800000
" />
<path d="M127.320000 138.200000
L126.670000 137.550000
" />
<path d="M129.390000 138.200000
L127.320000 138.200000
" />
<path d="M129.390000 138.200000
L130.634500 136.955500
" />
<path d="M144.110000 125.970000
L141.570000 128.510000
" />
<path d="M144.110000 120.890000
L144.110000 125.970000
" />
<path d="M130.634500 136.955500
L140.082901 136.955500
" />
<path d="M139.580000 118.900000
L140.600000 118.900000
" />
<path d="M138.230000 117.550000
L139.580000 118.900000
" />
<path d="M141.570000 119.870000
L141.570000 120.890000
" />
<path d="M136.090000 117.550000
L138.230000 117.550000
" />
<path d="M140.600000 118.900000
L141.570000 119.870000
" />
<path d="M133.100000 122.600000
L134.300000 121.400000
" />
<path d="M134.300000 121.400000
L134.300000 119.340000
" />
<path d="M134.300000 119.340000
L136.090000 117.550000
" />
<path d="M146.077400 117.300000
L143.960000 117.300000
" />
<path d="M126.660000 128.250000
L126.660000 127.040000
" />
<path d="M126.660000 128.250000
L126.660000 131.350000
" />
<path d="M126.660000 127.040000
L131.100000 122.600000
" />
<path d="M129.500000 127.900000
L128.135500 129.264500
" />
<path d="M128.135500 129.264500
L128.135500 132.974500
" />
<path d="M128.135500 132.974500
L126.660000 134.450000
" />
<path d="M105.384500 117.235500
L120.704130 117.235500
" />
<path d="M104.220000 118.400000
L105.384500 117.235500
" />
<path d="M125.518630 122.050000
L126.650000 122.050000
" />
<path d="M120.704130 117.235500
L125.518630 122.050000
" />
<path d="M148.077400 117.300000
L150.240000 117.300000
" />
<path d="M70.250000 130.500000
L70.250000 134.370000
" />
<path d="M70.860000 125.400000
L70.860000 127.640000
" />
<path d="M70.250000 128.250000
L70.250000 130.500000
" />
<path d="M70.860000 127.640000
L70.250000 128.250000
" />
<path d="M102.485600 122.525000
L99.483900 122.525000
" />
<path d="M102.750000 122.339500
L102.671100 122.339500
" />
<path d="M102.940500 122.339500
L102.750000 122.339500
" />
<path d="M99.483900 122.525000
L98.740000 123.268900
" />
<path d="M98.740000 123.268900
L98.740000 125.065000
" />
<path d="M98.740000 125.065000
L100.010000 126.335000
" />
<path d="M102.671100 122.339500
L102.485600 122.525000
" />
<path d="M103.600000 124.220000
L100.435000 124.220000
" />
<path d="M92.390000 128.875000
L95.116400 128.875000
" />
<path d="M103.600000 129.300000
L102.231100 129.300000
" />
<path d="M102.231100 129.300000
L100.536100 127.605000
" />
<path d="M95.116400 128.875000
L97.691700 126.299700
" />
<path d="M100.536100 127.605000
L98.997000 127.605000
" />
<path d="M100.010000 118.715000
L97.691700 121.033300
" />
<path d="M98.997000 127.605000
L97.691700 126.299700
" />
<path d="M97.691700 121.033300
L97.691700 126.299700
" />
<path d="M91.018500 129.299600
L91.018500 125.166500
" />
<path d="M91.018500 129.299600
L91.863900 130.145000
" />
<path d="M103.600000 131.840000
L102.652500 132.787500
" />
<path d="M92.916100 130.145000
L91.863900 130.145000
" />
<path d="M95.558600 132.787500
L102.652500 132.787500
" />
<path d="M95.558600 132.787500
L92.916100 130.145000
" />
<path d="M91.018500 125.166500
L92.390000 123.795000
" />
</g> 
</svg>
