<?xml version="1.0" standalone="no"?>
 <!DOCTYPE svg PUBLIC "-//W3C//DTD SVG 1.1//EN" 
 "http://www.w3.org/Graphics/SVG/1.1/DTD/svg11.dtd"> 
<svg
  xmlns:svg="http://www.w3.org/2000/svg"
  xmlns="http://www.w3.org/2000/svg"
  xmlns:xlink="http://www.w3.org/1999/xlink"
  xmlns:inkscape="http://www.inkscape.org/namespaces/inkscape"
  version="1.1"
  width="297.0022mm" height="210.0072mm" viewBox="0.0000 0.0000 297.0022 210.0072">
<title>SVG Image created as rc2014-ym2149-F_Cu0.svg date 2026-07-20T20:48:50 </title>
  <desc>Image generated by PCBNEW </desc>
<g style="fill:#000000; fill-opacity:1.0000;stroke:#000000; stroke-opacity:1.0000;
stroke-linecap:round; stroke-linejoin:round;"
 transform="translate(0 0) scale(1 1)">
</g>
<g style="fill:none; 
stroke:#000000; stroke-width:0.2000; stroke-opacity:1; 
stroke-linecap:round; stroke-linejoin:round;">
<text x="155.3950" y="160.5750"
textLength="1.3524" font-size="1.3333" lengthAdjust="spacingAndGlyphs"
text-anchor="middle" opacity="0" stroke-opacity="0">1</text>
<g class="stroked-text"><desc>1</desc>
<path d="M155.6807 160.5272
L155.1093 160.5272
" />
<path d="M155.3950 160.5272
L155.3950 159.5272
" />
<path d="M155.3950 159.5272
L155.2998 159.6701
" />
<path d="M155.2998 159.6701
L155.2045 159.7653
" />
<path d="M155.2045 159.7653
L155.1093 159.8129
" />
</g></g>
<g style="fill:#000000; fill-opacity:1.0000; stroke:none;">
<circle cx="90.5500" cy="159.4000" r="0.8000" /> 
<circle cx="88.0500" cy="159.4000" r="0.8000" /> 
<circle cx="82.0500" cy="159.4000" r="0.8000" /> 
<circle cx="84.5500" cy="159.4000" r="0.8000" /> 
<circle cx="67.4700" cy="159.6000" r="0.8000" /> 
<circle cx="69.9700" cy="159.6000" r="0.8000" /> 
<circle cx="103.9000" cy="159.6500" r="0.8000" /> 
<circle cx="106.4000" cy="159.6500" r="0.8000" /> 
<path style="fill:#000000; fill-opacity:1.0000; stroke:none;fill-rule:evenodd;"
d="M 94.9100,139.5500
93.2100,139.5500
93.2100,137.8500
94.9100,137.8500
Z" /> 
<circle cx="96.6000" cy="138.7000" r="0.8500" /> 
<circle cx="99.1400" cy="138.7000" r="0.8500" /> 
<path style="fill:#000000; fill-opacity:1.0000; stroke:none;fill-rule:evenodd;"
d="M 78.1500,150.1700
78.1500,148.4700
79.8500,148.4700
79.8500,150.1700
Z" /> 
<circle cx="79.0000" cy="151.8600" r="0.8500" /> 
<circle cx="79.0000" cy="154.4000" r="0.8500" /> 
<path style="fill:#000000; fill-opacity:1.0000; stroke:none;fill-rule:evenodd;"
d="M 78.1500,139.9500
78.1500,138.2500
79.8500,138.2500
79.8500,139.9500
Z" /> 
<circle cx="79.0000" cy="141.6400" r="0.8500" /> 
<circle cx="79.0000" cy="144.1800" r="0.8500" /> 
<path style="fill:#000000; fill-opacity:1.0000; stroke:none;fill-rule:evenodd;"
d="M 94.9500,135.8500
93.2500,135.8500
93.2500,134.1500
94.9500,134.1500
Z" /> 
<circle cx="96.6400" cy="135.0000" r="0.8500" /> 
<circle cx="99.1800" cy="135.0000" r="0.8500" /> 
<path style="fill:#000000; fill-opacity:1.0000; stroke:none;fill-rule:evenodd;"
d="M 76.2600,156.9500
76.2410,157.0457
76.1868,157.1268
76.1057,157.1810
76.0100,157.2000
74.9100,157.2000
74.8143,157.1810
74.7332,157.1268
74.6790,157.0457
74.6600,156.9500
74.6600,155.8500
74.6790,155.7543
74.7332,155.6732
74.8143,155.6190
74.9100,155.6000
76.0100,155.6000
76.1057,155.6190
76.1868,155.6732
76.2410,155.7543
76.2600,155.8500
Z" /> 
<circle cx="75.4600" cy="153.8600" r="0.8000" /> 
<circle cx="75.4600" cy="151.3200" r="0.8000" /> 
<circle cx="75.4600" cy="148.7800" r="0.8000" /> 
<circle cx="75.4600" cy="146.2400" r="0.8000" /> 
<circle cx="75.4600" cy="143.7000" r="0.8000" /> 
<circle cx="75.4600" cy="141.1600" r="0.8000" /> 
<circle cx="75.4600" cy="138.6200" r="0.8000" /> 
<circle cx="67.8400" cy="138.6200" r="0.8000" /> 
<circle cx="67.8400" cy="141.1600" r="0.8000" /> 
<circle cx="67.8400" cy="143.7000" r="0.8000" /> 
<circle cx="67.8400" cy="146.2400" r="0.8000" /> 
<circle cx="67.8400" cy="148.7800" r="0.8000" /> 
<circle cx="67.8400" cy="151.3200" r="0.8000" /> 
<circle cx="67.8400" cy="153.8600" r="0.8000" /> 
<circle cx="67.8400" cy="156.4000" r="0.8000" /> 
<path style="fill:#000000; fill-opacity:1.0000; stroke:none;fill-rule:evenodd;"
d="M 90.9100,156.6400
90.8910,156.7357
90.8368,156.8168
90.7557,156.8710
90.6600,156.8900
89.5600,156.8900
89.4643,156.8710
89.3832,156.8168
89.3290,156.7357
89.3100,156.6400
89.3100,155.5400
89.3290,155.4443
89.3832,155.3632
89.4643,155.3090
89.5600,155.2900
90.6600,155.2900
90.7557,155.3090
90.8368,155.3632
90.8910,155.4443
90.9100,155.5400
Z" /> 
<circle cx="90.1100" cy="153.5500" r="0.8000" /> 
<circle cx="90.1100" cy="151.0100" r="0.8000" /> 
<circle cx="90.1100" cy="148.4700" r="0.8000" /> 
<circle cx="90.1100" cy="145.9300" r="0.8000" /> 
<circle cx="90.1100" cy="143.3900" r="0.8000" /> 
<circle cx="90.1100" cy="140.8500" r="0.8000" /> 
<circle cx="90.1100" cy="138.3100" r="0.8000" /> 
<circle cx="82.4900" cy="138.3100" r="0.8000" /> 
<circle cx="82.4900" cy="140.8500" r="0.8000" /> 
<circle cx="82.4900" cy="143.3900" r="0.8000" /> 
<circle cx="82.4900" cy="145.9300" r="0.8000" /> 
<circle cx="82.4900" cy="148.4700" r="0.8000" /> 
<circle cx="82.4900" cy="151.0100" r="0.8000" /> 
<circle cx="82.4900" cy="153.5500" r="0.8000" /> 
<circle cx="82.4900" cy="156.0900" r="0.8000" /> 
<path style="fill:#000000; fill-opacity:1.0000; stroke:none;fill-rule:evenodd;"
d="M 101.8100,158.0150
101.7910,158.1107
101.7368,158.1918
101.6557,158.2460
101.5600,158.2650
100.4600,158.2650
100.3643,158.2460
100.2832,158.1918
100.2290,158.1107
100.2100,158.0150
100.2100,156.9150
100.2290,156.8193
100.2832,156.7382
100.3643,156.6840
100.4600,156.6650
101.5600,156.6650
101.6557,156.6840
101.7368,156.7382
101.7910,156.8193
101.8100,156.9150
Z" /> 
<circle cx="101.0100" cy="154.9250" r="0.8000" /> 
<circle cx="101.0100" cy="152.3850" r="0.8000" /> 
<circle cx="101.0100" cy="149.8450" r="0.8000" /> 
<circle cx="101.0100" cy="147.3050" r="0.8000" /> 
<circle cx="101.0100" cy="144.7650" r="0.8000" /> 
<circle cx="101.0100" cy="142.2250" r="0.8000" /> 
<circle cx="93.3900" cy="142.2250" r="0.8000" /> 
<circle cx="93.3900" cy="144.7650" r="0.8000" /> 
<circle cx="93.3900" cy="147.3050" r="0.8000" /> 
<circle cx="93.3900" cy="149.8450" r="0.8000" /> 
<circle cx="93.3900" cy="152.3850" r="0.8000" /> 
<circle cx="93.3900" cy="154.9250" r="0.8000" /> 
<circle cx="93.3900" cy="157.4650" r="0.8000" /> 
<path style="fill:#000000; fill-opacity:1.0000; stroke:none;fill-rule:evenodd;"
d="M 103.8600,157.3500
103.7643,157.3310
103.6832,157.2768
103.6290,157.1957
103.6100,157.1000
103.6100,156.0000
103.6290,155.9043
103.6832,155.8232
103.7643,155.7690
103.8600,155.7500
104.9600,155.7500
105.0557,155.7690
105.1368,155.8232
105.1910,155.9043
105.2100,156.0000
105.2100,157.1000
105.1910,157.1957
105.1368,157.2768
105.0557,157.3310
104.9600,157.3500
Z" /> 
<circle cx="106.9500" cy="156.5500" r="0.8000" /> 
<circle cx="109.4900" cy="156.5500" r="0.8000" /> 
<circle cx="112.0300" cy="156.5500" r="0.8000" /> 
<circle cx="114.5700" cy="156.5500" r="0.8000" /> 
<circle cx="117.1100" cy="156.5500" r="0.8000" /> 
<circle cx="119.6500" cy="156.5500" r="0.8000" /> 
<circle cx="122.1900" cy="156.5500" r="0.8000" /> 
<circle cx="124.7300" cy="156.5500" r="0.8000" /> 
<circle cx="127.2700" cy="156.5500" r="0.8000" /> 
<circle cx="129.8100" cy="156.5500" r="0.8000" /> 
<circle cx="132.3500" cy="156.5500" r="0.8000" /> 
<circle cx="134.8900" cy="156.5500" r="0.8000" /> 
<circle cx="137.4300" cy="156.5500" r="0.8000" /> 
<circle cx="139.9700" cy="156.5500" r="0.8000" /> 
<circle cx="142.5100" cy="156.5500" r="0.8000" /> 
<circle cx="145.0500" cy="156.5500" r="0.8000" /> 
<circle cx="147.5900" cy="156.5500" r="0.8000" /> 
<circle cx="150.1300" cy="156.5500" r="0.8000" /> 
<circle cx="152.6700" cy="156.5500" r="0.8000" /> 
<circle cx="152.6700" cy="141.3100" r="0.8000" /> 
<circle cx="150.1300" cy="141.3100" r="0.8000" /> 
<circle cx="147.5900" cy="141.3100" r="0.8000" /> 
<circle cx="145.0500" cy="141.3100" r="0.8000" /> 
<circle cx="142.5100" cy="141.3100" r="0.8000" /> 
<circle cx="139.9700" cy="141.3100" r="0.8000" /> 
<circle cx="137.4300" cy="141.3100" r="0.8000" /> 
<circle cx="134.8900" cy="141.3100" r="0.8000" /> 
<circle cx="132.3500" cy="141.3100" r="0.8000" /> 
<circle cx="129.8100" cy="141.3100" r="0.8000" /> 
<circle cx="127.2700" cy="141.3100" r="0.8000" /> 
<circle cx="124.7300" cy="141.3100" r="0.8000" /> 
<circle cx="122.1900" cy="141.3100" r="0.8000" /> 
<circle cx="119.6500" cy="141.3100" r="0.8000" /> 
<circle cx="117.1100" cy="141.3100" r="0.8000" /> 
<circle cx="114.5700" cy="141.3100" r="0.8000" /> 
<circle cx="112.0300" cy="141.3100" r="0.8000" /> 
<circle cx="109.4900" cy="141.3100" r="0.8000" /> 
<circle cx="106.9500" cy="141.3100" r="0.8000" /> 
<circle cx="104.4100" cy="141.3100" r="0.8000" /> 
<path style="fill:#000000; fill-opacity:1.0000; stroke:none;fill-rule:evenodd;"
d="M 65.3800,156.5300
65.3800,158.2300
63.6800,158.2300
63.6800,156.5300
Z" /> 
<circle cx="61.9900" cy="157.3800" r="0.8500" /> 
<circle cx="64.5300" cy="154.8400" r="0.8500" /> 
<circle cx="61.9900" cy="154.8400" r="0.8500" /> 
<circle cx="64.5300" cy="152.3000" r="0.8500" /> 
<circle cx="61.9900" cy="152.3000" r="0.8500" /> 
<circle cx="64.5300" cy="149.7600" r="0.8500" /> 
<circle cx="61.9900" cy="149.7600" r="0.8500" /> 
<circle cx="64.5300" cy="147.2200" r="0.8500" /> 
<circle cx="61.9900" cy="147.2200" r="0.8500" /> 
<circle cx="64.5300" cy="144.6800" r="0.8500" /> 
<circle cx="61.9900" cy="144.6800" r="0.8500" /> 
<circle cx="64.5300" cy="142.1400" r="0.8500" /> 
<circle cx="61.9900" cy="142.1400" r="0.8500" /> 
<circle cx="64.5300" cy="139.6000" r="0.8500" /> 
<circle cx="61.9900" cy="139.6000" r="0.8500" /> 
<circle cx="64.5300" cy="137.0600" r="0.8500" /> 
<circle cx="61.9900" cy="137.0600" r="0.8500" /> 
<path style="fill:#000000; fill-opacity:1.0000; stroke:none;fill-rule:evenodd;"
d="M 149.2750,136.8500
150.9750,136.8500
150.9750,138.5500
149.2750,138.5500
Z" /> 
<circle cx="147.5850" cy="137.7000" r="0.8500" /> 
<circle cx="65.5320" cy="131.3820" r="1.6000" /> 
<path style="fill:#000000; fill-opacity:1.0000; stroke:none;fill-rule:evenodd;"
d="M 62.8500,163.8500
61.1500,163.8500
61.1500,162.1500
62.8500,162.1500
Z" /> 
<circle cx="64.5400" cy="163.0000" r="0.8500" /> 
<circle cx="67.0800" cy="163.0000" r="0.8500" /> 
<circle cx="69.6200" cy="163.0000" r="0.8500" /> 
<circle cx="72.1600" cy="163.0000" r="0.8500" /> 
<circle cx="74.7000" cy="163.0000" r="0.8500" /> 
<circle cx="77.2400" cy="163.0000" r="0.8500" /> 
<circle cx="79.7800" cy="163.0000" r="0.8500" /> 
<circle cx="82.3200" cy="163.0000" r="0.8500" /> 
<circle cx="84.8600" cy="163.0000" r="0.8500" /> 
<circle cx="87.4000" cy="163.0000" r="0.8500" /> 
<circle cx="89.9400" cy="163.0000" r="0.8500" /> 
<circle cx="92.4800" cy="163.0000" r="0.8500" /> 
<circle cx="95.0200" cy="163.0000" r="0.8500" /> 
<circle cx="97.5600" cy="163.0000" r="0.8500" /> 
<circle cx="100.1000" cy="163.0000" r="0.8500" /> 
<circle cx="102.6400" cy="163.0000" r="0.8500" /> 
<circle cx="105.1800" cy="163.0000" r="0.8500" /> 
<circle cx="107.7200" cy="163.0000" r="0.8500" /> 
<circle cx="110.2600" cy="163.0000" r="0.8500" /> 
<circle cx="112.8000" cy="163.0000" r="0.8500" /> 
<circle cx="115.3400" cy="163.0000" r="0.8500" /> 
<circle cx="117.8800" cy="163.0000" r="0.8500" /> 
<circle cx="120.4200" cy="163.0000" r="0.8500" /> 
<circle cx="122.9600" cy="163.0000" r="0.8500" /> 
<circle cx="125.5000" cy="163.0000" r="0.8500" /> 
<circle cx="128.0400" cy="163.0000" r="0.8500" /> 
<circle cx="130.5800" cy="163.0000" r="0.8500" /> 
<circle cx="133.1200" cy="163.0000" r="0.8500" /> 
<circle cx="135.6600" cy="163.0000" r="0.8500" /> 
<circle cx="138.2000" cy="163.0000" r="0.8500" /> 
<circle cx="140.7400" cy="163.0000" r="0.8500" /> 
<circle cx="143.2800" cy="163.0000" r="0.8500" /> 
<circle cx="145.8200" cy="163.0000" r="0.8500" /> 
<circle cx="148.3600" cy="163.0000" r="0.8500" /> 
<circle cx="150.9000" cy="163.0000" r="0.8500" /> 
<circle cx="153.4400" cy="163.0000" r="0.8500" /> 
<circle cx="155.9800" cy="163.0000" r="0.8500" /> 
<circle cx="158.5200" cy="163.0000" r="0.8500" /> 
<circle cx="156.5500" cy="131.2000" r="0.6000" /> 
<circle cx="156.5500" cy="121.2000" r="0.6000" /> 
<circle cx="154.0500" cy="131.2000" r="0.6000" /> 
<circle cx="154.0500" cy="121.2000" r="0.6000" /> 
<circle cx="149.0500" cy="126.2000" r="0.6000" /> 
<path style="fill:#000000; fill-opacity:1.0000; stroke:none;fill-rule:evenodd;"
d="M 150.3000,130.3000
150.3000,132.1000
147.8000,132.1000
147.8000,130.3000
Z" /> 
<path style="fill:#000000; fill-opacity:1.0000; stroke:none;fill-rule:evenodd;"
d="M 150.3000,127.8000
150.3000,129.6000
147.8000,129.6000
147.8000,127.8000
Z" /> 
<path style="fill:#000000; fill-opacity:1.0000; stroke:none;fill-rule:evenodd;"
d="M 154.9500,124.9500
154.9500,127.4500
153.1500,127.4500
153.1500,124.9500
Z" /> 
<path style="fill:#000000; fill-opacity:1.0000; stroke:none;fill-rule:evenodd;"
d="M 150.3000,120.3000
150.3000,122.1000
147.8000,122.1000
147.8000,120.3000
Z" /> 
<path style="fill:#000000; fill-opacity:1.0000; stroke:none;fill-rule:evenodd;"
d="M 150.3000,122.8000
150.3000,124.6000
147.8000,124.6000
147.8000,122.8000
Z" /> 
<circle cx="114.2600" cy="118.4000" r="0.7200" /> 
<circle cx="116.8000" cy="115.8600" r="0.7200" /> 
<circle cx="119.3400" cy="118.4000" r="0.7200" /> 
<path style="fill:#000000; fill-opacity:1.0000; stroke:none;fill-rule:evenodd;"
d="M 139.7274,132.1500
139.7464,132.0543
139.8006,131.9732
139.8817,131.9190
139.9774,131.9000
140.6774,131.9000
140.7731,131.9190
140.8542,131.9732
140.9084,132.0543
140.9274,132.1500
140.9274,132.8500
140.9084,132.9457
140.8542,133.0268
140.7731,133.0810
140.6774,133.1000
139.9774,133.1000
139.8817,133.0810
139.8006,133.0268
139.7464,132.9457
139.7274,132.8500
Z" /> 
<circle cx="142.3274" cy="132.5000" r="0.6000" /> 
<path style="fill:#000000; fill-opacity:1.0000; stroke:none;fill-rule:evenodd;"
d="M 89.8100,131.9650
89.7910,132.0607
89.7368,132.1418
89.6557,132.1960
89.5600,132.2150
88.4600,132.2150
88.3643,132.1960
88.2832,132.1418
88.2290,132.0607
88.2100,131.9650
88.2100,130.8650
88.2290,130.7693
88.2832,130.6882
88.3643,130.6340
88.4600,130.6150
89.5600,130.6150
89.6557,130.6340
89.7368,130.6882
89.7910,130.7693
89.8100,130.8650
Z" /> 
<circle cx="89.0100" cy="128.8750" r="0.8000" /> 
<circle cx="89.0100" cy="126.3350" r="0.8000" /> 
<circle cx="89.0100" cy="123.7950" r="0.8000" /> 
<circle cx="89.0100" cy="121.2550" r="0.8000" /> 
<circle cx="89.0100" cy="118.7150" r="0.8000" /> 
<circle cx="89.0100" cy="116.1750" r="0.8000" /> 
<circle cx="81.3900" cy="116.1750" r="0.8000" /> 
<circle cx="81.3900" cy="118.7150" r="0.8000" /> 
<circle cx="81.3900" cy="121.2550" r="0.8000" /> 
<circle cx="81.3900" cy="123.7950" r="0.8000" /> 
<circle cx="81.3900" cy="126.3350" r="0.8000" /> 
<circle cx="81.3900" cy="128.8750" r="0.8000" /> 
<circle cx="81.3900" cy="131.4150" r="0.8000" /> 
<path style="fill:#000000; fill-opacity:1.0000; stroke:none;fill-rule:evenodd;"
d="M 135.9400,129.3100
135.8443,129.2910
135.7632,129.2368
135.7090,129.1557
135.6900,129.0600
135.6900,127.9600
135.7090,127.8643
135.7632,127.7832
135.8443,127.7290
135.9400,127.7100
137.0400,127.7100
137.1357,127.7290
137.2168,127.7832
137.2710,127.8643
137.2900,127.9600
137.2900,129.0600
137.2710,129.1557
137.2168,129.2368
137.1357,129.2910
137.0400,129.3100
Z" /> 
<circle cx="139.0300" cy="128.5100" r="0.8000" /> 
<circle cx="141.5700" cy="128.5100" r="0.8000" /> 
<circle cx="144.1100" cy="128.5100" r="0.8000" /> 
<circle cx="144.1100" cy="120.8900" r="0.8000" /> 
<circle cx="141.5700" cy="120.8900" r="0.8000" /> 
<circle cx="139.0300" cy="120.8900" r="0.8000" /> 
<circle cx="136.4900" cy="120.8900" r="0.8000" /> 
<circle cx="116.8600" cy="131.3500" r="0.8000" /> 
<circle cx="109.2400" cy="131.3500" r="0.8000" /> 
<circle cx="145.3000" cy="134.2000" r="0.8000" /> 
<circle cx="152.9200" cy="134.2000" r="0.8000" /> 
<circle cx="126.6500" cy="125.1500" r="0.8000" /> 
<circle cx="119.0300" cy="125.1500" r="0.8000" /> 
<circle cx="137.0000" cy="132.2000" r="0.8000" /> 
<circle cx="129.3800" cy="132.2000" r="0.8000" /> 
<path style="fill:#000000; fill-opacity:1.0000; stroke:none;fill-rule:evenodd;"
d="M 139.7274,136.8500
139.7464,136.7543
139.8006,136.6732
139.8817,136.6190
139.9774,136.6000
140.6774,136.6000
140.7731,136.6190
140.8542,136.6732
140.9084,136.7543
140.9274,136.8500
140.9274,137.5500
140.9084,137.6457
140.8542,137.7268
140.7731,137.7810
140.6774,137.8000
139.9774,137.8000
139.8817,137.7810
139.8006,137.7268
139.7464,137.6457
139.7274,137.5500
Z" /> 
<circle cx="142.3274" cy="137.2000" r="0.6000" /> 
<circle cx="75.7500" cy="130.5000" r="0.8000" /> 
<circle cx="78.2500" cy="130.5000" r="0.8000" /> 
<circle cx="150.4900" cy="117.5500" r="0.8000" /> 
<circle cx="158.1100" cy="117.5500" r="0.8000" /> 
<circle cx="126.6600" cy="131.3500" r="0.8000" /> 
<circle cx="119.0400" cy="131.3500" r="0.8000" /> 
<circle cx="89.3000" cy="134.8000" r="0.8000" /> 
<circle cx="86.8000" cy="134.8000" r="0.8000" /> 
<circle cx="131.1000" cy="122.6000" r="0.6000" /> 
<circle cx="133.1000" cy="122.6000" r="0.6000" /> 
<circle cx="78.0000" cy="134.5000" r="0.8000" /> 
<circle cx="70.3800" cy="134.5000" r="0.8000" /> 
<circle cx="126.6500" cy="122.0500" r="0.8000" /> 
<circle cx="119.0300" cy="122.0500" r="0.8000" /> 
<path style="fill:#000000; fill-opacity:1.0000; stroke:none;fill-rule:evenodd;"
d="M 155.2500,137.8100
155.2500,136.1100
156.9500,136.1100
156.9500,137.8100
Z" /> 
<circle cx="158.6400" cy="136.9600" r="0.8500" /> 
<circle cx="156.1000" cy="139.5000" r="0.8500" /> 
<circle cx="158.6400" cy="139.5000" r="0.8500" /> 
<circle cx="156.1000" cy="142.0400" r="0.8500" /> 
<circle cx="158.6400" cy="142.0400" r="0.8500" /> 
<circle cx="156.1000" cy="144.5800" r="0.8500" /> 
<circle cx="158.6400" cy="144.5800" r="0.8500" /> 
<circle cx="156.1000" cy="147.1200" r="0.8500" /> 
<circle cx="158.6400" cy="147.1200" r="0.8500" /> 
<circle cx="156.1000" cy="149.6600" r="0.8500" /> 
<circle cx="158.6400" cy="149.6600" r="0.8500" /> 
<circle cx="156.1000" cy="152.2000" r="0.8500" /> 
<circle cx="158.6400" cy="152.2000" r="0.8500" /> 
<circle cx="156.1000" cy="154.7400" r="0.8500" /> 
<circle cx="158.6400" cy="154.7400" r="0.8500" /> 
<circle cx="156.1000" cy="157.2800" r="0.8500" /> 
<circle cx="158.6400" cy="157.2800" r="0.8500" /> 
<path style="fill:#000000; fill-opacity:1.0000; stroke:none;fill-rule:evenodd;"
d="M 100.8100,131.9650
100.7910,132.0607
100.7368,132.1418
100.6557,132.1960
100.5600,132.2150
99.4600,132.2150
99.3643,132.1960
99.2832,132.1418
99.2290,132.0607
99.2100,131.9650
99.2100,130.8650
99.2290,130.7693
99.2832,130.6882
99.3643,130.6340
99.4600,130.6150
100.5600,130.6150
100.6557,130.6340
100.7368,130.6882
100.7910,130.7693
100.8100,130.8650
Z" /> 
<circle cx="100.0100" cy="128.8750" r="0.8000" /> 
<circle cx="100.0100" cy="126.3350" r="0.8000" /> 
<circle cx="100.0100" cy="123.7950" r="0.8000" /> 
<circle cx="100.0100" cy="121.2550" r="0.8000" /> 
<circle cx="100.0100" cy="118.7150" r="0.8000" /> 
<circle cx="100.0100" cy="116.1750" r="0.8000" /> 
<circle cx="92.3900" cy="116.1750" r="0.8000" /> 
<circle cx="92.3900" cy="118.7150" r="0.8000" /> 
<circle cx="92.3900" cy="121.2550" r="0.8000" /> 
<circle cx="92.3900" cy="123.7950" r="0.8000" /> 
<circle cx="92.3900" cy="126.3350" r="0.8000" /> 
<circle cx="92.3900" cy="128.8750" r="0.8000" /> 
<circle cx="92.3900" cy="131.4150" r="0.8000" /> 
<circle cx="81.0000" cy="134.8000" r="0.8000" /> 
<circle cx="83.5000" cy="134.8000" r="0.8000" /> 
<path style="fill:#000000; fill-opacity:1.0000; stroke:none;fill-rule:evenodd;"
d="M 77.0900,119.5500
78.7900,119.5500
78.7900,121.2500
77.0900,121.2500
Z" /> 
<circle cx="75.4000" cy="120.4000" r="0.8500" /> 
<circle cx="72.8600" cy="120.4000" r="0.8500" /> 
<circle cx="129.5000" cy="127.9000" r="0.6000" /> 
<circle cx="131.5000" cy="127.9000" r="0.6000" /> 
<circle cx="116.8700" cy="137.5500" r="0.8000" /> 
<circle cx="109.2500" cy="137.5500" r="0.8000" /> 
<circle cx="116.8600" cy="134.4500" r="0.8000" /> 
<circle cx="109.2400" cy="134.4500" r="0.8000" /> 
<path style="fill:#000000; fill-opacity:1.0000; stroke:none;fill-rule:evenodd;"
d="M 102.7500,122.5300
102.7500,120.8300
104.4500,120.8300
104.4500,122.5300
Z" /> 
<circle cx="106.1400" cy="121.6800" r="0.8500" /> 
<circle cx="103.6000" cy="124.2200" r="0.8500" /> 
<circle cx="106.1400" cy="124.2200" r="0.8500" /> 
<circle cx="103.6000" cy="126.7600" r="0.8500" /> 
<circle cx="106.1400" cy="126.7600" r="0.8500" /> 
<circle cx="103.6000" cy="129.3000" r="0.8500" /> 
<circle cx="106.1400" cy="129.3000" r="0.8500" /> 
<circle cx="103.6000" cy="131.8400" r="0.8500" /> 
<circle cx="106.1400" cy="131.8400" r="0.8500" /> 
<circle cx="103.6000" cy="134.3800" r="0.8500" /> 
<circle cx="106.1400" cy="134.3800" r="0.8500" /> 
<circle cx="103.6000" cy="136.9200" r="0.8500" /> 
<circle cx="106.1400" cy="136.9200" r="0.8500" /> 
<circle cx="143.7100" cy="117.5500" r="0.8000" /> 
<circle cx="136.0900" cy="117.5500" r="0.8000" /> 
<circle cx="124.3000" cy="118.4000" r="0.7200" /> 
<circle cx="126.8400" cy="115.8600" r="0.7200" /> 
<circle cx="129.3800" cy="118.4000" r="0.7200" /> 
<path style="fill:#000000; fill-opacity:1.0000; stroke:none;fill-rule:evenodd;"
d="M 145.4774,116.9500
145.4964,116.8543
145.5506,116.7732
145.6317,116.7190
145.7274,116.7000
146.4274,116.7000
146.5231,116.7190
146.6042,116.7732
146.6584,116.8543
146.6774,116.9500
146.6774,117.6500
146.6584,117.7457
146.6042,117.8268
146.5231,117.8810
146.4274,117.9000
145.7274,117.9000
145.6317,117.8810
145.5506,117.8268
145.4964,117.7457
145.4774,117.6500
Z" /> 
<circle cx="148.0774" cy="117.3000" r="0.6000" /> 
<circle cx="116.8600" cy="122.0500" r="0.8000" /> 
<circle cx="109.2400" cy="122.0500" r="0.8000" /> 
<circle cx="137.0100" cy="138.2000" r="0.8000" /> 
<circle cx="129.3900" cy="138.2000" r="0.8000" /> 
<circle cx="126.6700" cy="137.5500" r="0.8000" /> 
<circle cx="119.0500" cy="137.5500" r="0.8000" /> 
<circle cx="126.6600" cy="134.4500" r="0.8000" /> 
<circle cx="119.0400" cy="134.4500" r="0.8000" /> 
<circle cx="126.6600" cy="128.2500" r="0.8000" /> 
<circle cx="119.0400" cy="128.2500" r="0.8000" /> 
<circle cx="116.8600" cy="125.1500" r="0.8000" /> 
<circle cx="109.2400" cy="125.1500" r="0.8000" /> 
<circle cx="75.7400" cy="125.4000" r="0.7500" /> 
<circle cx="70.8600" cy="125.4000" r="0.7500" /> 
<circle cx="116.8600" cy="128.2500" r="0.8000" /> 
<circle cx="109.2400" cy="128.2500" r="0.8000" /> 
<circle cx="70.2500" cy="130.5000" r="0.8000" /> 
<circle cx="72.7500" cy="130.5000" r="0.8000" /> 
<circle cx="133.4500" cy="115.7000" r="0.8000" /> 
<circle cx="133.4500" cy="118.2000" r="0.8000" /> 
<circle cx="137.0100" cy="135.2000" r="0.8000" /> 
<circle cx="129.3900" cy="135.2000" r="0.8000" /> 
<circle cx="104.2200" cy="118.4000" r="0.7200" /> 
<circle cx="106.7600" cy="115.8600" r="0.7200" /> 
<circle cx="109.3000" cy="118.4000" r="0.7200" /> 
<circle cx="98.5447" cy="148.2069" r="0.4000" /> 
<circle cx="107.0000" cy="139.1000" r="0.4000" /> 
<circle cx="111.1000" cy="136.8000" r="0.4000" /> 
</g>
<g style="fill:none; 
stroke:#000000; stroke-width:0.3810; stroke-opacity:1; 
stroke-linecap:round; stroke-linejoin:round;">
<path d="M93.0133 133.5785
L99.7688 133.5785
" />
<path d="M97.5732 143.8998
L101.7089 139.7641
" />
<path d="M93.2100 138.0405
L93.4005 138.0405
" />
<path d="M100.6015 136.5285
L100.6015 134.4112
" />
<path d="M100.1000 163.0000
L97.5732 160.4732
" />
<path d="M93.0195 137.9289
L93.1311 138.0405
" />
<path d="M93.0133 133.5785
L92.6785 133.9133
" />
<path d="M101.7089 139.7641
L101.7089 137.6359
" />
<path d="M101.7089 137.6359
L100.6015 136.5285
" />
<path d="M100.6015 134.4112
L99.7688 133.5785
" />
<path d="M97.5732 160.4732
L97.5732 143.8998
" />
<path d="M93.1311 138.0405
L93.2100 138.0405
" />
<path d="M92.6785 133.9133
L92.6785 137.5879
" />
<path d="M92.6785 137.5879
L93.0195 137.9289
" />
<path d="M95.2000 143.0730
L96.6000 141.6730
" />
<path d="M89.4233 155.3354
L88.5000 154.4121
" />
<path d="M90.1100 156.0900
L89.4233 155.3354
" />
<path d="M91.7000 149.7389
L92.8639 148.5750
" />
<path d="M90.6361 152.2800
L91.7000 151.2161
" />
<path d="M93.9161 148.5750
L95.2000 147.2911
" />
<path d="M89.3200 152.2800
L90.6361 152.2800
" />
<path d="M91.7000 151.2161
L91.7000 149.7389
" />
<path d="M96.6000 141.6730
L96.6000 138.7000
" />
<path d="M88.5000 154.4121
L88.5000 153.1000
" />
<path d="M88.5000 153.1000
L89.3200 152.2800
" />
<path d="M92.8639 148.5750
L93.9161 148.5750
" />
<path d="M95.2000 147.2911
L95.2000 143.0730
" />
<path d="M79.0000 149.3200
L80.7200 151.0400
" />
<path d="M82.4900 153.5500
L80.7200 151.7800
" />
<path d="M80.7200 151.0400
L80.7200 151.7800
" />
<path d="M94.7595 135.9289
L94.7595 135.6595
" />
<path d="M100.4360 139.2368
L100.4360 138.1632
" />
<path d="M97.1888 137.2785
L96.1091 137.2785
" />
<path d="M100.4360 138.1632
L99.6768 137.4040
" />
<path d="M93.8672 149.8450
L96.0000 147.7122
" />
<path d="M97.3143 137.4040
L97.1888 137.2785
" />
<path d="M96.1091 137.2785
L94.7595 135.9289
" />
<path d="M96.0000 143.6728
L100.4360 139.2368
" />
<path d="M99.6768 137.4040
L97.3143 137.4040
" />
<path d="M96.0000 147.7122
L96.0000 143.6728
" />
<path d="M101.0724 139.5004
L101.0724 137.8996
" />
<path d="M96.8000 150.2000
L96.8000 143.7728
" />
<path d="M93.3900 152.3850
L94.6150 152.3850
" />
<path d="M94.6150 152.3850
L96.8000 150.2000
" />
<path d="M96.8000 143.7728
L101.0724 139.5004
" />
<path d="M101.0724 137.8996
L99.1800 136.0072
" />
<path d="M93.3900 154.9250
L93.3900 152.3850
" />
<path d="M99.1800 136.0072
L99.1800 135.0000
" />
<path d="M75.9000 156.4000
L82.3200 162.8200
" />
<path d="M82.3200 162.8200
L82.3200 163.0000
" />
<path d="M75.4600 156.4000
L75.9000 156.4000
" />
<path d="M75.4600 153.8600
L76.7045 155.1045
" />
<path d="M83.5655 161.7055
L84.8600 163.0000
" />
<path d="M76.7045 156.3065
L82.1035 161.7055
" />
<path d="M82.1035 161.7055
L83.5655 161.7055
" />
<path d="M76.7045 155.1045
L76.7045 156.3065
" />
<path d="M91.8786 158.8497
L91.1003 158.0714
" />
<path d="M89.8284 158.0714
L85.5000 153.7430
" />
<path d="M77.0318 148.7800
L75.4600 148.7800
" />
<path d="M83.0161 149.7400
L81.9282 149.7400
" />
<path d="M85.5000 152.2239
L83.0161 149.7400
" />
<path d="M80.0867 147.8985
L77.9133 147.8985
" />
<path d="M95.0200 163.0000
L91.8786 159.8586
" />
<path d="M77.9133 147.8985
L77.0318 148.7800
" />
<path d="M91.8786 159.8586
L91.8786 158.8497
" />
<path d="M85.5000 153.7430
L85.5000 152.2239
" />
<path d="M91.1003 158.0714
L89.8284 158.0714
" />
<path d="M81.9282 149.7400
L80.0867 147.8985
" />
<path d="M76.7300 153.1904
L76.7300 150.7939
" />
<path d="M74.1900 147.5100
L75.4600 146.2400
" />
<path d="M80.6182 158.0285
L76.8315 154.2418
" />
<path d="M76.8315 153.2919
L76.7300 153.1904
" />
<path d="M88.2889 161.5785
L85.9215 159.2111
" />
<path d="M75.9861 150.0500
L74.9339 150.0500
" />
<path d="M76.7300 150.7939
L75.9861 150.0500
" />
<path d="M91.0585 161.5785
L88.2889 161.5785
" />
<path d="M85.1181 158.0285
L80.6182 158.0285
" />
<path d="M74.9339 150.0500
L74.1900 149.3061
" />
<path d="M74.1900 149.3061
L74.1900 147.5100
" />
<path d="M85.9215 158.8319
L85.1181 158.0285
" />
<path d="M76.8315 154.2418
L76.8315 153.2919
" />
<path d="M92.4800 163.0000
L91.0585 161.5785
" />
<path d="M85.9215 159.2111
L85.9215 158.8319
" />
<path d="M64.8200 139.2800
L67.1000 137.0000
" />
<path d="M73.2600 141.1600
L75.4600 141.1600
" />
<path d="M69.1000 137.0000
L73.2600 141.1600
" />
<path d="M67.1000 137.0000
L69.1000 137.0000
" />
<path d="M64.5300 142.1400
L67.8400 138.8300
" />
<path d="M64.5300 144.6800
L67.8400 141.3700
" />
<path d="M64.5300 147.2200
L67.8400 143.9100
" />
<path d="M67.8400 146.3050
L67.8400 146.2400
" />
<path d="M64.5300 149.6150
L67.8400 146.3050
" />
<path d="M64.5300 149.7600
L64.5300 149.6150
" />
<path d="M64.5300 152.3000
L67.8400 148.9900
" />
<path d="M64.5300 154.8400
L67.8400 151.5300
" />
<path d="M64.5300 157.1700
L67.8400 153.8600
" />
<path d="M90.1100 153.8270
L91.4089 155.1259
" />
<path d="M91.4825 156.9225
L92.1455 157.5855
" />
<path d="M91.4089 155.1394
L91.4361 155.1666
" />
<path d="M91.4361 155.1666
L91.4361 155.1801
" />
<path d="M91.4089 155.1259
L91.4089 155.1394
" />
<path d="M91.4825 155.3033
L91.4825 156.9225
" />
<path d="M91.4729 155.2553
L91.4729 155.2937
" />
<path d="M92.1455 157.9805
L92.8745 158.7095
" />
<path d="M91.4361 155.1801
L91.4633 155.2073
" />
<path d="M91.4633 155.2457
L91.4729 155.2553
" />
<path d="M91.4633 155.2073
L91.4633 155.2457
" />
<path d="M92.1455 157.5855
L92.1455 157.9805
" />
<path d="M92.8745 158.7095
L93.2695 158.7095
" />
<path d="M93.2695 158.7095
L97.5600 163.0000
" />
<path d="M91.4729 155.2937
L91.4825 155.3033
" />
<path d="M94.6345 142.7405
L94.6345 141.7095
" />
<path d="M63.5500 135.5000
L61.9900 137.0600
" />
<path d="M89.8635 136.3035
L70.1996 136.3035
" />
<path d="M91.3545 137.7945
L89.8635 136.3035
" />
<path d="M94.6345 141.7095
L91.3545 138.4295
" />
<path d="M92.5705 143.4695
L93.9055 143.4695
" />
<path d="M61.9900 137.0600
L61.9900 157.3800
" />
<path d="M70.1996 136.3035
L69.3961 135.5000
" />
<path d="M90.1100 145.9300
L92.5705 143.4695
" />
<path d="M93.9055 143.4695
L94.6345 142.7405
" />
<path d="M69.3961 135.5000
L63.5500 135.5000
" />
<path d="M91.3545 138.4295
L91.3545 137.7945
" />
<path d="M98.5447 148.2069
L98.5447 158.1447
" />
<path d="M98.5447 158.1447
L101.6000 161.2000
" />
<path d="M107.7200 161.8200
L107.7200 163.0000
" />
<path d="M107.1000 161.2000
L107.7200 161.8200
" />
<path d="M101.6000 161.2000
L107.1000 161.2000
" />
<path d="M137.4300 141.4700
L135.9295 142.9705
" />
<path d="M126.7020 147.1000
L106.2950 147.1000
" />
<path d="M135.9295 142.9705
L130.8315 142.9705
" />
<path d="M106.2950 147.1000
L101.0100 152.3850
" />
<path d="M130.8315 142.9705
L126.7020 147.1000
" />
<path d="M130.5684 142.3355
L128.1389 144.7650
" />
<path d="M132.3500 141.3100
L131.3245 142.3355
" />
<path d="M128.1389 144.7650
L101.0100 144.7650
" />
<path d="M131.3245 142.3355
L130.5684 142.3355
" />
<path d="M81.9219 136.9385
L83.0581 136.9385
" />
<path d="M85.6996 139.5800
L90.6361 139.5800
" />
<path d="M65.3800 136.2100
L69.2080 136.2100
" />
<path d="M83.0581 136.9385
L85.6996 139.5800
" />
<path d="M90.6361 139.5800
L93.2811 142.2250
" />
<path d="M69.2080 136.2100
L70.0580 137.0600
" />
<path d="M70.0580 137.0600
L81.8004 137.0600
" />
<path d="M81.8004 137.0600
L81.9219 136.9385
" />
<path d="M64.5300 137.0600
L65.3800 136.2100
" />
<path d="M80.4659 147.2000
L90.6361 147.2000
" />
<path d="M69.9735 156.0265
L69.9735 149.9304
" />
<path d="M64.7091 159.7091
L66.0000 158.4182
" />
<path d="M90.7411 147.3050
L93.3900 147.3050
" />
<path d="M62.7909 159.7091
L64.7091 159.7091
" />
<path d="M62.0000 163.0000
L62.0000 160.5000
" />
<path d="M80.4024 147.1365
L80.4659 147.2000
" />
<path d="M74.9339 144.9700
L75.9861 144.9700
" />
<path d="M66.4465 157.6445
L68.3555 157.6445
" />
<path d="M78.1526 147.1365
L80.4024 147.1365
" />
<path d="M93.3900 147.3050
L93.3900 144.7650
" />
<path d="M66.0000 158.0910
L66.4465 157.6445
" />
<path d="M75.9861 144.9700
L78.1526 147.1365
" />
<path d="M62.0000 160.5000
L62.7909 159.7091
" />
<path d="M69.9735 149.9304
L74.9339 144.9700
" />
<path d="M66.0000 158.4182
L66.0000 158.0910
" />
<path d="M68.3555 157.6445
L69.9735 156.0265
" />
<path d="M90.6361 147.2000
L90.7411 147.3050
" />
<path d="M106.1555 138.7502
L106.1555 138.9148
" />
<path d="M107.5615 137.3442
L106.1555 138.7502
" />
<path d="M102.2800 141.5004
L102.2800 142.7511
" />
<path d="M109.1900 121.4000
L107.5615 123.0285
" />
<path d="M106.1555 138.9148
L105.1318 139.9385
" />
<path d="M105.1318 139.9385
L103.8419 139.9385
" />
<path d="M100.4839 153.6550
L101.5361 153.6550
" />
<path d="M99.6385 144.3404
L99.6385 152.8096
" />
<path d="M99.6385 152.8096
L100.4839 153.6550
" />
<path d="M107.5615 123.0285
L107.5615 137.3442
" />
<path d="M103.0586 155.1775
L108.1175 155.1775
" />
<path d="M103.8419 139.9385
L102.2800 141.5004
" />
<path d="M100.4839 143.4950
L99.6385 144.3404
" />
<path d="M108.1175 155.1775
L109.4900 156.5500
" />
<path d="M101.5361 153.6550
L103.0586 155.1775
" />
<path d="M101.5361 143.4950
L100.4839 143.4950
" />
<path d="M102.2800 142.7511
L101.5361 143.4950
" />
<path d="M112.0943 136.0000
L128.5900 136.0000
" />
<path d="M109.2400 134.4500
L110.5443 134.4500
" />
<path d="M128.5900 136.0000
L129.3900 135.2000
" />
<path d="M110.5443 134.4500
L112.0943 136.0000
" />
</g>
<g style="fill:none; 
stroke:#000000; stroke-width:0.3000; stroke-opacity:1; 
stroke-linecap:round; stroke-linejoin:round;">
<path d="M121.6780 155.3055
L120.9455 156.0380
" />
<path d="M154.9540 141.5122
L151.7122 144.7540
" />
<path d="M122.2945 155.3055
L121.6780 155.3055
" />
<path d="M118.3545 157.7945
L117.1100 156.5500
" />
<path d="M120.9455 156.0380
L120.9455 157.0655
" />
<path d="M132.8460 144.7540
L122.2945 155.3055
" />
<path d="M120.2165 157.7945
L118.3545 157.7945
" />
<path d="M151.7122 144.7540
L132.8460 144.7540
" />
<path d="M120.9455 157.0655
L120.2165 157.7945
" />
<path d="M154.9540 140.6460
L154.9540 141.5122
" />
<path d="M156.1000 139.5000
L154.9540 140.6460
" />
<path d="M151.4827 144.2000
L154.4000 141.2827
" />
<path d="M119.6500 156.5500
L132.0000 144.2000
" />
<path d="M157.3860 138.2460
L158.6400 139.5000
" />
<path d="M132.0000 144.2000
L151.4827 144.2000
" />
<path d="M154.4000 139.4266
L155.5806 138.2460
" />
<path d="M155.5806 138.2460
L157.3860 138.2460
" />
<path d="M154.4000 141.2827
L154.4000 139.4266
" />
<path d="M134.1589 145.3080
L152.8151 145.3080
" />
<path d="M122.1900 156.5500
L122.9169 156.5500
" />
<path d="M122.9169 156.5500
L134.1589 145.3080
" />
<path d="M155.3940 142.7460
L156.1000 142.0400
" />
<path d="M152.8151 145.3080
L155.3771 142.7460
" />
<path d="M155.3771 142.7460
L155.3940 142.7460
" />
<path d="M135.4180 145.8620
L153.0446 145.8620
" />
<path d="M157.3800 143.3000
L158.6400 142.0400
" />
<path d="M124.7300 156.5500
L135.4180 145.8620
" />
<path d="M155.6066 143.3000
L157.3800 143.3000
" />
<path d="M153.0446 145.8620
L155.6066 143.3000
" />
<path d="M156.1000 144.5800
L155.3680 145.3120
" />
<path d="M155.3680 145.3120
L155.3511 145.3120
" />
<path d="M153.6780 146.0120
L153.2740 146.4160
" />
<path d="M153.2740 146.4160
L137.4840 146.4160
" />
<path d="M137.4840 146.4160
L127.3500 156.5500
" />
<path d="M154.6511 146.0120
L153.6780 146.0120
" />
<path d="M155.3511 145.3120
L154.6511 146.0120
" />
<path d="M139.3900 146.9700
L153.5035 146.9700
" />
<path d="M155.5806 145.8660
L157.3540 145.8660
" />
<path d="M153.5035 146.9700
L153.9075 146.5660
" />
<path d="M154.8806 146.5660
L155.5806 145.8660
" />
<path d="M157.3540 145.8660
L158.6400 144.5800
" />
<path d="M153.9075 146.5660
L154.8806 146.5660
" />
<path d="M129.8100 156.5500
L139.3900 146.9700
" />
<path d="M153.5570 147.7000
L141.2000 147.7000
" />
<path d="M141.2000 147.7000
L132.3500 156.5500
" />
<path d="M156.1000 147.1200
L154.1370 147.1200
" />
<path d="M154.1370 147.1200
L153.5570 147.7000
" />
<path d="M143.0340 148.4060
L157.3540 148.4060
" />
<path d="M157.3540 148.4060
L158.6400 147.1200
" />
<path d="M134.8900 156.5500
L143.0340 148.4060
" />
<path d="M144.3200 149.6600
L137.4300 156.5500
" />
<path d="M156.1000 149.6600
L144.3200 149.6600
" />
<path d="M145.5740 150.9460
L157.3540 150.9460
" />
<path d="M157.3540 150.9460
L158.6400 149.6600
" />
<path d="M139.9700 156.5500
L145.5740 150.9460
" />
<path d="M156.1000 152.2000
L146.8600 152.2000
" />
<path d="M146.8600 152.2000
L142.5100 156.5500
" />
<path d="M148.1140 153.4860
L157.3540 153.4860
" />
<path d="M157.3540 153.4860
L158.6400 152.2000
" />
<path d="M145.0500 156.5500
L148.1140 153.4860
" />
<path d="M156.1000 154.7400
L149.4000 154.7400
" />
<path d="M149.4000 154.7400
L147.5900 156.5500
" />
<path d="M151.3340 155.3460
L154.9326 155.3460
" />
<path d="M154.9326 155.3460
L155.5806 155.9940
" />
<path d="M157.3860 155.9940
L158.6400 154.7400
" />
<path d="M150.1300 156.5500
L151.3340 155.3460
" />
<path d="M155.5806 155.9940
L157.3860 155.9940
" />
<path d="M156.1000 157.2800
L153.4000 157.2800
" />
<path d="M153.4000 157.2800
L152.6700 156.5500
" />
</g>
<g style="fill:none; 
stroke:#000000; stroke-width:0.3810; stroke-opacity:1; 
stroke-linecap:round; stroke-linejoin:round;">
<path d="M113.2745 140.7945
L113.2745 142.5255
" />
<path d="M108.2277 139.9277
L107.4000 139.1000
" />
<path d="M109.2000 143.5000
L108.2277 142.5277
" />
<path d="M150.1300 141.3100
L148.3200 139.5000
" />
<path d="M114.5690 139.5000
L113.2745 140.7945
" />
<path d="M108.2277 142.5277
L108.2277 139.9277
" />
<path d="M113.2745 142.5255
L112.3000 143.5000
" />
<path d="M148.3200 139.5000
L114.5690 139.5000
" />
<path d="M107.4000 139.1000
L107.0000 139.1000
" />
<path d="M112.3000 143.5000
L109.2000 143.5000
" />
<path d="M110.2600 160.1400
L110.2600 163.0000
" />
<path d="M131.0945 143.6055
L125.2000 149.5000
" />
<path d="M147.5900 141.3100
L147.5900 142.0100
" />
<path d="M125.2000 149.5000
L117.2839 149.5000
" />
<path d="M117.2839 149.5000
L110.7600 156.0239
" />
<path d="M110.7600 156.0239
L110.7600 159.6400
" />
<path d="M145.9945 143.6055
L131.0945 143.6055
" />
<path d="M147.5900 142.0100
L145.9945 143.6055
" />
<path d="M110.7600 159.6400
L110.2600 160.1400
" />
<path d="M111.1000 136.8000
L111.1000 139.7000
" />
<path d="M111.1000 139.7000
L109.4900 141.3100
" />
<path d="M149.0500 132.4500
L150.8000 134.2000
" />
<path d="M150.8000 134.2000
L152.9200 134.2000
" />
<path d="M149.0500 128.7000
L149.0500 131.2000
" />
<path d="M149.0500 131.2000
L149.0500 132.4500
" />
<path d="M158.1100 117.5500
L155.9500 117.5500
" />
<path d="M155.9500 117.5500
L152.3000 121.2000
" />
<path d="M149.0500 121.2000
L149.0500 123.7000
" />
<path d="M152.3000 121.2000
L149.0500 121.2000
" />
<path d="M114.3100 131.9000
L114.3100 119.0500
" />
<path d="M116.8600 134.4500
L114.3100 131.9000
" />
<path d="M120.2845 119.3445
L120.2845 130.1055
" />
<path d="M119.3400 118.4000
L120.2845 119.3445
" />
<path d="M120.2845 130.1055
L119.0400 131.3500
" />
<path d="M146.0774 117.3000
L143.9600 117.3000
" />
<path d="M142.3274 132.5000
L143.8900 132.5000
" />
<path d="M143.8900 132.5000
L145.3400 133.9500
" />
<path d="M75.7400 127.9900
L78.2500 130.5000
" />
<path d="M78.0000 130.9000
L78.0000 134.5000
" />
<path d="M89.0100 131.4150
L87.7655 130.1705
" />
<path d="M87.7655 130.1705
L78.5795 130.1705
" />
<path d="M75.7400 125.4000
L75.7400 127.9900
" />
<path d="M75.0105 122.5505
L87.7655 122.5505
" />
<path d="M72.8600 120.4000
L75.0105 122.5505
" />
<path d="M87.7655 122.5505
L89.0100 123.7950
" />
<path d="M129.3800 132.2000
L129.3800 130.0200
" />
<path d="M129.3800 130.0200
L131.5000 127.9000
" />
<path d="M137.9000 125.8000
L139.0300 126.9300
" />
<path d="M139.0300 126.9300
L139.0300 128.5100
" />
<path d="M133.6000 125.8000
L137.9000 125.8000
" />
<path d="M131.5000 127.9000
L133.6000 125.8000
" />
<path d="M127.3200 138.2000
L126.6700 137.5500
" />
<path d="M129.3900 138.2000
L127.3200 138.2000
" />
<path d="M129.3900 138.2000
L130.6345 136.9555
" />
<path d="M144.1100 123.4900
L141.5700 126.0300
" />
<path d="M141.5700 126.0300
L141.5700 128.5100
" />
<path d="M130.6345 136.9555
L140.0829 136.9555
" />
<path d="M144.1100 120.8900
L144.1100 123.4900
" />
<path d="M141.5700 119.8700
L141.5700 120.8900
" />
<path d="M139.2500 117.5500
L141.5700 119.8700
" />
<path d="M134.3000 119.7500
L136.0900 117.9600
" />
<path d="M136.0900 117.5500
L139.2500 117.5500
" />
<path d="M134.3000 121.4000
L134.3000 119.7500
" />
<path d="M136.0900 117.9600
L136.0900 117.5500
" />
<path d="M133.1000 122.6000
L134.3000 121.4000
" />
<path d="M137.0000 132.2000
L140.0274 132.2000
" />
<path d="M136.4900 131.6900
L137.0000 132.2000
" />
<path d="M136.4900 128.5100
L136.4900 131.6900
" />
<path d="M140.0274 132.2000
L140.3274 132.5000
" />
<path d="M129.5000 127.9000
L128.1355 129.2645
" />
<path d="M128.1355 129.2645
L128.1355 132.9745
" />
<path d="M128.1355 132.9745
L126.6600 134.4500
" />
<path d="M126.6600 128.2500
L126.6600 127.0400
" />
<path d="M126.6600 128.2500
L126.6600 131.3500
" />
<path d="M126.6600 127.0400
L131.1000 122.6000
" />
<path d="M105.3845 117.2355
L120.7041 117.2355
" />
<path d="M104.2200 118.4000
L105.3845 117.2355
" />
<path d="M125.5186 122.0500
L126.6500 122.0500
" />
<path d="M120.7041 117.2355
L125.5186 122.0500
" />
<path d="M148.0774 117.3000
L150.2400 117.3000
" />
<path d="M150.2400 117.3000
L150.4900 117.5500
" />
<path d="M70.2500 130.5000
L70.2500 134.3700
" />
<path d="M70.8600 125.4000
L70.8600 127.6400
" />
<path d="M70.2500 128.2500
L70.2500 130.5000
" />
<path d="M70.8600 127.6400
L70.2500 128.2500
" />
<path d="M102.4856 122.5250
L99.4839 122.5250
" />
<path d="M102.7500 122.3395
L102.6711 122.3395
" />
<path d="M102.9405 122.3395
L102.7500 122.3395
" />
<path d="M99.4839 122.5250
L98.7400 123.2689
" />
<path d="M98.7400 123.2689
L98.7400 125.0650
" />
<path d="M98.7400 125.0650
L100.0100 126.3350
" />
<path d="M102.6711 122.3395
L102.4856 122.5250
" />
<path d="M103.6000 124.2200
L100.4350 124.2200
" />
<path d="M92.3900 128.8750
L95.1164 128.8750
" />
<path d="M103.6000 129.3000
L102.2311 129.3000
" />
<path d="M102.2311 129.3000
L100.5361 127.6050
" />
<path d="M95.1164 128.8750
L97.6917 126.2997
" />
<path d="M100.5361 127.6050
L98.9970 127.6050
" />
<path d="M100.0100 118.7150
L97.6917 121.0333
" />
<path d="M98.9970 127.6050
L97.6917 126.2997
" />
<path d="M97.6917 121.0333
L97.6917 126.2997
" />
<path d="M91.0185 129.2996
L91.0185 125.1665
" />
<path d="M91.0185 129.2996
L91.8639 130.1450
" />
<path d="M103.6000 131.8400
L102.6525 132.7875
" />
<path d="M92.9161 130.1450
L91.8639 130.1450
" />
<path d="M95.5586 132.7875
L102.6525 132.7875
" />
<path d="M95.5586 132.7875
L92.9161 130.1450
" />
<path d="M91.0185 125.1665
L92.3900 123.7950
" />
</g>
<g style="fill:#FFFFFF; fill-opacity:1.0000; stroke:none;">
<circle cx="98.5447" cy="148.2069" r="0.2250" /> 
<circle cx="107.0000" cy="139.1000" r="0.2250" /> 
<circle cx="111.1000" cy="136.8000" r="0.2250" /> 
</g>
<g style="fill:#FFFFFF; fill-opacity:1.0000; stroke:none;">
<circle cx="90.5500" cy="159.4000" r="0.4000" /> 
</g>
<g style="fill:#FFFFFF; fill-opacity:1.0000; stroke:none;">
<circle cx="88.0500" cy="159.4000" r="0.4000" /> 
</g>
<g style="fill:#FFFFFF; fill-opacity:1.0000; stroke:none;">
<circle cx="82.0500" cy="159.4000" r="0.4000" /> 
</g>
<g style="fill:#FFFFFF; fill-opacity:1.0000; stroke:none;">
<circle cx="84.5500" cy="159.4000" r="0.4000" /> 
</g>
<g style="fill:#FFFFFF; fill-opacity:1.0000; stroke:none;">
<circle cx="67.4700" cy="159.6000" r="0.4000" /> 
</g>
<g style="fill:#FFFFFF; fill-opacity:1.0000; stroke:none;">
<circle cx="69.9700" cy="159.6000" r="0.4000" /> 
</g>
<g style="fill:#FFFFFF; fill-opacity:1.0000; stroke:none;">
<circle cx="103.9000" cy="159.6500" r="0.4000" /> 
</g>
<g style="fill:#FFFFFF; fill-opacity:1.0000; stroke:none;">
<circle cx="106.4000" cy="159.6500" r="0.4000" /> 
</g>
<g style="fill:#FFFFFF; fill-opacity:1.0000; stroke:none;">
<circle cx="94.0600" cy="138.7000" r="0.5000" /> 
</g>
<g style="fill:#FFFFFF; fill-opacity:1.0000; stroke:none;">
<circle cx="96.6000" cy="138.7000" r="0.5000" /> 
</g>
<g style="fill:#FFFFFF; fill-opacity:1.0000; stroke:none;">
<circle cx="99.1400" cy="138.7000" r="0.5000" /> 
</g>
<g style="fill:#FFFFFF; fill-opacity:1.0000; stroke:none;">
<circle cx="79.0000" cy="149.3200" r="0.5000" /> 
</g>
<g style="fill:#FFFFFF; fill-opacity:1.0000; stroke:none;">
<circle cx="79.0000" cy="151.8600" r="0.5000" /> 
</g>
<g style="fill:#FFFFFF; fill-opacity:1.0000; stroke:none;">
<circle cx="79.0000" cy="154.4000" r="0.5000" /> 
</g>
<g style="fill:#FFFFFF; fill-opacity:1.0000; stroke:none;">
<circle cx="79.0000" cy="139.1000" r="0.5000" /> 
</g>
<g style="fill:#FFFFFF; fill-opacity:1.0000; stroke:none;">
<circle cx="79.0000" cy="141.6400" r="0.5000" /> 
</g>
<g style="fill:#FFFFFF; fill-opacity:1.0000; stroke:none;">
<circle cx="79.0000" cy="144.1800" r="0.5000" /> 
</g>
<g style="fill:#FFFFFF; fill-opacity:1.0000; stroke:none;">
<circle cx="94.1000" cy="135.0000" r="0.5000" /> 
</g>
<g style="fill:#FFFFFF; fill-opacity:1.0000; stroke:none;">
<circle cx="96.6400" cy="135.0000" r="0.5000" /> 
</g>
<g style="fill:#FFFFFF; fill-opacity:1.0000; stroke:none;">
<circle cx="99.1800" cy="135.0000" r="0.5000" /> 
</g>
<g style="fill:#FFFFFF; fill-opacity:1.0000; stroke:none;">
<circle cx="75.4600" cy="156.4000" r="0.4000" /> 
</g>
<g style="fill:#FFFFFF; fill-opacity:1.0000; stroke:none;">
<circle cx="75.4600" cy="153.8600" r="0.4000" /> 
</g>
<g style="fill:#FFFFFF; fill-opacity:1.0000; stroke:none;">
<circle cx="75.4600" cy="151.3200" r="0.4000" /> 
</g>
<g style="fill:#FFFFFF; fill-opacity:1.0000; stroke:none;">
<circle cx="75.4600" cy="148.7800" r="0.4000" /> 
</g>
<g style="fill:#FFFFFF; fill-opacity:1.0000; stroke:none;">
<circle cx="75.4600" cy="146.2400" r="0.4000" /> 
</g>
<g style="fill:#FFFFFF; fill-opacity:1.0000; stroke:none;">
<circle cx="75.4600" cy="143.7000" r="0.4000" /> 
</g>
<g style="fill:#FFFFFF; fill-opacity:1.0000; stroke:none;">
<circle cx="75.4600" cy="141.1600" r="0.4000" /> 
</g>
<g style="fill:#FFFFFF; fill-opacity:1.0000; stroke:none;">
<circle cx="75.4600" cy="138.6200" r="0.4000" /> 
</g>
<g style="fill:#FFFFFF; fill-opacity:1.0000; stroke:none;">
<circle cx="67.8400" cy="138.6200" r="0.4000" /> 
</g>
<g style="fill:#FFFFFF; fill-opacity:1.0000; stroke:none;">
<circle cx="67.8400" cy="141.1600" r="0.4000" /> 
</g>
<g style="fill:#FFFFFF; fill-opacity:1.0000; stroke:none;">
<circle cx="67.8400" cy="143.7000" r="0.4000" /> 
</g>
<g style="fill:#FFFFFF; fill-opacity:1.0000; stroke:none;">
<circle cx="67.8400" cy="146.2400" r="0.4000" /> 
</g>
<g style="fill:#FFFFFF; fill-opacity:1.0000; stroke:none;">
<circle cx="67.8400" cy="148.7800" r="0.4000" /> 
</g>
<g style="fill:#FFFFFF; fill-opacity:1.0000; stroke:none;">
<circle cx="67.8400" cy="151.3200" r="0.4000" /> 
</g>
<g style="fill:#FFFFFF; fill-opacity:1.0000; stroke:none;">
<circle cx="67.8400" cy="153.8600" r="0.4000" /> 
</g>
<g style="fill:#FFFFFF; fill-opacity:1.0000; stroke:none;">
<circle cx="67.8400" cy="156.4000" r="0.4000" /> 
</g>
<g style="fill:#FFFFFF; fill-opacity:1.0000; stroke:none;">
<circle cx="90.1100" cy="156.0900" r="0.4000" /> 
</g>
<g style="fill:#FFFFFF; fill-opacity:1.0000; stroke:none;">
<circle cx="90.1100" cy="153.5500" r="0.4000" /> 
</g>
<g style="fill:#FFFFFF; fill-opacity:1.0000; stroke:none;">
<circle cx="90.1100" cy="151.0100" r="0.4000" /> 
</g>
<g style="fill:#FFFFFF; fill-opacity:1.0000; stroke:none;">
<circle cx="90.1100" cy="148.4700" r="0.4000" /> 
</g>
<g style="fill:#FFFFFF; fill-opacity:1.0000; stroke:none;">
<circle cx="90.1100" cy="145.9300" r="0.4000" /> 
</g>
<g style="fill:#FFFFFF; fill-opacity:1.0000; stroke:none;">
<circle cx="90.1100" cy="143.3900" r="0.4000" /> 
</g>
<g style="fill:#FFFFFF; fill-opacity:1.0000; stroke:none;">
<circle cx="90.1100" cy="140.8500" r="0.4000" /> 
</g>
<g style="fill:#FFFFFF; fill-opacity:1.0000; stroke:none;">
<circle cx="90.1100" cy="138.3100" r="0.4000" /> 
</g>
<g style="fill:#FFFFFF; fill-opacity:1.0000; stroke:none;">
<circle cx="82.4900" cy="138.3100" r="0.4000" /> 
</g>
<g style="fill:#FFFFFF; fill-opacity:1.0000; stroke:none;">
<circle cx="82.4900" cy="140.8500" r="0.4000" /> 
</g>
<g style="fill:#FFFFFF; fill-opacity:1.0000; stroke:none;">
<circle cx="82.4900" cy="143.3900" r="0.4000" /> 
</g>
<g style="fill:#FFFFFF; fill-opacity:1.0000; stroke:none;">
<circle cx="82.4900" cy="145.9300" r="0.4000" /> 
</g>
<g style="fill:#FFFFFF; fill-opacity:1.0000; stroke:none;">
<circle cx="82.4900" cy="148.4700" r="0.4000" /> 
</g>
<g style="fill:#FFFFFF; fill-opacity:1.0000; stroke:none;">
<circle cx="82.4900" cy="151.0100" r="0.4000" /> 
</g>
<g style="fill:#FFFFFF; fill-opacity:1.0000; stroke:none;">
<circle cx="82.4900" cy="153.5500" r="0.4000" /> 
</g>
<g style="fill:#FFFFFF; fill-opacity:1.0000; stroke:none;">
<circle cx="82.4900" cy="156.0900" r="0.4000" /> 
</g>
<g style="fill:#FFFFFF; fill-opacity:1.0000; stroke:none;">
<circle cx="101.0100" cy="157.4650" r="0.4000" /> 
</g>
<g style="fill:#FFFFFF; fill-opacity:1.0000; stroke:none;">
<circle cx="101.0100" cy="154.9250" r="0.4000" /> 
</g>
<g style="fill:#FFFFFF; fill-opacity:1.0000; stroke:none;">
<circle cx="101.0100" cy="152.3850" r="0.4000" /> 
</g>
<g style="fill:#FFFFFF; fill-opacity:1.0000; stroke:none;">
<circle cx="101.0100" cy="149.8450" r="0.4000" /> 
</g>
<g style="fill:#FFFFFF; fill-opacity:1.0000; stroke:none;">
<circle cx="101.0100" cy="147.3050" r="0.4000" /> 
</g>
<g style="fill:#FFFFFF; fill-opacity:1.0000; stroke:none;">
<circle cx="101.0100" cy="144.7650" r="0.4000" /> 
</g>
<g style="fill:#FFFFFF; fill-opacity:1.0000; stroke:none;">
<circle cx="101.0100" cy="142.2250" r="0.4000" /> 
</g>
<g style="fill:#FFFFFF; fill-opacity:1.0000; stroke:none;">
<circle cx="93.3900" cy="142.2250" r="0.4000" /> 
</g>
<g style="fill:#FFFFFF; fill-opacity:1.0000; stroke:none;">
<circle cx="93.3900" cy="144.7650" r="0.4000" /> 
</g>
<g style="fill:#FFFFFF; fill-opacity:1.0000; stroke:none;">
<circle cx="93.3900" cy="147.3050" r="0.4000" /> 
</g>
<g style="fill:#FFFFFF; fill-opacity:1.0000; stroke:none;">
<circle cx="93.3900" cy="149.8450" r="0.4000" /> 
</g>
<g style="fill:#FFFFFF; fill-opacity:1.0000; stroke:none;">
<circle cx="93.3900" cy="152.3850" r="0.4000" /> 
</g>
<g style="fill:#FFFFFF; fill-opacity:1.0000; stroke:none;">
<circle cx="93.3900" cy="154.9250" r="0.4000" /> 
</g>
<g style="fill:#FFFFFF; fill-opacity:1.0000; stroke:none;">
<circle cx="93.3900" cy="157.4650" r="0.4000" /> 
</g>
<g style="fill:#FFFFFF; fill-opacity:1.0000; stroke:none;">
<circle cx="104.4100" cy="156.5500" r="0.4000" /> 
</g>
<g style="fill:#FFFFFF; fill-opacity:1.0000; stroke:none;">
<circle cx="106.9500" cy="156.5500" r="0.4000" /> 
</g>
<g style="fill:#FFFFFF; fill-opacity:1.0000; stroke:none;">
<circle cx="109.4900" cy="156.5500" r="0.4000" /> 
</g>
<g style="fill:#FFFFFF; fill-opacity:1.0000; stroke:none;">
<circle cx="112.0300" cy="156.5500" r="0.4000" /> 
</g>
<g style="fill:#FFFFFF; fill-opacity:1.0000; stroke:none;">
<circle cx="114.5700" cy="156.5500" r="0.4000" /> 
</g>
<g style="fill:#FFFFFF; fill-opacity:1.0000; stroke:none;">
<circle cx="117.1100" cy="156.5500" r="0.4000" /> 
</g>
<g style="fill:#FFFFFF; fill-opacity:1.0000; stroke:none;">
<circle cx="119.6500" cy="156.5500" r="0.4000" /> 
</g>
<g style="fill:#FFFFFF; fill-opacity:1.0000; stroke:none;">
<circle cx="122.1900" cy="156.5500" r="0.4000" /> 
</g>
<g style="fill:#FFFFFF; fill-opacity:1.0000; stroke:none;">
<circle cx="124.7300" cy="156.5500" r="0.4000" /> 
</g>
<g style="fill:#FFFFFF; fill-opacity:1.0000; stroke:none;">
<circle cx="127.2700" cy="156.5500" r="0.4000" /> 
</g>
<g style="fill:#FFFFFF; fill-opacity:1.0000; stroke:none;">
<circle cx="129.8100" cy="156.5500" r="0.4000" /> 
</g>
<g style="fill:#FFFFFF; fill-opacity:1.0000; stroke:none;">
<circle cx="132.3500" cy="156.5500" r="0.4000" /> 
</g>
<g style="fill:#FFFFFF; fill-opacity:1.0000; stroke:none;">
<circle cx="134.8900" cy="156.5500" r="0.4000" /> 
</g>
<g style="fill:#FFFFFF; fill-opacity:1.0000; stroke:none;">
<circle cx="137.4300" cy="156.5500" r="0.4000" /> 
</g>
<g style="fill:#FFFFFF; fill-opacity:1.0000; stroke:none;">
<circle cx="139.9700" cy="156.5500" r="0.4000" /> 
</g>
<g style="fill:#FFFFFF; fill-opacity:1.0000; stroke:none;">
<circle cx="142.5100" cy="156.5500" r="0.4000" /> 
</g>
<g style="fill:#FFFFFF; fill-opacity:1.0000; stroke:none;">
<circle cx="145.0500" cy="156.5500" r="0.4000" /> 
</g>
<g style="fill:#FFFFFF; fill-opacity:1.0000; stroke:none;">
<circle cx="147.5900" cy="156.5500" r="0.4000" /> 
</g>
<g style="fill:#FFFFFF; fill-opacity:1.0000; stroke:none;">
<circle cx="150.1300" cy="156.5500" r="0.4000" /> 
</g>
<g style="fill:#FFFFFF; fill-opacity:1.0000; stroke:none;">
<circle cx="152.6700" cy="156.5500" r="0.4000" /> 
</g>
<g style="fill:#FFFFFF; fill-opacity:1.0000; stroke:none;">
<circle cx="152.6700" cy="141.3100" r="0.4000" /> 
</g>
<g style="fill:#FFFFFF; fill-opacity:1.0000; stroke:none;">
<circle cx="150.1300" cy="141.3100" r="0.4000" /> 
</g>
<g style="fill:#FFFFFF; fill-opacity:1.0000; stroke:none;">
<circle cx="147.5900" cy="141.3100" r="0.4000" /> 
</g>
<g style="fill:#FFFFFF; fill-opacity:1.0000; stroke:none;">
<circle cx="145.0500" cy="141.3100" r="0.4000" /> 
</g>
<g style="fill:#FFFFFF; fill-opacity:1.0000; stroke:none;">
<circle cx="142.5100" cy="141.3100" r="0.4000" /> 
</g>
<g style="fill:#FFFFFF; fill-opacity:1.0000; stroke:none;">
<circle cx="139.9700" cy="141.3100" r="0.4000" /> 
</g>
<g style="fill:#FFFFFF; fill-opacity:1.0000; stroke:none;">
<circle cx="137.4300" cy="141.3100" r="0.4000" /> 
</g>
<g style="fill:#FFFFFF; fill-opacity:1.0000; stroke:none;">
<circle cx="134.8900" cy="141.3100" r="0.4000" /> 
</g>
<g style="fill:#FFFFFF; fill-opacity:1.0000; stroke:none;">
<circle cx="132.3500" cy="141.3100" r="0.4000" /> 
</g>
<g style="fill:#FFFFFF; fill-opacity:1.0000; stroke:none;">
<circle cx="129.8100" cy="141.3100" r="0.4000" /> 
</g>
<g style="fill:#FFFFFF; fill-opacity:1.0000; stroke:none;">
<circle cx="127.2700" cy="141.3100" r="0.4000" /> 
</g>
<g style="fill:#FFFFFF; fill-opacity:1.0000; stroke:none;">
<circle cx="124.7300" cy="141.3100" r="0.4000" /> 
</g>
<g style="fill:#FFFFFF; fill-opacity:1.0000; stroke:none;">
<circle cx="122.1900" cy="141.3100" r="0.4000" /> 
</g>
<g style="fill:#FFFFFF; fill-opacity:1.0000; stroke:none;">
<circle cx="119.6500" cy="141.3100" r="0.4000" /> 
</g>
<g style="fill:#FFFFFF; fill-opacity:1.0000; stroke:none;">
<circle cx="117.1100" cy="141.3100" r="0.4000" /> 
</g>
<g style="fill:#FFFFFF; fill-opacity:1.0000; stroke:none;">
<circle cx="114.5700" cy="141.3100" r="0.4000" /> 
</g>
<g style="fill:#FFFFFF; fill-opacity:1.0000; stroke:none;">
<circle cx="112.0300" cy="141.3100" r="0.4000" /> 
</g>
<g style="fill:#FFFFFF; fill-opacity:1.0000; stroke:none;">
<circle cx="109.4900" cy="141.3100" r="0.4000" /> 
</g>
<g style="fill:#FFFFFF; fill-opacity:1.0000; stroke:none;">
<circle cx="106.9500" cy="141.3100" r="0.4000" /> 
</g>
<g style="fill:#FFFFFF; fill-opacity:1.0000; stroke:none;">
<circle cx="104.4100" cy="141.3100" r="0.4000" /> 
</g>
<g style="fill:#FFFFFF; fill-opacity:1.0000; stroke:none;">
<circle cx="64.5300" cy="157.3800" r="0.5000" /> 
</g>
<g style="fill:#FFFFFF; fill-opacity:1.0000; stroke:none;">
<circle cx="61.9900" cy="157.3800" r="0.5000" /> 
</g>
<g style="fill:#FFFFFF; fill-opacity:1.0000; stroke:none;">
<circle cx="64.5300" cy="154.8400" r="0.5000" /> 
</g>
<g style="fill:#FFFFFF; fill-opacity:1.0000; stroke:none;">
<circle cx="61.9900" cy="154.8400" r="0.5000" /> 
</g>
<g style="fill:#FFFFFF; fill-opacity:1.0000; stroke:none;">
<circle cx="64.5300" cy="152.3000" r="0.5000" /> 
</g>
<g style="fill:#FFFFFF; fill-opacity:1.0000; stroke:none;">
<circle cx="61.9900" cy="152.3000" r="0.5000" /> 
</g>
<g style="fill:#FFFFFF; fill-opacity:1.0000; stroke:none;">
<circle cx="64.5300" cy="149.7600" r="0.5000" /> 
</g>
<g style="fill:#FFFFFF; fill-opacity:1.0000; stroke:none;">
<circle cx="61.9900" cy="149.7600" r="0.5000" /> 
</g>
<g style="fill:#FFFFFF; fill-opacity:1.0000; stroke:none;">
<circle cx="64.5300" cy="147.2200" r="0.5000" /> 
</g>
<g style="fill:#FFFFFF; fill-opacity:1.0000; stroke:none;">
<circle cx="61.9900" cy="147.2200" r="0.5000" /> 
</g>
<g style="fill:#FFFFFF; fill-opacity:1.0000; stroke:none;">
<circle cx="64.5300" cy="144.6800" r="0.5000" /> 
</g>
<g style="fill:#FFFFFF; fill-opacity:1.0000; stroke:none;">
<circle cx="61.9900" cy="144.6800" r="0.5000" /> 
</g>
<g style="fill:#FFFFFF; fill-opacity:1.0000; stroke:none;">
<circle cx="64.5300" cy="142.1400" r="0.5000" /> 
</g>
<g style="fill:#FFFFFF; fill-opacity:1.0000; stroke:none;">
<circle cx="61.9900" cy="142.1400" r="0.5000" /> 
</g>
<g style="fill:#FFFFFF; fill-opacity:1.0000; stroke:none;">
<circle cx="64.5300" cy="139.6000" r="0.5000" /> 
</g>
<g style="fill:#FFFFFF; fill-opacity:1.0000; stroke:none;">
<circle cx="61.9900" cy="139.6000" r="0.5000" /> 
</g>
<g style="fill:#FFFFFF; fill-opacity:1.0000; stroke:none;">
<circle cx="64.5300" cy="137.0600" r="0.5000" /> 
</g>
<g style="fill:#FFFFFF; fill-opacity:1.0000; stroke:none;">
<circle cx="61.9900" cy="137.0600" r="0.5000" /> 
</g>
<g style="fill:#FFFFFF; fill-opacity:1.0000; stroke:none;">
<circle cx="150.1250" cy="137.7000" r="0.5000" /> 
</g>
<g style="fill:#FFFFFF; fill-opacity:1.0000; stroke:none;">
<circle cx="147.5850" cy="137.7000" r="0.5000" /> 
</g>
<g style="fill:#FFFFFF; fill-opacity:1.0000; stroke:none;">
<circle cx="65.5320" cy="131.3820" r="1.5999" /> 
</g>
<g style="fill:#FFFFFF; fill-opacity:1.0000; stroke:none;">
<circle cx="62.0000" cy="163.0000" r="0.5000" /> 
</g>
<g style="fill:#FFFFFF; fill-opacity:1.0000; stroke:none;">
<circle cx="64.5400" cy="163.0000" r="0.5000" /> 
</g>
<g style="fill:#FFFFFF; fill-opacity:1.0000; stroke:none;">
<circle cx="67.0800" cy="163.0000" r="0.5000" /> 
</g>
<g style="fill:#FFFFFF; fill-opacity:1.0000; stroke:none;">
<circle cx="69.6200" cy="163.0000" r="0.5000" /> 
</g>
<g style="fill:#FFFFFF; fill-opacity:1.0000; stroke:none;">
<circle cx="72.1600" cy="163.0000" r="0.5000" /> 
</g>
<g style="fill:#FFFFFF; fill-opacity:1.0000; stroke:none;">
<circle cx="74.7000" cy="163.0000" r="0.5000" /> 
</g>
<g style="fill:#FFFFFF; fill-opacity:1.0000; stroke:none;">
<circle cx="77.2400" cy="163.0000" r="0.5000" /> 
</g>
<g style="fill:#FFFFFF; fill-opacity:1.0000; stroke:none;">
<circle cx="79.7800" cy="163.0000" r="0.5000" /> 
</g>
<g style="fill:#FFFFFF; fill-opacity:1.0000; stroke:none;">
<circle cx="82.3200" cy="163.0000" r="0.5000" /> 
</g>
<g style="fill:#FFFFFF; fill-opacity:1.0000; stroke:none;">
<circle cx="84.8600" cy="163.0000" r="0.5000" /> 
</g>
<g style="fill:#FFFFFF; fill-opacity:1.0000; stroke:none;">
<circle cx="87.4000" cy="163.0000" r="0.5000" /> 
</g>
<g style="fill:#FFFFFF; fill-opacity:1.0000; stroke:none;">
<circle cx="89.9400" cy="163.0000" r="0.5000" /> 
</g>
<g style="fill:#FFFFFF; fill-opacity:1.0000; stroke:none;">
<circle cx="92.4800" cy="163.0000" r="0.5000" /> 
</g>
<g style="fill:#FFFFFF; fill-opacity:1.0000; stroke:none;">
<circle cx="95.0200" cy="163.0000" r="0.5000" /> 
</g>
<g style="fill:#FFFFFF; fill-opacity:1.0000; stroke:none;">
<circle cx="97.5600" cy="163.0000" r="0.5000" /> 
</g>
<g style="fill:#FFFFFF; fill-opacity:1.0000; stroke:none;">
<circle cx="100.1000" cy="163.0000" r="0.5000" /> 
</g>
<g style="fill:#FFFFFF; fill-opacity:1.0000; stroke:none;">
<circle cx="102.6400" cy="163.0000" r="0.5000" /> 
</g>
<g style="fill:#FFFFFF; fill-opacity:1.0000; stroke:none;">
<circle cx="105.1800" cy="163.0000" r="0.5000" /> 
</g>
<g style="fill:#FFFFFF; fill-opacity:1.0000; stroke:none;">
<circle cx="107.7200" cy="163.0000" r="0.5000" /> 
</g>
<g style="fill:#FFFFFF; fill-opacity:1.0000; stroke:none;">
<circle cx="110.2600" cy="163.0000" r="0.5000" /> 
</g>
<g style="fill:#FFFFFF; fill-opacity:1.0000; stroke:none;">
<circle cx="112.8000" cy="163.0000" r="0.5000" /> 
</g>
<g style="fill:#FFFFFF; fill-opacity:1.0000; stroke:none;">
<circle cx="115.3400" cy="163.0000" r="0.5000" /> 
</g>
<g style="fill:#FFFFFF; fill-opacity:1.0000; stroke:none;">
<circle cx="117.8800" cy="163.0000" r="0.5000" /> 
</g>
<g style="fill:#FFFFFF; fill-opacity:1.0000; stroke:none;">
<circle cx="120.4200" cy="163.0000" r="0.5000" /> 
</g>
<g style="fill:#FFFFFF; fill-opacity:1.0000; stroke:none;">
<circle cx="122.9600" cy="163.0000" r="0.5000" /> 
</g>
<g style="fill:#FFFFFF; fill-opacity:1.0000; stroke:none;">
<circle cx="125.5000" cy="163.0000" r="0.5000" /> 
</g>
<g style="fill:#FFFFFF; fill-opacity:1.0000; stroke:none;">
<circle cx="128.0400" cy="163.0000" r="0.5000" /> 
</g>
<g style="fill:#FFFFFF; fill-opacity:1.0000; stroke:none;">
<circle cx="130.5800" cy="163.0000" r="0.5000" /> 
</g>
<g style="fill:#FFFFFF; fill-opacity:1.0000; stroke:none;">
<circle cx="133.1200" cy="163.0000" r="0.5000" /> 
</g>
<g style="fill:#FFFFFF; fill-opacity:1.0000; stroke:none;">
<circle cx="135.6600" cy="163.0000" r="0.5000" /> 
</g>
<g style="fill:#FFFFFF; fill-opacity:1.0000; stroke:none;">
<circle cx="138.2000" cy="163.0000" r="0.5000" /> 
</g>
<g style="fill:#FFFFFF; fill-opacity:1.0000; stroke:none;">
<circle cx="140.7400" cy="163.0000" r="0.5000" /> 
</g>
<g style="fill:#FFFFFF; fill-opacity:1.0000; stroke:none;">
<circle cx="143.2800" cy="163.0000" r="0.5000" /> 
</g>
<g style="fill:#FFFFFF; fill-opacity:1.0000; stroke:none;">
<circle cx="145.8200" cy="163.0000" r="0.5000" /> 
</g>
<g style="fill:#FFFFFF; fill-opacity:1.0000; stroke:none;">
<circle cx="148.3600" cy="163.0000" r="0.5000" /> 
</g>
<g style="fill:#FFFFFF; fill-opacity:1.0000; stroke:none;">
<circle cx="150.9000" cy="163.0000" r="0.5000" /> 
</g>
<g style="fill:#FFFFFF; fill-opacity:1.0000; stroke:none;">
<circle cx="153.4400" cy="163.0000" r="0.5000" /> 
</g>
<g style="fill:#FFFFFF; fill-opacity:1.0000; stroke:none;">
<circle cx="155.9800" cy="163.0000" r="0.5000" /> 
</g>
<g style="fill:#FFFFFF; fill-opacity:1.0000; stroke:none;">
<circle cx="158.5200" cy="163.0000" r="0.5000" /> 
</g>
<g style="fill:#FFFFFF; fill-opacity:1.0000; stroke:none;">
<circle cx="156.5500" cy="131.2000" r="0.5999" /> 
</g>
<g style="fill:#FFFFFF; fill-opacity:1.0000; stroke:none;">
<circle cx="156.5500" cy="121.2000" r="0.5999" /> 
</g>
<g style="fill:#FFFFFF; fill-opacity:1.0000; stroke:none;">
<circle cx="154.0500" cy="131.2000" r="0.5999" /> 
</g>
<g style="fill:#FFFFFF; fill-opacity:1.0000; stroke:none;">
<circle cx="154.0500" cy="121.2000" r="0.5999" /> 
</g>
<g style="fill:#FFFFFF; fill-opacity:1.0000; stroke:none;">
<circle cx="149.0500" cy="126.2000" r="0.5999" /> 
</g>
<g style="fill:none; 
stroke:#FFFFFF; stroke-width:0.8000; stroke-opacity:1; 
stroke-linecap:round; stroke-linejoin:round;">
<path d="M149.4000 131.2000
L148.7000 131.2000
" />
</g>
<g style="fill:none; 
stroke:#FFFFFF; stroke-width:0.8000; stroke-opacity:1; 
stroke-linecap:round; stroke-linejoin:round;">
<path d="M149.4000 128.7000
L148.7000 128.7000
" />
</g>
<g style="fill:none; 
stroke:#FFFFFF; stroke-width:0.8000; stroke-opacity:1; 
stroke-linecap:round; stroke-linejoin:round;">
<path d="M154.0500 126.5500
L154.0500 125.8500
" />
</g>
<g style="fill:none; 
stroke:#FFFFFF; stroke-width:0.8000; stroke-opacity:1; 
stroke-linecap:round; stroke-linejoin:round;">
<path d="M149.4000 121.2000
L148.7000 121.2000
" />
</g>
<g style="fill:none; 
stroke:#FFFFFF; stroke-width:0.8000; stroke-opacity:1; 
stroke-linecap:round; stroke-linejoin:round;">
<path d="M149.4000 123.7000
L148.7000 123.7000
" />
</g>
<g style="fill:#FFFFFF; fill-opacity:1.0000; stroke:none;">
<circle cx="114.2600" cy="118.4000" r="0.4000" /> 
</g>
<g style="fill:#FFFFFF; fill-opacity:1.0000; stroke:none;">
<circle cx="116.8000" cy="115.8600" r="0.4000" /> 
</g>
<g style="fill:#FFFFFF; fill-opacity:1.0000; stroke:none;">
<circle cx="119.3400" cy="118.4000" r="0.4000" /> 
</g>
<g style="fill:#FFFFFF; fill-opacity:1.0000; stroke:none;">
<circle cx="140.3274" cy="132.5000" r="0.3000" /> 
</g>
<g style="fill:#FFFFFF; fill-opacity:1.0000; stroke:none;">
<circle cx="142.3274" cy="132.5000" r="0.3000" /> 
</g>
<g style="fill:#FFFFFF; fill-opacity:1.0000; stroke:none;">
<circle cx="89.0100" cy="131.4150" r="0.4000" /> 
</g>
<g style="fill:#FFFFFF; fill-opacity:1.0000; stroke:none;">
<circle cx="89.0100" cy="128.8750" r="0.4000" /> 
</g>
<g style="fill:#FFFFFF; fill-opacity:1.0000; stroke:none;">
<circle cx="89.0100" cy="126.3350" r="0.4000" /> 
</g>
<g style="fill:#FFFFFF; fill-opacity:1.0000; stroke:none;">
<circle cx="89.0100" cy="123.7950" r="0.4000" /> 
</g>
<g style="fill:#FFFFFF; fill-opacity:1.0000; stroke:none;">
<circle cx="89.0100" cy="121.2550" r="0.4000" /> 
</g>
<g style="fill:#FFFFFF; fill-opacity:1.0000; stroke:none;">
<circle cx="89.0100" cy="118.7150" r="0.4000" /> 
</g>
<g style="fill:#FFFFFF; fill-opacity:1.0000; stroke:none;">
<circle cx="89.0100" cy="116.1750" r="0.4000" /> 
</g>
<g style="fill:#FFFFFF; fill-opacity:1.0000; stroke:none;">
<circle cx="81.3900" cy="116.1750" r="0.4000" /> 
</g>
<g style="fill:#FFFFFF; fill-opacity:1.0000; stroke:none;">
<circle cx="81.3900" cy="118.7150" r="0.4000" /> 
</g>
<g style="fill:#FFFFFF; fill-opacity:1.0000; stroke:none;">
<circle cx="81.3900" cy="121.2550" r="0.4000" /> 
</g>
<g style="fill:#FFFFFF; fill-opacity:1.0000; stroke:none;">
<circle cx="81.3900" cy="123.7950" r="0.4000" /> 
</g>
<g style="fill:#FFFFFF; fill-opacity:1.0000; stroke:none;">
<circle cx="81.3900" cy="126.3350" r="0.4000" /> 
</g>
<g style="fill:#FFFFFF; fill-opacity:1.0000; stroke:none;">
<circle cx="81.3900" cy="128.8750" r="0.4000" /> 
</g>
<g style="fill:#FFFFFF; fill-opacity:1.0000; stroke:none;">
<circle cx="81.3900" cy="131.4150" r="0.4000" /> 
</g>
<g style="fill:#FFFFFF; fill-opacity:1.0000; stroke:none;">
<circle cx="136.4900" cy="128.5100" r="0.4000" /> 
</g>
<g style="fill:#FFFFFF; fill-opacity:1.0000; stroke:none;">
<circle cx="139.0300" cy="128.5100" r="0.4000" /> 
</g>
<g style="fill:#FFFFFF; fill-opacity:1.0000; stroke:none;">
<circle cx="141.5700" cy="128.5100" r="0.4000" /> 
</g>
<g style="fill:#FFFFFF; fill-opacity:1.0000; stroke:none;">
<circle cx="144.1100" cy="128.5100" r="0.4000" /> 
</g>
<g style="fill:#FFFFFF; fill-opacity:1.0000; stroke:none;">
<circle cx="144.1100" cy="120.8900" r="0.4000" /> 
</g>
<g style="fill:#FFFFFF; fill-opacity:1.0000; stroke:none;">
<circle cx="141.5700" cy="120.8900" r="0.4000" /> 
</g>
<g style="fill:#FFFFFF; fill-opacity:1.0000; stroke:none;">
<circle cx="139.0300" cy="120.8900" r="0.4000" /> 
</g>
<g style="fill:#FFFFFF; fill-opacity:1.0000; stroke:none;">
<circle cx="136.4900" cy="120.8900" r="0.4000" /> 
</g>
<g style="fill:#FFFFFF; fill-opacity:1.0000; stroke:none;">
<circle cx="116.8600" cy="131.3500" r="0.4000" /> 
</g>
<g style="fill:#FFFFFF; fill-opacity:1.0000; stroke:none;">
<circle cx="109.2400" cy="131.3500" r="0.4000" /> 
</g>
<g style="fill:#FFFFFF; fill-opacity:1.0000; stroke:none;">
<circle cx="145.3000" cy="134.2000" r="0.4000" /> 
</g>
<g style="fill:#FFFFFF; fill-opacity:1.0000; stroke:none;">
<circle cx="152.9200" cy="134.2000" r="0.4000" /> 
</g>
<g style="fill:#FFFFFF; fill-opacity:1.0000; stroke:none;">
<circle cx="126.6500" cy="125.1500" r="0.4000" /> 
</g>
<g style="fill:#FFFFFF; fill-opacity:1.0000; stroke:none;">
<circle cx="119.0300" cy="125.1500" r="0.4000" /> 
</g>
<g style="fill:#FFFFFF; fill-opacity:1.0000; stroke:none;">
<circle cx="137.0000" cy="132.2000" r="0.4000" /> 
</g>
<g style="fill:#FFFFFF; fill-opacity:1.0000; stroke:none;">
<circle cx="129.3800" cy="132.2000" r="0.4000" /> 
</g>
<g style="fill:#FFFFFF; fill-opacity:1.0000; stroke:none;">
<circle cx="140.3274" cy="137.2000" r="0.3000" /> 
</g>
<g style="fill:#FFFFFF; fill-opacity:1.0000; stroke:none;">
<circle cx="142.3274" cy="137.2000" r="0.3000" /> 
</g>
<g style="fill:#FFFFFF; fill-opacity:1.0000; stroke:none;">
<circle cx="75.7500" cy="130.5000" r="0.4000" /> 
</g>
<g style="fill:#FFFFFF; fill-opacity:1.0000; stroke:none;">
<circle cx="78.2500" cy="130.5000" r="0.4000" /> 
</g>
<g style="fill:#FFFFFF; fill-opacity:1.0000; stroke:none;">
<circle cx="150.4900" cy="117.5500" r="0.4000" /> 
</g>
<g style="fill:#FFFFFF; fill-opacity:1.0000; stroke:none;">
<circle cx="158.1100" cy="117.5500" r="0.4000" /> 
</g>
<g style="fill:#FFFFFF; fill-opacity:1.0000; stroke:none;">
<circle cx="126.6600" cy="131.3500" r="0.4000" /> 
</g>
<g style="fill:#FFFFFF; fill-opacity:1.0000; stroke:none;">
<circle cx="119.0400" cy="131.3500" r="0.4000" /> 
</g>
<g style="fill:#FFFFFF; fill-opacity:1.0000; stroke:none;">
<circle cx="89.3000" cy="134.8000" r="0.4000" /> 
</g>
<g style="fill:#FFFFFF; fill-opacity:1.0000; stroke:none;">
<circle cx="86.8000" cy="134.8000" r="0.4000" /> 
</g>
<g style="fill:#FFFFFF; fill-opacity:1.0000; stroke:none;">
<circle cx="131.1000" cy="122.6000" r="0.3000" /> 
</g>
<g style="fill:#FFFFFF; fill-opacity:1.0000; stroke:none;">
<circle cx="133.1000" cy="122.6000" r="0.3000" /> 
</g>
<g style="fill:#FFFFFF; fill-opacity:1.0000; stroke:none;">
<circle cx="78.0000" cy="134.5000" r="0.4000" /> 
</g>
<g style="fill:#FFFFFF; fill-opacity:1.0000; stroke:none;">
<circle cx="70.3800" cy="134.5000" r="0.4000" /> 
</g>
<g style="fill:#FFFFFF; fill-opacity:1.0000; stroke:none;">
<circle cx="126.6500" cy="122.0500" r="0.4000" /> 
</g>
<g style="fill:#FFFFFF; fill-opacity:1.0000; stroke:none;">
<circle cx="119.0300" cy="122.0500" r="0.4000" /> 
</g>
<g style="fill:#FFFFFF; fill-opacity:1.0000; stroke:none;">
<circle cx="156.1000" cy="136.9600" r="0.5000" /> 
</g>
<g style="fill:#FFFFFF; fill-opacity:1.0000; stroke:none;">
<circle cx="158.6400" cy="136.9600" r="0.5000" /> 
</g>
<g style="fill:#FFFFFF; fill-opacity:1.0000; stroke:none;">
<circle cx="156.1000" cy="139.5000" r="0.5000" /> 
</g>
<g style="fill:#FFFFFF; fill-opacity:1.0000; stroke:none;">
<circle cx="158.6400" cy="139.5000" r="0.5000" /> 
</g>
<g style="fill:#FFFFFF; fill-opacity:1.0000; stroke:none;">
<circle cx="156.1000" cy="142.0400" r="0.5000" /> 
</g>
<g style="fill:#FFFFFF; fill-opacity:1.0000; stroke:none;">
<circle cx="158.6400" cy="142.0400" r="0.5000" /> 
</g>
<g style="fill:#FFFFFF; fill-opacity:1.0000; stroke:none;">
<circle cx="156.1000" cy="144.5800" r="0.5000" /> 
</g>
<g style="fill:#FFFFFF; fill-opacity:1.0000; stroke:none;">
<circle cx="158.6400" cy="144.5800" r="0.5000" /> 
</g>
<g style="fill:#FFFFFF; fill-opacity:1.0000; stroke:none;">
<circle cx="156.1000" cy="147.1200" r="0.5000" /> 
</g>
<g style="fill:#FFFFFF; fill-opacity:1.0000; stroke:none;">
<circle cx="158.6400" cy="147.1200" r="0.5000" /> 
</g>
<g style="fill:#FFFFFF; fill-opacity:1.0000; stroke:none;">
<circle cx="156.1000" cy="149.6600" r="0.5000" /> 
</g>
<g style="fill:#FFFFFF; fill-opacity:1.0000; stroke:none;">
<circle cx="158.6400" cy="149.6600" r="0.5000" /> 
</g>
<g style="fill:#FFFFFF; fill-opacity:1.0000; stroke:none;">
<circle cx="156.1000" cy="152.2000" r="0.5000" /> 
</g>
<g style="fill:#FFFFFF; fill-opacity:1.0000; stroke:none;">
<circle cx="158.6400" cy="152.2000" r="0.5000" /> 
</g>
<g style="fill:#FFFFFF; fill-opacity:1.0000; stroke:none;">
<circle cx="156.1000" cy="154.7400" r="0.5000" /> 
</g>
<g style="fill:#FFFFFF; fill-opacity:1.0000; stroke:none;">
<circle cx="158.6400" cy="154.7400" r="0.5000" /> 
</g>
<g style="fill:#FFFFFF; fill-opacity:1.0000; stroke:none;">
<circle cx="156.1000" cy="157.2800" r="0.5000" /> 
</g>
<g style="fill:#FFFFFF; fill-opacity:1.0000; stroke:none;">
<circle cx="158.6400" cy="157.2800" r="0.5000" /> 
</g>
<g style="fill:#FFFFFF; fill-opacity:1.0000; stroke:none;">
<circle cx="100.0100" cy="131.4150" r="0.4000" /> 
</g>
<g style="fill:#FFFFFF; fill-opacity:1.0000; stroke:none;">
<circle cx="100.0100" cy="128.8750" r="0.4000" /> 
</g>
<g style="fill:#FFFFFF; fill-opacity:1.0000; stroke:none;">
<circle cx="100.0100" cy="126.3350" r="0.4000" /> 
</g>
<g style="fill:#FFFFFF; fill-opacity:1.0000; stroke:none;">
<circle cx="100.0100" cy="123.7950" r="0.4000" /> 
</g>
<g style="fill:#FFFFFF; fill-opacity:1.0000; stroke:none;">
<circle cx="100.0100" cy="121.2550" r="0.4000" /> 
</g>
<g style="fill:#FFFFFF; fill-opacity:1.0000; stroke:none;">
<circle cx="100.0100" cy="118.7150" r="0.4000" /> 
</g>
<g style="fill:#FFFFFF; fill-opacity:1.0000; stroke:none;">
<circle cx="100.0100" cy="116.1750" r="0.4000" /> 
</g>
<g style="fill:#FFFFFF; fill-opacity:1.0000; stroke:none;">
<circle cx="92.3900" cy="116.1750" r="0.4000" /> 
</g>
<g style="fill:#FFFFFF; fill-opacity:1.0000; stroke:none;">
<circle cx="92.3900" cy="118.7150" r="0.4000" /> 
</g>
<g style="fill:#FFFFFF; fill-opacity:1.0000; stroke:none;">
<circle cx="92.3900" cy="121.2550" r="0.4000" /> 
</g>
<g style="fill:#FFFFFF; fill-opacity:1.0000; stroke:none;">
<circle cx="92.3900" cy="123.7950" r="0.4000" /> 
</g>
<g style="fill:#FFFFFF; fill-opacity:1.0000; stroke:none;">
<circle cx="92.3900" cy="126.3350" r="0.4000" /> 
</g>
<g style="fill:#FFFFFF; fill-opacity:1.0000; stroke:none;">
<circle cx="92.3900" cy="128.8750" r="0.4000" /> 
</g>
<g style="fill:#FFFFFF; fill-opacity:1.0000; stroke:none;">
<circle cx="92.3900" cy="131.4150" r="0.4000" /> 
</g>
<g style="fill:#FFFFFF; fill-opacity:1.0000; stroke:none;">
<circle cx="81.0000" cy="134.8000" r="0.4000" /> 
</g>
<g style="fill:#FFFFFF; fill-opacity:1.0000; stroke:none;">
<circle cx="83.5000" cy="134.8000" r="0.4000" /> 
</g>
<g style="fill:#FFFFFF; fill-opacity:1.0000; stroke:none;">
<circle cx="77.9400" cy="120.4000" r="0.5000" /> 
</g>
<g style="fill:#FFFFFF; fill-opacity:1.0000; stroke:none;">
<circle cx="75.4000" cy="120.4000" r="0.5000" /> 
</g>
<g style="fill:#FFFFFF; fill-opacity:1.0000; stroke:none;">
<circle cx="72.8600" cy="120.4000" r="0.5000" /> 
</g>
<g style="fill:#FFFFFF; fill-opacity:1.0000; stroke:none;">
<circle cx="129.5000" cy="127.9000" r="0.3000" /> 
</g>
<g style="fill:#FFFFFF; fill-opacity:1.0000; stroke:none;">
<circle cx="131.5000" cy="127.9000" r="0.3000" /> 
</g>
<g style="fill:#FFFFFF; fill-opacity:1.0000; stroke:none;">
<circle cx="116.8700" cy="137.5500" r="0.4000" /> 
</g>
<g style="fill:#FFFFFF; fill-opacity:1.0000; stroke:none;">
<circle cx="109.2500" cy="137.5500" r="0.4000" /> 
</g>
<g style="fill:#FFFFFF; fill-opacity:1.0000; stroke:none;">
<circle cx="116.8600" cy="134.4500" r="0.4000" /> 
</g>
<g style="fill:#FFFFFF; fill-opacity:1.0000; stroke:none;">
<circle cx="109.2400" cy="134.4500" r="0.4000" /> 
</g>
<g style="fill:#FFFFFF; fill-opacity:1.0000; stroke:none;">
<circle cx="103.6000" cy="121.6800" r="0.5000" /> 
</g>
<g style="fill:#FFFFFF; fill-opacity:1.0000; stroke:none;">
<circle cx="106.1400" cy="121.6800" r="0.5000" /> 
</g>
<g style="fill:#FFFFFF; fill-opacity:1.0000; stroke:none;">
<circle cx="103.6000" cy="124.2200" r="0.5000" /> 
</g>
<g style="fill:#FFFFFF; fill-opacity:1.0000; stroke:none;">
<circle cx="106.1400" cy="124.2200" r="0.5000" /> 
</g>
<g style="fill:#FFFFFF; fill-opacity:1.0000; stroke:none;">
<circle cx="103.6000" cy="126.7600" r="0.5000" /> 
</g>
<g style="fill:#FFFFFF; fill-opacity:1.0000; stroke:none;">
<circle cx="106.1400" cy="126.7600" r="0.5000" /> 
</g>
<g style="fill:#FFFFFF; fill-opacity:1.0000; stroke:none;">
<circle cx="103.6000" cy="129.3000" r="0.5000" /> 
</g>
<g style="fill:#FFFFFF; fill-opacity:1.0000; stroke:none;">
<circle cx="106.1400" cy="129.3000" r="0.5000" /> 
</g>
<g style="fill:#FFFFFF; fill-opacity:1.0000; stroke:none;">
<circle cx="103.6000" cy="131.8400" r="0.5000" /> 
</g>
<g style="fill:#FFFFFF; fill-opacity:1.0000; stroke:none;">
<circle cx="106.1400" cy="131.8400" r="0.5000" /> 
</g>
<g style="fill:#FFFFFF; fill-opacity:1.0000; stroke:none;">
<circle cx="103.6000" cy="134.3800" r="0.5000" /> 
</g>
<g style="fill:#FFFFFF; fill-opacity:1.0000; stroke:none;">
<circle cx="106.1400" cy="134.3800" r="0.5000" /> 
</g>
<g style="fill:#FFFFFF; fill-opacity:1.0000; stroke:none;">
<circle cx="103.6000" cy="136.9200" r="0.5000" /> 
</g>
<g style="fill:#FFFFFF; fill-opacity:1.0000; stroke:none;">
<circle cx="106.1400" cy="136.9200" r="0.5000" /> 
</g>
<g style="fill:#FFFFFF; fill-opacity:1.0000; stroke:none;">
<circle cx="143.7100" cy="117.5500" r="0.4000" /> 
</g>
<g style="fill:#FFFFFF; fill-opacity:1.0000; stroke:none;">
<circle cx="136.0900" cy="117.5500" r="0.4000" /> 
</g>
<g style="fill:#FFFFFF; fill-opacity:1.0000; stroke:none;">
<circle cx="124.3000" cy="118.4000" r="0.4000" /> 
</g>
<g style="fill:#FFFFFF; fill-opacity:1.0000; stroke:none;">
<circle cx="126.8400" cy="115.8600" r="0.4000" /> 
</g>
<g style="fill:#FFFFFF; fill-opacity:1.0000; stroke:none;">
<circle cx="129.3800" cy="118.4000" r="0.4000" /> 
</g>
<g style="fill:#FFFFFF; fill-opacity:1.0000; stroke:none;">
<circle cx="146.0774" cy="117.3000" r="0.3000" /> 
</g>
<g style="fill:#FFFFFF; fill-opacity:1.0000; stroke:none;">
<circle cx="148.0774" cy="117.3000" r="0.3000" /> 
</g>
<g style="fill:#FFFFFF; fill-opacity:1.0000; stroke:none;">
<circle cx="116.8600" cy="122.0500" r="0.4000" /> 
</g>
<g style="fill:#FFFFFF; fill-opacity:1.0000; stroke:none;">
<circle cx="109.2400" cy="122.0500" r="0.4000" /> 
</g>
<g style="fill:#FFFFFF; fill-opacity:1.0000; stroke:none;">
<circle cx="137.0100" cy="138.2000" r="0.4000" /> 
</g>
<g style="fill:#FFFFFF; fill-opacity:1.0000; stroke:none;">
<circle cx="129.3900" cy="138.2000" r="0.4000" /> 
</g>
<g style="fill:#FFFFFF; fill-opacity:1.0000; stroke:none;">
<circle cx="126.6700" cy="137.5500" r="0.4000" /> 
</g>
<g style="fill:#FFFFFF; fill-opacity:1.0000; stroke:none;">
<circle cx="119.0500" cy="137.5500" r="0.4000" /> 
</g>
<g style="fill:#FFFFFF; fill-opacity:1.0000; stroke:none;">
<circle cx="126.6600" cy="134.4500" r="0.4000" /> 
</g>
<g style="fill:#FFFFFF; fill-opacity:1.0000; stroke:none;">
<circle cx="119.0400" cy="134.4500" r="0.4000" /> 
</g>
<g style="fill:#FFFFFF; fill-opacity:1.0000; stroke:none;">
<circle cx="126.6600" cy="128.2500" r="0.4000" /> 
</g>
<g style="fill:#FFFFFF; fill-opacity:1.0000; stroke:none;">
<circle cx="119.0400" cy="128.2500" r="0.4000" /> 
</g>
<g style="fill:#FFFFFF; fill-opacity:1.0000; stroke:none;">
<circle cx="116.8600" cy="125.1500" r="0.4000" /> 
</g>
<g style="fill:#FFFFFF; fill-opacity:1.0000; stroke:none;">
<circle cx="109.2400" cy="125.1500" r="0.4000" /> 
</g>
<g style="fill:#FFFFFF; fill-opacity:1.0000; stroke:none;">
<circle cx="75.7400" cy="125.4000" r="0.4000" /> 
</g>
<g style="fill:#FFFFFF; fill-opacity:1.0000; stroke:none;">
<circle cx="70.8600" cy="125.4000" r="0.4000" /> 
</g>
<g style="fill:#FFFFFF; fill-opacity:1.0000; stroke:none;">
<circle cx="116.8600" cy="128.2500" r="0.4000" /> 
</g>
<g style="fill:#FFFFFF; fill-opacity:1.0000; stroke:none;">
<circle cx="109.2400" cy="128.2500" r="0.4000" /> 
</g>
<g style="fill:#FFFFFF; fill-opacity:1.0000; stroke:none;">
<circle cx="70.2500" cy="130.5000" r="0.4000" /> 
</g>
<g style="fill:#FFFFFF; fill-opacity:1.0000; stroke:none;">
<circle cx="72.7500" cy="130.5000" r="0.4000" /> 
</g>
<g style="fill:#FFFFFF; fill-opacity:1.0000; stroke:none;">
<circle cx="133.4500" cy="115.7000" r="0.4000" /> 
</g>
<g style="fill:#FFFFFF; fill-opacity:1.0000; stroke:none;">
<circle cx="133.4500" cy="118.2000" r="0.4000" /> 
</g>
<g style="fill:#FFFFFF; fill-opacity:1.0000; stroke:none;">
<circle cx="137.0100" cy="135.2000" r="0.4000" /> 
</g>
<g style="fill:#FFFFFF; fill-opacity:1.0000; stroke:none;">
<circle cx="129.3900" cy="135.2000" r="0.4000" /> 
</g>
<g style="fill:#FFFFFF; fill-opacity:1.0000; stroke:none;">
<circle cx="104.2200" cy="118.4000" r="0.4000" /> 
</g>
<g style="fill:#FFFFFF; fill-opacity:1.0000; stroke:none;">
<circle cx="106.7600" cy="115.8600" r="0.4000" /> 
</g>
<g style="fill:#FFFFFF; fill-opacity:1.0000; stroke:none;">
<circle cx="109.3000" cy="118.4000" r="0.4000" /> 
</g> 
</svg>
